<?xml version="1.0" standalone="no" ?>
<!DOCTYPE svg PUBLIC "-//W3C//DTD SVG 1.1//EN" "http://www.w3.org/Graphics/SVG/1.1/DTD/svg11.dtd">
<svg width="100px" height="100px" xmlns="http://www.w3.org/2000/svg" version="1.1" >
	<line x1="0" y1="100" x2="5.55556" y2="100" stroke-width="1" stroke="rgb(0,0,0)" />
	<line x1="0" y1="94.4444" x2="0" y2="100" stroke-width="1" stroke="rgb(0,0,0)" />
	<line x1="0" y1="94.4444" x2="5.55556" y2="94.4444" stroke-width="1" stroke="rgb(0,0,0)" />
	<line x1="0" y1="88.8889" x2="0" y2="94.4444" stroke-width="1" stroke="rgb(0,0,0)" />
	<line x1="0" y1="88.8889" x2="5.55556" y2="88.8889" stroke-width="1" stroke="rgb(0,0,0)" />
	<line x1="0" y1="83.3333" x2="0" y2="88.8889" stroke-width="1" stroke="rgb(0,0,0)" />
	<line x1="0" y1="83.3333" x2="5.55556" y2="83.3333" stroke-width="1" stroke="rgb(0,0,0)" />
	<line x1="0" y1="77.7778" x2="0" y2="83.3333" stroke-width="1" stroke="rgb(0,0,0)" />
	<line x1="0" y1="77.7778" x2="5.55556" y2="77.7778" stroke-width="1" stroke="rgb(0,0,0)" />
	<line x1="0" y1="72.2222" x2="0" y2="77.7778" stroke-width="1" stroke="rgb(0,0,0)" />
	<line x1="0" y1="72.2222" x2="5.55556" y2="72.2222" stroke-width="1" stroke="rgb(0,0,0)" />
	<line x1="0" y1="66.6667" x2="0" y2="72.2222" stroke-width="1" stroke="rgb(0,0,0)" />
	<line x1="0" y1="66.6667" x2="5.55556" y2="72.2222" stroke-width="1" stroke="rgb(0,0,0)" />
	<line x1="0" y1="61.1111" x2="0" y2="66.6667" stroke-width="1" stroke="rgb(0,0,0)" />
	<line x1="0" y1="55.5556" x2="0" y2="61.1111" stroke-width="1" stroke="rgb(0,0,0)" />
	<line x1="0" y1="50" x2="0" y2="55.5556" stroke-width="1" stroke="rgb(0,0,0)" />
	<line x1="0" y1="44.4444" x2="0" y2="50" stroke-width="1" stroke="rgb(0,0,0)" />
	<line x1="0" y1="38.8889" x2="0" y2="44.4444" stroke-width="1" stroke="rgb(0,0,0)" />
	<line x1="0" y1="38.8889" x2="5.55556" y2="33.3333" stroke-width="1" stroke="rgb(0,0,0)" />
	<line x1="0" y1="33.3333" x2="0" y2="38.8889" stroke-width="1" stroke="rgb(0,0,0)" />
	<line x1="0" y1="33.3333" x2="5.55556" y2="33.3333" stroke-width="1" stroke="rgb(0,0,0)" />
	<line x1="0" y1="27.7778" x2="0" y2="33.3333" stroke-width="1" stroke="rgb(0,0,0)" />
	<line x1="0" y1="27.7778" x2="5.55556" y2="27.7778" stroke-width="1" stroke="rgb(0,0,0)" />
	<line x1="0" y1="22.2222" x2="0" y2="27.7778" stroke-width="1" stroke="rgb(0,0,0)" />
	<line x1="0" y1="22.2222" x2="5.55556" y2="22.2222" stroke-width="1" stroke="rgb(0,0,0)" />
	<line x1="0" y1="16.6667" x2="0" y2="22.2222" stroke-width="1" stroke="rgb(0,0,0)" />
	<line x1="0" y1="16.6667" x2="5.55556" y2="16.6667" stroke-width="1" stroke="rgb(0,0,0)" />
	<line x1="0" y1="11.1111" x2="0" y2="16.6667" stroke-width="1" stroke="rgb(0,0,0)" />
	<line x1="0" y1="11.1111" x2="5.55556" y2="11.1111" stroke-width="1" stroke="rgb(0,0,0)" />
	<line x1="0" y1="5.55556" x2="0" y2="11.1111" stroke-width="1" stroke="rgb(0,0,0)" />
	<line x1="0" y1="5.55556" x2="5.55556" y2="5.55556" stroke-width="1" stroke="rgb(0,0,0)" />
	<line x1="5.55556" y1="100" x2="11.1111" y2="100" stroke-width="1" stroke="rgb(0,0,0)" />
	<line x1="5.55556" y1="94.4444" x2="5.55556" y2="100" stroke-width="1" stroke="rgb(0,0,0)" />
	<line x1="5.55556" y1="94.4444" x2="11.1111" y2="94.4444" stroke-width="1" stroke="rgb(0,0,0)" />
	<line x1="5.55556" y1="88.8889" x2="5.55556" y2="94.4444" stroke-width="1" stroke="rgb(0,0,0)" />
	<line x1="5.55556" y1="88.8889" x2="11.1111" y2="88.8889" stroke-width="1" stroke="rgb(0,0,0)" />
	<line x1="5.55556" y1="83.3333" x2="5.55556" y2="88.8889" stroke-width="1" stroke="rgb(0,0,0)" />
	<line x1="5.55556" y1="83.3333" x2="11.1111" y2="83.3333" stroke-width="1" stroke="rgb(0,0,0)" />
	<line x1="5.55556" y1="77.7778" x2="5.55556" y2="83.3333" stroke-width="1" stroke="rgb(0,0,0)" />
	<line x1="5.55556" y1="77.7778" x2="11.1111" y2="83.3333" stroke-width="1" stroke="rgb(0,0,0)" />
	<line x1="5.55556" y1="72.2222" x2="5.55556" y2="77.7778" stroke-width="1" stroke="rgb(0,0,0)" />
	<line x1="5.55556" y1="66.6667" x2="11.1111" y2="72.2222" stroke-width="1" stroke="rgb(0,0,0)" />
	<line x1="5.55556" y1="61.1111" x2="5.55556" y2="66.6667" stroke-width="1" stroke="rgb(0,0,0)" />
	<line x1="5.55556" y1="55.5556" x2="5.55556" y2="61.1111" stroke-width="1" stroke="rgb(0,0,0)" />
	<line x1="5.55556" y1="50" x2="5.55556" y2="55.5556" stroke-width="1" stroke="rgb(0,0,0)" />
	<line x1="5.55556" y1="44.4444" x2="5.55556" y2="50" stroke-width="1" stroke="rgb(0,0,0)" />
	<line x1="5.55556" y1="38.8889" x2="5.55556" y2="44.4444" stroke-width="1" stroke="rgb(0,0,0)" />
	<line x1="5.55556" y1="38.8889" x2="11.1111" y2="33.3333" stroke-width="1" stroke="rgb(0,0,0)" />
	<line x1="5.55556" y1="27.7778" x2="5.55556" y2="33.3333" stroke-width="1" stroke="rgb(0,0,0)" />
	<line x1="5.55556" y1="27.7778" x2="11.1111" y2="22.2222" stroke-width="1" stroke="rgb(0,0,0)" />
	<line x1="5.55556" y1="22.2222" x2="5.55556" y2="27.7778" stroke-width="1" stroke="rgb(0,0,0)" />
	<line x1="5.55556" y1="22.2222" x2="11.1111" y2="22.2222" stroke-width="1" stroke="rgb(0,0,0)" />
	<line x1="5.55556" y1="16.6667" x2="5.55556" y2="22.2222" stroke-width="1" stroke="rgb(0,0,0)" />
	<line x1="5.55556" y1="16.6667" x2="11.1111" y2="16.6667" stroke-width="1" stroke="rgb(0,0,0)" />
	<line x1="5.55556" y1="11.1111" x2="5.55556" y2="16.6667" stroke-width="1" stroke="rgb(0,0,0)" />
	<line x1="5.55556" y1="11.1111" x2="11.1111" y2="11.1111" stroke-width="1" stroke="rgb(0,0,0)" />
	<line x1="5.55556" y1="5.55556" x2="5.55556" y2="11.1111" stroke-width="1" stroke="rgb(0,0,0)" />
	<line x1="5.55556" y1="5.55556" x2="11.1111" y2="5.55556" stroke-width="1" stroke="rgb(0,0,0)" />
	<line x1="11.1111" y1="100" x2="16.6667" y2="100" stroke-width="1" stroke="rgb(0,0,0)" />
	<line x1="11.1111" y1="94.4444" x2="11.1111" y2="100" stroke-width="1" stroke="rgb(0,0,0)" />
	<line x1="11.1111" y1="94.4444" x2="16.6667" y2="94.4444" stroke-width="1" stroke="rgb(0,0,0)" />
	<line x1="11.1111" y1="88.8889" x2="11.1111" y2="94.4444" stroke-width="1" stroke="rgb(0,0,0)" />
	<line x1="11.1111" y1="88.8889" x2="16.6667" y2="88.8889" stroke-width="1" stroke="rgb(0,0,0)" />
	<line x1="11.1111" y1="83.3333" x2="11.1111" y2="88.8889" stroke-width="1" stroke="rgb(0,0,0)" />
	<line x1="11.1111" y1="83.3333" x2="16.6667" y2="88.8889" stroke-width="1" stroke="rgb(0,0,0)" />
	<line x1="11.1111" y1="77.7778" x2="16.6667" y2="83.3333" stroke-width="1" stroke="rgb(0,0,0)" />
	<line x1="11.1111" y1="72.2222" x2="11.1111" y2="77.7778" stroke-width="1" stroke="rgb(0,0,0)" />
	<line x1="11.1111" y1="66.6667" x2="16.6667" y2="72.2222" stroke-width="1" stroke="rgb(0,0,0)" />
	<line x1="11.1111" y1="61.1111" x2="11.1111" y2="66.6667" stroke-width="1" stroke="rgb(0,0,0)" />
	<line x1="11.1111" y1="55.5556" x2="11.1111" y2="61.1111" stroke-width="1" stroke="rgb(0,0,0)" />
	<line x1="11.1111" y1="50" x2="11.1111" y2="55.5556" stroke-width="1" stroke="rgb(0,0,0)" />
	<line x1="11.1111" y1="44.4444" x2="11.1111" y2="50" stroke-width="1" stroke="rgb(0,0,0)" />
	<line x1="11.1111" y1="38.8889" x2="11.1111" y2="44.4444" stroke-width="1" stroke="rgb(0,0,0)" />
	<line x1="11.1111" y1="38.8889" x2="16.6667" y2="33.3333" stroke-width="1" stroke="rgb(0,0,0)" />
	<line x1="11.1111" y1="27.7778" x2="11.1111" y2="33.3333" stroke-width="1" stroke="rgb(0,0,0)" />
	<line x1="11.1111" y1="27.7778" x2="16.6667" y2="22.2222" stroke-width="1" stroke="rgb(0,0,0)" />
	<line x1="11.1111" y1="22.2222" x2="16.6667" y2="16.6667" stroke-width="1" stroke="rgb(0,0,0)" />
	<line x1="11.1111" y1="16.6667" x2="11.1111" y2="22.2222" stroke-width="1" stroke="rgb(0,0,0)" />
	<line x1="11.1111" y1="16.6667" x2="16.6667" y2="16.6667" stroke-width="1" stroke="rgb(0,0,0)" />
	<line x1="11.1111" y1="11.1111" x2="11.1111" y2="16.6667" stroke-width="1" stroke="rgb(0,0,0)" />
	<line x1="11.1111" y1="11.1111" x2="16.6667" y2="11.1111" stroke-width="1" stroke="rgb(0,0,0)" />
	<line x1="11.1111" y1="5.55556" x2="11.1111" y2="11.1111" stroke-width="1" stroke="rgb(0,0,0)" />
	<line x1="11.1111" y1="5.55556" x2="16.6667" y2="5.55556" stroke-width="1" stroke="rgb(0,0,0)" />
	<line x1="16.6667" y1="100" x2="22.2222" y2="100" stroke-width="1" stroke="rgb(0,0,0)" />
	<line x1="16.6667" y1="94.4444" x2="16.6667" y2="100" stroke-width="1" stroke="rgb(0,0,0)" />
	<line x1="16.6667" y1="94.4444" x2="22.2222" y2="94.4444" stroke-width="1" stroke="rgb(0,0,0)" />
	<line x1="16.6667" y1="88.8889" x2="16.6667" y2="94.4444" stroke-width="1" stroke="rgb(0,0,0)" />
	<line x1="16.6667" y1="88.8889" x2="22.2222" y2="94.4444" stroke-width="1" stroke="rgb(0,0,0)" />
	<line x1="16.6667" y1="83.3333" x2="22.2222" y2="88.8889" stroke-width="1" stroke="rgb(0,0,0)" />
	<line x1="16.6667" y1="77.7778" x2="22.2222" y2="83.3333" stroke-width="1" stroke="rgb(0,0,0)" />
	<line x1="16.6667" y1="77.7778" x2="22.2222" y2="77.7778" stroke-width="1" stroke="rgb(0,0,0)" />
	<line x1="16.6667" y1="72.2222" x2="16.6667" y2="77.7778" stroke-width="1" stroke="rgb(0,0,0)" />
	<line x1="16.6667" y1="72.2222" x2="22.2222" y2="77.7778" stroke-width="1" stroke="rgb(0,0,0)" />
	<line x1="16.6667" y1="66.6667" x2="22.2222" y2="72.2222" stroke-width="1" stroke="rgb(0,0,0)" />
	<line x1="16.6667" y1="61.1111" x2="22.2222" y2="66.6667" stroke-width="1" stroke="rgb(0,0,0)" />
	<line x1="16.6667" y1="50" x2="16.6667" y2="55.5556" stroke-width="1" stroke="rgb(0,0,0)" />
	<line x1="16.6667" y1="44.4444" x2="16.6667" y2="50" stroke-width="1" stroke="rgb(0,0,0)" />
	<line x1="16.6667" y1="38.8889" x2="16.6667" y2="44.4444" stroke-width="1" stroke="rgb(0,0,0)" />
	<line x1="16.6667" y1="27.7778" x2="16.6667" y2="33.3333" stroke-width="1" stroke="rgb(0,0,0)" />
	<line x1="16.6667" y1="27.7778" x2="22.2222" y2="22.2222" stroke-width="1" stroke="rgb(0,0,0)" />
	<line x1="16.6667" y1="22.2222" x2="22.2222" y2="16.6667" stroke-width="1" stroke="rgb(0,0,0)" />
	<line x1="16.6667" y1="16.6667" x2="22.2222" y2="11.1111" stroke-width="1" stroke="rgb(0,0,0)" />
	<line x1="16.6667" y1="11.1111" x2="16.6667" y2="16.6667" stroke-width="1" stroke="rgb(0,0,0)" />
	<line x1="16.6667" y1="11.1111" x2="22.2222" y2="11.1111" stroke-width="1" stroke="rgb(0,0,0)" />
	<line x1="16.6667" y1="5.55556" x2="16.6667" y2="11.1111" stroke-width="1" stroke="rgb(0,0,0)" />
	<line x1="16.6667" y1="5.55556" x2="22.2222" y2="5.55556" stroke-width="1" stroke="rgb(0,0,0)" />
	<line x1="22.2222" y1="100" x2="27.7778" y2="100" stroke-width="1" stroke="rgb(0,0,0)" />
	<line x1="22.2222" y1="94.4444" x2="22.2222" y2="100" stroke-width="1" stroke="rgb(0,0,0)" />
	<line x1="22.2222" y1="94.4444" x2="27.7778" y2="94.4444" stroke-width="1" stroke="rgb(0,0,0)" />
	<line x1="22.2222" y1="88.8889" x2="27.7778" y2="88.8889" stroke-width="1" stroke="rgb(0,0,0)" />
	<line x1="22.2222" y1="83.3333" x2="27.7778" y2="83.3333" stroke-width="1" stroke="rgb(0,0,0)" />
	<line x1="22.2222" y1="77.7778" x2="22.2222" y2="83.3333" stroke-width="1" stroke="rgb(0,0,0)" />
	<line x1="22.2222" y1="77.7778" x2="27.7778" y2="77.7778" stroke-width="1" stroke="rgb(0,0,0)" />
	<line x1="22.2222" y1="72.2222" x2="27.7778" y2="72.2222" stroke-width="1" stroke="rgb(0,0,0)" />
	<line x1="22.2222" y1="66.6667" x2="27.7778" y2="61.1111" stroke-width="1" stroke="rgb(0,0,0)" />
	<line x1="22.2222" y1="61.1111" x2="27.7778" y2="55.5556" stroke-width="1" stroke="rgb(0,0,0)" />
	<line x1="22.2222" y1="55.5556" x2="22.2222" y2="61.1111" stroke-width="1" stroke="rgb(0,0,0)" />
	<line x1="22.2222" y1="55.5556" x2="27.7778" y2="55.5556" stroke-width="1" stroke="rgb(0,0,0)" />
	<line x1="22.2222" y1="50" x2="22.2222" y2="55.5556" stroke-width="1" stroke="rgb(0,0,0)" />
	<line x1="22.2222" y1="50" x2="27.7778" y2="50" stroke-width="1" stroke="rgb(0,0,0)" />
	<line x1="22.2222" y1="50" x2="27.7778" y2="44.4444" stroke-width="1" stroke="rgb(0,0,0)" />
	<line x1="22.2222" y1="38.8889" x2="22.2222" y2="44.4444" stroke-width="1" stroke="rgb(0,0,0)" />
	<line x1="22.2222" y1="33.3333" x2="22.2222" y2="38.8889" stroke-width="1" stroke="rgb(0,0,0)" />
	<line x1="22.2222" y1="27.7778" x2="27.7778" y2="27.7778" stroke-width="1" stroke="rgb(0,0,0)" />
	<line x1="22.2222" y1="22.2222" x2="27.7778" y2="22.2222" stroke-width="1" stroke="rgb(0,0,0)" />
	<line x1="22.2222" y1="16.6667" x2="27.7778" y2="16.6667" stroke-width="1" stroke="rgb(0,0,0)" />
	<line x1="22.2222" y1="11.1111" x2="27.7778" y2="11.1111" stroke-width="1" stroke="rgb(0,0,0)" />
	<line x1="22.2222" y1="5.55556" x2="22.2222" y2="11.1111" stroke-width="1" stroke="rgb(0,0,0)" />
	<line x1="22.2222" y1="5.55556" x2="27.7778" y2="5.55556" stroke-width="1" stroke="rgb(0,0,0)" />
	<line x1="27.7778" y1="100" x2="33.3333" y2="100" stroke-width="1" stroke="rgb(0,0,0)" />
	<line x1="27.7778" y1="94.4444" x2="27.7778" y2="100" stroke-width="1" stroke="rgb(0,0,0)" />
	<line x1="27.7778" y1="94.4444" x2="33.3333" y2="100" stroke-width="1" stroke="rgb(0,0,0)" />
	<line x1="27.7778" y1="88.8889" x2="33.3333" y2="94.4444" stroke-width="1" stroke="rgb(0,0,0)" />
	<line x1="27.7778" y1="83.3333" x2="33.3333" y2="88.8889" stroke-width="1" stroke="rgb(0,0,0)" />
	<line x1="27.7778" y1="77.7778" x2="27.7778" y2="83.3333" stroke-width="1" stroke="rgb(0,0,0)" />
	<line x1="27.7778" y1="72.2222" x2="33.3333" y2="77.7778" stroke-width="1" stroke="rgb(0,0,0)" />
	<line x1="27.7778" y1="66.6667" x2="33.3333" y2="72.2222" stroke-width="1" stroke="rgb(0,0,0)" />
	<line x1="27.7778" y1="61.1111" x2="33.3333" y2="66.6667" stroke-width="1" stroke="rgb(0,0,0)" />
	<line x1="27.7778" y1="55.5556" x2="33.3333" y2="61.1111" stroke-width="1" stroke="rgb(0,0,0)" />
	<line x1="27.7778" y1="55.5556" x2="33.3333" y2="55.5556" stroke-width="1" stroke="rgb(0,0,0)" />
	<line x1="27.7778" y1="50" x2="27.7778" y2="55.5556" stroke-width="1" stroke="rgb(0,0,0)" />
	<line x1="27.7778" y1="50" x2="33.3333" y2="50" stroke-width="1" stroke="rgb(0,0,0)" />
	<line x1="27.7778" y1="44.4444" x2="27.7778" y2="50" stroke-width="1" stroke="rgb(0,0,0)" />
	<line x1="27.7778" y1="44.4444" x2="33.3333" y2="50" stroke-width="1" stroke="rgb(0,0,0)" />
	<line x1="27.7778" y1="38.8889" x2="27.7778" y2="44.4444" stroke-width="1" stroke="rgb(0,0,0)" />
	<line x1="27.7778" y1="33.3333" x2="27.7778" y2="38.8889" stroke-width="1" stroke="rgb(0,0,0)" />
	<line x1="27.7778" y1="33.3333" x2="33.3333" y2="27.7778" stroke-width="1" stroke="rgb(0,0,0)" />
	<line x1="27.7778" y1="27.7778" x2="33.3333" y2="22.2222" stroke-width="1" stroke="rgb(0,0,0)" />
	<line x1="27.7778" y1="22.2222" x2="33.3333" y2="16.6667" stroke-width="1" stroke="rgb(0,0,0)" />
	<line x1="27.7778" y1="16.6667" x2="33.3333" y2="11.1111" stroke-width="1" stroke="rgb(0,0,0)" />
	<line x1="27.7778" y1="11.1111" x2="33.3333" y2="5.55556" stroke-width="1" stroke="rgb(0,0,0)" />
	<line x1="27.7778" y1="5.55556" x2="27.7778" y2="11.1111" stroke-width="1" stroke="rgb(0,0,0)" />
	<line x1="27.7778" y1="5.55556" x2="33.3333" y2="5.55556" stroke-width="1" stroke="rgb(0,0,0)" />
	<line x1="33.3333" y1="100" x2="38.8889" y2="100" stroke-width="1" stroke="rgb(0,0,0)" />
	<line x1="33.3333" y1="94.4444" x2="38.8889" y2="94.4444" stroke-width="1" stroke="rgb(0,0,0)" />
	<line x1="33.3333" y1="88.8889" x2="38.8889" y2="88.8889" stroke-width="1" stroke="rgb(0,0,0)" />
	<line x1="33.3333" y1="83.3333" x2="38.8889" y2="83.3333" stroke-width="1" stroke="rgb(0,0,0)" />
	<line x1="33.3333" y1="77.7778" x2="33.3333" y2="83.3333" stroke-width="1" stroke="rgb(0,0,0)" />
	<line x1="33.3333" y1="77.7778" x2="38.8889" y2="77.7778" stroke-width="1" stroke="rgb(0,0,0)" />
	<line x1="33.3333" y1="72.2222" x2="38.8889" y2="72.2222" stroke-width="1" stroke="rgb(0,0,0)" />
	<line x1="33.3333" y1="72.2222" x2="38.8889" y2="66.6667" stroke-width="1" stroke="rgb(0,0,0)" />
	<line x1="33.3333" y1="66.6667" x2="38.8889" y2="61.1111" stroke-width="1" stroke="rgb(0,0,0)" />
	<line x1="33.3333" y1="61.1111" x2="38.8889" y2="55.5556" stroke-width="1" stroke="rgb(0,0,0)" />
	<line x1="33.3333" y1="55.5556" x2="33.3333" y2="61.1111" stroke-width="1" stroke="rgb(0,0,0)" />
	<line x1="33.3333" y1="55.5556" x2="38.8889" y2="55.5556" stroke-width="1" stroke="rgb(0,0,0)" />
	<line x1="33.3333" y1="50" x2="33.3333" y2="55.5556" stroke-width="1" stroke="rgb(0,0,0)" />
	<line x1="33.3333" y1="50" x2="38.8889" y2="50" stroke-width="1" stroke="rgb(0,0,0)" />
	<line x1="33.3333" y1="50" x2="38.8889" y2="44.4444" stroke-width="1" stroke="rgb(0,0,0)" />
	<line x1="33.3333" y1="38.8889" x2="33.3333" y2="44.4444" stroke-width="1" stroke="rgb(0,0,0)" />
	<line x1="33.3333" y1="33.3333" x2="33.3333" y2="38.8889" stroke-width="1" stroke="rgb(0,0,0)" />
	<line x1="33.3333" y1="27.7778" x2="38.8889" y2="33.3333" stroke-width="1" stroke="rgb(0,0,0)" />
	<line x1="33.3333" y1="27.7778" x2="38.8889" y2="27.7778" stroke-width="1" stroke="rgb(0,0,0)" />
	<line x1="33.3333" y1="22.2222" x2="38.8889" y2="22.2222" stroke-width="1" stroke="rgb(0,0,0)" />
	<line x1="33.3333" y1="16.6667" x2="38.8889" y2="16.6667" stroke-width="1" stroke="rgb(0,0,0)" />
	<line x1="33.3333" y1="11.1111" x2="38.8889" y2="11.1111" stroke-width="1" stroke="rgb(0,0,0)" />
	<line x1="33.3333" y1="5.55556" x2="38.8889" y2="5.55556" stroke-width="1" stroke="rgb(0,0,0)" />
	<line x1="38.8889" y1="100" x2="44.4444" y2="100" stroke-width="1" stroke="rgb(0,0,0)" />
	<line x1="38.8889" y1="94.4444" x2="44.4444" y2="94.4444" stroke-width="1" stroke="rgb(0,0,0)" />
	<line x1="38.8889" y1="88.8889" x2="44.4444" y2="88.8889" stroke-width="1" stroke="rgb(0,0,0)" />
	<line x1="38.8889" y1="83.3333" x2="44.4444" y2="83.3333" stroke-width="1" stroke="rgb(0,0,0)" />
	<line x1="38.8889" y1="77.7778" x2="38.8889" y2="83.3333" stroke-width="1" stroke="rgb(0,0,0)" />
	<line x1="38.8889" y1="77.7778" x2="44.4444" y2="77.7778" stroke-width="1" stroke="rgb(0,0,0)" />
	<line x1="38.8889" y1="72.2222" x2="44.4444" y2="72.2222" stroke-width="1" stroke="rgb(0,0,0)" />
	<line x1="38.8889" y1="66.6667" x2="38.8889" y2="72.2222" stroke-width="1" stroke="rgb(0,0,0)" />
	<line x1="38.8889" y1="66.6667" x2="44.4444" y2="72.2222" stroke-width="1" stroke="rgb(0,0,0)" />
	<line x1="38.8889" y1="61.1111" x2="44.4444" y2="66.6667" stroke-width="1" stroke="rgb(0,0,0)" />
	<line x1="38.8889" y1="55.5556" x2="44.4444" y2="61.1111" stroke-width="1" stroke="rgb(0,0,0)" />
	<line x1="38.8889" y1="55.5556" x2="44.4444" y2="55.5556" stroke-width="1" stroke="rgb(0,0,0)" />
	<line x1="38.8889" y1="50" x2="38.8889" y2="55.5556" stroke-width="1" stroke="rgb(0,0,0)" />
	<line x1="38.8889" y1="50" x2="44.4444" y2="50" stroke-width="1" stroke="rgb(0,0,0)" />
	<line x1="38.8889" y1="44.4444" x2="38.8889" y2="50" stroke-width="1" stroke="rgb(0,0,0)" />
	<line x1="38.8889" y1="44.4444" x2="44.4444" y2="44.4444" stroke-width="1" stroke="rgb(0,0,0)" />
	<line x1="38.8889" y1="38.8889" x2="38.8889" y2="44.4444" stroke-width="1" stroke="rgb(0,0,0)" />
	<line x1="38.8889" y1="38.8889" x2="44.4444" y2="38.8889" stroke-width="1" stroke="rgb(0,0,0)" />
	<line x1="38.8889" y1="33.3333" x2="38.8889" y2="38.8889" stroke-width="1" stroke="rgb(0,0,0)" />
	<line x1="38.8889" y1="33.3333" x2="44.4444" y2="33.3333" stroke-width="1" stroke="rgb(0,0,0)" />
	<line x1="38.8889" y1="27.7778" x2="38.8889" y2="33.3333" stroke-width="1" stroke="rgb(0,0,0)" />
	<line x1="38.8889" y1="27.7778" x2="44.4444" y2="27.7778" stroke-width="1" stroke="rgb(0,0,0)" />
	<line x1="38.8889" y1="22.2222" x2="44.4444" y2="22.2222" stroke-width="1" stroke="rgb(0,0,0)" />
	<line x1="38.8889" y1="16.6667" x2="44.4444" y2="16.6667" stroke-width="1" stroke="rgb(0,0,0)" />
	<line x1="38.8889" y1="11.1111" x2="44.4444" y2="11.1111" stroke-width="1" stroke="rgb(0,0,0)" />
	<line x1="38.8889" y1="5.55556" x2="44.4444" y2="5.55556" stroke-width="1" stroke="rgb(0,0,0)" />
	<line x1="44.4444" y1="100" x2="50" y2="100" stroke-width="1" stroke="rgb(0,0,0)" />
	<line x1="44.4444" y1="94.4444" x2="50" y2="94.4444" stroke-width="1" stroke="rgb(0,0,0)" />
	<line x1="44.4444" y1="88.8889" x2="50" y2="88.8889" stroke-width="1" stroke="rgb(0,0,0)" />
	<line x1="44.4444" y1="83.3333" x2="50" y2="83.3333" stroke-width="1" stroke="rgb(0,0,0)" />
	<line x1="44.4444" y1="77.7778" x2="44.4444" y2="83.3333" stroke-width="1" stroke="rgb(0,0,0)" />
	<line x1="44.4444" y1="77.7778" x2="50" y2="83.3333" stroke-width="1" stroke="rgb(0,0,0)" />
	<line x1="44.4444" y1="72.2222" x2="50" y2="77.7778" stroke-width="1" stroke="rgb(0,0,0)" />
	<line x1="44.4444" y1="72.2222" x2="50" y2="72.2222" stroke-width="1" stroke="rgb(0,0,0)" />
	<line x1="44.4444" y1="72.2222" x2="50" y2="66.6667" stroke-width="1" stroke="rgb(0,0,0)" />
	<line x1="44.4444" y1="61.1111" x2="50" y2="66.6667" stroke-width="1" stroke="rgb(0,0,0)" />
	<line x1="44.4444" y1="61.1111" x2="50" y2="61.1111" stroke-width="1" stroke="rgb(0,0,0)" />
	<line x1="44.4444" y1="55.5556" x2="44.4444" y2="61.1111" stroke-width="1" stroke="rgb(0,0,0)" />
	<line x1="44.4444" y1="55.5556" x2="50" y2="55.5556" stroke-width="1" stroke="rgb(0,0,0)" />
	<line x1="44.4444" y1="50" x2="44.4444" y2="55.5556" stroke-width="1" stroke="rgb(0,0,0)" />
	<line x1="44.4444" y1="50" x2="50" y2="50" stroke-width="1" stroke="rgb(0,0,0)" />
	<line x1="44.4444" y1="44.4444" x2="44.4444" y2="50" stroke-width="1" stroke="rgb(0,0,0)" />
	<line x1="44.4444" y1="44.4444" x2="50" y2="50" stroke-width="1" stroke="rgb(0,0,0)" />
	<line x1="44.4444" y1="38.8889" x2="44.4444" y2="44.4444" stroke-width="1" stroke="rgb(0,0,0)" />
	<line x1="44.4444" y1="38.8889" x2="50" y2="33.3333" stroke-width="1" stroke="rgb(0,0,0)" />
	<line x1="44.4444" y1="33.3333" x2="44.4444" y2="38.8889" stroke-width="1" stroke="rgb(0,0,0)" />
	<line x1="44.4444" y1="33.3333" x2="50" y2="33.3333" stroke-width="1" stroke="rgb(0,0,0)" />
	<line x1="44.4444" y1="27.7778" x2="44.4444" y2="33.3333" stroke-width="1" stroke="rgb(0,0,0)" />
	<line x1="44.4444" y1="27.7778" x2="50" y2="27.7778" stroke-width="1" stroke="rgb(0,0,0)" />
	<line x1="44.4444" y1="22.2222" x2="50" y2="22.2222" stroke-width="1" stroke="rgb(0,0,0)" />
	<line x1="44.4444" y1="16.6667" x2="50" y2="16.6667" stroke-width="1" stroke="rgb(0,0,0)" />
	<line x1="44.4444" y1="11.1111" x2="50" y2="11.1111" stroke-width="1" stroke="rgb(0,0,0)" />
	<line x1="44.4444" y1="5.55556" x2="50" y2="5.55556" stroke-width="1" stroke="rgb(0,0,0)" />
	<line x1="50" y1="100" x2="55.5556" y2="100" stroke-width="1" stroke="rgb(0,0,0)" />
	<line x1="50" y1="94.4444" x2="55.5556" y2="94.4444" stroke-width="1" stroke="rgb(0,0,0)" />
	<line x1="50" y1="88.8889" x2="55.5556" y2="88.8889" stroke-width="1" stroke="rgb(0,0,0)" />
	<line x1="50" y1="83.3333" x2="55.5556" y2="83.3333" stroke-width="1" stroke="rgb(0,0,0)" />
	<line x1="50" y1="77.7778" x2="55.5556" y2="77.7778" stroke-width="1" stroke="rgb(0,0,0)" />
	<line x1="50" y1="72.2222" x2="50" y2="77.7778" stroke-width="1" stroke="rgb(0,0,0)" />
	<line x1="50" y1="72.2222" x2="55.5556" y2="72.2222" stroke-width="1" stroke="rgb(0,0,0)" />
	<line x1="50" y1="66.6667" x2="50" y2="72.2222" stroke-width="1" stroke="rgb(0,0,0)" />
	<line x1="50" y1="66.6667" x2="55.5556" y2="66.6667" stroke-width="1" stroke="rgb(0,0,0)" />
	<line x1="50" y1="61.1111" x2="50" y2="66.6667" stroke-width="1" stroke="rgb(0,0,0)" />
	<line x1="50" y1="61.1111" x2="55.5556" y2="61.1111" stroke-width="1" stroke="rgb(0,0,0)" />
	<line x1="50" y1="55.5556" x2="50" y2="61.1111" stroke-width="1" stroke="rgb(0,0,0)" />
	<line x1="50" y1="55.5556" x2="55.5556" y2="55.5556" stroke-width="1" stroke="rgb(0,0,0)" />
	<line x1="50" y1="50" x2="50" y2="55.5556" stroke-width="1" stroke="rgb(0,0,0)" />
	<line x1="50" y1="50" x2="55.5556" y2="50" stroke-width="1" stroke="rgb(0,0,0)" />
	<line x1="50" y1="50" x2="55.5556" y2="44.4444" stroke-width="1" stroke="rgb(0,0,0)" />
	<line x1="50" y1="38.8889" x2="50" y2="44.4444" stroke-width="1" stroke="rgb(0,0,0)" />
	<line x1="50" y1="38.8889" x2="55.5556" y2="33.3333" stroke-width="1" stroke="rgb(0,0,0)" />
	<line x1="50" y1="33.3333" x2="55.5556" y2="27.7778" stroke-width="1" stroke="rgb(0,0,0)" />
	<line x1="50" y1="27.7778" x2="50" y2="33.3333" stroke-width="1" stroke="rgb(0,0,0)" />
	<line x1="50" y1="27.7778" x2="55.5556" y2="27.7778" stroke-width="1" stroke="rgb(0,0,0)" />
	<line x1="50" y1="22.2222" x2="55.5556" y2="22.2222" stroke-width="1" stroke="rgb(0,0,0)" />
	<line x1="50" y1="16.6667" x2="55.5556" y2="16.6667" stroke-width="1" stroke="rgb(0,0,0)" />
	<line x1="50" y1="11.1111" x2="55.5556" y2="11.1111" stroke-width="1" stroke="rgb(0,0,0)" />
	<line x1="50" y1="5.55556" x2="55.5556" y2="5.55556" stroke-width="1" stroke="rgb(0,0,0)" />
	<line x1="55.5556" y1="100" x2="61.1111" y2="100" stroke-width="1" stroke="rgb(0,0,0)" />
	<line x1="55.5556" y1="100" x2="61.1111" y2="94.4444" stroke-width="1" stroke="rgb(0,0,0)" />
	<line x1="55.5556" y1="94.4444" x2="61.1111" y2="88.8889" stroke-width="1" stroke="rgb(0,0,0)" />
	<line x1="55.5556" y1="83.3333" x2="61.1111" y2="83.3333" stroke-width="1" stroke="rgb(0,0,0)" />
	<line x1="55.5556" y1="77.7778" x2="61.1111" y2="77.7778" stroke-width="1" stroke="rgb(0,0,0)" />
	<line x1="55.5556" y1="72.2222" x2="55.5556" y2="77.7778" stroke-width="1" stroke="rgb(0,0,0)" />
	<line x1="55.5556" y1="72.2222" x2="61.1111" y2="72.2222" stroke-width="1" stroke="rgb(0,0,0)" />
	<line x1="55.5556" y1="66.6667" x2="55.5556" y2="72.2222" stroke-width="1" stroke="rgb(0,0,0)" />
	<line x1="55.5556" y1="66.6667" x2="61.1111" y2="66.6667" stroke-width="1" stroke="rgb(0,0,0)" />
	<line x1="55.5556" y1="61.1111" x2="55.5556" y2="66.6667" stroke-width="1" stroke="rgb(0,0,0)" />
	<line x1="55.5556" y1="61.1111" x2="61.1111" y2="61.1111" stroke-width="1" stroke="rgb(0,0,0)" />
	<line x1="55.5556" y1="55.5556" x2="55.5556" y2="61.1111" stroke-width="1" stroke="rgb(0,0,0)" />
	<line x1="55.5556" y1="55.5556" x2="61.1111" y2="55.5556" stroke-width="1" stroke="rgb(0,0,0)" />
	<line x1="55.5556" y1="50" x2="55.5556" y2="55.5556" stroke-width="1" stroke="rgb(0,0,0)" />
	<line x1="55.5556" y1="50" x2="61.1111" y2="50" stroke-width="1" stroke="rgb(0,0,0)" />
	<line x1="55.5556" y1="44.4444" x2="55.5556" y2="50" stroke-width="1" stroke="rgb(0,0,0)" />
	<line x1="55.5556" y1="44.4444" x2="61.1111" y2="44.4444" stroke-width="1" stroke="rgb(0,0,0)" />
	<line x1="55.5556" y1="38.8889" x2="55.5556" y2="44.4444" stroke-width="1" stroke="rgb(0,0,0)" />
	<line x1="55.5556" y1="38.8889" x2="61.1111" y2="38.8889" stroke-width="1" stroke="rgb(0,0,0)" />
	<line x1="55.5556" y1="33.3333" x2="61.1111" y2="33.3333" stroke-width="1" stroke="rgb(0,0,0)" />
	<line x1="55.5556" y1="27.7778" x2="61.1111" y2="27.7778" stroke-width="1" stroke="rgb(0,0,0)" />
	<line x1="55.5556" y1="22.2222" x2="61.1111" y2="22.2222" stroke-width="1" stroke="rgb(0,0,0)" />
	<line x1="55.5556" y1="11.1111" x2="61.1111" y2="16.6667" stroke-width="1" stroke="rgb(0,0,0)" />
	<line x1="55.5556" y1="5.55556" x2="61.1111" y2="11.1111" stroke-width="1" stroke="rgb(0,0,0)" />
	<line x1="55.5556" y1="5.55556" x2="61.1111" y2="5.55556" stroke-width="1" stroke="rgb(0,0,0)" />
	<line x1="61.1111" y1="100" x2="66.6667" y2="100" stroke-width="1" stroke="rgb(0,0,0)" />
	<line x1="61.1111" y1="94.4444" x2="61.1111" y2="100" stroke-width="1" stroke="rgb(0,0,0)" />
	<line x1="61.1111" y1="94.4444" x2="66.6667" y2="94.4444" stroke-width="1" stroke="rgb(0,0,0)" />
	<line x1="61.1111" y1="88.8889" x2="66.6667" y2="88.8889" stroke-width="1" stroke="rgb(0,0,0)" />
	<line x1="61.1111" y1="83.3333" x2="66.6667" y2="77.7778" stroke-width="1" stroke="rgb(0,0,0)" />
	<line x1="61.1111" y1="77.7778" x2="66.6667" y2="72.2222" stroke-width="1" stroke="rgb(0,0,0)" />
	<line x1="61.1111" y1="72.2222" x2="61.1111" y2="77.7778" stroke-width="1" stroke="rgb(0,0,0)" />
	<line x1="61.1111" y1="72.2222" x2="66.6667" y2="72.2222" stroke-width="1" stroke="rgb(0,0,0)" />
	<line x1="61.1111" y1="66.6667" x2="61.1111" y2="72.2222" stroke-width="1" stroke="rgb(0,0,0)" />
	<line x1="61.1111" y1="66.6667" x2="66.6667" y2="66.6667" stroke-width="1" stroke="rgb(0,0,0)" />
	<line x1="61.1111" y1="61.1111" x2="61.1111" y2="66.6667" stroke-width="1" stroke="rgb(0,0,0)" />
	<line x1="61.1111" y1="61.1111" x2="66.6667" y2="61.1111" stroke-width="1" stroke="rgb(0,0,0)" />
	<line x1="61.1111" y1="55.5556" x2="61.1111" y2="61.1111" stroke-width="1" stroke="rgb(0,0,0)" />
	<line x1="61.1111" y1="55.5556" x2="66.6667" y2="61.1111" stroke-width="1" stroke="rgb(0,0,0)" />
	<line x1="61.1111" y1="50" x2="61.1111" y2="55.5556" stroke-width="1" stroke="rgb(0,0,0)" />
	<line x1="61.1111" y1="44.4444" x2="61.1111" y2="50" stroke-width="1" stroke="rgb(0,0,0)" />
	<line x1="61.1111" y1="38.8889" x2="61.1111" y2="44.4444" stroke-width="1" stroke="rgb(0,0,0)" />
	<line x1="61.1111" y1="38.8889" x2="66.6667" y2="33.3333" stroke-width="1" stroke="rgb(0,0,0)" />
	<line x1="61.1111" y1="27.7778" x2="66.6667" y2="33.3333" stroke-width="1" stroke="rgb(0,0,0)" />
	<line x1="61.1111" y1="22.2222" x2="66.6667" y2="27.7778" stroke-width="1" stroke="rgb(0,0,0)" />
	<line x1="61.1111" y1="16.6667" x2="66.6667" y2="16.6667" stroke-width="1" stroke="rgb(0,0,0)" />
	<line x1="61.1111" y1="11.1111" x2="66.6667" y2="11.1111" stroke-width="1" stroke="rgb(0,0,0)" />
	<line x1="61.1111" y1="5.55556" x2="61.1111" y2="11.1111" stroke-width="1" stroke="rgb(0,0,0)" />
	<line x1="61.1111" y1="5.55556" x2="66.6667" y2="5.55556" stroke-width="1" stroke="rgb(0,0,0)" />
	<line x1="66.6667" y1="100" x2="72.2222" y2="100" stroke-width="1" stroke="rgb(0,0,0)" />
	<line x1="66.6667" y1="94.4444" x2="66.6667" y2="100" stroke-width="1" stroke="rgb(0,0,0)" />
	<line x1="66.6667" y1="94.4444" x2="72.2222" y2="94.4444" stroke-width="1" stroke="rgb(0,0,0)" />
	<line x1="66.6667" y1="94.4444" x2="72.2222" y2="88.8889" stroke-width="1" stroke="rgb(0,0,0)" />
	<line x1="66.6667" y1="88.8889" x2="72.2222" y2="83.3333" stroke-width="1" stroke="rgb(0,0,0)" />
	<line x1="66.6667" y1="83.3333" x2="72.2222" y2="77.7778" stroke-width="1" stroke="rgb(0,0,0)" />
	<line x1="66.6667" y1="77.7778" x2="72.2222" y2="72.2222" stroke-width="1" stroke="rgb(0,0,0)" />
	<line x1="66.6667" y1="72.2222" x2="72.2222" y2="66.6667" stroke-width="1" stroke="rgb(0,0,0)" />
	<line x1="66.6667" y1="66.6667" x2="66.6667" y2="72.2222" stroke-width="1" stroke="rgb(0,0,0)" />
	<line x1="66.6667" y1="66.6667" x2="72.2222" y2="66.6667" stroke-width="1" stroke="rgb(0,0,0)" />
	<line x1="66.6667" y1="61.1111" x2="66.6667" y2="66.6667" stroke-width="1" stroke="rgb(0,0,0)" />
	<line x1="66.6667" y1="61.1111" x2="72.2222" y2="66.6667" stroke-width="1" stroke="rgb(0,0,0)" />
	<line x1="66.6667" y1="61.1111" x2="72.2222" y2="55.5556" stroke-width="1" stroke="rgb(0,0,0)" />
	<line x1="66.6667" y1="50" x2="66.6667" y2="55.5556" stroke-width="1" stroke="rgb(0,0,0)" />
	<line x1="66.6667" y1="44.4444" x2="66.6667" y2="50" stroke-width="1" stroke="rgb(0,0,0)" />
	<line x1="66.6667" y1="38.8889" x2="66.6667" y2="44.4444" stroke-width="1" stroke="rgb(0,0,0)" />
	<line x1="66.6667" y1="27.7778" x2="72.2222" y2="33.3333" stroke-width="1" stroke="rgb(0,0,0)" />
	<line x1="66.6667" y1="27.7778" x2="72.2222" y2="27.7778" stroke-width="1" stroke="rgb(0,0,0)" />
	<line x1="66.6667" y1="16.6667" x2="72.2222" y2="22.2222" stroke-width="1" stroke="rgb(0,0,0)" />
	<line x1="66.6667" y1="11.1111" x2="72.2222" y2="16.6667" stroke-width="1" stroke="rgb(0,0,0)" />
	<line x1="66.6667" y1="11.1111" x2="72.2222" y2="11.1111" stroke-width="1" stroke="rgb(0,0,0)" />
	<line x1="66.6667" y1="5.55556" x2="66.6667" y2="11.1111" stroke-width="1" stroke="rgb(0,0,0)" />
	<line x1="66.6667" y1="5.55556" x2="72.2222" y2="5.55556" stroke-width="1" stroke="rgb(0,0,0)" />
	<line x1="72.2222" y1="100" x2="77.7778" y2="100" stroke-width="1" stroke="rgb(0,0,0)" />
	<line x1="72.2222" y1="94.4444" x2="72.2222" y2="100" stroke-width="1" stroke="rgb(0,0,0)" />
	<line x1="72.2222" y1="94.4444" x2="77.7778" y2="94.4444" stroke-width="1" stroke="rgb(0,0,0)" />
	<line x1="72.2222" y1="88.8889" x2="72.2222" y2="94.4444" stroke-width="1" stroke="rgb(0,0,0)" />
	<line x1="72.2222" y1="88.8889" x2="77.7778" y2="88.8889" stroke-width="1" stroke="rgb(0,0,0)" />
	<line x1="72.2222" y1="83.3333" x2="77.7778" y2="83.3333" stroke-width="1" stroke="rgb(0,0,0)" />
	<line x1="72.2222" y1="77.7778" x2="77.7778" y2="77.7778" stroke-width="1" stroke="rgb(0,0,0)" />
	<line x1="72.2222" y1="77.7778" x2="77.7778" y2="72.2222" stroke-width="1" stroke="rgb(0,0,0)" />
	<line x1="72.2222" y1="72.2222" x2="77.7778" y2="66.6667" stroke-width="1" stroke="rgb(0,0,0)" />
	<line x1="72.2222" y1="61.1111" x2="77.7778" y2="66.6667" stroke-width="1" stroke="rgb(0,0,0)" />
	<line x1="72.2222" y1="61.1111" x2="77.7778" y2="55.5556" stroke-width="1" stroke="rgb(0,0,0)" />
	<line x1="72.2222" y1="50" x2="72.2222" y2="55.5556" stroke-width="1" stroke="rgb(0,0,0)" />
	<line x1="72.2222" y1="44.4444" x2="72.2222" y2="50" stroke-width="1" stroke="rgb(0,0,0)" />
	<line x1="72.2222" y1="38.8889" x2="77.7778" y2="44.4444" stroke-width="1" stroke="rgb(0,0,0)" />
	<line x1="72.2222" y1="33.3333" x2="72.2222" y2="38.8889" stroke-width="1" stroke="rgb(0,0,0)" />
	<line x1="72.2222" y1="27.7778" x2="72.2222" y2="33.3333" stroke-width="1" stroke="rgb(0,0,0)" />
	<line x1="72.2222" y1="22.2222" x2="77.7778" y2="27.7778" stroke-width="1" stroke="rgb(0,0,0)" />
	<line x1="72.2222" y1="16.6667" x2="77.7778" y2="22.2222" stroke-width="1" stroke="rgb(0,0,0)" />
	<line x1="72.2222" y1="16.6667" x2="77.7778" y2="16.6667" stroke-width="1" stroke="rgb(0,0,0)" />
	<line x1="72.2222" y1="11.1111" x2="72.2222" y2="16.6667" stroke-width="1" stroke="rgb(0,0,0)" />
	<line x1="72.2222" y1="11.1111" x2="77.7778" y2="11.1111" stroke-width="1" stroke="rgb(0,0,0)" />
	<line x1="72.2222" y1="5.55556" x2="72.2222" y2="11.1111" stroke-width="1" stroke="rgb(0,0,0)" />
	<line x1="72.2222" y1="5.55556" x2="77.7778" y2="5.55556" stroke-width="1" stroke="rgb(0,0,0)" />
	<line x1="77.7778" y1="100" x2="83.3333" y2="100" stroke-width="1" stroke="rgb(0,0,0)" />
	<line x1="77.7778" y1="94.4444" x2="77.7778" y2="100" stroke-width="1" stroke="rgb(0,0,0)" />
	<line x1="77.7778" y1="94.4444" x2="83.3333" y2="94.4444" stroke-width="1" stroke="rgb(0,0,0)" />
	<line x1="77.7778" y1="88.8889" x2="77.7778" y2="94.4444" stroke-width="1" stroke="rgb(0,0,0)" />
	<line x1="77.7778" y1="88.8889" x2="83.3333" y2="88.8889" stroke-width="1" stroke="rgb(0,0,0)" />
	<line x1="77.7778" y1="88.8889" x2="83.3333" y2="83.3333" stroke-width="1" stroke="rgb(0,0,0)" />
	<line x1="77.7778" y1="83.3333" x2="83.3333" y2="77.7778" stroke-width="1" stroke="rgb(0,0,0)" />
	<line x1="77.7778" y1="72.2222" x2="77.7778" y2="77.7778" stroke-width="1" stroke="rgb(0,0,0)" />
	<line x1="77.7778" y1="72.2222" x2="83.3333" y2="66.6667" stroke-width="1" stroke="rgb(0,0,0)" />
	<line x1="77.7778" y1="61.1111" x2="83.3333" y2="66.6667" stroke-width="1" stroke="rgb(0,0,0)" />
	<line x1="77.7778" y1="61.1111" x2="83.3333" y2="61.1111" stroke-width="1" stroke="rgb(0,0,0)" />
	<line x1="77.7778" y1="50" x2="77.7778" y2="55.5556" stroke-width="1" stroke="rgb(0,0,0)" />
	<line x1="77.7778" y1="44.4444" x2="77.7778" y2="50" stroke-width="1" stroke="rgb(0,0,0)" />
	<line x1="77.7778" y1="38.8889" x2="83.3333" y2="44.4444" stroke-width="1" stroke="rgb(0,0,0)" />
	<line x1="77.7778" y1="33.3333" x2="83.3333" y2="38.8889" stroke-width="1" stroke="rgb(0,0,0)" />
	<line x1="77.7778" y1="27.7778" x2="77.7778" y2="33.3333" stroke-width="1" stroke="rgb(0,0,0)" />
	<line x1="77.7778" y1="22.2222" x2="83.3333" y2="27.7778" stroke-width="1" stroke="rgb(0,0,0)" />
	<line x1="77.7778" y1="22.2222" x2="83.3333" y2="22.2222" stroke-width="1" stroke="rgb(0,0,0)" />
	<line x1="77.7778" y1="16.6667" x2="77.7778" y2="22.2222" stroke-width="1" stroke="rgb(0,0,0)" />
	<line x1="77.7778" y1="16.6667" x2="83.3333" y2="16.6667" stroke-width="1" stroke="rgb(0,0,0)" />
	<line x1="77.7778" y1="11.1111" x2="77.7778" y2="16.6667" stroke-width="1" stroke="rgb(0,0,0)" />
	<line x1="77.7778" y1="11.1111" x2="83.3333" y2="11.1111" stroke-width="1" stroke="rgb(0,0,0)" />
	<line x1="77.7778" y1="5.55556" x2="77.7778" y2="11.1111" stroke-width="1" stroke="rgb(0,0,0)" />
	<line x1="77.7778" y1="5.55556" x2="83.3333" y2="5.55556" stroke-width="1" stroke="rgb(0,0,0)" />
	<line x1="83.3333" y1="100" x2="88.8889" y2="100" stroke-width="1" stroke="rgb(0,0,0)" />
	<line x1="83.3333" y1="94.4444" x2="83.3333" y2="100" stroke-width="1" stroke="rgb(0,0,0)" />
	<line x1="83.3333" y1="94.4444" x2="88.8889" y2="94.4444" stroke-width="1" stroke="rgb(0,0,0)" />
	<line x1="83.3333" y1="88.8889" x2="83.3333" y2="94.4444" stroke-width="1" stroke="rgb(0,0,0)" />
	<line x1="83.3333" y1="88.8889" x2="88.8889" y2="88.8889" stroke-width="1" stroke="rgb(0,0,0)" />
	<line x1="83.3333" y1="83.3333" x2="83.3333" y2="88.8889" stroke-width="1" stroke="rgb(0,0,0)" />
	<line x1="83.3333" y1="83.3333" x2="88.8889" y2="83.3333" stroke-width="1" stroke="rgb(0,0,0)" />
	<line x1="83.3333" y1="83.3333" x2="88.8889" y2="77.7778" stroke-width="1" stroke="rgb(0,0,0)" />
	<line x1="83.3333" y1="72.2222" x2="83.3333" y2="77.7778" stroke-width="1" stroke="rgb(0,0,0)" />
	<line x1="83.3333" y1="72.2222" x2="88.8889" y2="66.6667" stroke-width="1" stroke="rgb(0,0,0)" />
	<line x1="83.3333" y1="61.1111" x2="83.3333" y2="66.6667" stroke-width="1" stroke="rgb(0,0,0)" />
	<line x1="83.3333" y1="55.5556" x2="88.8889" y2="61.1111" stroke-width="1" stroke="rgb(0,0,0)" />
	<line x1="83.3333" y1="55.5556" x2="88.8889" y2="50" stroke-width="1" stroke="rgb(0,0,0)" />
	<line x1="83.3333" y1="44.4444" x2="83.3333" y2="50" stroke-width="1" stroke="rgb(0,0,0)" />
	<line x1="83.3333" y1="38.8889" x2="88.8889" y2="44.4444" stroke-width="1" stroke="rgb(0,0,0)" />
	<line x1="83.3333" y1="33.3333" x2="88.8889" y2="38.8889" stroke-width="1" stroke="rgb(0,0,0)" />
	<line x1="83.3333" y1="33.3333" x2="88.8889" y2="33.3333" stroke-width="1" stroke="rgb(0,0,0)" />
	<line x1="83.3333" y1="27.7778" x2="83.3333" y2="33.3333" stroke-width="1" stroke="rgb(0,0,0)" />
	<line x1="83.3333" y1="27.7778" x2="88.8889" y2="27.7778" stroke-width="1" stroke="rgb(0,0,0)" />
	<line x1="83.3333" y1="22.2222" x2="83.3333" y2="27.7778" stroke-width="1" stroke="rgb(0,0,0)" />
	<line x1="83.3333" y1="22.2222" x2="88.8889" y2="22.2222" stroke-width="1" stroke="rgb(0,0,0)" />
	<line x1="83.3333" y1="16.6667" x2="83.3333" y2="22.2222" stroke-width="1" stroke="rgb(0,0,0)" />
	<line x1="83.3333" y1="16.6667" x2="88.8889" y2="16.6667" stroke-width="1" stroke="rgb(0,0,0)" />
	<line x1="83.3333" y1="11.1111" x2="83.3333" y2="16.6667" stroke-width="1" stroke="rgb(0,0,0)" />
	<line x1="83.3333" y1="11.1111" x2="88.8889" y2="11.1111" stroke-width="1" stroke="rgb(0,0,0)" />
	<line x1="83.3333" y1="5.55556" x2="83.3333" y2="11.1111" stroke-width="1" stroke="rgb(0,0,0)" />
	<line x1="83.3333" y1="5.55556" x2="88.8889" y2="5.55556" stroke-width="1" stroke="rgb(0,0,0)" />
	<line x1="88.8889" y1="100" x2="94.4444" y2="100" stroke-width="1" stroke="rgb(0,0,0)" />
	<line x1="88.8889" y1="94.4444" x2="88.8889" y2="100" stroke-width="1" stroke="rgb(0,0,0)" />
	<line x1="88.8889" y1="94.4444" x2="94.4444" y2="94.4444" stroke-width="1" stroke="rgb(0,0,0)" />
	<line x1="88.8889" y1="88.8889" x2="88.8889" y2="94.4444" stroke-width="1" stroke="rgb(0,0,0)" />
	<line x1="88.8889" y1="88.8889" x2="94.4444" y2="88.8889" stroke-width="1" stroke="rgb(0,0,0)" />
	<line x1="88.8889" y1="83.3333" x2="88.8889" y2="88.8889" stroke-width="1" stroke="rgb(0,0,0)" />
	<line x1="88.8889" y1="83.3333" x2="94.4444" y2="83.3333" stroke-width="1" stroke="rgb(0,0,0)" />
	<line x1="88.8889" y1="77.7778" x2="88.8889" y2="83.3333" stroke-width="1" stroke="rgb(0,0,0)" />
	<line x1="88.8889" y1="77.7778" x2="94.4444" y2="77.7778" stroke-width="1" stroke="rgb(0,0,0)" />
	<line x1="88.8889" y1="72.2222" x2="88.8889" y2="77.7778" stroke-width="1" stroke="rgb(0,0,0)" />
	<line x1="88.8889" y1="72.2222" x2="94.4444" y2="72.2222" stroke-width="1" stroke="rgb(0,0,0)" />
	<line x1="88.8889" y1="72.2222" x2="94.4444" y2="66.6667" stroke-width="1" stroke="rgb(0,0,0)" />
	<line x1="88.8889" y1="61.1111" x2="88.8889" y2="66.6667" stroke-width="1" stroke="rgb(0,0,0)" />
	<line x1="88.8889" y1="55.5556" x2="94.4444" y2="61.1111" stroke-width="1" stroke="rgb(0,0,0)" />
	<line x1="88.8889" y1="55.5556" x2="94.4444" y2="55.5556" stroke-width="1" stroke="rgb(0,0,0)" />
	<line x1="88.8889" y1="55.5556" x2="94.4444" y2="50" stroke-width="1" stroke="rgb(0,0,0)" />
	<line x1="88.8889" y1="44.4444" x2="88.8889" y2="50" stroke-width="1" stroke="rgb(0,0,0)" />
	<line x1="88.8889" y1="38.8889" x2="94.4444" y2="44.4444" stroke-width="1" stroke="rgb(0,0,0)" />
	<line x1="88.8889" y1="38.8889" x2="94.4444" y2="38.8889" stroke-width="1" stroke="rgb(0,0,0)" />
	<line x1="88.8889" y1="33.3333" x2="88.8889" y2="38.8889" stroke-width="1" stroke="rgb(0,0,0)" />
	<line x1="88.8889" y1="33.3333" x2="94.4444" y2="33.3333" stroke-width="1" stroke="rgb(0,0,0)" />
	<line x1="88.8889" y1="27.7778" x2="88.8889" y2="33.3333" stroke-width="1" stroke="rgb(0,0,0)" />
	<line x1="88.8889" y1="27.7778" x2="94.4444" y2="27.7778" stroke-width="1" stroke="rgb(0,0,0)" />
	<line x1="88.8889" y1="22.2222" x2="88.8889" y2="27.7778" stroke-width="1" stroke="rgb(0,0,0)" />
	<line x1="88.8889" y1="22.2222" x2="94.4444" y2="22.2222" stroke-width="1" stroke="rgb(0,0,0)" />
	<line x1="88.8889" y1="16.6667" x2="88.8889" y2="22.2222" stroke-width="1" stroke="rgb(0,0,0)" />
	<line x1="88.8889" y1="16.6667" x2="94.4444" y2="16.6667" stroke-width="1" stroke="rgb(0,0,0)" />
	<line x1="88.8889" y1="11.1111" x2="88.8889" y2="16.6667" stroke-width="1" stroke="rgb(0,0,0)" />
	<line x1="88.8889" y1="11.1111" x2="94.4444" y2="11.1111" stroke-width="1" stroke="rgb(0,0,0)" />
	<line x1="88.8889" y1="5.55556" x2="88.8889" y2="11.1111" stroke-width="1" stroke="rgb(0,0,0)" />
	<line x1="88.8889" y1="5.55556" x2="94.4444" y2="5.55556" stroke-width="1" stroke="rgb(0,0,0)" />
	<line x1="94.4444" y1="94.4444" x2="94.4444" y2="100" stroke-width="1" stroke="rgb(0,0,0)" />
	<line x1="94.4444" y1="88.8889" x2="94.4444" y2="94.4444" stroke-width="1" stroke="rgb(0,0,0)" />
	<line x1="94.4444" y1="83.3333" x2="94.4444" y2="88.8889" stroke-width="1" stroke="rgb(0,0,0)" />
	<line x1="94.4444" y1="77.7778" x2="94.4444" y2="83.3333" stroke-width="1" stroke="rgb(0,0,0)" />
	<line x1="94.4444" y1="72.2222" x2="94.4444" y2="77.7778" stroke-width="1" stroke="rgb(0,0,0)" />
	<line x1="94.4444" y1="66.6667" x2="94.4444" y2="72.2222" stroke-width="1" stroke="rgb(0,0,0)" />
	<line x1="94.4444" y1="61.1111" x2="94.4444" y2="66.6667" stroke-width="1" stroke="rgb(0,0,0)" />
	<line x1="94.4444" y1="55.5556" x2="94.4444" y2="61.1111" stroke-width="1" stroke="rgb(0,0,0)" />
	<line x1="94.4444" y1="50" x2="94.4444" y2="55.5556" stroke-width="1" stroke="rgb(0,0,0)" />
	<line x1="94.4444" y1="44.4444" x2="94.4444" y2="50" stroke-width="1" stroke="rgb(0,0,0)" />
	<line x1="94.4444" y1="38.8889" x2="94.4444" y2="44.4444" stroke-width="1" stroke="rgb(0,0,0)" />
	<line x1="94.4444" y1="33.3333" x2="94.4444" y2="38.8889" stroke-width="1" stroke="rgb(0,0,0)" />
	<line x1="94.4444" y1="27.7778" x2="94.4444" y2="33.3333" stroke-width="1" stroke="rgb(0,0,0)" />
	<line x1="94.4444" y1="22.2222" x2="94.4444" y2="27.7778" stroke-width="1" stroke="rgb(0,0,0)" />
	<line x1="94.4444" y1="16.6667" x2="94.4444" y2="22.2222" stroke-width="1" stroke="rgb(0,0,0)" />
	<line x1="94.4444" y1="11.1111" x2="94.4444" y2="16.6667" stroke-width="1" stroke="rgb(0,0,0)" />
	<line x1="94.4444" y1="5.55556" x2="94.4444" y2="11.1111" stroke-width="1" stroke="rgb(0,0,0)" />
</svg>
