<?xml version="1.0" standalone="no" ?>
<!DOCTYPE svg PUBLIC "-//W3C//DTD SVG 1.1//EN" "http://www.w3.org/Graphics/SVG/1.1/DTD/svg11.dtd">
<svg width="100px" height="100px" xmlns="http://www.w3.org/2000/svg" version="1.1" >
	<path d="M0,100 2.77778,100 5.55556,100 5.55556,94.4444 0,94.4444 0,97.2222 z " fill-rule="evenodd" fill="rgb(196,196,196)" stroke-width="0.5" stroke="rgb(196,196,196)" />
	<path d="M0,94.4444 5.55556,94.4444 5.55556,88.8889 0,88.8889 0,91.6667 z " fill-rule="evenodd" fill="rgb(196,196,196)" stroke-width="0.5" stroke="rgb(196,196,196)" />
	<path d="M0,88.8889 5.55556,88.8889 5.55556,83.3333 0,83.3333 0,86.1111 z " fill-rule="evenodd" fill="rgb(196,196,196)" stroke-width="0.5" stroke="rgb(196,196,196)" />
	<path d="M0,83.3333 5.55556,83.3333 5.55556,77.7778 0,77.7778 0,80.5556 z " fill-rule="evenodd" fill="rgb(196,196,196)" stroke-width="0.5" stroke="rgb(196,196,196)" />
	<path d="M0,77.7778 5.55556,77.7778 5.55556,72.2222 0,72.2222 0,75 z " fill-rule="evenodd" fill="rgb(196,196,196)" stroke-width="0.5" stroke="rgb(196,196,196)" />
	<path d="M0,72.2222 5.55556,72.2222 4.16667,68.0556 0,66.6667 0,69.4444 z " fill-rule="evenodd" fill="rgb(196,196,196)" stroke-width="0.5" stroke="rgb(196,196,196)" />
	<path d="M0,66.6667 4.16667,68.0556 6.94444,65.2778 5.55556,61.1111 0,61.1111 0,63.8889 z " fill-rule="evenodd" fill="rgb(196,196,196)" stroke-width="0.5" stroke="rgb(196,196,196)" />
	<path d="M0,61.1111 5.55556,61.1111 5.55556,55.5556 0,55.5556 0,58.3333 z " fill-rule="evenodd" fill="rgb(196,196,196)" stroke-width="0.5" stroke="rgb(196,196,196)" />
	<path d="M0,55.5556 5.55556,55.5556 5.55556,50 0,50 0,52.7778 z " fill-rule="evenodd" fill="rgb(196,196,196)" stroke-width="0.5" stroke="rgb(196,196,196)" />
	<path d="M0,50 5.55556,50 5.55556,44.4444 0,44.4444 0,47.2222 z " fill-rule="evenodd" fill="rgb(196,196,196)" stroke-width="0.5" stroke="rgb(196,196,196)" />
	<path d="M0,44.4444 5.55556,44.4444 5.55556,38.8889 0,38.8889 0,41.6667 z " fill-rule="evenodd" fill="rgb(196,196,196)" stroke-width="0.5" stroke="rgb(196,196,196)" />
	<path d="M0,38.8889 5.55556,38.8889 6.94444,34.7222 4.16667,31.9445 0,33.3333 0,36.1111 z " fill-rule="evenodd" fill="rgb(196,196,196)" stroke-width="0.5" stroke="rgb(196,196,196)" />
	<path d="M0,33.3333 4.16667,31.9445 5.55556,27.7778 0,27.7778 0,30.5556 z " fill-rule="evenodd" fill="rgb(196,196,196)" stroke-width="0.5" stroke="rgb(196,196,196)" />
	<path d="M0,27.7778 5.55556,27.7778 5.55556,22.2222 0,22.2222 0,25 z " fill-rule="evenodd" fill="rgb(196,196,196)" stroke-width="0.5" stroke="rgb(196,196,196)" />
	<path d="M0,22.2222 5.55556,22.2222 5.55556,16.6667 0,16.6667 0,19.4445 z " fill-rule="evenodd" fill="rgb(196,196,196)" stroke-width="0.5" stroke="rgb(196,196,196)" />
	<path d="M0,16.6667 5.55556,16.6667 5.55556,11.1111 0,11.1111 0,13.8889 z " fill-rule="evenodd" fill="rgb(196,196,196)" stroke-width="0.5" stroke="rgb(196,196,196)" />
	<path d="M0,11.1111 5.55556,11.1111 5.55556,5.55556 0,5.55556 0,8.33334 z " fill-rule="evenodd" fill="rgb(196,196,196)" stroke-width="0.5" stroke="rgb(196,196,196)" />
	<path d="M0,5.55556 5.55556,5.55556 5.55556,0 2.77778,0 0,0 0,2.77778 z " fill-rule="evenodd" fill="rgb(196,196,196)" stroke-width="0.5" stroke="rgb(196,196,196)" />
	<path d="M5.55556,100 8.33333,100 11.1111,100 11.1111,94.4444 5.55556,94.4444 z " fill-rule="evenodd" fill="rgb(196,196,196)" stroke-width="0.5" stroke="rgb(196,196,196)" />
	<path d="M5.55556,94.4444 11.1111,94.4444 11.1111,88.8889 5.55556,88.8889 z " fill-rule="evenodd" fill="rgb(196,196,196)" stroke-width="0.5" stroke="rgb(196,196,196)" />
	<path d="M5.55556,88.8889 11.1111,88.8889 11.1111,83.3333 5.55556,83.3333 z " fill-rule="evenodd" fill="rgb(196,196,196)" stroke-width="0.5" stroke="rgb(196,196,196)" />
	<path d="M5.55556,83.3333 11.1111,83.3333 9.72222,79.1667 5.55556,77.7778 z " fill-rule="evenodd" fill="rgb(196,196,196)" stroke-width="0.5" stroke="rgb(196,196,196)" />
	<path d="M5.55556,77.7778 9.72222,79.1667 12.5,76.3889 11.1111,72.2222 5.55556,72.2222 z " fill-rule="evenodd" fill="rgb(196,196,196)" stroke-width="0.5" stroke="rgb(196,196,196)" />
	<path d="M5.55556,72.2222 11.1111,72.2222 9.72222,68.0556 6.94444,65.2778 4.16667,68.0556 z " fill-rule="evenodd" fill="rgb(196,196,196)" stroke-width="0.5" stroke="rgb(196,196,196)" />
	<path d="M6.94444,65.2778 9.72222,68.0556 12.5,65.2778 11.1111,61.1111 5.55556,61.1111 z " fill-rule="evenodd" fill="rgb(0,0,0)" stroke-width="0.5" stroke="rgb(0,0,0)" />
	<path d="M5.55556,61.1111 11.1111,61.1111 11.1111,55.5556 5.55556,55.5556 z " fill-rule="evenodd" fill="rgb(0,0,0)" stroke-width="0.5" stroke="rgb(0,0,0)" />
	<path d="M5.55556,55.5556 11.1111,55.5556 11.1111,50 5.55556,50 z " fill-rule="evenodd" fill="rgb(0,0,0)" stroke-width="0.5" stroke="rgb(0,0,0)" />
	<path d="M5.55556,50 11.1111,50 11.1111,44.4444 5.55556,44.4444 z " fill-rule="evenodd" fill="rgb(0,0,0)" stroke-width="0.5" stroke="rgb(0,0,0)" />
	<path d="M5.55556,44.4444 11.1111,44.4444 11.1111,38.8889 5.55556,38.8889 z " fill-rule="evenodd" fill="rgb(0,0,0)" stroke-width="0.5" stroke="rgb(0,0,0)" />
	<path d="M5.55556,38.8889 11.1111,38.8889 12.5,34.7222 9.72222,31.9445 6.94444,34.7222 z " fill-rule="evenodd" fill="rgb(0,0,0)" stroke-width="0.5" stroke="rgb(0,0,0)" />
	<path d="M4.16667,31.9445 6.94444,34.7222 9.72222,31.9445 11.1111,27.7778 5.55556,27.7778 z " fill-rule="evenodd" fill="rgb(196,196,196)" stroke-width="0.5" stroke="rgb(196,196,196)" />
	<path d="M5.55556,27.7778 11.1111,27.7778 12.5,23.6111 9.72222,20.8333 5.55556,22.2222 z " fill-rule="evenodd" fill="rgb(196,196,196)" stroke-width="0.5" stroke="rgb(196,196,196)" />
	<path d="M5.55556,22.2222 9.72222,20.8333 11.1111,16.6667 5.55556,16.6667 z " fill-rule="evenodd" fill="rgb(196,196,196)" stroke-width="0.5" stroke="rgb(196,196,196)" />
	<path d="M5.55556,16.6667 11.1111,16.6667 11.1111,11.1111 5.55556,11.1111 z " fill-rule="evenodd" fill="rgb(196,196,196)" stroke-width="0.5" stroke="rgb(196,196,196)" />
	<path d="M5.55556,11.1111 11.1111,11.1111 11.1111,5.55556 5.55556,5.55556 z " fill-rule="evenodd" fill="rgb(196,196,196)" stroke-width="0.5" stroke="rgb(196,196,196)" />
	<path d="M5.55556,5.55556 11.1111,5.55556 11.1111,0 8.33333,0 5.55556,0 z " fill-rule="evenodd" fill="rgb(196,196,196)" stroke-width="0.5" stroke="rgb(196,196,196)" />
	<path d="M11.1111,100 13.8889,100 16.6667,100 16.6667,94.4444 11.1111,94.4444 z " fill-rule="evenodd" fill="rgb(196,196,196)" stroke-width="0.5" stroke="rgb(196,196,196)" />
	<path d="M11.1111,94.4444 16.6667,94.4444 16.6667,88.8889 11.1111,88.8889 z " fill-rule="evenodd" fill="rgb(196,196,196)" stroke-width="0.5" stroke="rgb(196,196,196)" />
	<path d="M11.1111,88.8889 16.6667,88.8889 15.2778,84.7222 11.1111,83.3333 z " fill-rule="evenodd" fill="rgb(196,196,196)" stroke-width="0.5" stroke="rgb(196,196,196)" />
	<path d="M11.1111,83.3333 15.2778,84.7222 18.0556,81.9444 15.2778,79.1667 12.5,76.3889 9.72222,79.1667 z " fill-rule="evenodd" fill="rgb(196,196,196)" stroke-width="0.5" stroke="rgb(196,196,196)" />
	<path d="M12.5,76.3889 15.2778,79.1667 18.0556,76.3889 16.6667,72.2222 11.1111,72.2222 z " fill-rule="evenodd" fill="rgb(0,0,0)" stroke-width="0.5" stroke="rgb(0,0,0)" />
	<path d="M11.1111,72.2222 16.6667,72.2222 15.2778,68.0556 12.5,65.2778 9.72222,68.0556 z " fill-rule="evenodd" fill="rgb(0,0,0)" stroke-width="0.5" stroke="rgb(0,0,0)" />
	<path d="M12.5,65.2778 15.2778,68.0556 18.0556,65.2778 16.6667,61.1111 11.1111,61.1111 z " fill-rule="evenodd" fill="rgb(192,192,192)" stroke-width="0.5" stroke="rgb(192,192,192)" />
	<path d="M11.1111,61.1111 16.6667,61.1111 16.6667,55.5556 11.1111,55.5556 z " fill-rule="evenodd" fill="rgb(192,192,192)" stroke-width="0.5" stroke="rgb(192,192,192)" />
	<path d="M11.1111,55.5556 16.6667,55.5556 16.6667,50 11.1111,50 z " fill-rule="evenodd" fill="rgb(192,192,192)" stroke-width="0.5" stroke="rgb(192,192,192)" />
	<path d="M11.1111,50 16.6667,50 16.6667,44.4444 11.1111,44.4444 z " fill-rule="evenodd" fill="rgb(192,192,192)" stroke-width="0.5" stroke="rgb(192,192,192)" />
	<path d="M11.1111,44.4444 16.6667,44.4444 16.6667,38.8889 11.1111,38.8889 z " fill-rule="evenodd" fill="rgb(192,192,192)" stroke-width="0.5" stroke="rgb(192,192,192)" />
	<path d="M11.1111,38.8889 16.6667,38.8889 18.0556,34.7222 15.2778,31.9445 12.5,34.7222 z " fill-rule="evenodd" fill="rgb(192,192,192)" stroke-width="0.5" stroke="rgb(192,192,192)" />
	<path d="M9.72222,31.9445 12.5,34.7222 15.2778,31.9445 16.6667,27.7778 11.1111,27.7778 z " fill-rule="evenodd" fill="rgb(0,0,0)" stroke-width="0.5" stroke="rgb(0,0,0)" />
	<path d="M11.1111,27.7778 16.6667,27.7778 18.0556,23.6111 15.2778,20.8333 12.5,23.6111 z " fill-rule="evenodd" fill="rgb(0,0,0)" stroke-width="0.5" stroke="rgb(0,0,0)" />
	<path d="M9.72222,20.8333 12.5,23.6111 15.2778,20.8333 18.0556,18.0556 15.2778,15.2778 11.1111,16.6667 z " fill-rule="evenodd" fill="rgb(196,196,196)" stroke-width="0.5" stroke="rgb(196,196,196)" />
	<path d="M11.1111,16.6667 15.2778,15.2778 16.6667,11.1111 11.1111,11.1111 z " fill-rule="evenodd" fill="rgb(196,196,196)" stroke-width="0.5" stroke="rgb(196,196,196)" />
	<path d="M11.1111,11.1111 16.6667,11.1111 16.6667,5.55556 11.1111,5.55556 z " fill-rule="evenodd" fill="rgb(196,196,196)" stroke-width="0.5" stroke="rgb(196,196,196)" />
	<path d="M11.1111,5.55556 16.6667,5.55556 16.6667,0 13.8889,0 11.1111,0 z " fill-rule="evenodd" fill="rgb(196,196,196)" stroke-width="0.5" stroke="rgb(196,196,196)" />
	<path d="M16.6667,100 19.4444,100 22.2222,100 22.2222,94.4444 16.6667,94.4444 z " fill-rule="evenodd" fill="rgb(196,196,196)" stroke-width="0.5" stroke="rgb(196,196,196)" />
	<path d="M16.6667,94.4444 22.2222,94.4444 20.8333,90.2778 16.6667,88.8889 z " fill-rule="evenodd" fill="rgb(196,196,196)" stroke-width="0.5" stroke="rgb(196,196,196)" />
	<path d="M16.6667,88.8889 20.8333,90.2778 23.6111,87.5 20.8333,84.7222 18.0556,81.9444 15.2778,84.7222 z " fill-rule="evenodd" fill="rgb(196,196,196)" stroke-width="0.5" stroke="rgb(196,196,196)" />
	<path d="M18.0556,81.9444 20.8333,84.7222 23.6111,81.9444 20.8333,79.1667 18.0556,76.3889 15.2778,79.1667 z " fill-rule="evenodd" fill="rgb(0,0,0)" stroke-width="0.5" stroke="rgb(0,0,0)" />
	<path d="M18.0556,76.3889 20.8333,79.1667 23.6111,76.3889 20.8333,73.6111 16.6667,72.2222 z " fill-rule="evenodd" fill="rgb(192,192,192)" stroke-width="0.5" stroke="rgb(192,192,192)" />
	<path d="M16.6667,72.2222 20.8333,73.6111 23.6111,70.8333 20.8333,68.0556 18.0556,65.2778 15.2778,68.0556 z " fill-rule="evenodd" fill="rgb(192,192,192)" stroke-width="0.5" stroke="rgb(192,192,192)" />
	<path d="M18.0556,65.2778 20.8333,68.0556 23.6111,65.2778 20.8333,62.5 16.6667,61.1111 z " fill-rule="evenodd" fill="rgb(224,224,224)" stroke-width="0.5" stroke="rgb(224,224,224)" />
	<path d="M16.6667,61.1111 20.8333,62.5 23.6111,59.7222 22.2222,55.5556 16.6667,55.5556 z " fill-rule="evenodd" fill="rgb(248,16,88)" stroke-width="0.5" stroke="rgb(248,16,88)" />
	<path d="M16.6667,55.5556 22.2222,55.5556 22.2222,50 16.6667,50 z " fill-rule="evenodd" fill="rgb(224,224,224)" stroke-width="0.5" stroke="rgb(224,224,224)" />
	<path d="M16.6667,50 22.2222,50 22.2222,44.4444 16.6667,44.4444 z " fill-rule="evenodd" fill="rgb(224,224,224)" stroke-width="0.5" stroke="rgb(224,224,224)" />
	<path d="M16.6667,44.4444 22.2222,44.4444 22.2222,38.8889 16.6667,38.8889 z " fill-rule="evenodd" fill="rgb(224,224,224)" stroke-width="0.5" stroke="rgb(224,224,224)" />
	<path d="M16.6667,38.8889 22.2222,38.8889 22.2222,33.3333 18.0556,34.7222 z " fill-rule="evenodd" fill="rgb(224,224,224)" stroke-width="0.5" stroke="rgb(224,224,224)" />
	<path d="M15.2778,31.9445 18.0556,34.7222 22.2222,33.3333 22.2222,27.7778 16.6667,27.7778 z " fill-rule="evenodd" fill="rgb(192,192,192)" stroke-width="0.5" stroke="rgb(192,192,192)" />
	<path d="M16.6667,27.7778 22.2222,27.7778 23.6111,23.6111 20.8333,20.8333 18.0556,23.6111 z " fill-rule="evenodd" fill="rgb(192,192,192)" stroke-width="0.5" stroke="rgb(192,192,192)" />
	<path d="M15.2778,20.8333 18.0556,23.6111 20.8333,20.8333 23.6111,18.0556 20.8333,15.2778 18.0556,18.0556 z " fill-rule="evenodd" fill="rgb(0,0,0)" stroke-width="0.5" stroke="rgb(0,0,0)" />
	<path d="M15.2778,15.2778 18.0556,18.0556 20.8333,15.2778 23.6111,12.5 20.8333,9.72223 16.6667,11.1111 z " fill-rule="evenodd" fill="rgb(196,196,196)" stroke-width="0.5" stroke="rgb(196,196,196)" />
	<path d="M16.6667,11.1111 20.8333,9.72223 22.2222,5.55556 16.6667,5.55556 z " fill-rule="evenodd" fill="rgb(196,196,196)" stroke-width="0.5" stroke="rgb(196,196,196)" />
	<path d="M16.6667,5.55556 22.2222,5.55556 22.2222,0 19.4444,0 16.6667,0 z " fill-rule="evenodd" fill="rgb(196,196,196)" stroke-width="0.5" stroke="rgb(196,196,196)" />
	<path d="M22.2222,100 25,100 27.7778,100 27.7778,94.4444 22.2222,94.4444 z " fill-rule="evenodd" fill="rgb(196,196,196)" stroke-width="0.5" stroke="rgb(196,196,196)" />
	<path d="M22.2222,94.4444 27.7778,94.4444 27.7778,88.8889 23.6111,87.5 20.8333,90.2778 z " fill-rule="evenodd" fill="rgb(196,196,196)" stroke-width="0.5" stroke="rgb(196,196,196)" />
	<path d="M23.6111,87.5 27.7778,88.8889 27.7778,83.3333 23.6111,81.9444 20.8333,84.7222 z " fill-rule="evenodd" fill="rgb(0,0,0)" stroke-width="0.5" stroke="rgb(0,0,0)" />
	<path d="M23.6111,81.9444 27.7778,83.3333 27.7778,77.7778 23.6111,76.3889 20.8333,79.1667 z " fill-rule="evenodd" fill="rgb(192,192,192)" stroke-width="0.5" stroke="rgb(192,192,192)" />
	<path d="M23.6111,76.3889 27.7778,77.7778 27.7778,72.2222 23.6111,70.8333 20.8333,73.6111 z " fill-rule="evenodd" fill="rgb(192,192,192)" stroke-width="0.5" stroke="rgb(192,192,192)" />
	<path d="M23.6111,70.8333 27.7778,72.2222 27.7778,66.6667 23.6111,65.2778 20.8333,68.0556 z " fill-rule="evenodd" fill="rgb(224,224,224)" stroke-width="0.5" stroke="rgb(224,224,224)" />
	<path d="M23.6111,65.2778 27.7778,66.6667 29.1667,62.5 26.3889,59.7222 23.6111,59.7222 20.8333,62.5 z " fill-rule="evenodd" fill="rgb(248,16,88)" stroke-width="0.5" stroke="rgb(248,16,88)" />
	<path d="M23.6111,59.7222 26.3889,59.7222 29.1667,56.9444 26.3889,54.1667 22.2222,55.5556 z " fill-rule="evenodd" fill="rgb(248,248,248)" stroke-width="0.5" stroke="rgb(248,248,248)" />
	<path d="M22.2222,55.5556 26.3889,54.1667 27.7778,50 22.2222,50 z " fill-rule="evenodd" fill="rgb(248,248,248)" stroke-width="0.5" stroke="rgb(248,248,248)" />
	<path d="M22.2222,50 27.7778,50 29.1667,45.8333 26.3889,43.0556 22.2222,44.4444 z " fill-rule="evenodd" fill="rgb(248,248,248)" stroke-width="0.5" stroke="rgb(248,248,248)" />
	<path d="M22.2222,44.4444 26.3889,43.0556 27.7778,38.8889 22.2222,38.8889 z " fill-rule="evenodd" fill="rgb(0,0,0)" stroke-width="0.5" stroke="rgb(0,0,0)" />
	<path d="M22.2222,38.8889 27.7778,38.8889 27.7778,33.3333 22.2222,33.3333 z " fill-rule="evenodd" fill="rgb(0,0,0)" stroke-width="0.5" stroke="rgb(0,0,0)" />
	<path d="M22.2222,33.3333 27.7778,33.3333 27.7778,27.7778 22.2222,27.7778 z " fill-rule="evenodd" fill="rgb(0,0,0)" stroke-width="0.5" stroke="rgb(0,0,0)" />
	<path d="M22.2222,27.7778 27.7778,27.7778 27.7778,22.2222 23.6111,23.6111 z " fill-rule="evenodd" fill="rgb(224,224,224)" stroke-width="0.5" stroke="rgb(224,224,224)" />
	<path d="M20.8333,20.8333 23.6111,23.6111 27.7778,22.2222 27.7778,16.6667 23.6111,18.0556 z " fill-rule="evenodd" fill="rgb(192,192,192)" stroke-width="0.5" stroke="rgb(192,192,192)" />
	<path d="M20.8333,15.2778 23.6111,18.0556 27.7778,16.6667 27.7778,11.1111 23.6111,12.5 z " fill-rule="evenodd" fill="rgb(0,0,0)" stroke-width="0.5" stroke="rgb(0,0,0)" />
	<path d="M20.8333,9.72223 23.6111,12.5 27.7778,11.1111 27.7778,5.55556 22.2222,5.55556 z " fill-rule="evenodd" fill="rgb(196,196,196)" stroke-width="0.5" stroke="rgb(196,196,196)" />
	<path d="M22.2222,5.55556 27.7778,5.55556 27.7778,0 25,0 22.2222,0 z " fill-rule="evenodd" fill="rgb(196,196,196)" stroke-width="0.5" stroke="rgb(196,196,196)" />
	<path d="M27.7778,100 30.5556,100 33.3333,100 31.9444,95.8333 27.7778,94.4444 z " fill-rule="evenodd" fill="rgb(196,196,196)" stroke-width="0.5" stroke="rgb(196,196,196)" />
	<path d="M27.7778,94.4444 31.9444,95.8333 34.7222,93.0556 31.9444,90.2778 27.7778,88.8889 z " fill-rule="evenodd" fill="rgb(196,196,196)" stroke-width="0.5" stroke="rgb(196,196,196)" />
	<path d="M27.7778,88.8889 31.9444,90.2778 34.7222,87.5 31.9444,84.7222 27.7778,83.3333 z " fill-rule="evenodd" fill="rgb(0,0,0)" stroke-width="0.5" stroke="rgb(0,0,0)" />
	<path d="M27.7778,83.3333 31.9444,84.7222 34.7222,81.9444 33.3333,77.7778 27.7778,77.7778 z " fill-rule="evenodd" fill="rgb(192,192,192)" stroke-width="0.5" stroke="rgb(192,192,192)" />
	<path d="M27.7778,77.7778 33.3333,77.7778 31.9444,73.6111 27.7778,72.2222 z " fill-rule="evenodd" fill="rgb(192,192,192)" stroke-width="0.5" stroke="rgb(192,192,192)" />
	<path d="M27.7778,72.2222 31.9444,73.6111 34.7222,70.8333 31.9444,68.0556 27.7778,66.6667 z " fill-rule="evenodd" fill="rgb(224,224,224)" stroke-width="0.5" stroke="rgb(224,224,224)" />
	<path d="M27.7778,66.6667 31.9444,68.0556 34.7222,65.2778 31.9444,62.5 29.1667,62.5 z " fill-rule="evenodd" fill="rgb(248,248,248)" stroke-width="0.5" stroke="rgb(248,248,248)" />
	<path d="M26.3889,59.7222 29.1667,62.5 31.9444,62.5 34.7222,59.7222 31.9444,56.9444 29.1667,56.9444 z " fill-rule="evenodd" fill="rgb(248,16,88)" stroke-width="0.5" stroke="rgb(248,16,88)" />
	<path d="M26.3889,54.1667 29.1667,56.9444 31.9444,56.9444 34.7222,54.1667 33.3333,50 27.7778,50 z " fill-rule="evenodd" fill="rgb(248,248,248)" stroke-width="0.5" stroke="rgb(248,248,248)" />
	<path d="M27.7778,50 33.3333,50 31.9444,45.8333 29.1667,45.8333 z " fill-rule="evenodd" fill="rgb(248,248,248)" stroke-width="0.5" stroke="rgb(248,248,248)" />
	<path d="M26.3889,43.0556 29.1667,45.8333 31.9444,45.8333 34.7222,43.0556 33.3333,38.8889 27.7778,38.8889 z " fill-rule="evenodd" fill="rgb(248,248,248)" stroke-width="0.5" stroke="rgb(248,248,248)" />
	<path d="M27.7778,38.8889 33.3333,38.8889 33.3333,33.3333 27.7778,33.3333 z " fill-rule="evenodd" fill="rgb(248,248,248)" stroke-width="0.5" stroke="rgb(248,248,248)" />
	<path d="M27.7778,33.3333 33.3333,33.3333 34.7222,29.1667 31.9444,26.3889 27.7778,27.7778 z " fill-rule="evenodd" fill="rgb(248,248,248)" stroke-width="0.5" stroke="rgb(248,248,248)" />
	<path d="M27.7778,27.7778 31.9444,26.3889 34.7222,23.6111 31.9444,20.8333 27.7778,22.2222 z " fill-rule="evenodd" fill="rgb(224,224,224)" stroke-width="0.5" stroke="rgb(224,224,224)" />
	<path d="M27.7778,22.2222 31.9444,20.8333 34.7222,18.0556 31.9444,15.2778 27.7778,16.6667 z " fill-rule="evenodd" fill="rgb(192,192,192)" stroke-width="0.5" stroke="rgb(192,192,192)" />
	<path d="M27.7778,16.6667 31.9444,15.2778 34.7222,12.5 31.9444,9.72223 27.7778,11.1111 z " fill-rule="evenodd" fill="rgb(0,0,0)" stroke-width="0.5" stroke="rgb(0,0,0)" />
	<path d="M27.7778,11.1111 31.9444,9.72223 34.7222,6.94445 31.9444,4.16667 27.7778,5.55556 z " fill-rule="evenodd" fill="rgb(196,196,196)" stroke-width="0.5" stroke="rgb(196,196,196)" />
	<path d="M27.7778,5.55556 31.9444,4.16667 33.3333,0 30.5556,0 27.7778,0 z " fill-rule="evenodd" fill="rgb(196,196,196)" stroke-width="0.5" stroke="rgb(196,196,196)" />
	<path d="M33.3333,100 36.1111,100 38.8889,100 38.8889,94.4444 34.7222,93.0556 31.9444,95.8333 z " fill-rule="evenodd" fill="rgb(196,196,196)" stroke-width="0.5" stroke="rgb(196,196,196)" />
	<path d="M34.7222,93.0556 38.8889,94.4444 38.8889,88.8889 34.7222,87.5 31.9444,90.2778 z " fill-rule="evenodd" fill="rgb(0,0,0)" stroke-width="0.5" stroke="rgb(0,0,0)" />
	<path d="M34.7222,87.5 38.8889,88.8889 38.8889,83.3333 34.7222,81.9444 31.9444,84.7222 z " fill-rule="evenodd" fill="rgb(192,192,192)" stroke-width="0.5" stroke="rgb(192,192,192)" />
	<path d="M34.7222,81.9444 38.8889,83.3333 38.8889,77.7778 33.3333,77.7778 z " fill-rule="evenodd" fill="rgb(224,224,224)" stroke-width="0.5" stroke="rgb(224,224,224)" />
	<path d="M33.3333,77.7778 38.8889,77.7778 38.8889,72.2222 34.7222,70.8333 31.9444,73.6111 z " fill-rule="evenodd" fill="rgb(224,224,224)" stroke-width="0.5" stroke="rgb(224,224,224)" />
	<path d="M34.7222,70.8333 38.8889,72.2222 40.2778,68.0556 37.5,65.2778 34.7222,65.2778 31.9444,68.0556 z " fill-rule="evenodd" fill="rgb(248,248,248)" stroke-width="0.5" stroke="rgb(248,248,248)" />
	<path d="M34.7222,65.2778 37.5,65.2778 40.2778,62.5 37.5,59.7222 34.7222,59.7222 31.9444,62.5 z " fill-rule="evenodd" fill="rgb(248,16,88)" stroke-width="0.5" stroke="rgb(248,16,88)" />
	<path d="M34.7222,59.7222 37.5,59.7222 40.2778,56.9444 37.5,54.1667 34.7222,54.1667 31.9444,56.9444 z " fill-rule="evenodd" fill="rgb(248,248,248)" stroke-width="0.5" stroke="rgb(248,248,248)" />
	<path d="M34.7222,54.1667 37.5,54.1667 38.8889,50 33.3333,50 z " fill-rule="evenodd" fill="rgb(248,248,248)" stroke-width="0.5" stroke="rgb(248,248,248)" />
	<path d="M33.3333,50 38.8889,50 40.2778,45.8333 37.5,43.0556 34.7222,43.0556 31.9444,45.8333 z " fill-rule="evenodd" fill="rgb(248,248,248)" stroke-width="0.5" stroke="rgb(248,248,248)" />
	<path d="M34.7222,43.0556 37.5,43.0556 38.8889,38.8889 33.3333,38.8889 z " fill-rule="evenodd" fill="rgb(0,0,0)" stroke-width="0.5" stroke="rgb(0,0,0)" />
	<path d="M33.3333,38.8889 38.8889,38.8889 38.8889,33.3333 33.3333,33.3333 z " fill-rule="evenodd" fill="rgb(0,0,0)" stroke-width="0.5" stroke="rgb(0,0,0)" />
	<path d="M33.3333,33.3333 38.8889,33.3333 37.5,29.1667 34.7222,29.1667 z " fill-rule="evenodd" fill="rgb(0,0,0)" stroke-width="0.5" stroke="rgb(0,0,0)" />
	<path d="M31.9444,26.3889 34.7222,29.1667 37.5,29.1667 40.2778,26.3889 38.8889,22.2222 34.7222,23.6111 z " fill-rule="evenodd" fill="rgb(248,248,248)" stroke-width="0.5" stroke="rgb(248,248,248)" />
	<path d="M31.9444,20.8333 34.7222,23.6111 38.8889,22.2222 38.8889,16.6667 34.7222,18.0556 z " fill-rule="evenodd" fill="rgb(224,224,224)" stroke-width="0.5" stroke="rgb(224,224,224)" />
	<path d="M31.9444,15.2778 34.7222,18.0556 38.8889,16.6667 38.8889,11.1111 34.7222,12.5 z " fill-rule="evenodd" fill="rgb(192,192,192)" stroke-width="0.5" stroke="rgb(192,192,192)" />
	<path d="M31.9444,9.72223 34.7222,12.5 38.8889,11.1111 38.8889,5.55556 34.7222,6.94445 z " fill-rule="evenodd" fill="rgb(0,0,0)" stroke-width="0.5" stroke="rgb(0,0,0)" />
	<path d="M31.9444,4.16667 34.7222,6.94445 38.8889,5.55556 38.8889,0 36.1111,0 33.3333,0 z " fill-rule="evenodd" fill="rgb(196,196,196)" stroke-width="0.5" stroke="rgb(196,196,196)" />
	<path d="M38.8889,100 41.6667,100 44.4444,100 44.4444,94.4444 38.8889,94.4444 z " fill-rule="evenodd" fill="rgb(196,196,196)" stroke-width="0.5" stroke="rgb(196,196,196)" />
	<path d="M38.8889,94.4444 44.4444,94.4444 44.4444,88.8889 38.8889,88.8889 z " fill-rule="evenodd" fill="rgb(0,0,0)" stroke-width="0.5" stroke="rgb(0,0,0)" />
	<path d="M38.8889,88.8889 44.4444,88.8889 44.4444,83.3333 38.8889,83.3333 z " fill-rule="evenodd" fill="rgb(192,192,192)" stroke-width="0.5" stroke="rgb(192,192,192)" />
	<path d="M38.8889,83.3333 44.4444,83.3333 44.4444,77.7778 38.8889,77.7778 z " fill-rule="evenodd" fill="rgb(224,224,224)" stroke-width="0.5" stroke="rgb(224,224,224)" />
	<path d="M38.8889,77.7778 44.4444,77.7778 44.4444,72.2222 38.8889,72.2222 z " fill-rule="evenodd" fill="rgb(224,224,224)" stroke-width="0.5" stroke="rgb(224,224,224)" />
	<path d="M38.8889,72.2222 44.4444,72.2222 43.0556,68.0556 40.2778,68.0556 z " fill-rule="evenodd" fill="rgb(248,248,248)" stroke-width="0.5" stroke="rgb(248,248,248)" />
	<path d="M37.5,65.2778 40.2778,68.0556 43.0556,68.0556 45.8333,65.2778 43.0556,62.5 40.2778,62.5 z " fill-rule="evenodd" fill="rgb(248,248,248)" stroke-width="0.5" stroke="rgb(248,248,248)" />
	<path d="M37.5,59.7222 40.2778,62.5 43.0556,62.5 45.8333,59.7222 43.0556,56.9444 40.2778,56.9444 z " fill-rule="evenodd" fill="rgb(248,16,88)" stroke-width="0.5" stroke="rgb(248,16,88)" />
	<path d="M37.5,54.1667 40.2778,56.9444 43.0556,56.9444 45.8333,54.1667 44.4444,50 38.8889,50 z " fill-rule="evenodd" fill="rgb(248,248,248)" stroke-width="0.5" stroke="rgb(248,248,248)" />
	<path d="M38.8889,50 44.4444,50 44.4444,44.4444 40.2778,45.8333 z " fill-rule="evenodd" fill="rgb(248,248,248)" stroke-width="0.5" stroke="rgb(248,248,248)" />
	<path d="M37.5,43.0556 40.2778,45.8333 44.4444,44.4444 44.4444,38.8889 38.8889,38.8889 z " fill-rule="evenodd" fill="rgb(248,248,248)" stroke-width="0.5" stroke="rgb(248,248,248)" />
	<path d="M38.8889,38.8889 44.4444,38.8889 44.4444,33.3333 38.8889,33.3333 z " fill-rule="evenodd" fill="rgb(248,248,248)" stroke-width="0.5" stroke="rgb(248,248,248)" />
	<path d="M38.8889,33.3333 44.4444,33.3333 44.4444,27.7778 40.2778,26.3889 37.5,29.1667 z " fill-rule="evenodd" fill="rgb(248,248,248)" stroke-width="0.5" stroke="rgb(248,248,248)" />
	<path d="M40.2778,26.3889 44.4444,27.7778 44.4444,22.2222 38.8889,22.2222 z " fill-rule="evenodd" fill="rgb(248,248,248)" stroke-width="0.5" stroke="rgb(248,248,248)" />
	<path d="M38.8889,22.2222 44.4444,22.2222 44.4444,16.6667 38.8889,16.6667 z " fill-rule="evenodd" fill="rgb(224,224,224)" stroke-width="0.5" stroke="rgb(224,224,224)" />
	<path d="M38.8889,16.6667 44.4444,16.6667 44.4444,11.1111 38.8889,11.1111 z " fill-rule="evenodd" fill="rgb(192,192,192)" stroke-width="0.5" stroke="rgb(192,192,192)" />
	<path d="M38.8889,11.1111 44.4444,11.1111 44.4444,5.55556 38.8889,5.55556 z " fill-rule="evenodd" fill="rgb(0,0,0)" stroke-width="0.5" stroke="rgb(0,0,0)" />
	<path d="M38.8889,5.55556 44.4444,5.55556 44.4444,0 41.6667,0 38.8889,0 z " fill-rule="evenodd" fill="rgb(196,196,196)" stroke-width="0.5" stroke="rgb(196,196,196)" />
	<path d="M44.4444,100 47.2222,100 50,100 50,94.4444 44.4444,94.4444 z " fill-rule="evenodd" fill="rgb(196,196,196)" stroke-width="0.5" stroke="rgb(196,196,196)" />
	<path d="M44.4444,94.4444 50,94.4444 50,88.8889 44.4444,88.8889 z " fill-rule="evenodd" fill="rgb(0,0,0)" stroke-width="0.5" stroke="rgb(0,0,0)" />
	<path d="M44.4444,88.8889 50,88.8889 50,83.3333 44.4444,83.3333 z " fill-rule="evenodd" fill="rgb(192,192,192)" stroke-width="0.5" stroke="rgb(192,192,192)" />
	<path d="M44.4444,83.3333 50,83.3333 48.6111,79.1667 44.4444,77.7778 z " fill-rule="evenodd" fill="rgb(224,224,224)" stroke-width="0.5" stroke="rgb(224,224,224)" />
	<path d="M44.4444,77.7778 48.6111,79.1667 51.3889,76.3889 48.6111,73.6111 44.4444,72.2222 z " fill-rule="evenodd" fill="rgb(224,224,224)" stroke-width="0.5" stroke="rgb(224,224,224)" />
	<path d="M44.4444,72.2222 48.6111,73.6111 51.3889,70.8333 51.3889,68.0556 48.6111,65.2778 45.8333,65.2778 43.0556,68.0556 z " fill-rule="evenodd" fill="rgb(248,248,248)" stroke-width="0.5" stroke="rgb(248,248,248)" />
	<path d="M45.8333,65.2778 48.6111,65.2778 48.6111,62.5 45.8333,59.7222 43.0556,62.5 z " fill-rule="evenodd" fill="rgb(248,16,88)" stroke-width="0.5" stroke="rgb(248,16,88)" />
	<path d="M45.8333,59.7222 48.6111,62.5 51.3889,59.7222 50,55.5556 45.8333,54.1667 43.0556,56.9444 z " fill-rule="evenodd" fill="rgb(248,248,248)" stroke-width="0.5" stroke="rgb(248,248,248)" />
	<path d="M45.8333,54.1667 50,55.5556 50,50 44.4444,50 z " fill-rule="evenodd" fill="rgb(248,248,248)" stroke-width="0.5" stroke="rgb(248,248,248)" />
	<path d="M44.4444,50 50,50 48.6111,45.8333 44.4444,44.4444 z " fill-rule="evenodd" fill="rgb(248,248,248)" stroke-width="0.5" stroke="rgb(248,248,248)" />
	<path d="M44.4444,44.4444 48.6111,45.8333 51.3889,43.0556 50,38.8889 44.4444,38.8889 z " fill-rule="evenodd" fill="rgb(248,248,248)" stroke-width="0.5" stroke="rgb(248,248,248)" />
	<path d="M44.4444,38.8889 50,38.8889 51.3889,34.7222 48.6111,31.9445 44.4444,33.3333 z " fill-rule="evenodd" fill="rgb(248,248,248)" stroke-width="0.5" stroke="rgb(248,248,248)" />
	<path d="M44.4444,33.3333 48.6111,31.9445 50,27.7778 44.4444,27.7778 z " fill-rule="evenodd" fill="rgb(248,248,248)" stroke-width="0.5" stroke="rgb(248,248,248)" />
	<path d="M44.4444,27.7778 50,27.7778 50,22.2222 44.4444,22.2222 z " fill-rule="evenodd" fill="rgb(248,248,248)" stroke-width="0.5" stroke="rgb(248,248,248)" />
	<path d="M44.4444,22.2222 50,22.2222 50,16.6667 44.4444,16.6667 z " fill-rule="evenodd" fill="rgb(224,224,224)" stroke-width="0.5" stroke="rgb(224,224,224)" />
	<path d="M44.4444,16.6667 50,16.6667 50,11.1111 44.4444,11.1111 z " fill-rule="evenodd" fill="rgb(192,192,192)" stroke-width="0.5" stroke="rgb(192,192,192)" />
	<path d="M44.4444,11.1111 50,11.1111 50,5.55556 44.4444,5.55556 z " fill-rule="evenodd" fill="rgb(0,0,0)" stroke-width="0.5" stroke="rgb(0,0,0)" />
	<path d="M44.4444,5.55556 50,5.55556 50,0 47.2222,0 44.4444,0 z " fill-rule="evenodd" fill="rgb(196,196,196)" stroke-width="0.5" stroke="rgb(196,196,196)" />
	<path d="M50,100 52.7778,100 55.5556,100 55.5556,94.4444 50,94.4444 z " fill-rule="evenodd" fill="rgb(196,196,196)" stroke-width="0.5" stroke="rgb(196,196,196)" />
	<path d="M50,94.4444 55.5556,94.4444 55.5556,88.8889 50,88.8889 z " fill-rule="evenodd" fill="rgb(0,0,0)" stroke-width="0.5" stroke="rgb(0,0,0)" />
	<path d="M50,88.8889 55.5556,88.8889 55.5556,83.3333 50,83.3333 z " fill-rule="evenodd" fill="rgb(192,192,192)" stroke-width="0.5" stroke="rgb(192,192,192)" />
	<path d="M50,83.3333 55.5556,83.3333 55.5556,77.7778 51.3889,76.3889 48.6111,79.1667 z " fill-rule="evenodd" fill="rgb(224,224,224)" stroke-width="0.5" stroke="rgb(224,224,224)" />
	<path d="M51.3889,76.3889 55.5556,77.7778 55.5556,72.2222 51.3889,70.8333 48.6111,73.6111 z " fill-rule="evenodd" fill="rgb(248,248,248)" stroke-width="0.5" stroke="rgb(248,248,248)" />
	<path d="M51.3889,70.8333 55.5556,72.2222 55.5556,66.6667 51.3889,68.0556 z " fill-rule="evenodd" fill="rgb(248,248,248)" stroke-width="0.5" stroke="rgb(248,248,248)" />
	<path d="M48.6111,65.2778 51.3889,68.0556 55.5556,66.6667 55.5556,61.1111 51.3889,59.7222 48.6111,62.5 z " fill-rule="evenodd" fill="rgb(248,248,248)" stroke-width="0.5" stroke="rgb(248,248,248)" />
	<path d="M51.3889,59.7222 55.5556,61.1111 55.5556,55.5556 50,55.5556 z " fill-rule="evenodd" fill="rgb(248,248,248)" stroke-width="0.5" stroke="rgb(248,248,248)" />
	<path d="M50,55.5556 55.5556,55.5556 55.5556,50 50,50 z " fill-rule="evenodd" fill="rgb(248,248,248)" stroke-width="0.5" stroke="rgb(248,248,248)" />
	<path d="M50,50 55.5556,50 56.9444,45.8333 54.1667,43.0556 51.3889,43.0556 48.6111,45.8333 z " fill-rule="evenodd" fill="rgb(248,248,248)" stroke-width="0.5" stroke="rgb(248,248,248)" />
	<path d="M51.3889,43.0556 54.1667,43.0556 55.5556,38.8889 50,38.8889 z " fill-rule="evenodd" fill="rgb(0,0,0)" stroke-width="0.5" stroke="rgb(0,0,0)" />
	<path d="M50,38.8889 55.5556,38.8889 56.9444,34.7222 54.1667,31.9445 51.3889,34.7222 z " fill-rule="evenodd" fill="rgb(0,0,0)" stroke-width="0.5" stroke="rgb(0,0,0)" />
	<path d="M48.6111,31.9445 51.3889,34.7222 54.1667,31.9445 56.9444,29.1667 54.1667,26.3889 50,27.7778 z " fill-rule="evenodd" fill="rgb(248,248,248)" stroke-width="0.5" stroke="rgb(248,248,248)" />
	<path d="M50,27.7778 54.1667,26.3889 55.5556,22.2222 50,22.2222 z " fill-rule="evenodd" fill="rgb(248,248,248)" stroke-width="0.5" stroke="rgb(248,248,248)" />
	<path d="M50,22.2222 55.5556,22.2222 55.5556,16.6667 50,16.6667 z " fill-rule="evenodd" fill="rgb(224,224,224)" stroke-width="0.5" stroke="rgb(224,224,224)" />
	<path d="M50,16.6667 55.5556,16.6667 55.5556,11.1111 50,11.1111 z " fill-rule="evenodd" fill="rgb(192,192,192)" stroke-width="0.5" stroke="rgb(192,192,192)" />
	<path d="M50,11.1111 55.5556,11.1111 55.5556,5.55556 50,5.55556 z " fill-rule="evenodd" fill="rgb(0,0,0)" stroke-width="0.5" stroke="rgb(0,0,0)" />
	<path d="M50,5.55556 55.5556,5.55556 55.5556,0 52.7778,0 50,0 z " fill-rule="evenodd" fill="rgb(196,196,196)" stroke-width="0.5" stroke="rgb(196,196,196)" />
	<path d="M55.5556,100 58.3333,100 61.1111,100 62.5,95.8333 59.7222,93.0556 55.5556,94.4444 z " fill-rule="evenodd" fill="rgb(196,196,196)" stroke-width="0.5" stroke="rgb(196,196,196)" />
	<path d="M55.5556,94.4444 59.7222,93.0556 62.5,90.2778 59.7222,87.5 55.5556,88.8889 z " fill-rule="evenodd" fill="rgb(0,0,0)" stroke-width="0.5" stroke="rgb(0,0,0)" />
	<path d="M55.5556,88.8889 59.7222,87.5 61.1111,83.3333 55.5556,83.3333 z " fill-rule="evenodd" fill="rgb(192,192,192)" stroke-width="0.5" stroke="rgb(192,192,192)" />
	<path d="M55.5556,83.3333 61.1111,83.3333 61.1111,77.7778 55.5556,77.7778 z " fill-rule="evenodd" fill="rgb(224,224,224)" stroke-width="0.5" stroke="rgb(224,224,224)" />
	<path d="M55.5556,77.7778 61.1111,77.7778 61.1111,72.2222 55.5556,72.2222 z " fill-rule="evenodd" fill="rgb(248,248,248)" stroke-width="0.5" stroke="rgb(248,248,248)" />
	<path d="M55.5556,72.2222 61.1111,72.2222 61.1111,66.6667 55.5556,66.6667 z " fill-rule="evenodd" fill="rgb(248,248,248)" stroke-width="0.5" stroke="rgb(248,248,248)" />
	<path d="M55.5556,66.6667 61.1111,66.6667 61.1111,61.1111 55.5556,61.1111 z " fill-rule="evenodd" fill="rgb(248,248,248)" stroke-width="0.5" stroke="rgb(248,248,248)" />
	<path d="M55.5556,61.1111 61.1111,61.1111 61.1111,55.5556 55.5556,55.5556 z " fill-rule="evenodd" fill="rgb(248,248,248)" stroke-width="0.5" stroke="rgb(248,248,248)" />
	<path d="M55.5556,55.5556 61.1111,55.5556 61.1111,50 55.5556,50 z " fill-rule="evenodd" fill="rgb(248,248,248)" stroke-width="0.5" stroke="rgb(248,248,248)" />
	<path d="M55.5556,50 61.1111,50 61.1111,44.4444 56.9444,45.8333 z " fill-rule="evenodd" fill="rgb(248,248,248)" stroke-width="0.5" stroke="rgb(248,248,248)" />
	<path d="M54.1667,43.0556 56.9444,45.8333 61.1111,44.4444 61.1111,38.8889 55.5556,38.8889 z " fill-rule="evenodd" fill="rgb(248,248,248)" stroke-width="0.5" stroke="rgb(248,248,248)" />
	<path d="M55.5556,38.8889 61.1111,38.8889 61.1111,33.3333 56.9444,34.7222 z " fill-rule="evenodd" fill="rgb(248,248,248)" stroke-width="0.5" stroke="rgb(248,248,248)" />
	<path d="M54.1667,31.9445 56.9444,34.7222 61.1111,33.3333 61.1111,27.7778 56.9444,29.1667 z " fill-rule="evenodd" fill="rgb(0,0,0)" stroke-width="0.5" stroke="rgb(0,0,0)" />
	<path d="M54.1667,26.3889 56.9444,29.1667 61.1111,27.7778 61.1111,22.2222 55.5556,22.2222 z " fill-rule="evenodd" fill="rgb(248,248,248)" stroke-width="0.5" stroke="rgb(248,248,248)" />
	<path d="M55.5556,22.2222 61.1111,22.2222 61.1111,16.6667 55.5556,16.6667 z " fill-rule="evenodd" fill="rgb(224,224,224)" stroke-width="0.5" stroke="rgb(224,224,224)" />
	<path d="M55.5556,16.6667 61.1111,16.6667 59.7222,12.5 55.5556,11.1111 z " fill-rule="evenodd" fill="rgb(192,192,192)" stroke-width="0.5" stroke="rgb(192,192,192)" />
	<path d="M55.5556,11.1111 59.7222,12.5 62.5,9.72223 59.7222,6.94445 55.5556,5.55556 z " fill-rule="evenodd" fill="rgb(0,0,0)" stroke-width="0.5" stroke="rgb(0,0,0)" />
	<path d="M55.5556,5.55556 59.7222,6.94445 62.5,4.16667 61.1111,0 58.3333,0 55.5556,0 z " fill-rule="evenodd" fill="rgb(196,196,196)" stroke-width="0.5" stroke="rgb(196,196,196)" />
	<path d="M61.1111,100 63.8889,100 66.6667,100 66.6667,94.4444 62.5,95.8333 z " fill-rule="evenodd" fill="rgb(196,196,196)" stroke-width="0.5" stroke="rgb(196,196,196)" />
	<path d="M59.7222,93.0556 62.5,95.8333 66.6667,94.4444 66.6667,88.8889 62.5,90.2778 z " fill-rule="evenodd" fill="rgb(196,196,196)" stroke-width="0.5" stroke="rgb(196,196,196)" />
	<path d="M59.7222,87.5 62.5,90.2778 66.6667,88.8889 66.6667,83.3333 61.1111,83.3333 z " fill-rule="evenodd" fill="rgb(0,0,0)" stroke-width="0.5" stroke="rgb(0,0,0)" />
	<path d="M61.1111,83.3333 66.6667,83.3333 68.0555,79.1667 65.2778,76.3889 61.1111,77.7778 z " fill-rule="evenodd" fill="rgb(224,224,224)" stroke-width="0.5" stroke="rgb(224,224,224)" />
	<path d="M61.1111,77.7778 65.2778,76.3889 68.0555,73.6111 65.2778,70.8333 61.1111,72.2222 z " fill-rule="evenodd" fill="rgb(248,248,248)" stroke-width="0.5" stroke="rgb(248,248,248)" />
	<path d="M61.1111,72.2222 65.2778,70.8333 66.6667,66.6667 61.1111,66.6667 z " fill-rule="evenodd" fill="rgb(248,248,248)" stroke-width="0.5" stroke="rgb(248,248,248)" />
	<path d="M61.1111,66.6667 66.6667,66.6667 66.6667,61.1111 61.1111,61.1111 z " fill-rule="evenodd" fill="rgb(248,248,248)" stroke-width="0.5" stroke="rgb(248,248,248)" />
	<path d="M61.1111,61.1111 66.6667,61.1111 65.2778,56.9444 61.1111,55.5556 z " fill-rule="evenodd" fill="rgb(248,248,248)" stroke-width="0.5" stroke="rgb(248,248,248)" />
	<path d="M61.1111,55.5556 65.2778,56.9444 68.0555,54.1667 66.6667,50 61.1111,50 z " fill-rule="evenodd" fill="rgb(248,248,248)" stroke-width="0.5" stroke="rgb(248,248,248)" />
	<path d="M61.1111,50 66.6667,50 66.6667,44.4444 61.1111,44.4444 z " fill-rule="evenodd" fill="rgb(248,248,248)" stroke-width="0.5" stroke="rgb(248,248,248)" />
	<path d="M61.1111,44.4444 66.6667,44.4444 66.6667,38.8889 61.1111,38.8889 z " fill-rule="evenodd" fill="rgb(248,248,248)" stroke-width="0.5" stroke="rgb(248,248,248)" />
	<path d="M61.1111,38.8889 66.6667,38.8889 68.0555,34.7222 65.2778,31.9445 61.1111,33.3333 z " fill-rule="evenodd" fill="rgb(248,248,248)" stroke-width="0.5" stroke="rgb(248,248,248)" />
	<path d="M61.1111,33.3333 65.2778,31.9445 65.2778,29.1667 61.1111,27.7778 z " fill-rule="evenodd" fill="rgb(0,0,0)" stroke-width="0.5" stroke="rgb(0,0,0)" />
	<path d="M61.1111,27.7778 65.2778,29.1667 68.0555,26.3889 65.2778,23.6111 61.1111,22.2222 z " fill-rule="evenodd" fill="rgb(248,248,248)" stroke-width="0.5" stroke="rgb(248,248,248)" />
	<path d="M61.1111,22.2222 65.2778,23.6111 68.0555,20.8333 66.6667,16.6667 61.1111,16.6667 z " fill-rule="evenodd" fill="rgb(224,224,224)" stroke-width="0.5" stroke="rgb(224,224,224)" />
	<path d="M61.1111,16.6667 66.6667,16.6667 66.6667,11.1111 62.5,9.72223 59.7222,12.5 z " fill-rule="evenodd" fill="rgb(0,0,0)" stroke-width="0.5" stroke="rgb(0,0,0)" />
	<path d="M62.5,9.72223 66.6667,11.1111 66.6667,5.55556 62.5,4.16667 59.7222,6.94445 z " fill-rule="evenodd" fill="rgb(196,196,196)" stroke-width="0.5" stroke="rgb(196,196,196)" />
	<path d="M62.5,4.16667 66.6667,5.55556 66.6667,0 63.8889,0 61.1111,0 z " fill-rule="evenodd" fill="rgb(196,196,196)" stroke-width="0.5" stroke="rgb(196,196,196)" />
	<path d="M66.6667,100 69.4444,100 72.2222,100 72.2222,94.4444 66.6667,94.4444 z " fill-rule="evenodd" fill="rgb(196,196,196)" stroke-width="0.5" stroke="rgb(196,196,196)" />
	<path d="M66.6667,94.4444 72.2222,94.4444 73.6111,90.2778 70.8333,87.5 66.6667,88.8889 z " fill-rule="evenodd" fill="rgb(196,196,196)" stroke-width="0.5" stroke="rgb(196,196,196)" />
	<path d="M66.6667,88.8889 70.8333,87.5 73.6111,84.7222 70.8333,81.9444 66.6667,83.3333 z " fill-rule="evenodd" fill="rgb(0,0,0)" stroke-width="0.5" stroke="rgb(0,0,0)" />
	<path d="M66.6667,83.3333 70.8333,81.9444 73.6111,79.1667 70.8333,76.3889 68.0555,79.1667 z " fill-rule="evenodd" fill="rgb(192,192,192)" stroke-width="0.5" stroke="rgb(192,192,192)" />
	<path d="M65.2778,76.3889 68.0555,79.1667 70.8333,76.3889 73.6111,73.6111 70.8333,70.8333 68.0555,73.6111 z " fill-rule="evenodd" fill="rgb(224,224,224)" stroke-width="0.5" stroke="rgb(224,224,224)" />
	<path d="M65.2778,70.8333 68.0555,73.6111 70.8333,70.8333 73.6111,68.0556 70.8333,65.2778 66.6667,66.6667 z " fill-rule="evenodd" fill="rgb(248,248,248)" stroke-width="0.5" stroke="rgb(248,248,248)" />
	<path d="M66.6667,66.6667 70.8333,65.2778 70.8333,62.5 66.6667,61.1111 z " fill-rule="evenodd" fill="rgb(248,248,248)" stroke-width="0.5" stroke="rgb(248,248,248)" />
	<path d="M66.6667,61.1111 70.8333,62.5 73.6111,59.7222 73.6111,56.9444 70.8333,54.1667 68.0555,54.1667 65.2778,56.9444 z " fill-rule="evenodd" fill="rgb(248,248,248)" stroke-width="0.5" stroke="rgb(248,248,248)" />
	<path d="M68.0555,54.1667 70.8333,54.1667 72.2222,50 66.6667,50 z " fill-rule="evenodd" fill="rgb(0,0,0)" stroke-width="0.5" stroke="rgb(0,0,0)" />
	<path d="M66.6667,50 72.2222,50 72.2222,44.4444 66.6667,44.4444 z " fill-rule="evenodd" fill="rgb(0,0,0)" stroke-width="0.5" stroke="rgb(0,0,0)" />
	<path d="M66.6667,44.4444 72.2222,44.4444 72.2222,38.8889 66.6667,38.8889 z " fill-rule="evenodd" fill="rgb(0,0,0)" stroke-width="0.5" stroke="rgb(0,0,0)" />
	<path d="M66.6667,38.8889 72.2222,38.8889 72.2222,33.3333 68.0555,34.7222 z " fill-rule="evenodd" fill="rgb(0,0,0)" stroke-width="0.5" stroke="rgb(0,0,0)" />
	<path d="M65.2778,31.9445 68.0555,34.7222 72.2222,33.3333 70.8333,29.1667 68.0555,26.3889 65.2778,29.1667 z " fill-rule="evenodd" fill="rgb(248,248,248)" stroke-width="0.5" stroke="rgb(248,248,248)" />
	<path d="M68.0555,26.3889 70.8333,29.1667 73.6111,26.3889 72.2222,22.2222 68.0555,20.8333 65.2778,23.6111 z " fill-rule="evenodd" fill="rgb(224,224,224)" stroke-width="0.5" stroke="rgb(224,224,224)" />
	<path d="M68.0555,20.8333 72.2222,22.2222 70.8333,18.0556 66.6667,16.6667 z " fill-rule="evenodd" fill="rgb(192,192,192)" stroke-width="0.5" stroke="rgb(192,192,192)" />
	<path d="M66.6667,16.6667 70.8333,18.0556 73.6111,15.2778 70.8333,12.5 66.6667,11.1111 z " fill-rule="evenodd" fill="rgb(0,0,0)" stroke-width="0.5" stroke="rgb(0,0,0)" />
	<path d="M66.6667,11.1111 70.8333,12.5 73.6111,9.72223 72.2222,5.55556 66.6667,5.55556 z " fill-rule="evenodd" fill="rgb(196,196,196)" stroke-width="0.5" stroke="rgb(196,196,196)" />
	<path d="M66.6667,5.55556 72.2222,5.55556 72.2222,0 69.4444,0 66.6667,0 z " fill-rule="evenodd" fill="rgb(196,196,196)" stroke-width="0.5" stroke="rgb(196,196,196)" />
	<path d="M72.2222,100 75,100 77.7778,100 77.7778,94.4444 72.2222,94.4444 z " fill-rule="evenodd" fill="rgb(196,196,196)" stroke-width="0.5" stroke="rgb(196,196,196)" />
	<path d="M72.2222,94.4444 77.7778,94.4444 77.7778,88.8889 73.6111,90.2778 z " fill-rule="evenodd" fill="rgb(196,196,196)" stroke-width="0.5" stroke="rgb(196,196,196)" />
	<path d="M70.8333,87.5 73.6111,90.2778 77.7778,88.8889 77.7778,83.3333 73.6111,84.7222 z " fill-rule="evenodd" fill="rgb(196,196,196)" stroke-width="0.5" stroke="rgb(196,196,196)" />
	<path d="M70.8333,81.9444 73.6111,84.7222 77.7778,83.3333 77.7778,77.7778 73.6111,79.1667 z " fill-rule="evenodd" fill="rgb(0,0,0)" stroke-width="0.5" stroke="rgb(0,0,0)" />
	<path d="M70.8333,76.3889 73.6111,79.1667 77.7778,77.7778 79.1667,73.6111 76.3889,70.8333 73.6111,73.6111 z " fill-rule="evenodd" fill="rgb(192,192,192)" stroke-width="0.5" stroke="rgb(192,192,192)" />
	<path d="M70.8333,70.8333 73.6111,73.6111 76.3889,70.8333 79.1667,68.0556 76.3889,65.2778 73.6111,68.0556 z " fill-rule="evenodd" fill="rgb(224,224,224)" stroke-width="0.5" stroke="rgb(224,224,224)" />
	<path d="M70.8333,65.2778 73.6111,68.0556 76.3889,65.2778 76.3889,62.5 73.6111,59.7222 70.8333,62.5 z " fill-rule="evenodd" fill="rgb(248,248,248)" stroke-width="0.5" stroke="rgb(248,248,248)" />
	<path d="M73.6111,59.7222 76.3889,62.5 79.1667,59.7222 79.1667,56.9444 76.3889,54.1667 73.6111,56.9444 z " fill-rule="evenodd" fill="rgb(224,224,224)" stroke-width="0.5" stroke="rgb(224,224,224)" />
	<path d="M70.8333,54.1667 73.6111,56.9444 76.3889,54.1667 77.7778,50 72.2222,50 z " fill-rule="evenodd" fill="rgb(248,248,248)" stroke-width="0.5" stroke="rgb(248,248,248)" />
	<path d="M72.2222,50 77.7778,50 77.7778,44.4444 72.2222,44.4444 z " fill-rule="evenodd" fill="rgb(248,248,248)" stroke-width="0.5" stroke="rgb(248,248,248)" />
	<path d="M72.2222,44.4444 77.7778,44.4444 76.3889,40.2778 72.2222,38.8889 z " fill-rule="evenodd" fill="rgb(248,248,248)" stroke-width="0.5" stroke="rgb(248,248,248)" />
	<path d="M72.2222,38.8889 76.3889,40.2778 79.1667,37.5 77.7778,33.3333 72.2222,33.3333 z " fill-rule="evenodd" fill="rgb(224,224,224)" stroke-width="0.5" stroke="rgb(224,224,224)" />
	<path d="M72.2222,33.3333 77.7778,33.3333 77.7778,27.7778 73.6111,26.3889 70.8333,29.1667 z " fill-rule="evenodd" fill="rgb(224,224,224)" stroke-width="0.5" stroke="rgb(224,224,224)" />
	<path d="M73.6111,26.3889 77.7778,27.7778 76.3889,23.6111 72.2222,22.2222 z " fill-rule="evenodd" fill="rgb(224,224,224)" stroke-width="0.5" stroke="rgb(224,224,224)" />
	<path d="M72.2222,22.2222 76.3889,23.6111 79.1667,20.8333 76.3889,18.0556 73.6111,15.2778 70.8333,18.0556 z " fill-rule="evenodd" fill="rgb(0,0,0)" stroke-width="0.5" stroke="rgb(0,0,0)" />
	<path d="M73.6111,15.2778 76.3889,18.0556 79.1667,15.2778 77.7778,11.1111 73.6111,9.72223 70.8333,12.5 z " fill-rule="evenodd" fill="rgb(196,196,196)" stroke-width="0.5" stroke="rgb(196,196,196)" />
	<path d="M73.6111,9.72223 77.7778,11.1111 77.7778,5.55556 72.2222,5.55556 z " fill-rule="evenodd" fill="rgb(196,196,196)" stroke-width="0.5" stroke="rgb(196,196,196)" />
	<path d="M72.2222,5.55556 77.7778,5.55556 77.7778,0 75,0 72.2222,0 z " fill-rule="evenodd" fill="rgb(196,196,196)" stroke-width="0.5" stroke="rgb(196,196,196)" />
	<path d="M77.7778,100 80.5555,100 83.3333,100 83.3333,94.4444 77.7778,94.4444 z " fill-rule="evenodd" fill="rgb(196,196,196)" stroke-width="0.5" stroke="rgb(196,196,196)" />
	<path d="M77.7778,94.4444 83.3333,94.4444 83.3333,88.8889 77.7778,88.8889 z " fill-rule="evenodd" fill="rgb(196,196,196)" stroke-width="0.5" stroke="rgb(196,196,196)" />
	<path d="M77.7778,88.8889 83.3333,88.8889 84.7222,84.7222 81.9444,81.9444 77.7778,83.3333 z " fill-rule="evenodd" fill="rgb(196,196,196)" stroke-width="0.5" stroke="rgb(196,196,196)" />
	<path d="M77.7778,83.3333 81.9444,81.9444 84.7222,79.1667 81.9444,76.3889 77.7778,77.7778 z " fill-rule="evenodd" fill="rgb(0,0,0)" stroke-width="0.5" stroke="rgb(0,0,0)" />
	<path d="M77.7778,77.7778 81.9444,76.3889 83.3333,72.2222 79.1667,73.6111 z " fill-rule="evenodd" fill="rgb(192,192,192)" stroke-width="0.5" stroke="rgb(192,192,192)" />
	<path d="M76.3889,70.8333 79.1667,73.6111 83.3333,72.2222 84.7222,68.0556 81.9444,65.2778 79.1667,68.0556 z " fill-rule="evenodd" fill="rgb(192,192,192)" stroke-width="0.5" stroke="rgb(192,192,192)" />
	<path d="M76.3889,65.2778 79.1667,68.0556 81.9444,65.2778 81.9444,62.5 79.1667,59.7222 76.3889,62.5 z " fill-rule="evenodd" fill="rgb(224,224,224)" stroke-width="0.5" stroke="rgb(224,224,224)" />
	<path d="M79.1667,59.7222 81.9444,62.5 84.7222,59.7222 83.3333,55.5556 79.1667,56.9444 z " fill-rule="evenodd" fill="rgb(192,192,192)" stroke-width="0.5" stroke="rgb(192,192,192)" />
	<path d="M76.3889,54.1667 79.1667,56.9444 83.3333,55.5556 83.3333,50 77.7778,50 z " fill-rule="evenodd" fill="rgb(224,224,224)" stroke-width="0.5" stroke="rgb(224,224,224)" />
	<path d="M77.7778,50 83.3333,50 83.3333,44.4444 77.7778,44.4444 z " fill-rule="evenodd" fill="rgb(224,224,224)" stroke-width="0.5" stroke="rgb(224,224,224)" />
	<path d="M77.7778,44.4444 83.3333,44.4444 81.9444,40.2778 79.1667,37.5 76.3889,40.2778 z " fill-rule="evenodd" fill="rgb(224,224,224)" stroke-width="0.5" stroke="rgb(224,224,224)" />
	<path d="M79.1667,37.5 81.9444,40.2778 84.7222,37.5 81.9444,34.7222 77.7778,33.3333 z " fill-rule="evenodd" fill="rgb(192,192,192)" stroke-width="0.5" stroke="rgb(192,192,192)" />
	<path d="M77.7778,33.3333 81.9444,34.7222 84.7222,31.9445 83.3333,27.7778 77.7778,27.7778 z " fill-rule="evenodd" fill="rgb(0,0,0)" stroke-width="0.5" stroke="rgb(0,0,0)" />
	<path d="M77.7778,27.7778 83.3333,27.7778 81.9444,23.6111 79.1667,20.8333 76.3889,23.6111 z " fill-rule="evenodd" fill="rgb(0,0,0)" stroke-width="0.5" stroke="rgb(0,0,0)" />
	<path d="M79.1667,20.8333 81.9444,23.6111 84.7222,20.8333 83.3333,16.6667 79.1667,15.2778 76.3889,18.0556 z " fill-rule="evenodd" fill="rgb(196,196,196)" stroke-width="0.5" stroke="rgb(196,196,196)" />
	<path d="M79.1667,15.2778 83.3333,16.6667 83.3333,11.1111 77.7778,11.1111 z " fill-rule="evenodd" fill="rgb(196,196,196)" stroke-width="0.5" stroke="rgb(196,196,196)" />
	<path d="M77.7778,11.1111 83.3333,11.1111 83.3333,5.55556 77.7778,5.55556 z " fill-rule="evenodd" fill="rgb(196,196,196)" stroke-width="0.5" stroke="rgb(196,196,196)" />
	<path d="M77.7778,5.55556 83.3333,5.55556 83.3333,0 80.5555,0 77.7778,0 z " fill-rule="evenodd" fill="rgb(196,196,196)" stroke-width="0.5" stroke="rgb(196,196,196)" />
	<path d="M83.3333,100 86.1111,100 88.8889,100 88.8889,94.4444 83.3333,94.4444 z " fill-rule="evenodd" fill="rgb(196,196,196)" stroke-width="0.5" stroke="rgb(196,196,196)" />
	<path d="M83.3333,94.4444 88.8889,94.4444 88.8889,88.8889 83.3333,88.8889 z " fill-rule="evenodd" fill="rgb(196,196,196)" stroke-width="0.5" stroke="rgb(196,196,196)" />
	<path d="M83.3333,88.8889 88.8889,88.8889 88.8889,83.3333 84.7222,84.7222 z " fill-rule="evenodd" fill="rgb(196,196,196)" stroke-width="0.5" stroke="rgb(196,196,196)" />
	<path d="M81.9444,81.9444 84.7222,84.7222 88.8889,83.3333 90.2778,79.1667 87.5,76.3889 84.7222,79.1667 z " fill-rule="evenodd" fill="rgb(196,196,196)" stroke-width="0.5" stroke="rgb(196,196,196)" />
	<path d="M81.9444,76.3889 84.7222,79.1667 87.5,76.3889 88.8889,72.2222 83.3333,72.2222 z " fill-rule="evenodd" fill="rgb(0,0,0)" stroke-width="0.5" stroke="rgb(0,0,0)" />
	<path d="M83.3333,72.2222 88.8889,72.2222 90.2778,68.0556 87.5,65.2778 84.7222,68.0556 z " fill-rule="evenodd" fill="rgb(0,0,0)" stroke-width="0.5" stroke="rgb(0,0,0)" />
	<path d="M81.9444,65.2778 84.7222,68.0556 87.5,65.2778 88.8889,61.1111 84.7222,59.7222 81.9444,62.5 z " fill-rule="evenodd" fill="rgb(192,192,192)" stroke-width="0.5" stroke="rgb(192,192,192)" />
	<path d="M84.7222,59.7222 88.8889,61.1111 87.5,56.9444 83.3333,55.5556 z " fill-rule="evenodd" fill="rgb(192,192,192)" stroke-width="0.5" stroke="rgb(192,192,192)" />
	<path d="M83.3333,55.5556 87.5,56.9444 90.2778,54.1667 90.2778,51.3889 87.5,48.6111 83.3333,50 z " fill-rule="evenodd" fill="rgb(0,0,0)" stroke-width="0.5" stroke="rgb(0,0,0)" />
	<path d="M83.3333,50 87.5,48.6111 88.8889,44.4444 83.3333,44.4444 z " fill-rule="evenodd" fill="rgb(192,192,192)" stroke-width="0.5" stroke="rgb(192,192,192)" />
	<path d="M83.3333,44.4444 88.8889,44.4444 87.5,40.2778 84.7222,37.5 81.9444,40.2778 z " fill-rule="evenodd" fill="rgb(192,192,192)" stroke-width="0.5" stroke="rgb(192,192,192)" />
	<path d="M84.7222,37.5 87.5,40.2778 90.2778,37.5 87.5,34.7222 84.7222,31.9445 81.9444,34.7222 z " fill-rule="evenodd" fill="rgb(0,0,0)" stroke-width="0.5" stroke="rgb(0,0,0)" />
	<path d="M84.7222,31.9445 87.5,34.7222 90.2778,31.9445 88.8889,27.7778 83.3333,27.7778 z " fill-rule="evenodd" fill="rgb(196,196,196)" stroke-width="0.5" stroke="rgb(196,196,196)" />
	<path d="M83.3333,27.7778 88.8889,27.7778 88.8889,22.2222 84.7222,20.8333 81.9444,23.6111 z " fill-rule="evenodd" fill="rgb(196,196,196)" stroke-width="0.5" stroke="rgb(196,196,196)" />
	<path d="M84.7222,20.8333 88.8889,22.2222 88.8889,16.6667 83.3333,16.6667 z " fill-rule="evenodd" fill="rgb(196,196,196)" stroke-width="0.5" stroke="rgb(196,196,196)" />
	<path d="M83.3333,16.6667 88.8889,16.6667 88.8889,11.1111 83.3333,11.1111 z " fill-rule="evenodd" fill="rgb(196,196,196)" stroke-width="0.5" stroke="rgb(196,196,196)" />
	<path d="M83.3333,11.1111 88.8889,11.1111 88.8889,5.55556 83.3333,5.55556 z " fill-rule="evenodd" fill="rgb(196,196,196)" stroke-width="0.5" stroke="rgb(196,196,196)" />
	<path d="M83.3333,5.55556 88.8889,5.55556 88.8889,0 86.1111,0 83.3333,0 z " fill-rule="evenodd" fill="rgb(196,196,196)" stroke-width="0.5" stroke="rgb(196,196,196)" />
	<path d="M88.8889,100 91.6667,100 94.4444,100 94.4444,94.4444 88.8889,94.4444 z " fill-rule="evenodd" fill="rgb(196,196,196)" stroke-width="0.5" stroke="rgb(196,196,196)" />
	<path d="M88.8889,94.4444 94.4444,94.4444 94.4444,88.8889 88.8889,88.8889 z " fill-rule="evenodd" fill="rgb(196,196,196)" stroke-width="0.5" stroke="rgb(196,196,196)" />
	<path d="M88.8889,88.8889 94.4444,88.8889 94.4444,83.3333 88.8889,83.3333 z " fill-rule="evenodd" fill="rgb(196,196,196)" stroke-width="0.5" stroke="rgb(196,196,196)" />
	<path d="M88.8889,83.3333 94.4444,83.3333 94.4444,77.7778 90.2778,79.1667 z " fill-rule="evenodd" fill="rgb(196,196,196)" stroke-width="0.5" stroke="rgb(196,196,196)" />
	<path d="M87.5,76.3889 90.2778,79.1667 94.4444,77.7778 94.4444,72.2222 88.8889,72.2222 z " fill-rule="evenodd" fill="rgb(196,196,196)" stroke-width="0.5" stroke="rgb(196,196,196)" />
	<path d="M88.8889,72.2222 94.4444,72.2222 95.8333,68.0556 93.0555,65.2778 90.2778,68.0556 z " fill-rule="evenodd" fill="rgb(196,196,196)" stroke-width="0.5" stroke="rgb(196,196,196)" />
	<path d="M87.5,65.2778 90.2778,68.0556 93.0555,65.2778 94.4444,61.1111 88.8889,61.1111 z " fill-rule="evenodd" fill="rgb(0,0,0)" stroke-width="0.5" stroke="rgb(0,0,0)" />
	<path d="M88.8889,61.1111 94.4444,61.1111 93.0555,56.9444 90.2778,54.1667 87.5,56.9444 z " fill-rule="evenodd" fill="rgb(0,0,0)" stroke-width="0.5" stroke="rgb(0,0,0)" />
	<path d="M90.2778,54.1667 93.0555,56.9444 95.8333,54.1667 95.8333,51.3889 93.0555,48.6111 90.2778,51.3889 z " fill-rule="evenodd" fill="rgb(196,196,196)" stroke-width="0.5" stroke="rgb(196,196,196)" />
	<path d="M87.5,48.6111 90.2778,51.3889 93.0555,48.6111 94.4444,44.4444 88.8889,44.4444 z " fill-rule="evenodd" fill="rgb(0,0,0)" stroke-width="0.5" stroke="rgb(0,0,0)" />
	<path d="M88.8889,44.4444 94.4444,44.4444 93.0555,40.2778 90.2778,37.5 87.5,40.2778 z " fill-rule="evenodd" fill="rgb(0,0,0)" stroke-width="0.5" stroke="rgb(0,0,0)" />
	<path d="M90.2778,37.5 93.0555,40.2778 95.8333,37.5 94.4444,33.3333 90.2778,31.9445 87.5,34.7222 z " fill-rule="evenodd" fill="rgb(196,196,196)" stroke-width="0.5" stroke="rgb(196,196,196)" />
	<path d="M90.2778,31.9445 94.4444,33.3333 94.4444,27.7778 88.8889,27.7778 z " fill-rule="evenodd" fill="rgb(196,196,196)" stroke-width="0.5" stroke="rgb(196,196,196)" />
	<path d="M88.8889,27.7778 94.4444,27.7778 94.4444,22.2222 88.8889,22.2222 z " fill-rule="evenodd" fill="rgb(196,196,196)" stroke-width="0.5" stroke="rgb(196,196,196)" />
	<path d="M88.8889,22.2222 94.4444,22.2222 94.4444,16.6667 88.8889,16.6667 z " fill-rule="evenodd" fill="rgb(196,196,196)" stroke-width="0.5" stroke="rgb(196,196,196)" />
	<path d="M88.8889,16.6667 94.4444,16.6667 94.4444,11.1111 88.8889,11.1111 z " fill-rule="evenodd" fill="rgb(196,196,196)" stroke-width="0.5" stroke="rgb(196,196,196)" />
	<path d="M88.8889,11.1111 94.4444,11.1111 94.4444,5.55556 88.8889,5.55556 z " fill-rule="evenodd" fill="rgb(196,196,196)" stroke-width="0.5" stroke="rgb(196,196,196)" />
	<path d="M88.8889,5.55556 94.4444,5.55556 94.4444,0 91.6667,0 88.8889,0 z " fill-rule="evenodd" fill="rgb(196,196,196)" stroke-width="0.5" stroke="rgb(196,196,196)" />
	<path d="M94.4444,100 97.2222,100 100,100 100,97.2222 100,94.4444 94.4444,94.4444 z " fill-rule="evenodd" fill="rgb(196,196,196)" stroke-width="0.5" stroke="rgb(196,196,196)" />
	<path d="M94.4444,94.4444 100,94.4444 100,91.6667 100,88.8889 94.4444,88.8889 z " fill-rule="evenodd" fill="rgb(196,196,196)" stroke-width="0.5" stroke="rgb(196,196,196)" />
	<path d="M94.4444,88.8889 100,88.8889 100,86.1111 100,83.3333 94.4444,83.3333 z " fill-rule="evenodd" fill="rgb(196,196,196)" stroke-width="0.5" stroke="rgb(196,196,196)" />
	<path d="M94.4444,83.3333 100,83.3333 100,80.5556 100,77.7778 94.4444,77.7778 z " fill-rule="evenodd" fill="rgb(196,196,196)" stroke-width="0.5" stroke="rgb(196,196,196)" />
	<path d="M94.4444,77.7778 100,77.7778 100,75 100,72.2222 94.4444,72.2222 z " fill-rule="evenodd" fill="rgb(196,196,196)" stroke-width="0.5" stroke="rgb(196,196,196)" />
	<path d="M94.4444,72.2222 100,72.2222 100,69.4444 100,66.6667 95.8333,68.0556 z " fill-rule="evenodd" fill="rgb(196,196,196)" stroke-width="0.5" stroke="rgb(196,196,196)" />
	<path d="M93.0555,65.2778 95.8333,68.0556 100,66.6667 100,63.8889 100,61.1111 94.4444,61.1111 z " fill-rule="evenodd" fill="rgb(196,196,196)" stroke-width="0.5" stroke="rgb(196,196,196)" />
	<path d="M94.4444,61.1111 100,61.1111 100,58.3333 100,55.5556 95.8333,54.1667 93.0555,56.9444 z " fill-rule="evenodd" fill="rgb(196,196,196)" stroke-width="0.5" stroke="rgb(196,196,196)" />
	<path d="M95.8333,54.1667 100,55.5556 100,52.7778 100,50 95.8333,51.3889 z " fill-rule="evenodd" fill="rgb(196,196,196)" stroke-width="0.5" stroke="rgb(196,196,196)" />
	<path d="M93.0555,48.6111 95.8333,51.3889 100,50 100,47.2222 100,44.4444 94.4444,44.4444 z " fill-rule="evenodd" fill="rgb(196,196,196)" stroke-width="0.5" stroke="rgb(196,196,196)" />
	<path d="M94.4444,44.4444 100,44.4444 100,41.6667 100,38.8889 95.8333,37.5 93.0555,40.2778 z " fill-rule="evenodd" fill="rgb(196,196,196)" stroke-width="0.5" stroke="rgb(196,196,196)" />
	<path d="M95.8333,37.5 100,38.8889 100,36.1111 100,33.3333 94.4444,33.3333 z " fill-rule="evenodd" fill="rgb(196,196,196)" stroke-width="0.5" stroke="rgb(196,196,196)" />
	<path d="M94.4444,33.3333 100,33.3333 100,30.5556 100,27.7778 94.4444,27.7778 z " fill-rule="evenodd" fill="rgb(196,196,196)" stroke-width="0.5" stroke="rgb(196,196,196)" />
	<path d="M94.4444,27.7778 100,27.7778 100,25 100,22.2222 94.4444,22.2222 z " fill-rule="evenodd" fill="rgb(196,196,196)" stroke-width="0.5" stroke="rgb(196,196,196)" />
	<path d="M94.4444,22.2222 100,22.2222 100,19.4445 100,16.6667 94.4444,16.6667 z " fill-rule="evenodd" fill="rgb(196,196,196)" stroke-width="0.5" stroke="rgb(196,196,196)" />
	<path d="M94.4444,16.6667 100,16.6667 100,13.8889 100,11.1111 94.4444,11.1111 z " fill-rule="evenodd" fill="rgb(196,196,196)" stroke-width="0.5" stroke="rgb(196,196,196)" />
	<path d="M94.4444,11.1111 100,11.1111 100,8.33334 100,5.55556 94.4444,5.55556 z " fill-rule="evenodd" fill="rgb(196,196,196)" stroke-width="0.5" stroke="rgb(196,196,196)" />
	<path d="M94.4444,5.55556 100,5.55556 100,2.77778 100,0 97.2222,0 94.4444,0 z " fill-rule="evenodd" fill="rgb(196,196,196)" stroke-width="0.5" stroke="rgb(196,196,196)" />
</svg>
