<?xml version="1.0" standalone="no" ?>
<!DOCTYPE svg PUBLIC "-//W3C//DTD SVG 1.1//EN" "http://www.w3.org/Graphics/SVG/1.1/DTD/svg11.dtd">
<svg width="100px" height="100px" xmlns="http://www.w3.org/2000/svg" version="1.1" >
	<path d="M0,100 3.125,100 6.25,100 9.375,100 12.5,100 15.625,100 18.75,100 21.875,100 25,100 28.125,100 31.25,100 29.6875,95.3125 25,93.75 20.3125,92.1875 17.1875,89.0625 14.0625,85.9375 10.9375,82.8125 7.8125,79.6875 6.25,75 4.6875,70.3125 0,68.75 0,71.875 0,75 0,78.125 0,81.25 0,84.375 0,87.5 0,90.625 0,93.75 0,96.875 z " fill-rule="evenodd" fill="rgb(255,0,0)" stroke-width="1" stroke="rgb(255,255,255)" />
	<path d="M0,68.75 4.6875,70.3125 6.25,75 12.5,75 10.9375,70.3125 7.8125,67.1875 6.25,62.5 6.25,56.25 6.25,50 6.25,43.75 6.25,37.5 7.8125,32.8125 10.9375,29.6875 12.5,25 14.0625,20.3125 17.1875,17.1875 20.3125,14.0625 25,12.5 29.6875,10.9375 32.8125,7.8125 37.5,6.25 43.75,6.25 50,6.25 56.25,6.25 62.5,6.25 67.1875,7.8125 70.3125,10.9375 75,12.5 79.6875,14.0625 82.8125,17.1875 85.9375,20.3125 87.5,25 93.75,25 92.1875,20.3125 89.0625,17.1875 85.9375,14.0625 82.8125,10.9375 79.6875,7.8125 75,6.25 70.3125,4.6875 68.75,0 65.625,0 62.5,0 59.375,0 56.25,0 53.125,0 50,0 46.875,0 43.75,0 40.625,0 37.5,0 34.375,0 31.25,0 29.6875,4.6875 25,6.25 20.3125,7.8125 17.1875,10.9375 14.0625,14.0625 10.9375,17.1875 7.8125,20.3125 6.25,25 4.6875,29.6875 0,31.25 0,34.375 0,37.5 0,40.625 0,43.75 0,46.875 0,50 0,53.125 0,56.25 0,59.375 0,62.5 0,65.625 z " fill-rule="evenodd" fill="rgb(0,0,0)" stroke-width="1" stroke="rgb(255,255,255)" />
	<path d="M0,31.25 4.6875,29.6875 6.25,25 7.8125,20.3125 10.9375,17.1875 14.0625,14.0625 17.1875,10.9375 20.3125,7.8125 25,6.25 29.6875,4.6875 31.25,0 28.125,0 25,0 21.875,0 18.75,0 15.625,0 12.5,0 9.375,0 6.25,0 3.125,0 0,0 0,3.125 0,6.25 0,9.375 0,12.5 0,15.625 0,18.75 0,21.875 0,25 0,28.125 z " fill-rule="evenodd" fill="rgb(255,0,0)" stroke-width="1" stroke="rgb(255,255,255)" />
	<path d="M6.25,75 7.8125,79.6875 10.9375,82.8125 14.0625,85.9375 17.1875,89.0625 20.3125,92.1875 25,93.75 29.6875,95.3125 31.25,100 34.375,100 37.5,100 40.625,100 43.75,100 46.875,100 50,100 53.125,100 56.25,100 59.375,100 62.5,100 65.625,100 68.75,100 70.3125,95.3125 75,93.75 79.6875,92.1875 82.8125,89.0625 85.9375,85.9375 89.0625,82.8125 92.1875,79.6875 93.75,75 95.3125,70.3125 100,68.75 100,65.625 100,62.5 100,59.375 100,56.25 100,53.125 100,50 100,46.875 100,43.75 100,40.625 100,37.5 93.75,37.5 93.75,43.75 93.75,50 93.75,56.25 93.75,62.5 92.1875,67.1875 89.0625,70.3125 87.5,75 85.9375,79.6875 82.8125,82.8125 79.6875,85.9375 75,87.5 70.3125,89.0625 67.1875,92.1875 62.5,93.75 56.25,93.75 50,93.75 43.75,93.75 37.5,93.75 32.8125,92.1875 29.6875,89.0625 25,87.5 20.3125,85.9375 17.1875,82.8125 14.0625,79.6875 12.5,75 z " fill-rule="evenodd" fill="rgb(0,0,0)" stroke-width="1" stroke="rgb(255,255,255)" />
	<path d="M6.25,62.5 7.8125,67.1875 10.9375,70.3125 12.5,75 18.75,75 25,75 31.25,75 37.5,75 43.75,75 43.75,68.75 43.75,62.5 42.1875,57.8125 37.5,56.25 31.25,56.25 25,56.25 18.75,56.25 14.0625,54.6875 12.5,50 14.0625,45.3125 18.75,43.75 25,43.75 31.25,43.75 37.5,43.75 42.1875,42.1875 43.75,37.5 43.75,31.25 43.75,25 43.75,18.75 45.3125,14.0625 50,12.5 54.6875,14.0625 56.25,18.75 62.5,18.75 68.75,18.75 75,18.75 79.6875,20.3125 81.25,25 87.5,25 85.9375,20.3125 82.8125,17.1875 79.6875,14.0625 75,12.5 70.3125,10.9375 67.1875,7.8125 62.5,6.25 56.25,6.25 50,6.25 43.75,6.25 37.5,6.25 32.8125,7.8125 29.6875,10.9375 25,12.5 20.3125,14.0625 17.1875,17.1875 14.0625,20.3125 12.5,25 10.9375,29.6875 7.8125,32.8125 6.25,37.5 6.25,43.75 6.25,50 6.25,56.25 z " fill-rule="evenodd" fill="rgb(0,185,255)" stroke-width="1" stroke="rgb(255,255,255)" />
	<path d="M12.5,75 14.0625,79.6875 17.1875,82.8125 20.3125,85.9375 25,87.5 29.6875,89.0625 32.8125,92.1875 37.5,93.75 43.75,93.75 50,93.75 56.25,93.75 62.5,93.75 67.1875,92.1875 70.3125,89.0625 75,87.5 79.6875,85.9375 82.8125,82.8125 85.9375,79.6875 87.5,75 89.0625,70.3125 92.1875,67.1875 93.75,62.5 93.75,56.25 93.75,50 87.5,50 85.9375,54.6875 81.25,56.25 75,56.25 68.75,56.25 62.5,56.25 57.8125,57.8125 56.25,62.5 56.25,68.75 56.25,75 56.25,81.25 54.6875,85.9375 50,87.5 45.3125,85.9375 43.75,81.25 43.75,75 37.5,75 31.25,75 25,75 18.75,75 z " fill-rule="evenodd" fill="rgb(0,185,255)" stroke-width="1" stroke="rgb(255,255,255)" />
	<path d="M12.5,50 14.0625,54.6875 18.75,56.25 25,56.25 31.25,56.25 37.5,56.25 42.1875,57.8125 43.75,62.5 50,62.5 56.25,62.5 57.8125,57.8125 62.5,56.25 68.75,56.25 75,56.25 81.25,56.25 85.9375,54.6875 87.5,50 85.9375,45.3125 81.25,43.75 75,43.75 68.75,43.75 62.5,43.75 57.8125,42.1875 56.25,37.5 56.25,31.25 56.25,25 56.25,18.75 54.6875,14.0625 50,12.5 45.3125,14.0625 43.75,18.75 43.75,25 43.75,31.25 43.75,37.5 42.1875,42.1875 37.5,43.75 31.25,43.75 25,43.75 18.75,43.75 14.0625,45.3125 z " fill-rule="evenodd" fill="rgb(236,255,0)" stroke-width="1" stroke="rgb(255,255,255)" />
	<path d="M43.75,81.25 45.3125,85.9375 50,87.5 54.6875,85.9375 56.25,81.25 56.25,75 56.25,68.75 56.25,62.5 50,62.5 43.75,62.5 43.75,68.75 43.75,75 z " fill-rule="evenodd" fill="rgb(236,255,0)" stroke-width="1" stroke="rgb(255,255,255)" />
	<path d="M56.25,37.5 57.8125,42.1875 62.5,43.75 68.75,43.75 75,43.75 81.25,43.75 85.9375,45.3125 87.5,50 93.75,50 93.75,43.75 93.75,37.5 92.1875,32.8125 89.0625,29.6875 87.5,25 81.25,25 79.6875,20.3125 75,18.75 68.75,18.75 62.5,18.75 56.25,18.75 56.25,25 56.25,31.25 z " fill-rule="evenodd" fill="rgb(0,185,255)" stroke-width="1" stroke="rgb(255,255,255)" />
	<path d="M68.75,100 71.875,100 75,100 78.125,100 81.25,100 84.375,100 87.5,100 90.625,100 93.75,100 96.875,100 100,100 100,96.875 100,93.75 100,90.625 100,87.5 100,84.375 100,81.25 100,78.125 100,75 100,71.875 100,68.75 95.3125,70.3125 93.75,75 92.1875,79.6875 89.0625,82.8125 85.9375,85.9375 82.8125,89.0625 79.6875,92.1875 75,93.75 70.3125,95.3125 z " fill-rule="evenodd" fill="rgb(255,0,0)" stroke-width="1" stroke="rgb(255,255,255)" />
	<path d="M68.75,0 70.3125,4.6875 75,6.25 79.6875,7.8125 82.8125,10.9375 85.9375,14.0625 89.0625,17.1875 92.1875,20.3125 93.75,25 100,25 100,21.875 100,18.75 100,15.625 100,12.5 100,9.375 100,6.25 100,3.125 100,0 96.875,0 93.75,0 90.625,0 87.5,0 84.375,0 81.25,0 78.125,0 75,0 71.875,0 z " fill-rule="evenodd" fill="rgb(255,0,0)" stroke-width="1" stroke="rgb(255,255,255)" />
	<path d="M87.5,25 89.0625,29.6875 92.1875,32.8125 93.75,37.5 100,37.5 100,34.375 100,31.25 95.3125,29.6875 93.75,25 z " fill-rule="evenodd" fill="rgb(0,0,0)" stroke-width="1" stroke="rgb(255,255,255)" />
	<path d="M93.75,25 95.3125,29.6875 100,31.25 100,28.125 100,25 z " fill-rule="evenodd" fill="rgb(255,0,0)" stroke-width="1" stroke="rgb(255,255,255)" />
</svg>
