<?xml version="1.0" standalone="no" ?>
<!DOCTYPE svg PUBLIC "-//W3C//DTD SVG 1.1//EN" "http://www.w3.org/Graphics/SVG/1.1/DTD/svg11.dtd">
<svg width="100px" height="100px" xmlns="http://www.w3.org/2000/svg" version="1.1" >
	<path d="M0,100 3.84615,100 7.69231,100 11.5385,100 15.3846,100 19.2308,100 23.0769,100 26.9231,100 30.7692,100 34.6154,100 38.4615,100 42.3077,100 46.1538,100 50,100 53.8462,100 57.6923,100 61.5385,100 65.3846,100 69.2308,100 73.0769,100 76.9231,100 80.7692,100 84.6154,100 88.4615,100 92.3077,100 96.1538,100 100,100 100,96.1538 100,92.3077 92.3077,92.3077 86.5385,94.2308 82.6923,90.3846 78.8462,90.3846 75,86.5385 71.1538,82.6923 67.3077,78.8462 61.5385,76.9231 53.8462,76.9231 46.1538,76.9231 38.4615,76.9231 32.6923,78.8462 28.8462,82.6923 25,86.5385 21.1538,90.3846 17.3077,90.3846 17.3077,86.5385 21.1538,82.6923 21.1538,78.8462 17.3077,75 13.4615,71.1538 9.61538,67.3077 7.69231,61.5385 7.69231,53.8462 7.69231,46.1538 9.61538,40.3846 13.4615,40.3846 15.3846,46.1538 21.1538,44.2308 25,48.0769 28.8462,44.2308 28.8462,40.3846 25,36.5385 25,32.6923 28.8462,32.6923 32.6923,36.5385 36.5385,40.3846 40.3846,44.2308 46.1538,46.1538 53.8462,46.1538 59.6154,44.2308 63.4615,40.3846 67.3077,36.5385 71.1538,32.6923 75,32.6923 75,36.5385 78.8462,40.3846 82.6923,36.5385 86.5385,40.3846 90.3846,40.3846 92.3077,46.1538 100,46.1538 100,42.3077 100,38.4615 100,34.6154 100,30.7692 100,26.9231 100,23.0769 96.1538,23.0769 92.3077,23.0769 88.4615,23.0769 84.6154,23.0769 80.7692,23.0769 76.9231,23.0769 73.0769,23.0769 69.2308,23.0769 65.3846,23.0769 61.5385,23.0769 57.6923,23.0769 53.8462,23.0769 50,23.0769 46.1538,23.0769 42.3077,23.0769 38.4615,23.0769 34.6154,23.0769 30.7692,23.0769 26.9231,23.0769 23.0769,23.0769 19.2308,23.0769 15.3846,23.0769 11.5385,23.0769 7.69231,23.0769 3.84615,23.0769 0,23.0769 0,26.9231 0,30.7692 0,34.6154 0,38.4615 0,42.3077 0,46.1538 0,50 0,53.8462 0,57.6923 0,61.5385 0,65.3846 0,69.2308 0,73.0769 0,76.9231 0,80.7692 0,84.6154 0,88.4615 0,92.3077 0,96.1538 z " fill-rule="evenodd" fill="rgb(255,255,255)" stroke-width="1" stroke="rgb(255,255,255)" />
	<path d="M7.69231,61.5385 9.61538,67.3077 13.4615,71.1538 17.3077,75 21.1538,78.8462 21.1538,82.6923 25,86.5385 28.8462,82.6923 32.6923,78.8462 38.4615,76.9231 46.1538,76.9231 53.8462,76.9231 61.5385,76.9231 67.3077,78.8462 71.1538,82.6923 75,86.5385 78.8462,90.3846 82.6923,90.3846 82.6923,86.5385 78.8462,82.6923 78.8462,78.8462 82.6923,75 86.5385,71.1538 90.3846,67.3077 92.3077,61.5385 84.6154,61.5385 76.9231,61.5385 71.1538,63.4615 67.3077,59.6154 63.4615,59.6154 63.4615,55.7692 59.6154,51.9231 53.8462,53.8462 46.1538,53.8462 40.3846,51.9231 36.5385,55.7692 36.5385,59.6154 32.6923,59.6154 32.6923,55.7692 36.5385,55.7692 40.3846,51.9231 36.5385,48.0769 32.6923,48.0769 28.8462,44.2308 25,48.0769 21.1538,51.9231 17.3077,51.9231 15.3846,46.1538 13.4615,40.3846 9.61538,40.3846 7.69231,46.1538 7.69231,53.8462 z " fill-rule="evenodd" fill="rgb(0,0,0)" stroke-width="1" stroke="rgb(255,255,255)" />
	<path d="M17.3077,90.3846 21.1538,90.3846 25,86.5385 21.1538,82.6923 17.3077,86.5385 z " fill-rule="evenodd" fill="rgb(0,0,0)" stroke-width="1" stroke="rgb(255,255,255)" />
	<path d="M15.3846,46.1538 17.3077,51.9231 21.1538,51.9231 25,48.0769 21.1538,44.2308 z " fill-rule="evenodd" fill="rgb(255,255,255)" stroke-width="1" stroke="rgb(255,255,255)" />
	<path d="M25,36.5385 28.8462,40.3846 28.8462,44.2308 32.6923,48.0769 36.5385,48.0769 40.3846,51.9231 46.1538,53.8462 53.8462,53.8462 59.6154,51.9231 63.4615,55.7692 67.3077,55.7692 67.3077,59.6154 71.1538,63.4615 76.9231,61.5385 84.6154,61.5385 92.3077,61.5385 92.3077,53.8462 92.3077,46.1538 90.3846,40.3846 86.5385,40.3846 84.6154,46.1538 82.6923,51.9231 78.8462,51.9231 75,48.0769 71.1538,44.2308 71.1538,40.3846 75,36.5385 75,32.6923 71.1538,32.6923 67.3077,36.5385 63.4615,40.3846 59.6154,44.2308 53.8462,46.1538 46.1538,46.1538 40.3846,44.2308 36.5385,40.3846 32.6923,36.5385 28.8462,32.6923 25,32.6923 z " fill-rule="evenodd" fill="rgb(0,0,0)" stroke-width="1" stroke="rgb(255,255,255)" />
	<path d="M32.6923,59.6154 36.5385,59.6154 36.5385,55.7692 32.6923,55.7692 z " fill-rule="evenodd" fill="rgb(255,255,255)" stroke-width="1" stroke="rgb(255,255,255)" />
	<path d="M63.4615,59.6154 67.3077,59.6154 67.3077,55.7692 63.4615,55.7692 z " fill-rule="evenodd" fill="rgb(255,255,255)" stroke-width="1" stroke="rgb(255,255,255)" />
	<path d="M71.1538,44.2308 75,48.0769 78.8462,51.9231 82.6923,51.9231 84.6154,46.1538 86.5385,40.3846 82.6923,36.5385 78.8462,40.3846 75,36.5385 71.1538,40.3846 z " fill-rule="evenodd" fill="rgb(255,255,255)" stroke-width="1" stroke="rgb(255,255,255)" />
	<path d="M78.8462,82.6923 82.6923,86.5385 82.6923,90.3846 86.5385,94.2308 92.3077,92.3077 100,92.3077 100,88.4615 100,84.6154 100,80.7692 100,76.9231 100,73.0769 100,69.2308 100,65.3846 100,61.5385 100,57.6923 100,53.8462 100,50 100,46.1538 92.3077,46.1538 92.3077,53.8462 92.3077,61.5385 90.3846,67.3077 86.5385,71.1538 82.6923,75 78.8462,78.8462 z " fill-rule="evenodd" fill="rgb(255,255,255)" stroke-width="1" stroke="rgb(255,255,255)" />
</svg>
