<?xml version="1.0" standalone="no" ?>
<!DOCTYPE svg PUBLIC "-//W3C//DTD SVG 1.1//EN" "http://www.w3.org/Graphics/SVG/1.1/DTD/svg11.dtd">
<svg width="100px" height="100px" xmlns="http://www.w3.org/2000/svg" version="1.1" >
	<path d="M0,100 1.72414,100 3.44828,100 3.44828,96.5517 0,96.5517 0,98.2759 z " fill-rule="evenodd" fill="rgb(164,207,212)" stroke-width="0.5" stroke="rgb(164,207,212)" />
	<path d="M0,96.5517 3.44828,96.5517 2.58621,93.9655 0,93.1034 0,94.8276 z " fill-rule="evenodd" fill="rgb(164,207,212)" stroke-width="0.5" stroke="rgb(164,207,212)" />
	<path d="M0,93.1034 2.58621,93.9655 4.31034,92.2414 3.44828,89.6552 0,89.6552 0,91.3793 z " fill-rule="evenodd" fill="rgb(164,207,212)" stroke-width="0.5" stroke="rgb(164,207,212)" />
	<path d="M0,89.6552 3.44828,89.6552 3.44828,86.2069 0,86.2069 0,87.931 z " fill-rule="evenodd" fill="rgb(164,207,212)" stroke-width="0.5" stroke="rgb(164,207,212)" />
	<path d="M0,86.2069 3.44828,86.2069 3.44828,82.7586 0,82.7586 0,84.4828 z " fill-rule="evenodd" fill="rgb(164,207,212)" stroke-width="0.5" stroke="rgb(164,207,212)" />
	<path d="M0,82.7586 3.44828,82.7586 4.31034,80.1724 2.58621,78.4483 0,79.3103 0,81.0345 z " fill-rule="evenodd" fill="rgb(164,207,212)" stroke-width="0.5" stroke="rgb(164,207,212)" />
	<path d="M0,79.3103 2.58621,78.4483 3.44828,75.8621 0,75.8621 0,77.5862 z " fill-rule="evenodd" fill="rgb(164,207,212)" stroke-width="0.5" stroke="rgb(164,207,212)" />
	<path d="M0,75.8621 3.44828,75.8621 2.58621,73.2759 0,72.4138 0,74.1379 z " fill-rule="evenodd" fill="rgb(164,207,212)" stroke-width="0.5" stroke="rgb(164,207,212)" />
	<path d="M0,72.4138 2.58621,73.2759 4.31034,71.5517 3.44828,68.9655 0,68.9655 0,70.6897 z " fill-rule="evenodd" fill="rgb(164,207,212)" stroke-width="0.5" stroke="rgb(164,207,212)" />
	<path d="M0,68.9655 3.44828,68.9655 3.44828,65.5172 0,65.5172 0,67.2414 z " fill-rule="evenodd" fill="rgb(164,207,212)" stroke-width="0.5" stroke="rgb(164,207,212)" />
	<path d="M0,65.5172 3.44828,65.5172 3.44828,62.069 0,62.069 0,63.7931 z " fill-rule="evenodd" fill="rgb(164,207,212)" stroke-width="0.5" stroke="rgb(164,207,212)" />
	<path d="M0,62.069 3.44828,62.069 3.44828,58.6207 0,58.6207 0,60.3448 z " fill-rule="evenodd" fill="rgb(164,207,212)" stroke-width="0.5" stroke="rgb(164,207,212)" />
	<path d="M0,58.6207 3.44828,58.6207 3.44828,55.1724 0,55.1724 0,56.8966 z " fill-rule="evenodd" fill="rgb(164,207,212)" stroke-width="0.5" stroke="rgb(164,207,212)" />
	<path d="M0,55.1724 3.44828,55.1724 4.31034,52.5862 2.58621,50.8621 0,51.7241 0,53.4483 z " fill-rule="evenodd" fill="rgb(164,207,212)" stroke-width="0.5" stroke="rgb(164,207,212)" />
	<path d="M0,51.7241 2.58621,50.8621 3.44828,48.2759 0,48.2759 0,50 z " fill-rule="evenodd" fill="rgb(164,207,212)" stroke-width="0.5" stroke="rgb(164,207,212)" />
	<path d="M0,48.2759 3.44828,48.2759 3.44828,44.8276 0,44.8276 0,46.5517 z " fill-rule="evenodd" fill="rgb(164,207,212)" stroke-width="0.5" stroke="rgb(164,207,212)" />
	<path d="M0,44.8276 3.44828,44.8276 3.44828,41.3793 0,41.3793 0,43.1035 z " fill-rule="evenodd" fill="rgb(164,207,212)" stroke-width="0.5" stroke="rgb(164,207,212)" />
	<path d="M0,41.3793 3.44828,41.3793 2.58621,38.7931 0,37.931 0,39.6552 z " fill-rule="evenodd" fill="rgb(164,207,212)" stroke-width="0.5" stroke="rgb(164,207,212)" />
	<path d="M0,37.931 2.58621,38.7931 4.31034,37.069 3.44828,34.4828 0,34.4828 0,36.2069 z " fill-rule="evenodd" fill="rgb(164,207,212)" stroke-width="0.5" stroke="rgb(164,207,212)" />
	<path d="M0,34.4828 3.44828,34.4828 4.31034,31.8966 2.58621,30.1724 0,31.0345 0,32.7586 z " fill-rule="evenodd" fill="rgb(164,207,212)" stroke-width="0.5" stroke="rgb(164,207,212)" />
	<path d="M0,31.0345 2.58621,30.1724 3.44828,27.5862 0,27.5862 0,29.3103 z " fill-rule="evenodd" fill="rgb(164,207,212)" stroke-width="0.5" stroke="rgb(164,207,212)" />
	<path d="M0,27.5862 3.44828,27.5862 3.44828,24.1379 0,24.1379 0,25.8621 z " fill-rule="evenodd" fill="rgb(164,207,212)" stroke-width="0.5" stroke="rgb(164,207,212)" />
	<path d="M0,24.1379 3.44828,24.1379 3.44828,20.6897 0,20.6897 0,22.4138 z " fill-rule="evenodd" fill="rgb(164,207,212)" stroke-width="0.5" stroke="rgb(164,207,212)" />
	<path d="M0,20.6897 3.44828,20.6897 3.44828,17.2414 0,17.2414 0,18.9655 z " fill-rule="evenodd" fill="rgb(164,207,212)" stroke-width="0.5" stroke="rgb(164,207,212)" />
	<path d="M0,17.2414 3.44828,17.2414 3.44828,13.7931 0,13.7931 0,15.5172 z " fill-rule="evenodd" fill="rgb(164,207,212)" stroke-width="0.5" stroke="rgb(164,207,212)" />
	<path d="M0,13.7931 3.44828,13.7931 3.44828,10.3448 0,10.3448 0,12.069 z " fill-rule="evenodd" fill="rgb(164,207,212)" stroke-width="0.5" stroke="rgb(164,207,212)" />
	<path d="M0,10.3448 3.44828,10.3448 3.44828,6.89655 0,6.89655 0,8.62069 z " fill-rule="evenodd" fill="rgb(164,207,212)" stroke-width="0.5" stroke="rgb(164,207,212)" />
	<path d="M0,6.89655 3.44828,6.89655 3.44828,3.44828 0,3.44828 0,5.17242 z " fill-rule="evenodd" fill="rgb(164,207,212)" stroke-width="0.5" stroke="rgb(164,207,212)" />
	<path d="M0,3.44828 3.44828,3.44828 3.44828,0 1.72414,0 0,0 0,1.72414 z " fill-rule="evenodd" fill="rgb(164,207,212)" stroke-width="0.5" stroke="rgb(164,207,212)" />
	<path d="M3.44828,100 5.17241,100 6.89655,100 6.03448,97.4138 3.44828,96.5517 z " fill-rule="evenodd" fill="rgb(164,207,212)" stroke-width="0.5" stroke="rgb(164,207,212)" />
	<path d="M3.44828,96.5517 6.03448,97.4138 7.75862,95.6897 6.03448,93.9655 4.31034,92.2414 2.58621,93.9655 z " fill-rule="evenodd" fill="rgb(164,207,212)" stroke-width="0.5" stroke="rgb(164,207,212)" />
	<path d="M4.31034,92.2414 6.03448,93.9655 7.75862,92.2414 6.89655,89.6552 3.44828,89.6552 z " fill-rule="evenodd" fill="rgb(0,0,0)" stroke-width="0.5" stroke="rgb(0,0,0)" />
	<path d="M3.44828,89.6552 6.89655,89.6552 6.89655,86.2069 3.44828,86.2069 z " fill-rule="evenodd" fill="rgb(0,0,0)" stroke-width="0.5" stroke="rgb(0,0,0)" />
	<path d="M3.44828,86.2069 6.89655,86.2069 6.89655,82.7586 3.44828,82.7586 z " fill-rule="evenodd" fill="rgb(0,0,0)" stroke-width="0.5" stroke="rgb(0,0,0)" />
	<path d="M3.44828,82.7586 6.89655,82.7586 7.75862,80.1724 6.03448,78.4483 4.31034,80.1724 z " fill-rule="evenodd" fill="rgb(0,0,0)" stroke-width="0.5" stroke="rgb(0,0,0)" />
	<path d="M2.58621,78.4483 4.31034,80.1724 6.03448,78.4483 6.89655,75.8621 3.44828,75.8621 z " fill-rule="evenodd" fill="rgb(164,207,212)" stroke-width="0.5" stroke="rgb(164,207,212)" />
	<path d="M3.44828,75.8621 6.89655,75.8621 6.03448,73.2759 4.31034,71.5517 2.58621,73.2759 z " fill-rule="evenodd" fill="rgb(164,207,212)" stroke-width="0.5" stroke="rgb(164,207,212)" />
	<path d="M4.31034,71.5517 6.03448,73.2759 7.75862,71.5517 6.89655,68.9655 3.44828,68.9655 z " fill-rule="evenodd" fill="rgb(136,88,24)" stroke-width="0.5" stroke="rgb(136,88,24)" />
	<path d="M3.44828,68.9655 6.89655,68.9655 7.75862,66.3793 6.03448,64.6552 3.44828,65.5172 z " fill-rule="evenodd" fill="rgb(136,88,24)" stroke-width="0.5" stroke="rgb(136,88,24)" />
	<path d="M3.44828,65.5172 6.03448,64.6552 6.89655,62.069 3.44828,62.069 z " fill-rule="evenodd" fill="rgb(80,0,0)" stroke-width="0.5" stroke="rgb(80,0,0)" />
	<path d="M3.44828,62.069 6.89655,62.069 6.89655,58.6207 3.44828,58.6207 z " fill-rule="evenodd" fill="rgb(80,0,0)" stroke-width="0.5" stroke="rgb(80,0,0)" />
	<path d="M3.44828,58.6207 6.89655,58.6207 6.89655,55.1724 3.44828,55.1724 z " fill-rule="evenodd" fill="rgb(80,0,0)" stroke-width="0.5" stroke="rgb(80,0,0)" />
	<path d="M3.44828,55.1724 6.89655,55.1724 7.75862,52.5862 6.03448,50.8621 4.31034,52.5862 z " fill-rule="evenodd" fill="rgb(80,0,0)" stroke-width="0.5" stroke="rgb(80,0,0)" />
	<path d="M2.58621,50.8621 4.31034,52.5862 6.03448,50.8621 7.75862,49.1379 6.03448,47.4138 3.44828,48.2759 z " fill-rule="evenodd" fill="rgb(164,207,212)" stroke-width="0.5" stroke="rgb(164,207,212)" />
	<path d="M3.44828,48.2759 6.03448,47.4138 6.03448,45.6897 3.44828,44.8276 z " fill-rule="evenodd" fill="rgb(164,207,212)" stroke-width="0.5" stroke="rgb(164,207,212)" />
	<path d="M3.44828,44.8276 6.03448,45.6897 7.75862,43.9655 6.89655,41.3793 3.44828,41.3793 z " fill-rule="evenodd" fill="rgb(164,207,212)" stroke-width="0.5" stroke="rgb(164,207,212)" />
	<path d="M3.44828,41.3793 6.89655,41.3793 6.03448,38.7931 4.31034,37.069 2.58621,38.7931 z " fill-rule="evenodd" fill="rgb(164,207,212)" stroke-width="0.5" stroke="rgb(164,207,212)" />
	<path d="M4.31034,37.069 6.03448,38.7931 7.75862,37.069 6.89655,34.4828 3.44828,34.4828 z " fill-rule="evenodd" fill="rgb(248,112,104)" stroke-width="0.5" stroke="rgb(248,112,104)" />
	<path d="M3.44828,34.4828 6.89655,34.4828 7.75862,31.8966 6.03448,30.1724 4.31034,31.8966 z " fill-rule="evenodd" fill="rgb(248,112,104)" stroke-width="0.5" stroke="rgb(248,112,104)" />
	<path d="M2.58621,30.1724 4.31034,31.8966 6.03448,30.1724 6.89655,27.5862 3.44828,27.5862 z " fill-rule="evenodd" fill="rgb(164,207,212)" stroke-width="0.5" stroke="rgb(164,207,212)" />
	<path d="M3.44828,27.5862 6.89655,27.5862 6.89655,24.1379 3.44828,24.1379 z " fill-rule="evenodd" fill="rgb(164,207,212)" stroke-width="0.5" stroke="rgb(164,207,212)" />
	<path d="M3.44828,24.1379 6.89655,24.1379 7.75862,21.5517 6.03448,19.8276 3.44828,20.6897 z " fill-rule="evenodd" fill="rgb(164,207,212)" stroke-width="0.5" stroke="rgb(164,207,212)" />
	<path d="M3.44828,20.6897 6.03448,19.8276 6.89655,17.2414 3.44828,17.2414 z " fill-rule="evenodd" fill="rgb(164,207,212)" stroke-width="0.5" stroke="rgb(164,207,212)" />
	<path d="M3.44828,17.2414 6.89655,17.2414 6.89655,13.7931 3.44828,13.7931 z " fill-rule="evenodd" fill="rgb(164,207,212)" stroke-width="0.5" stroke="rgb(164,207,212)" />
	<path d="M3.44828,13.7931 6.89655,13.7931 6.89655,10.3448 3.44828,10.3448 z " fill-rule="evenodd" fill="rgb(164,207,212)" stroke-width="0.5" stroke="rgb(164,207,212)" />
	<path d="M3.44828,10.3448 6.89655,10.3448 6.89655,6.89655 3.44828,6.89655 z " fill-rule="evenodd" fill="rgb(164,207,212)" stroke-width="0.5" stroke="rgb(164,207,212)" />
	<path d="M3.44828,6.89655 6.89655,6.89655 6.89655,3.44828 3.44828,3.44828 z " fill-rule="evenodd" fill="rgb(164,207,212)" stroke-width="0.5" stroke="rgb(164,207,212)" />
	<path d="M3.44828,3.44828 6.89655,3.44828 6.89655,0 5.17241,0 3.44828,0 z " fill-rule="evenodd" fill="rgb(164,207,212)" stroke-width="0.5" stroke="rgb(164,207,212)" />
	<path d="M6.89655,100 8.62069,100 10.3448,100 10.3448,96.5517 7.75862,95.6897 6.03448,97.4138 z " fill-rule="evenodd" fill="rgb(164,207,212)" stroke-width="0.5" stroke="rgb(164,207,212)" />
	<path d="M7.75862,95.6897 10.3448,96.5517 10.3448,93.1034 7.75862,92.2414 6.03448,93.9655 z " fill-rule="evenodd" fill="rgb(0,0,0)" stroke-width="0.5" stroke="rgb(0,0,0)" />
	<path d="M7.75862,92.2414 10.3448,93.1034 9.48276,90.5172 6.89655,89.6552 z " fill-rule="evenodd" fill="rgb(136,88,24)" stroke-width="0.5" stroke="rgb(136,88,24)" />
	<path d="M6.89655,89.6552 9.48276,90.5172 11.2069,88.7931 11.2069,87.069 9.48276,85.3448 6.89655,86.2069 z " fill-rule="evenodd" fill="rgb(136,88,24)" stroke-width="0.5" stroke="rgb(136,88,24)" />
	<path d="M6.89655,86.2069 9.48276,85.3448 10.3448,82.7586 6.89655,82.7586 z " fill-rule="evenodd" fill="rgb(136,88,24)" stroke-width="0.5" stroke="rgb(136,88,24)" />
	<path d="M6.89655,82.7586 10.3448,82.7586 11.2069,80.1724 9.48276,78.4483 7.75862,80.1724 z " fill-rule="evenodd" fill="rgb(136,88,24)" stroke-width="0.5" stroke="rgb(136,88,24)" />
	<path d="M6.03448,78.4483 7.75862,80.1724 9.48276,78.4483 9.48276,76.7241 6.89655,75.8621 z " fill-rule="evenodd" fill="rgb(0,0,0)" stroke-width="0.5" stroke="rgb(0,0,0)" />
	<path d="M6.89655,75.8621 9.48276,76.7241 11.2069,75 9.48276,73.2759 7.75862,71.5517 6.03448,73.2759 z " fill-rule="evenodd" fill="rgb(136,88,24)" stroke-width="0.5" stroke="rgb(136,88,24)" />
	<path d="M7.75862,71.5517 9.48276,73.2759 11.2069,71.5517 10.3448,68.9655 6.89655,68.9655 z " fill-rule="evenodd" fill="rgb(248,248,248)" stroke-width="0.5" stroke="rgb(248,248,248)" />
	<path d="M6.89655,68.9655 10.3448,68.9655 11.2069,66.3793 9.48276,64.6552 7.75862,66.3793 z " fill-rule="evenodd" fill="rgb(248,248,248)" stroke-width="0.5" stroke="rgb(248,248,248)" />
	<path d="M6.03448,64.6552 7.75862,66.3793 9.48276,64.6552 11.2069,62.931 9.48276,61.2069 6.89655,62.069 z " fill-rule="evenodd" fill="rgb(136,88,24)" stroke-width="0.5" stroke="rgb(136,88,24)" />
	<path d="M6.89655,62.069 9.48276,61.2069 10.3448,58.6207 6.89655,58.6207 z " fill-rule="evenodd" fill="rgb(176,40,96)" stroke-width="0.5" stroke="rgb(176,40,96)" />
	<path d="M6.89655,58.6207 10.3448,58.6207 11.2069,56.0345 9.48276,54.3103 6.89655,55.1724 z " fill-rule="evenodd" fill="rgb(176,40,96)" stroke-width="0.5" stroke="rgb(176,40,96)" />
	<path d="M6.89655,55.1724 9.48276,54.3103 10.3448,51.7241 7.75862,52.5862 z " fill-rule="evenodd" fill="rgb(176,40,96)" stroke-width="0.5" stroke="rgb(176,40,96)" />
	<path d="M6.03448,50.8621 7.75862,52.5862 10.3448,51.7241 10.3448,48.2759 7.75862,49.1379 z " fill-rule="evenodd" fill="rgb(80,0,0)" stroke-width="0.5" stroke="rgb(80,0,0)" />
	<path d="M6.03448,47.4138 7.75862,49.1379 10.3448,48.2759 9.48276,45.6897 7.75862,43.9655 6.03448,45.6897 z " fill-rule="evenodd" fill="rgb(164,207,212)" stroke-width="0.5" stroke="rgb(164,207,212)" />
	<path d="M7.75862,43.9655 9.48276,45.6897 11.2069,43.9655 10.3448,41.3793 6.89655,41.3793 z " fill-rule="evenodd" fill="rgb(0,0,0)" stroke-width="0.5" stroke="rgb(0,0,0)" />
	<path d="M6.89655,41.3793 10.3448,41.3793 11.2069,38.7931 9.48276,37.069 7.75862,37.069 6.03448,38.7931 z " fill-rule="evenodd" fill="rgb(248,112,104)" stroke-width="0.5" stroke="rgb(248,112,104)" />
	<path d="M7.75862,37.069 9.48276,37.069 10.3448,34.4828 6.89655,34.4828 z " fill-rule="evenodd" fill="rgb(136,88,24)" stroke-width="0.5" stroke="rgb(136,88,24)" />
	<path d="M6.89655,34.4828 10.3448,34.4828 10.3448,31.0345 7.75862,31.8966 z " fill-rule="evenodd" fill="rgb(136,88,24)" stroke-width="0.5" stroke="rgb(136,88,24)" />
	<path d="M6.03448,30.1724 7.75862,31.8966 10.3448,31.0345 10.3448,27.5862 6.89655,27.5862 z " fill-rule="evenodd" fill="rgb(248,112,104)" stroke-width="0.5" stroke="rgb(248,112,104)" />
	<path d="M6.89655,27.5862 10.3448,27.5862 10.3448,24.1379 6.89655,24.1379 z " fill-rule="evenodd" fill="rgb(80,0,0)" stroke-width="0.5" stroke="rgb(80,0,0)" />
	<path d="M6.89655,24.1379 10.3448,24.1379 11.2069,21.5517 9.48276,19.8276 7.75862,21.5517 z " fill-rule="evenodd" fill="rgb(80,0,0)" stroke-width="0.5" stroke="rgb(80,0,0)" />
	<path d="M6.03448,19.8276 7.75862,21.5517 9.48276,19.8276 11.2069,18.1034 9.48276,16.3793 6.89655,17.2414 z " fill-rule="evenodd" fill="rgb(164,207,212)" stroke-width="0.5" stroke="rgb(164,207,212)" />
	<path d="M6.89655,17.2414 9.48276,16.3793 10.3448,13.7931 6.89655,13.7931 z " fill-rule="evenodd" fill="rgb(164,207,212)" stroke-width="0.5" stroke="rgb(164,207,212)" />
	<path d="M6.89655,13.7931 10.3448,13.7931 10.3448,10.3448 6.89655,10.3448 z " fill-rule="evenodd" fill="rgb(164,207,212)" stroke-width="0.5" stroke="rgb(164,207,212)" />
	<path d="M6.89655,10.3448 10.3448,10.3448 10.3448,6.89655 6.89655,6.89655 z " fill-rule="evenodd" fill="rgb(164,207,212)" stroke-width="0.5" stroke="rgb(164,207,212)" />
	<path d="M6.89655,6.89655 10.3448,6.89655 10.3448,3.44828 6.89655,3.44828 z " fill-rule="evenodd" fill="rgb(164,207,212)" stroke-width="0.5" stroke="rgb(164,207,212)" />
	<path d="M6.89655,3.44828 10.3448,3.44828 10.3448,0 8.62069,0 6.89655,0 z " fill-rule="evenodd" fill="rgb(164,207,212)" stroke-width="0.5" stroke="rgb(164,207,212)" />
	<path d="M10.3448,100 12.069,100 13.7931,100 14.6552,97.4138 12.931,95.6897 10.3448,96.5517 z " fill-rule="evenodd" fill="rgb(164,207,212)" stroke-width="0.5" stroke="rgb(164,207,212)" />
	<path d="M10.3448,96.5517 12.931,95.6897 14.6552,93.9655 12.931,92.2414 10.3448,93.1034 z " fill-rule="evenodd" fill="rgb(0,0,0)" stroke-width="0.5" stroke="rgb(0,0,0)" />
	<path d="M10.3448,93.1034 12.931,92.2414 14.6552,90.5172 12.931,88.7931 11.2069,88.7931 9.48276,90.5172 z " fill-rule="evenodd" fill="rgb(136,88,24)" stroke-width="0.5" stroke="rgb(136,88,24)" />
	<path d="M11.2069,88.7931 12.931,88.7931 12.931,87.069 11.2069,87.069 z " fill-rule="evenodd" fill="rgb(248,216,112)" stroke-width="0.5" stroke="rgb(248,216,112)" />
	<path d="M9.48276,85.3448 11.2069,87.069 12.931,87.069 14.6552,85.3448 13.7931,82.7586 10.3448,82.7586 z " fill-rule="evenodd" fill="rgb(136,88,24)" stroke-width="0.5" stroke="rgb(136,88,24)" />
	<path d="M10.3448,82.7586 13.7931,82.7586 14.6552,80.1724 12.931,78.4483 11.2069,80.1724 z " fill-rule="evenodd" fill="rgb(136,88,24)" stroke-width="0.5" stroke="rgb(136,88,24)" />
	<path d="M9.48276,78.4483 11.2069,80.1724 12.931,78.4483 13.7931,75.8621 11.2069,75 9.48276,76.7241 z " fill-rule="evenodd" fill="rgb(136,88,24)" stroke-width="0.5" stroke="rgb(136,88,24)" />
	<path d="M11.2069,75 13.7931,75.8621 13.7931,72.4138 11.2069,71.5517 9.48276,73.2759 z " fill-rule="evenodd" fill="rgb(248,248,248)" stroke-width="0.5" stroke="rgb(248,248,248)" />
	<path d="M11.2069,71.5517 13.7931,72.4138 13.7931,68.9655 10.3448,68.9655 z " fill-rule="evenodd" fill="rgb(248,248,248)" stroke-width="0.5" stroke="rgb(248,248,248)" />
	<path d="M10.3448,68.9655 13.7931,68.9655 13.7931,65.5172 11.2069,66.3793 z " fill-rule="evenodd" fill="rgb(248,248,248)" stroke-width="0.5" stroke="rgb(248,248,248)" />
	<path d="M9.48276,64.6552 11.2069,66.3793 13.7931,65.5172 13.7931,62.069 11.2069,62.931 z " fill-rule="evenodd" fill="rgb(248,248,248)" stroke-width="0.5" stroke="rgb(248,248,248)" />
	<path d="M9.48276,61.2069 11.2069,62.931 13.7931,62.069 13.7931,58.6207 10.3448,58.6207 z " fill-rule="evenodd" fill="rgb(136,88,24)" stroke-width="0.5" stroke="rgb(136,88,24)" />
	<path d="M10.3448,58.6207 13.7931,58.6207 13.7931,55.1724 11.2069,56.0345 z " fill-rule="evenodd" fill="rgb(248,64,112)" stroke-width="0.5" stroke="rgb(248,64,112)" />
	<path d="M9.48276,54.3103 11.2069,56.0345 13.7931,55.1724 13.7931,51.7241 10.3448,51.7241 z " fill-rule="evenodd" fill="rgb(176,40,96)" stroke-width="0.5" stroke="rgb(176,40,96)" />
	<path d="M10.3448,51.7241 13.7931,51.7241 12.931,49.1379 10.3448,48.2759 z " fill-rule="evenodd" fill="rgb(80,0,0)" stroke-width="0.5" stroke="rgb(80,0,0)" />
	<path d="M10.3448,48.2759 12.931,49.1379 14.6552,47.4138 12.931,45.6897 11.2069,43.9655 9.48276,45.6897 z " fill-rule="evenodd" fill="rgb(0,0,0)" stroke-width="0.5" stroke="rgb(0,0,0)" />
	<path d="M11.2069,43.9655 12.931,45.6897 14.6552,43.9655 12.931,42.2414 10.3448,41.3793 z " fill-rule="evenodd" fill="rgb(0,0,0)" stroke-width="0.5" stroke="rgb(0,0,0)" />
	<path d="M10.3448,41.3793 12.931,42.2414 14.6552,40.5172 12.931,38.7931 11.2069,38.7931 z " fill-rule="evenodd" fill="rgb(248,112,104)" stroke-width="0.5" stroke="rgb(248,112,104)" />
	<path d="M9.48276,37.069 11.2069,38.7931 12.931,38.7931 14.6552,37.069 13.7931,34.4828 10.3448,34.4828 z " fill-rule="evenodd" fill="rgb(248,112,104)" stroke-width="0.5" stroke="rgb(248,112,104)" />
	<path d="M10.3448,34.4828 13.7931,34.4828 13.7931,31.0345 10.3448,31.0345 z " fill-rule="evenodd" fill="rgb(248,208,192)" stroke-width="0.5" stroke="rgb(248,208,192)" />
	<path d="M10.3448,31.0345 13.7931,31.0345 13.7931,27.5862 10.3448,27.5862 z " fill-rule="evenodd" fill="rgb(248,208,192)" stroke-width="0.5" stroke="rgb(248,208,192)" />
	<path d="M10.3448,27.5862 13.7931,27.5862 13.7931,24.1379 10.3448,24.1379 z " fill-rule="evenodd" fill="rgb(176,40,96)" stroke-width="0.5" stroke="rgb(176,40,96)" />
	<path d="M10.3448,24.1379 13.7931,24.1379 13.7931,20.6897 11.2069,21.5517 z " fill-rule="evenodd" fill="rgb(176,40,96)" stroke-width="0.5" stroke="rgb(176,40,96)" />
	<path d="M9.48276,19.8276 11.2069,21.5517 13.7931,20.6897 14.6552,18.1034 12.931,16.3793 11.2069,18.1034 z " fill-rule="evenodd" fill="rgb(80,0,0)" stroke-width="0.5" stroke="rgb(80,0,0)" />
	<path d="M9.48276,16.3793 11.2069,18.1034 12.931,16.3793 14.6552,14.6552 12.931,12.931 10.3448,13.7931 z " fill-rule="evenodd" fill="rgb(164,207,212)" stroke-width="0.5" stroke="rgb(164,207,212)" />
	<path d="M10.3448,13.7931 12.931,12.931 13.7931,10.3448 10.3448,10.3448 z " fill-rule="evenodd" fill="rgb(164,207,212)" stroke-width="0.5" stroke="rgb(164,207,212)" />
	<path d="M10.3448,10.3448 13.7931,10.3448 13.7931,6.89655 10.3448,6.89655 z " fill-rule="evenodd" fill="rgb(164,207,212)" stroke-width="0.5" stroke="rgb(164,207,212)" />
	<path d="M10.3448,6.89655 13.7931,6.89655 13.7931,3.44828 10.3448,3.44828 z " fill-rule="evenodd" fill="rgb(164,207,212)" stroke-width="0.5" stroke="rgb(164,207,212)" />
	<path d="M10.3448,3.44828 13.7931,3.44828 13.7931,0 12.069,0 10.3448,0 z " fill-rule="evenodd" fill="rgb(164,207,212)" stroke-width="0.5" stroke="rgb(164,207,212)" />
	<path d="M13.7931,100 15.5172,100 17.2414,100 17.2414,96.5517 14.6552,97.4138 z " fill-rule="evenodd" fill="rgb(164,207,212)" stroke-width="0.5" stroke="rgb(164,207,212)" />
	<path d="M12.931,95.6897 14.6552,97.4138 17.2414,96.5517 17.2414,93.1034 14.6552,93.9655 z " fill-rule="evenodd" fill="rgb(164,207,212)" stroke-width="0.5" stroke="rgb(164,207,212)" />
	<path d="M12.931,92.2414 14.6552,93.9655 17.2414,93.1034 17.2414,89.6552 14.6552,90.5172 z " fill-rule="evenodd" fill="rgb(0,0,0)" stroke-width="0.5" stroke="rgb(0,0,0)" />
	<path d="M12.931,88.7931 14.6552,90.5172 17.2414,89.6552 17.2414,86.2069 14.6552,85.3448 12.931,87.069 z " fill-rule="evenodd" fill="rgb(136,88,24)" stroke-width="0.5" stroke="rgb(136,88,24)" />
	<path d="M14.6552,85.3448 17.2414,86.2069 17.2414,82.7586 13.7931,82.7586 z " fill-rule="evenodd" fill="rgb(32,48,136)" stroke-width="0.5" stroke="rgb(32,48,136)" />
	<path d="M13.7931,82.7586 17.2414,82.7586 17.2414,79.3103 14.6552,80.1724 z " fill-rule="evenodd" fill="rgb(32,48,136)" stroke-width="0.5" stroke="rgb(32,48,136)" />
	<path d="M12.931,78.4483 14.6552,80.1724 17.2414,79.3103 17.2414,75.8621 13.7931,75.8621 z " fill-rule="evenodd" fill="rgb(136,88,24)" stroke-width="0.5" stroke="rgb(136,88,24)" />
	<path d="M13.7931,75.8621 17.2414,75.8621 17.2414,72.4138 13.7931,72.4138 z " fill-rule="evenodd" fill="rgb(248,248,248)" stroke-width="0.5" stroke="rgb(248,248,248)" />
	<path d="M13.7931,72.4138 17.2414,72.4138 17.2414,68.9655 13.7931,68.9655 z " fill-rule="evenodd" fill="rgb(248,248,248)" stroke-width="0.5" stroke="rgb(248,248,248)" />
	<path d="M13.7931,68.9655 17.2414,68.9655 16.3793,66.3793 13.7931,65.5172 z " fill-rule="evenodd" fill="rgb(248,248,248)" stroke-width="0.5" stroke="rgb(248,248,248)" />
	<path d="M13.7931,65.5172 16.3793,66.3793 18.1034,64.6552 16.3793,62.931 13.7931,62.069 z " fill-rule="evenodd" fill="rgb(248,248,248)" stroke-width="0.5" stroke="rgb(248,248,248)" />
	<path d="M13.7931,62.069 16.3793,62.931 18.1034,61.2069 17.2414,58.6207 13.7931,58.6207 z " fill-rule="evenodd" fill="rgb(136,88,24)" stroke-width="0.5" stroke="rgb(136,88,24)" />
	<path d="M13.7931,58.6207 17.2414,58.6207 17.2414,55.1724 13.7931,55.1724 z " fill-rule="evenodd" fill="rgb(248,64,112)" stroke-width="0.5" stroke="rgb(248,64,112)" />
	<path d="M13.7931,55.1724 17.2414,55.1724 17.2414,51.7241 13.7931,51.7241 z " fill-rule="evenodd" fill="rgb(176,40,96)" stroke-width="0.5" stroke="rgb(176,40,96)" />
	<path d="M13.7931,51.7241 17.2414,51.7241 17.2414,48.2759 14.6552,47.4138 12.931,49.1379 z " fill-rule="evenodd" fill="rgb(0,0,0)" stroke-width="0.5" stroke="rgb(0,0,0)" />
	<path d="M14.6552,47.4138 17.2414,48.2759 16.3793,45.6897 14.6552,43.9655 12.931,45.6897 z " fill-rule="evenodd" fill="rgb(0,0,0)" stroke-width="0.5" stroke="rgb(0,0,0)" />
	<path d="M14.6552,43.9655 16.3793,45.6897 18.1034,43.9655 16.3793,42.2414 14.6552,40.5172 12.931,42.2414 z " fill-rule="evenodd" fill="rgb(248,112,104)" stroke-width="0.5" stroke="rgb(248,112,104)" />
	<path d="M14.6552,40.5172 16.3793,42.2414 18.1034,40.5172 16.3793,38.7931 14.6552,37.069 12.931,38.7931 z " fill-rule="evenodd" fill="rgb(248,112,104)" stroke-width="0.5" stroke="rgb(248,112,104)" />
	<path d="M14.6552,37.069 16.3793,38.7931 18.1034,37.069 17.2414,34.4828 13.7931,34.4828 z " fill-rule="evenodd" fill="rgb(0,0,0)" stroke-width="0.5" stroke="rgb(0,0,0)" />
	<path d="M13.7931,34.4828 17.2414,34.4828 17.2414,31.0345 13.7931,31.0345 z " fill-rule="evenodd" fill="rgb(0,0,0)" stroke-width="0.5" stroke="rgb(0,0,0)" />
	<path d="M13.7931,31.0345 17.2414,31.0345 18.1034,28.4483 16.3793,26.7241 13.7931,27.5862 z " fill-rule="evenodd" fill="rgb(0,0,0)" stroke-width="0.5" stroke="rgb(0,0,0)" />
	<path d="M13.7931,27.5862 16.3793,26.7241 17.2414,24.1379 13.7931,24.1379 z " fill-rule="evenodd" fill="rgb(176,40,96)" stroke-width="0.5" stroke="rgb(176,40,96)" />
	<path d="M13.7931,24.1379 17.2414,24.1379 18.1034,21.5517 16.3793,19.8276 13.7931,20.6897 z " fill-rule="evenodd" fill="rgb(176,40,96)" stroke-width="0.5" stroke="rgb(176,40,96)" />
	<path d="M13.7931,20.6897 16.3793,19.8276 18.1034,18.1034 16.3793,16.3793 14.6552,18.1034 z " fill-rule="evenodd" fill="rgb(248,64,112)" stroke-width="0.5" stroke="rgb(248,64,112)" />
	<path d="M12.931,16.3793 14.6552,18.1034 16.3793,16.3793 18.1034,14.6552 16.3793,12.931 14.6552,14.6552 z " fill-rule="evenodd" fill="rgb(80,0,0)" stroke-width="0.5" stroke="rgb(80,0,0)" />
	<path d="M12.931,12.931 14.6552,14.6552 16.3793,12.931 18.1034,11.2069 16.3793,9.48276 13.7931,10.3448 z " fill-rule="evenodd" fill="rgb(164,207,212)" stroke-width="0.5" stroke="rgb(164,207,212)" />
	<path d="M13.7931,10.3448 16.3793,9.48276 17.2414,6.89655 13.7931,6.89655 z " fill-rule="evenodd" fill="rgb(164,207,212)" stroke-width="0.5" stroke="rgb(164,207,212)" />
	<path d="M13.7931,6.89655 17.2414,6.89655 17.2414,3.44828 13.7931,3.44828 z " fill-rule="evenodd" fill="rgb(164,207,212)" stroke-width="0.5" stroke="rgb(164,207,212)" />
	<path d="M13.7931,3.44828 17.2414,3.44828 17.2414,0 15.5172,0 13.7931,0 z " fill-rule="evenodd" fill="rgb(164,207,212)" stroke-width="0.5" stroke="rgb(164,207,212)" />
	<path d="M17.2414,100 18.9655,100 20.6897,100 20.6897,96.5517 17.2414,96.5517 z " fill-rule="evenodd" fill="rgb(164,207,212)" stroke-width="0.5" stroke="rgb(164,207,212)" />
	<path d="M17.2414,96.5517 20.6897,96.5517 21.5517,93.9655 19.8276,92.2414 17.2414,93.1034 z " fill-rule="evenodd" fill="rgb(164,207,212)" stroke-width="0.5" stroke="rgb(164,207,212)" />
	<path d="M17.2414,93.1034 19.8276,92.2414 20.6897,89.6552 17.2414,89.6552 z " fill-rule="evenodd" fill="rgb(0,0,0)" stroke-width="0.5" stroke="rgb(0,0,0)" />
	<path d="M17.2414,89.6552 20.6897,89.6552 19.8276,87.069 17.2414,86.2069 z " fill-rule="evenodd" fill="rgb(136,88,24)" stroke-width="0.5" stroke="rgb(136,88,24)" />
	<path d="M17.2414,86.2069 19.8276,87.069 21.5517,85.3448 19.8276,83.6207 17.2414,82.7586 z " fill-rule="evenodd" fill="rgb(32,48,136)" stroke-width="0.5" stroke="rgb(32,48,136)" />
	<path d="M17.2414,82.7586 19.8276,83.6207 21.5517,81.8966 20.6897,79.3103 17.2414,79.3103 z " fill-rule="evenodd" fill="rgb(32,48,136)" stroke-width="0.5" stroke="rgb(32,48,136)" />
	<path d="M17.2414,79.3103 20.6897,79.3103 21.5517,76.7241 19.8276,75 17.2414,75.8621 z " fill-rule="evenodd" fill="rgb(136,88,24)" stroke-width="0.5" stroke="rgb(136,88,24)" />
	<path d="M17.2414,75.8621 19.8276,75 21.5517,73.2759 19.8276,71.5517 17.2414,72.4138 z " fill-rule="evenodd" fill="rgb(248,248,248)" stroke-width="0.5" stroke="rgb(248,248,248)" />
	<path d="M17.2414,72.4138 19.8276,71.5517 20.6897,68.9655 17.2414,68.9655 z " fill-rule="evenodd" fill="rgb(248,248,248)" stroke-width="0.5" stroke="rgb(248,248,248)" />
	<path d="M17.2414,68.9655 20.6897,68.9655 20.6897,65.5172 18.1034,64.6552 16.3793,66.3793 z " fill-rule="evenodd" fill="rgb(248,248,248)" stroke-width="0.5" stroke="rgb(248,248,248)" />
	<path d="M18.1034,64.6552 20.6897,65.5172 19.8276,62.931 18.1034,61.2069 16.3793,62.931 z " fill-rule="evenodd" fill="rgb(136,88,24)" stroke-width="0.5" stroke="rgb(136,88,24)" />
	<path d="M18.1034,61.2069 19.8276,62.931 21.5517,61.2069 20.6897,58.6207 17.2414,58.6207 z " fill-rule="evenodd" fill="rgb(136,88,24)" stroke-width="0.5" stroke="rgb(136,88,24)" />
	<path d="M17.2414,58.6207 20.6897,58.6207 20.6897,55.1724 17.2414,55.1724 z " fill-rule="evenodd" fill="rgb(248,64,112)" stroke-width="0.5" stroke="rgb(248,64,112)" />
	<path d="M17.2414,55.1724 20.6897,55.1724 20.6897,51.7241 17.2414,51.7241 z " fill-rule="evenodd" fill="rgb(176,40,96)" stroke-width="0.5" stroke="rgb(176,40,96)" />
	<path d="M17.2414,51.7241 20.6897,51.7241 19.8276,49.1379 17.2414,48.2759 z " fill-rule="evenodd" fill="rgb(136,88,24)" stroke-width="0.5" stroke="rgb(136,88,24)" />
	<path d="M17.2414,48.2759 19.8276,49.1379 21.5517,47.4138 20.6897,44.8276 18.1034,43.9655 16.3793,45.6897 z " fill-rule="evenodd" fill="rgb(248,112,104)" stroke-width="0.5" stroke="rgb(248,112,104)" />
	<path d="M18.1034,43.9655 20.6897,44.8276 20.6897,41.3793 18.1034,40.5172 16.3793,42.2414 z " fill-rule="evenodd" fill="rgb(248,112,104)" stroke-width="0.5" stroke="rgb(248,112,104)" />
	<path d="M18.1034,40.5172 20.6897,41.3793 21.5517,38.7931 19.8276,37.069 18.1034,37.069 16.3793,38.7931 z " fill-rule="evenodd" fill="rgb(0,0,0)" stroke-width="0.5" stroke="rgb(0,0,0)" />
	<path d="M18.1034,37.069 19.8276,37.069 19.8276,35.3448 17.2414,34.4828 z " fill-rule="evenodd" fill="rgb(0,0,0)" stroke-width="0.5" stroke="rgb(0,0,0)" />
	<path d="M17.2414,34.4828 19.8276,35.3448 21.5517,33.6207 20.6897,31.0345 17.2414,31.0345 z " fill-rule="evenodd" fill="rgb(0,0,0)" stroke-width="0.5" stroke="rgb(0,0,0)" />
	<path d="M17.2414,31.0345 20.6897,31.0345 21.5517,28.4483 19.8276,26.7241 18.1034,28.4483 z " fill-rule="evenodd" fill="rgb(0,0,0)" stroke-width="0.5" stroke="rgb(0,0,0)" />
	<path d="M16.3793,26.7241 18.1034,28.4483 19.8276,26.7241 20.6897,24.1379 17.2414,24.1379 z " fill-rule="evenodd" fill="rgb(0,0,0)" stroke-width="0.5" stroke="rgb(0,0,0)" />
	<path d="M17.2414,24.1379 20.6897,24.1379 21.5517,21.5517 19.8276,19.8276 18.1034,21.5517 z " fill-rule="evenodd" fill="rgb(0,0,0)" stroke-width="0.5" stroke="rgb(0,0,0)" />
	<path d="M16.3793,19.8276 18.1034,21.5517 19.8276,19.8276 21.5517,18.1034 19.8276,16.3793 18.1034,18.1034 z " fill-rule="evenodd" fill="rgb(176,40,96)" stroke-width="0.5" stroke="rgb(176,40,96)" />
	<path d="M16.3793,16.3793 18.1034,18.1034 19.8276,16.3793 21.5517,14.6552 19.8276,12.931 18.1034,14.6552 z " fill-rule="evenodd" fill="rgb(248,64,112)" stroke-width="0.5" stroke="rgb(248,64,112)" />
	<path d="M16.3793,12.931 18.1034,14.6552 19.8276,12.931 21.5517,11.2069 19.8276,9.48276 18.1034,11.2069 z " fill-rule="evenodd" fill="rgb(80,0,0)" stroke-width="0.5" stroke="rgb(80,0,0)" />
	<path d="M16.3793,9.48276 18.1034,11.2069 19.8276,9.48276 21.5517,7.75862 19.8276,6.03448 17.2414,6.89655 z " fill-rule="evenodd" fill="rgb(164,207,212)" stroke-width="0.5" stroke="rgb(164,207,212)" />
	<path d="M17.2414,6.89655 19.8276,6.03448 20.6897,3.44828 17.2414,3.44828 z " fill-rule="evenodd" fill="rgb(164,207,212)" stroke-width="0.5" stroke="rgb(164,207,212)" />
	<path d="M17.2414,3.44828 20.6897,3.44828 20.6897,0 18.9655,0 17.2414,0 z " fill-rule="evenodd" fill="rgb(164,207,212)" stroke-width="0.5" stroke="rgb(164,207,212)" />
	<path d="M20.6897,100 22.4138,100 24.1379,100 24.1379,96.5517 20.6897,96.5517 z " fill-rule="evenodd" fill="rgb(164,207,212)" stroke-width="0.5" stroke="rgb(164,207,212)" />
	<path d="M20.6897,96.5517 24.1379,96.5517 24.1379,93.1034 21.5517,93.9655 z " fill-rule="evenodd" fill="rgb(164,207,212)" stroke-width="0.5" stroke="rgb(164,207,212)" />
	<path d="M19.8276,92.2414 21.5517,93.9655 24.1379,93.1034 24.1379,89.6552 20.6897,89.6552 z " fill-rule="evenodd" fill="rgb(164,207,212)" stroke-width="0.5" stroke="rgb(164,207,212)" />
	<path d="M20.6897,89.6552 24.1379,89.6552 24.1379,86.2069 21.5517,85.3448 19.8276,87.069 z " fill-rule="evenodd" fill="rgb(32,48,136)" stroke-width="0.5" stroke="rgb(32,48,136)" />
	<path d="M21.5517,85.3448 24.1379,86.2069 24.1379,82.7586 21.5517,81.8966 19.8276,83.6207 z " fill-rule="evenodd" fill="rgb(32,48,136)" stroke-width="0.5" stroke="rgb(32,48,136)" />
	<path d="M21.5517,81.8966 24.1379,82.7586 24.1379,79.3103 20.6897,79.3103 z " fill-rule="evenodd" fill="rgb(64,128,152)" stroke-width="0.5" stroke="rgb(64,128,152)" />
	<path d="M20.6897,79.3103 24.1379,79.3103 24.1379,75.8621 21.5517,76.7241 z " fill-rule="evenodd" fill="rgb(64,128,152)" stroke-width="0.5" stroke="rgb(64,128,152)" />
	<path d="M19.8276,75 21.5517,76.7241 24.1379,75.8621 25,73.2759 23.2759,71.5517 21.5517,73.2759 z " fill-rule="evenodd" fill="rgb(136,88,24)" stroke-width="0.5" stroke="rgb(136,88,24)" />
	<path d="M19.8276,71.5517 21.5517,73.2759 23.2759,71.5517 24.1379,68.9655 20.6897,68.9655 z " fill-rule="evenodd" fill="rgb(248,248,248)" stroke-width="0.5" stroke="rgb(248,248,248)" />
	<path d="M20.6897,68.9655 24.1379,68.9655 23.2759,66.3793 20.6897,65.5172 z " fill-rule="evenodd" fill="rgb(248,248,248)" stroke-width="0.5" stroke="rgb(248,248,248)" />
	<path d="M20.6897,65.5172 23.2759,66.3793 25,64.6552 24.1379,62.069 21.5517,61.2069 19.8276,62.931 z " fill-rule="evenodd" fill="rgb(136,88,24)" stroke-width="0.5" stroke="rgb(136,88,24)" />
	<path d="M21.5517,61.2069 24.1379,62.069 24.1379,58.6207 20.6897,58.6207 z " fill-rule="evenodd" fill="rgb(176,40,96)" stroke-width="0.5" stroke="rgb(176,40,96)" />
	<path d="M20.6897,58.6207 24.1379,58.6207 24.1379,55.1724 20.6897,55.1724 z " fill-rule="evenodd" fill="rgb(248,64,112)" stroke-width="0.5" stroke="rgb(248,64,112)" />
	<path d="M20.6897,55.1724 24.1379,55.1724 24.1379,51.7241 20.6897,51.7241 z " fill-rule="evenodd" fill="rgb(176,40,96)" stroke-width="0.5" stroke="rgb(176,40,96)" />
	<path d="M20.6897,51.7241 24.1379,51.7241 23.2759,49.1379 21.5517,47.4138 19.8276,49.1379 z " fill-rule="evenodd" fill="rgb(248,112,104)" stroke-width="0.5" stroke="rgb(248,112,104)" />
	<path d="M21.5517,47.4138 23.2759,49.1379 25,47.4138 24.1379,44.8276 20.6897,44.8276 z " fill-rule="evenodd" fill="rgb(248,112,104)" stroke-width="0.5" stroke="rgb(248,112,104)" />
	<path d="M20.6897,44.8276 24.1379,44.8276 24.1379,41.3793 20.6897,41.3793 z " fill-rule="evenodd" fill="rgb(248,112,104)" stroke-width="0.5" stroke="rgb(248,112,104)" />
	<path d="M20.6897,41.3793 24.1379,41.3793 25,38.7931 23.2759,37.069 21.5517,38.7931 z " fill-rule="evenodd" fill="rgb(248,208,192)" stroke-width="0.5" stroke="rgb(248,208,192)" />
	<path d="M19.8276,37.069 21.5517,38.7931 23.2759,37.069 24.1379,34.4828 21.5517,33.6207 19.8276,35.3448 z " fill-rule="evenodd" fill="rgb(0,0,0)" stroke-width="0.5" stroke="rgb(0,0,0)" />
	<path d="M21.5517,33.6207 24.1379,34.4828 25,31.8966 23.2759,30.1724 20.6897,31.0345 z " fill-rule="evenodd" fill="rgb(248,112,104)" stroke-width="0.5" stroke="rgb(248,112,104)" />
	<path d="M20.6897,31.0345 23.2759,30.1724 25,28.4483 23.2759,26.7241 21.5517,28.4483 z " fill-rule="evenodd" fill="rgb(248,112,104)" stroke-width="0.5" stroke="rgb(248,112,104)" />
	<path d="M19.8276,26.7241 21.5517,28.4483 23.2759,26.7241 25,25 23.2759,23.2759 20.6897,24.1379 z " fill-rule="evenodd" fill="rgb(0,0,0)" stroke-width="0.5" stroke="rgb(0,0,0)" />
	<path d="M20.6897,24.1379 23.2759,23.2759 24.1379,20.6897 21.5517,21.5517 z " fill-rule="evenodd" fill="rgb(0,0,0)" stroke-width="0.5" stroke="rgb(0,0,0)" />
	<path d="M19.8276,19.8276 21.5517,21.5517 24.1379,20.6897 24.1379,17.2414 21.5517,18.1034 z " fill-rule="evenodd" fill="rgb(0,0,0)" stroke-width="0.5" stroke="rgb(0,0,0)" />
	<path d="M19.8276,16.3793 21.5517,18.1034 24.1379,17.2414 24.1379,13.7931 21.5517,14.6552 z " fill-rule="evenodd" fill="rgb(176,40,96)" stroke-width="0.5" stroke="rgb(176,40,96)" />
	<path d="M19.8276,12.931 21.5517,14.6552 24.1379,13.7931 24.1379,10.3448 21.5517,11.2069 z " fill-rule="evenodd" fill="rgb(248,64,112)" stroke-width="0.5" stroke="rgb(248,64,112)" />
	<path d="M19.8276,9.48276 21.5517,11.2069 24.1379,10.3448 24.1379,6.89655 21.5517,7.75862 z " fill-rule="evenodd" fill="rgb(80,0,0)" stroke-width="0.5" stroke="rgb(80,0,0)" />
	<path d="M19.8276,6.03448 21.5517,7.75862 24.1379,6.89655 24.1379,3.44828 20.6897,3.44828 z " fill-rule="evenodd" fill="rgb(164,207,212)" stroke-width="0.5" stroke="rgb(164,207,212)" />
	<path d="M20.6897,3.44828 24.1379,3.44828 24.1379,0 22.4138,0 20.6897,0 z " fill-rule="evenodd" fill="rgb(164,207,212)" stroke-width="0.5" stroke="rgb(164,207,212)" />
	<path d="M24.1379,100 25.8621,100 27.5862,100 27.5862,96.5517 24.1379,96.5517 z " fill-rule="evenodd" fill="rgb(164,207,212)" stroke-width="0.5" stroke="rgb(164,207,212)" />
	<path d="M24.1379,96.5517 27.5862,96.5517 27.5862,93.1034 24.1379,93.1034 z " fill-rule="evenodd" fill="rgb(164,207,212)" stroke-width="0.5" stroke="rgb(164,207,212)" />
	<path d="M24.1379,93.1034 27.5862,93.1034 28.4483,90.5172 26.7241,88.7931 24.1379,89.6552 z " fill-rule="evenodd" fill="rgb(164,207,212)" stroke-width="0.5" stroke="rgb(164,207,212)" />
	<path d="M24.1379,89.6552 26.7241,88.7931 28.4483,87.069 26.7241,85.3448 24.1379,86.2069 z " fill-rule="evenodd" fill="rgb(32,48,136)" stroke-width="0.5" stroke="rgb(32,48,136)" />
	<path d="M24.1379,86.2069 26.7241,85.3448 27.5862,82.7586 24.1379,82.7586 z " fill-rule="evenodd" fill="rgb(32,48,136)" stroke-width="0.5" stroke="rgb(32,48,136)" />
	<path d="M24.1379,82.7586 27.5862,82.7586 26.7241,80.1724 24.1379,79.3103 z " fill-rule="evenodd" fill="rgb(64,128,152)" stroke-width="0.5" stroke="rgb(64,128,152)" />
	<path d="M24.1379,79.3103 26.7241,80.1724 28.4483,78.4483 26.7241,76.7241 24.1379,75.8621 z " fill-rule="evenodd" fill="rgb(64,128,152)" stroke-width="0.5" stroke="rgb(64,128,152)" />
	<path d="M24.1379,75.8621 26.7241,76.7241 28.4483,75 28.4483,73.2759 26.7241,71.5517 25,73.2759 z " fill-rule="evenodd" fill="rgb(128,216,200)" stroke-width="0.5" stroke="rgb(128,216,200)" />
	<path d="M23.2759,71.5517 25,73.2759 26.7241,71.5517 27.5862,68.9655 24.1379,68.9655 z " fill-rule="evenodd" fill="rgb(136,88,24)" stroke-width="0.5" stroke="rgb(136,88,24)" />
	<path d="M24.1379,68.9655 27.5862,68.9655 27.5862,65.5172 25,64.6552 23.2759,66.3793 z " fill-rule="evenodd" fill="rgb(136,88,24)" stroke-width="0.5" stroke="rgb(136,88,24)" />
	<path d="M25,64.6552 27.5862,65.5172 27.5862,62.069 24.1379,62.069 z " fill-rule="evenodd" fill="rgb(80,0,0)" stroke-width="0.5" stroke="rgb(80,0,0)" />
	<path d="M24.1379,62.069 27.5862,62.069 27.5862,58.6207 24.1379,58.6207 z " fill-rule="evenodd" fill="rgb(176,40,96)" stroke-width="0.5" stroke="rgb(176,40,96)" />
	<path d="M24.1379,58.6207 27.5862,58.6207 27.5862,55.1724 24.1379,55.1724 z " fill-rule="evenodd" fill="rgb(32,48,136)" stroke-width="0.5" stroke="rgb(32,48,136)" />
	<path d="M24.1379,55.1724 27.5862,55.1724 27.5862,51.7241 24.1379,51.7241 z " fill-rule="evenodd" fill="rgb(176,40,96)" stroke-width="0.5" stroke="rgb(176,40,96)" />
	<path d="M24.1379,51.7241 27.5862,51.7241 27.5862,48.2759 25,47.4138 23.2759,49.1379 z " fill-rule="evenodd" fill="rgb(248,112,104)" stroke-width="0.5" stroke="rgb(248,112,104)" />
	<path d="M25,47.4138 27.5862,48.2759 27.5862,44.8276 24.1379,44.8276 z " fill-rule="evenodd" fill="rgb(248,208,192)" stroke-width="0.5" stroke="rgb(248,208,192)" />
	<path d="M24.1379,44.8276 27.5862,44.8276 28.4483,42.2414 26.7241,40.5172 24.1379,41.3793 z " fill-rule="evenodd" fill="rgb(0,0,0)" stroke-width="0.5" stroke="rgb(0,0,0)" />
	<path d="M24.1379,41.3793 26.7241,40.5172 28.4483,38.7931 26.7241,37.069 25,38.7931 z " fill-rule="evenodd" fill="rgb(248,208,192)" stroke-width="0.5" stroke="rgb(248,208,192)" />
	<path d="M23.2759,37.069 25,38.7931 26.7241,37.069 26.7241,35.3448 24.1379,34.4828 z " fill-rule="evenodd" fill="rgb(248,208,192)" stroke-width="0.5" stroke="rgb(248,208,192)" />
	<path d="M24.1379,34.4828 26.7241,35.3448 28.4483,33.6207 27.5862,31.0345 25,31.8966 z " fill-rule="evenodd" fill="rgb(248,208,192)" stroke-width="0.5" stroke="rgb(248,208,192)" />
	<path d="M23.2759,30.1724 25,31.8966 27.5862,31.0345 27.5862,27.5862 25,28.4483 z " fill-rule="evenodd" fill="rgb(248,112,104)" stroke-width="0.5" stroke="rgb(248,112,104)" />
	<path d="M23.2759,26.7241 25,28.4483 27.5862,27.5862 27.5862,24.1379 25,25 z " fill-rule="evenodd" fill="rgb(248,112,104)" stroke-width="0.5" stroke="rgb(248,112,104)" />
	<path d="M23.2759,23.2759 25,25 27.5862,24.1379 27.5862,20.6897 24.1379,20.6897 z " fill-rule="evenodd" fill="rgb(0,0,0)" stroke-width="0.5" stroke="rgb(0,0,0)" />
	<path d="M24.1379,20.6897 27.5862,20.6897 28.4483,18.1034 26.7241,16.3793 24.1379,17.2414 z " fill-rule="evenodd" fill="rgb(0,0,0)" stroke-width="0.5" stroke="rgb(0,0,0)" />
	<path d="M24.1379,17.2414 26.7241,16.3793 28.4483,14.6552 26.7241,12.931 24.1379,13.7931 z " fill-rule="evenodd" fill="rgb(176,40,96)" stroke-width="0.5" stroke="rgb(176,40,96)" />
	<path d="M24.1379,13.7931 26.7241,12.931 28.4483,11.2069 26.7241,9.48276 24.1379,10.3448 z " fill-rule="evenodd" fill="rgb(248,64,112)" stroke-width="0.5" stroke="rgb(248,64,112)" />
	<path d="M24.1379,10.3448 26.7241,9.48276 28.4483,7.75862 26.7241,6.03448 24.1379,6.89655 z " fill-rule="evenodd" fill="rgb(80,0,0)" stroke-width="0.5" stroke="rgb(80,0,0)" />
	<path d="M24.1379,6.89655 26.7241,6.03448 28.4483,4.31035 26.7241,2.58621 24.1379,3.44828 z " fill-rule="evenodd" fill="rgb(164,207,212)" stroke-width="0.5" stroke="rgb(164,207,212)" />
	<path d="M24.1379,3.44828 26.7241,2.58621 27.5862,0 25.8621,0 24.1379,0 z " fill-rule="evenodd" fill="rgb(164,207,212)" stroke-width="0.5" stroke="rgb(164,207,212)" />
	<path d="M27.5862,100 29.3103,100 31.0345,100 31.0345,96.5517 27.5862,96.5517 z " fill-rule="evenodd" fill="rgb(164,207,212)" stroke-width="0.5" stroke="rgb(164,207,212)" />
	<path d="M27.5862,96.5517 31.0345,96.5517 31.0345,93.1034 27.5862,93.1034 z " fill-rule="evenodd" fill="rgb(164,207,212)" stroke-width="0.5" stroke="rgb(164,207,212)" />
	<path d="M27.5862,93.1034 31.0345,93.1034 31.0345,89.6552 28.4483,90.5172 z " fill-rule="evenodd" fill="rgb(164,207,212)" stroke-width="0.5" stroke="rgb(164,207,212)" />
	<path d="M26.7241,88.7931 28.4483,90.5172 31.0345,89.6552 31.0345,86.2069 28.4483,87.069 z " fill-rule="evenodd" fill="rgb(164,207,212)" stroke-width="0.5" stroke="rgb(164,207,212)" />
	<path d="M26.7241,85.3448 28.4483,87.069 31.0345,86.2069 31.0345,82.7586 27.5862,82.7586 z " fill-rule="evenodd" fill="rgb(32,48,136)" stroke-width="0.5" stroke="rgb(32,48,136)" />
	<path d="M27.5862,82.7586 31.0345,82.7586 31.0345,79.3103 28.4483,78.4483 26.7241,80.1724 z " fill-rule="evenodd" fill="rgb(64,128,152)" stroke-width="0.5" stroke="rgb(64,128,152)" />
	<path d="M28.4483,78.4483 31.0345,79.3103 31.0345,75.8621 28.4483,75 26.7241,76.7241 z " fill-rule="evenodd" fill="rgb(128,216,200)" stroke-width="0.5" stroke="rgb(128,216,200)" />
	<path d="M28.4483,75 31.0345,75.8621 30.1724,73.2759 28.4483,73.2759 z " fill-rule="evenodd" fill="rgb(128,216,200)" stroke-width="0.5" stroke="rgb(128,216,200)" />
	<path d="M26.7241,71.5517 28.4483,73.2759 30.1724,73.2759 31.8966,71.5517 31.0345,68.9655 27.5862,68.9655 z " fill-rule="evenodd" fill="rgb(128,216,200)" stroke-width="0.5" stroke="rgb(128,216,200)" />
	<path d="M27.5862,68.9655 31.0345,68.9655 31.8966,66.3793 30.1724,64.6552 27.5862,65.5172 z " fill-rule="evenodd" fill="rgb(128,216,200)" stroke-width="0.5" stroke="rgb(128,216,200)" />
	<path d="M27.5862,65.5172 30.1724,64.6552 31.0345,62.069 27.5862,62.069 z " fill-rule="evenodd" fill="rgb(80,0,0)" stroke-width="0.5" stroke="rgb(80,0,0)" />
	<path d="M27.5862,62.069 31.0345,62.069 31.0345,58.6207 27.5862,58.6207 z " fill-rule="evenodd" fill="rgb(64,128,152)" stroke-width="0.5" stroke="rgb(64,128,152)" />
	<path d="M27.5862,58.6207 31.0345,58.6207 31.0345,55.1724 27.5862,55.1724 z " fill-rule="evenodd" fill="rgb(32,48,136)" stroke-width="0.5" stroke="rgb(32,48,136)" />
	<path d="M27.5862,55.1724 31.0345,55.1724 31.0345,51.7241 27.5862,51.7241 z " fill-rule="evenodd" fill="rgb(80,0,0)" stroke-width="0.5" stroke="rgb(80,0,0)" />
	<path d="M27.5862,51.7241 31.0345,51.7241 31.0345,48.2759 27.5862,48.2759 z " fill-rule="evenodd" fill="rgb(248,112,104)" stroke-width="0.5" stroke="rgb(248,112,104)" />
	<path d="M27.5862,48.2759 31.0345,48.2759 30.1724,45.6897 27.5862,44.8276 z " fill-rule="evenodd" fill="rgb(248,208,192)" stroke-width="0.5" stroke="rgb(248,208,192)" />
	<path d="M27.5862,44.8276 30.1724,45.6897 31.8966,43.9655 30.1724,42.2414 28.4483,42.2414 z " fill-rule="evenodd" fill="rgb(0,0,0)" stroke-width="0.5" stroke="rgb(0,0,0)" />
	<path d="M26.7241,40.5172 28.4483,42.2414 30.1724,42.2414 31.8966,40.5172 31.0345,37.931 28.4483,38.7931 z " fill-rule="evenodd" fill="rgb(0,0,0)" stroke-width="0.5" stroke="rgb(0,0,0)" />
	<path d="M26.7241,37.069 28.4483,38.7931 31.0345,37.931 31.0345,34.4828 28.4483,33.6207 26.7241,35.3448 z " fill-rule="evenodd" fill="rgb(248,208,192)" stroke-width="0.5" stroke="rgb(248,208,192)" />
	<path d="M28.4483,33.6207 31.0345,34.4828 31.0345,31.0345 27.5862,31.0345 z " fill-rule="evenodd" fill="rgb(248,248,248)" stroke-width="0.5" stroke="rgb(248,248,248)" />
	<path d="M27.5862,31.0345 31.0345,31.0345 31.8966,28.4483 30.1724,26.7241 27.5862,27.5862 z " fill-rule="evenodd" fill="rgb(248,248,248)" stroke-width="0.5" stroke="rgb(248,248,248)" />
	<path d="M27.5862,27.5862 30.1724,26.7241 31.0345,24.1379 27.5862,24.1379 z " fill-rule="evenodd" fill="rgb(248,248,248)" stroke-width="0.5" stroke="rgb(248,248,248)" />
	<path d="M27.5862,24.1379 31.0345,24.1379 31.0345,20.6897 27.5862,20.6897 z " fill-rule="evenodd" fill="rgb(0,0,0)" stroke-width="0.5" stroke="rgb(0,0,0)" />
	<path d="M27.5862,20.6897 31.0345,20.6897 31.0345,17.2414 28.4483,18.1034 z " fill-rule="evenodd" fill="rgb(0,0,0)" stroke-width="0.5" stroke="rgb(0,0,0)" />
	<path d="M26.7241,16.3793 28.4483,18.1034 31.0345,17.2414 31.0345,13.7931 28.4483,14.6552 z " fill-rule="evenodd" fill="rgb(0,0,0)" stroke-width="0.5" stroke="rgb(0,0,0)" />
	<path d="M26.7241,12.931 28.4483,14.6552 31.0345,13.7931 31.0345,10.3448 28.4483,11.2069 z " fill-rule="evenodd" fill="rgb(176,40,96)" stroke-width="0.5" stroke="rgb(176,40,96)" />
	<path d="M26.7241,9.48276 28.4483,11.2069 31.0345,10.3448 31.0345,6.89655 28.4483,7.75862 z " fill-rule="evenodd" fill="rgb(248,64,112)" stroke-width="0.5" stroke="rgb(248,64,112)" />
	<path d="M26.7241,6.03448 28.4483,7.75862 31.0345,6.89655 31.0345,3.44828 28.4483,4.31035 z " fill-rule="evenodd" fill="rgb(80,0,0)" stroke-width="0.5" stroke="rgb(80,0,0)" />
	<path d="M26.7241,2.58621 28.4483,4.31035 31.0345,3.44828 31.0345,0 29.3103,0 27.5862,0 z " fill-rule="evenodd" fill="rgb(164,207,212)" stroke-width="0.5" stroke="rgb(164,207,212)" />
	<path d="M31.0345,100 32.7586,100 34.4828,100 34.4828,96.5517 31.0345,96.5517 z " fill-rule="evenodd" fill="rgb(164,207,212)" stroke-width="0.5" stroke="rgb(164,207,212)" />
	<path d="M31.0345,96.5517 34.4828,96.5517 34.4828,93.1034 31.0345,93.1034 z " fill-rule="evenodd" fill="rgb(164,207,212)" stroke-width="0.5" stroke="rgb(164,207,212)" />
	<path d="M31.0345,93.1034 34.4828,93.1034 34.4828,89.6552 31.0345,89.6552 z " fill-rule="evenodd" fill="rgb(164,207,212)" stroke-width="0.5" stroke="rgb(164,207,212)" />
	<path d="M31.0345,89.6552 34.4828,89.6552 34.4828,86.2069 31.0345,86.2069 z " fill-rule="evenodd" fill="rgb(164,207,212)" stroke-width="0.5" stroke="rgb(164,207,212)" />
	<path d="M31.0345,86.2069 34.4828,86.2069 34.4828,82.7586 31.0345,82.7586 z " fill-rule="evenodd" fill="rgb(32,48,136)" stroke-width="0.5" stroke="rgb(32,48,136)" />
	<path d="M31.0345,82.7586 34.4828,82.7586 34.4828,79.3103 31.0345,79.3103 z " fill-rule="evenodd" fill="rgb(64,128,152)" stroke-width="0.5" stroke="rgb(64,128,152)" />
	<path d="M31.0345,79.3103 34.4828,79.3103 34.4828,75.8621 31.0345,75.8621 z " fill-rule="evenodd" fill="rgb(128,216,200)" stroke-width="0.5" stroke="rgb(128,216,200)" />
	<path d="M31.0345,75.8621 34.4828,75.8621 34.4828,72.4138 31.8966,71.5517 30.1724,73.2759 z " fill-rule="evenodd" fill="rgb(128,216,200)" stroke-width="0.5" stroke="rgb(128,216,200)" />
	<path d="M31.8966,71.5517 34.4828,72.4138 34.4828,68.9655 31.0345,68.9655 z " fill-rule="evenodd" fill="rgb(248,248,248)" stroke-width="0.5" stroke="rgb(248,248,248)" />
	<path d="M31.0345,68.9655 34.4828,68.9655 34.4828,65.5172 31.8966,66.3793 z " fill-rule="evenodd" fill="rgb(248,248,248)" stroke-width="0.5" stroke="rgb(248,248,248)" />
	<path d="M30.1724,64.6552 31.8966,66.3793 34.4828,65.5172 34.4828,62.069 31.0345,62.069 z " fill-rule="evenodd" fill="rgb(128,216,200)" stroke-width="0.5" stroke="rgb(128,216,200)" />
	<path d="M31.0345,62.069 34.4828,62.069 34.4828,58.6207 31.0345,58.6207 z " fill-rule="evenodd" fill="rgb(64,128,152)" stroke-width="0.5" stroke="rgb(64,128,152)" />
	<path d="M31.0345,58.6207 34.4828,58.6207 34.4828,55.1724 31.0345,55.1724 z " fill-rule="evenodd" fill="rgb(248,64,112)" stroke-width="0.5" stroke="rgb(248,64,112)" />
	<path d="M31.0345,55.1724 34.4828,55.1724 34.4828,51.7241 31.0345,51.7241 z " fill-rule="evenodd" fill="rgb(80,0,0)" stroke-width="0.5" stroke="rgb(80,0,0)" />
	<path d="M31.0345,51.7241 34.4828,51.7241 34.4828,48.2759 31.0345,48.2759 z " fill-rule="evenodd" fill="rgb(248,112,104)" stroke-width="0.5" stroke="rgb(248,112,104)" />
	<path d="M31.0345,48.2759 34.4828,48.2759 34.4828,44.8276 31.8966,43.9655 30.1724,45.6897 z " fill-rule="evenodd" fill="rgb(0,0,0)" stroke-width="0.5" stroke="rgb(0,0,0)" />
	<path d="M31.8966,43.9655 34.4828,44.8276 34.4828,41.3793 31.8966,40.5172 30.1724,42.2414 z " fill-rule="evenodd" fill="rgb(0,0,0)" stroke-width="0.5" stroke="rgb(0,0,0)" />
	<path d="M31.8966,40.5172 34.4828,41.3793 33.6207,38.7931 31.0345,37.931 z " fill-rule="evenodd" fill="rgb(136,88,24)" stroke-width="0.5" stroke="rgb(136,88,24)" />
	<path d="M31.0345,37.931 33.6207,38.7931 35.3448,37.069 34.4828,34.4828 31.0345,34.4828 z " fill-rule="evenodd" fill="rgb(248,112,104)" stroke-width="0.5" stroke="rgb(248,112,104)" />
	<path d="M31.0345,34.4828 34.4828,34.4828 34.4828,31.0345 31.0345,31.0345 z " fill-rule="evenodd" fill="rgb(0,0,0)" stroke-width="0.5" stroke="rgb(0,0,0)" />
	<path d="M31.0345,31.0345 34.4828,31.0345 34.4828,27.5862 31.8966,28.4483 z " fill-rule="evenodd" fill="rgb(0,0,0)" stroke-width="0.5" stroke="rgb(0,0,0)" />
	<path d="M30.1724,26.7241 31.8966,28.4483 34.4828,27.5862 34.4828,24.1379 31.0345,24.1379 z " fill-rule="evenodd" fill="rgb(248,248,248)" stroke-width="0.5" stroke="rgb(248,248,248)" />
	<path d="M31.0345,24.1379 34.4828,24.1379 34.4828,20.6897 31.0345,20.6897 z " fill-rule="evenodd" fill="rgb(0,0,0)" stroke-width="0.5" stroke="rgb(0,0,0)" />
	<path d="M31.0345,20.6897 34.4828,20.6897 34.4828,17.2414 31.0345,17.2414 z " fill-rule="evenodd" fill="rgb(0,0,0)" stroke-width="0.5" stroke="rgb(0,0,0)" />
	<path d="M31.0345,17.2414 34.4828,17.2414 34.4828,13.7931 31.0345,13.7931 z " fill-rule="evenodd" fill="rgb(0,0,0)" stroke-width="0.5" stroke="rgb(0,0,0)" />
	<path d="M31.0345,13.7931 34.4828,13.7931 34.4828,10.3448 31.0345,10.3448 z " fill-rule="evenodd" fill="rgb(216,160,56)" stroke-width="0.5" stroke="rgb(216,160,56)" />
	<path d="M31.0345,10.3448 34.4828,10.3448 34.4828,6.89655 31.0345,6.89655 z " fill-rule="evenodd" fill="rgb(248,64,112)" stroke-width="0.5" stroke="rgb(248,64,112)" />
	<path d="M31.0345,6.89655 34.4828,6.89655 34.4828,3.44828 31.0345,3.44828 z " fill-rule="evenodd" fill="rgb(80,0,0)" stroke-width="0.5" stroke="rgb(80,0,0)" />
	<path d="M31.0345,3.44828 34.4828,3.44828 34.4828,0 32.7586,0 31.0345,0 z " fill-rule="evenodd" fill="rgb(164,207,212)" stroke-width="0.5" stroke="rgb(164,207,212)" />
	<path d="M34.4828,100 36.2069,100 37.931,100 37.931,96.5517 34.4828,96.5517 z " fill-rule="evenodd" fill="rgb(164,207,212)" stroke-width="0.5" stroke="rgb(164,207,212)" />
	<path d="M34.4828,96.5517 37.931,96.5517 37.931,93.1034 34.4828,93.1034 z " fill-rule="evenodd" fill="rgb(164,207,212)" stroke-width="0.5" stroke="rgb(164,207,212)" />
	<path d="M34.4828,93.1034 37.931,93.1034 37.931,89.6552 34.4828,89.6552 z " fill-rule="evenodd" fill="rgb(164,207,212)" stroke-width="0.5" stroke="rgb(164,207,212)" />
	<path d="M34.4828,89.6552 37.931,89.6552 37.931,86.2069 34.4828,86.2069 z " fill-rule="evenodd" fill="rgb(164,207,212)" stroke-width="0.5" stroke="rgb(164,207,212)" />
	<path d="M34.4828,86.2069 37.931,86.2069 38.7931,83.6207 37.069,81.8966 34.4828,82.7586 z " fill-rule="evenodd" fill="rgb(32,48,136)" stroke-width="0.5" stroke="rgb(32,48,136)" />
	<path d="M34.4828,82.7586 37.069,81.8966 37.931,79.3103 34.4828,79.3103 z " fill-rule="evenodd" fill="rgb(64,128,152)" stroke-width="0.5" stroke="rgb(64,128,152)" />
	<path d="M34.4828,79.3103 37.931,79.3103 38.7931,76.7241 37.069,75 34.4828,75.8621 z " fill-rule="evenodd" fill="rgb(128,216,200)" stroke-width="0.5" stroke="rgb(128,216,200)" />
	<path d="M34.4828,75.8621 37.069,75 38.7931,73.2759 37.069,71.5517 34.4828,72.4138 z " fill-rule="evenodd" fill="rgb(128,216,200)" stroke-width="0.5" stroke="rgb(128,216,200)" />
	<path d="M34.4828,72.4138 37.069,71.5517 37.931,68.9655 34.4828,68.9655 z " fill-rule="evenodd" fill="rgb(248,248,248)" stroke-width="0.5" stroke="rgb(248,248,248)" />
	<path d="M34.4828,68.9655 37.931,68.9655 37.069,66.3793 34.4828,65.5172 z " fill-rule="evenodd" fill="rgb(248,248,248)" stroke-width="0.5" stroke="rgb(248,248,248)" />
	<path d="M34.4828,65.5172 37.069,66.3793 38.7931,64.6552 37.931,62.069 34.4828,62.069 z " fill-rule="evenodd" fill="rgb(128,216,200)" stroke-width="0.5" stroke="rgb(128,216,200)" />
	<path d="M34.4828,62.069 37.931,62.069 37.931,58.6207 34.4828,58.6207 z " fill-rule="evenodd" fill="rgb(176,40,96)" stroke-width="0.5" stroke="rgb(176,40,96)" />
	<path d="M34.4828,58.6207 37.931,58.6207 37.931,55.1724 34.4828,55.1724 z " fill-rule="evenodd" fill="rgb(248,64,112)" stroke-width="0.5" stroke="rgb(248,64,112)" />
	<path d="M34.4828,55.1724 37.931,55.1724 37.931,51.7241 34.4828,51.7241 z " fill-rule="evenodd" fill="rgb(136,88,24)" stroke-width="0.5" stroke="rgb(136,88,24)" />
	<path d="M34.4828,51.7241 37.931,51.7241 37.931,48.2759 34.4828,48.2759 z " fill-rule="evenodd" fill="rgb(248,112,104)" stroke-width="0.5" stroke="rgb(248,112,104)" />
	<path d="M34.4828,48.2759 37.931,48.2759 37.931,44.8276 34.4828,44.8276 z " fill-rule="evenodd" fill="rgb(0,0,0)" stroke-width="0.5" stroke="rgb(0,0,0)" />
	<path d="M34.4828,44.8276 37.931,44.8276 37.931,41.3793 34.4828,41.3793 z " fill-rule="evenodd" fill="rgb(0,0,0)" stroke-width="0.5" stroke="rgb(0,0,0)" />
	<path d="M34.4828,41.3793 37.931,41.3793 37.069,38.7931 35.3448,37.069 33.6207,38.7931 z " fill-rule="evenodd" fill="rgb(248,112,104)" stroke-width="0.5" stroke="rgb(248,112,104)" />
	<path d="M35.3448,37.069 37.069,38.7931 38.7931,37.069 37.069,35.3448 34.4828,34.4828 z " fill-rule="evenodd" fill="rgb(248,112,104)" stroke-width="0.5" stroke="rgb(248,112,104)" />
	<path d="M34.4828,34.4828 37.069,35.3448 38.7931,33.6207 37.931,31.0345 34.4828,31.0345 z " fill-rule="evenodd" fill="rgb(248,208,192)" stroke-width="0.5" stroke="rgb(248,208,192)" />
	<path d="M34.4828,31.0345 37.931,31.0345 37.931,27.5862 34.4828,27.5862 z " fill-rule="evenodd" fill="rgb(248,208,192)" stroke-width="0.5" stroke="rgb(248,208,192)" />
	<path d="M34.4828,27.5862 37.931,27.5862 37.931,24.1379 34.4828,24.1379 z " fill-rule="evenodd" fill="rgb(248,112,104)" stroke-width="0.5" stroke="rgb(248,112,104)" />
	<path d="M34.4828,24.1379 37.931,24.1379 37.931,20.6897 34.4828,20.6897 z " fill-rule="evenodd" fill="rgb(0,0,0)" stroke-width="0.5" stroke="rgb(0,0,0)" />
	<path d="M34.4828,20.6897 37.931,20.6897 37.931,17.2414 34.4828,17.2414 z " fill-rule="evenodd" fill="rgb(0,0,0)" stroke-width="0.5" stroke="rgb(0,0,0)" />
	<path d="M34.4828,17.2414 37.931,17.2414 37.931,13.7931 34.4828,13.7931 z " fill-rule="evenodd" fill="rgb(0,0,0)" stroke-width="0.5" stroke="rgb(0,0,0)" />
	<path d="M34.4828,13.7931 37.931,13.7931 37.931,10.3448 34.4828,10.3448 z " fill-rule="evenodd" fill="rgb(248,216,112)" stroke-width="0.5" stroke="rgb(248,216,112)" />
	<path d="M34.4828,10.3448 37.931,10.3448 37.931,6.89655 34.4828,6.89655 z " fill-rule="evenodd" fill="rgb(248,216,112)" stroke-width="0.5" stroke="rgb(248,216,112)" />
	<path d="M34.4828,6.89655 37.931,6.89655 37.931,3.44828 34.4828,3.44828 z " fill-rule="evenodd" fill="rgb(80,0,0)" stroke-width="0.5" stroke="rgb(80,0,0)" />
	<path d="M34.4828,3.44828 37.931,3.44828 37.931,0 36.2069,0 34.4828,0 z " fill-rule="evenodd" fill="rgb(164,207,212)" stroke-width="0.5" stroke="rgb(164,207,212)" />
	<path d="M37.931,100 39.6552,100 41.3793,100 41.3793,96.5517 37.931,96.5517 z " fill-rule="evenodd" fill="rgb(164,207,212)" stroke-width="0.5" stroke="rgb(164,207,212)" />
	<path d="M37.931,96.5517 41.3793,96.5517 41.3793,93.1034 37.931,93.1034 z " fill-rule="evenodd" fill="rgb(164,207,212)" stroke-width="0.5" stroke="rgb(164,207,212)" />
	<path d="M37.931,93.1034 41.3793,93.1034 40.5172,90.5172 37.931,89.6552 z " fill-rule="evenodd" fill="rgb(164,207,212)" stroke-width="0.5" stroke="rgb(164,207,212)" />
	<path d="M37.931,89.6552 40.5172,90.5172 42.2414,88.7931 41.3793,86.2069 37.931,86.2069 z " fill-rule="evenodd" fill="rgb(164,207,212)" stroke-width="0.5" stroke="rgb(164,207,212)" />
	<path d="M37.931,86.2069 41.3793,86.2069 41.3793,82.7586 38.7931,83.6207 z " fill-rule="evenodd" fill="rgb(32,48,136)" stroke-width="0.5" stroke="rgb(32,48,136)" />
	<path d="M37.069,81.8966 38.7931,83.6207 41.3793,82.7586 41.3793,79.3103 37.931,79.3103 z " fill-rule="evenodd" fill="rgb(32,48,136)" stroke-width="0.5" stroke="rgb(32,48,136)" />
	<path d="M37.931,79.3103 41.3793,79.3103 42.2414,76.7241 40.5172,75 38.7931,76.7241 z " fill-rule="evenodd" fill="rgb(32,48,136)" stroke-width="0.5" stroke="rgb(32,48,136)" />
	<path d="M37.069,75 38.7931,76.7241 40.5172,75 42.2414,73.2759 40.5172,71.5517 38.7931,73.2759 z " fill-rule="evenodd" fill="rgb(128,216,200)" stroke-width="0.5" stroke="rgb(128,216,200)" />
	<path d="M37.069,71.5517 38.7931,73.2759 40.5172,71.5517 41.3793,68.9655 37.931,68.9655 z " fill-rule="evenodd" fill="rgb(128,216,200)" stroke-width="0.5" stroke="rgb(128,216,200)" />
	<path d="M37.931,68.9655 41.3793,68.9655 41.3793,65.5172 38.7931,64.6552 37.069,66.3793 z " fill-rule="evenodd" fill="rgb(128,216,200)" stroke-width="0.5" stroke="rgb(128,216,200)" />
	<path d="M38.7931,64.6552 41.3793,65.5172 41.3793,62.069 37.931,62.069 z " fill-rule="evenodd" fill="rgb(80,0,0)" stroke-width="0.5" stroke="rgb(80,0,0)" />
	<path d="M37.931,62.069 41.3793,62.069 41.3793,58.6207 37.931,58.6207 z " fill-rule="evenodd" fill="rgb(176,40,96)" stroke-width="0.5" stroke="rgb(176,40,96)" />
	<path d="M37.931,58.6207 41.3793,58.6207 41.3793,55.1724 37.931,55.1724 z " fill-rule="evenodd" fill="rgb(32,48,136)" stroke-width="0.5" stroke="rgb(32,48,136)" />
	<path d="M37.931,55.1724 41.3793,55.1724 42.2414,52.5862 40.5172,50.8621 37.931,51.7241 z " fill-rule="evenodd" fill="rgb(136,88,24)" stroke-width="0.5" stroke="rgb(136,88,24)" />
	<path d="M37.931,51.7241 40.5172,50.8621 41.3793,48.2759 37.931,48.2759 z " fill-rule="evenodd" fill="rgb(248,112,104)" stroke-width="0.5" stroke="rgb(248,112,104)" />
	<path d="M37.931,48.2759 41.3793,48.2759 41.3793,44.8276 37.931,44.8276 z " fill-rule="evenodd" fill="rgb(0,0,0)" stroke-width="0.5" stroke="rgb(0,0,0)" />
	<path d="M37.931,44.8276 41.3793,44.8276 41.3793,41.3793 37.931,41.3793 z " fill-rule="evenodd" fill="rgb(0,0,0)" stroke-width="0.5" stroke="rgb(0,0,0)" />
	<path d="M37.931,41.3793 41.3793,41.3793 41.3793,37.931 38.7931,37.069 37.069,38.7931 z " fill-rule="evenodd" fill="rgb(248,112,104)" stroke-width="0.5" stroke="rgb(248,112,104)" />
	<path d="M38.7931,37.069 41.3793,37.931 41.3793,34.4828 38.7931,33.6207 37.069,35.3448 z " fill-rule="evenodd" fill="rgb(248,208,192)" stroke-width="0.5" stroke="rgb(248,208,192)" />
	<path d="M38.7931,33.6207 41.3793,34.4828 41.3793,31.0345 37.931,31.0345 z " fill-rule="evenodd" fill="rgb(0,0,0)" stroke-width="0.5" stroke="rgb(0,0,0)" />
	<path d="M37.931,31.0345 41.3793,31.0345 40.5172,28.4483 37.931,27.5862 z " fill-rule="evenodd" fill="rgb(0,0,0)" stroke-width="0.5" stroke="rgb(0,0,0)" />
	<path d="M37.931,27.5862 40.5172,28.4483 42.2414,26.7241 41.3793,24.1379 37.931,24.1379 z " fill-rule="evenodd" fill="rgb(248,248,248)" stroke-width="0.5" stroke="rgb(248,248,248)" />
	<path d="M37.931,24.1379 41.3793,24.1379 41.3793,20.6897 37.931,20.6897 z " fill-rule="evenodd" fill="rgb(0,0,0)" stroke-width="0.5" stroke="rgb(0,0,0)" />
	<path d="M37.931,20.6897 41.3793,20.6897 41.3793,17.2414 37.931,17.2414 z " fill-rule="evenodd" fill="rgb(0,0,0)" stroke-width="0.5" stroke="rgb(0,0,0)" />
	<path d="M37.931,17.2414 41.3793,17.2414 41.3793,13.7931 37.931,13.7931 z " fill-rule="evenodd" fill="rgb(0,0,0)" stroke-width="0.5" stroke="rgb(0,0,0)" />
	<path d="M37.931,13.7931 41.3793,13.7931 41.3793,10.3448 37.931,10.3448 z " fill-rule="evenodd" fill="rgb(248,248,248)" stroke-width="0.5" stroke="rgb(248,248,248)" />
	<path d="M37.931,10.3448 41.3793,10.3448 41.3793,6.89655 37.931,6.89655 z " fill-rule="evenodd" fill="rgb(248,64,112)" stroke-width="0.5" stroke="rgb(248,64,112)" />
	<path d="M37.931,6.89655 41.3793,6.89655 41.3793,3.44828 37.931,3.44828 z " fill-rule="evenodd" fill="rgb(80,0,0)" stroke-width="0.5" stroke="rgb(80,0,0)" />
	<path d="M37.931,3.44828 41.3793,3.44828 41.3793,0 39.6552,0 37.931,0 z " fill-rule="evenodd" fill="rgb(164,207,212)" stroke-width="0.5" stroke="rgb(164,207,212)" />
	<path d="M41.3793,100 43.1034,100 44.8276,100 44.8276,96.5517 41.3793,96.5517 z " fill-rule="evenodd" fill="rgb(164,207,212)" stroke-width="0.5" stroke="rgb(164,207,212)" />
	<path d="M41.3793,96.5517 44.8276,96.5517 43.9655,93.9655 41.3793,93.1034 z " fill-rule="evenodd" fill="rgb(164,207,212)" stroke-width="0.5" stroke="rgb(164,207,212)" />
	<path d="M41.3793,93.1034 43.9655,93.9655 45.6897,92.2414 44.8276,89.6552 42.2414,88.7931 40.5172,90.5172 z " fill-rule="evenodd" fill="rgb(164,207,212)" stroke-width="0.5" stroke="rgb(164,207,212)" />
	<path d="M42.2414,88.7931 44.8276,89.6552 45.6897,87.069 43.9655,85.3448 41.3793,86.2069 z " fill-rule="evenodd" fill="rgb(136,88,24)" stroke-width="0.5" stroke="rgb(136,88,24)" />
	<path d="M41.3793,86.2069 43.9655,85.3448 44.8276,82.7586 41.3793,82.7586 z " fill-rule="evenodd" fill="rgb(136,88,24)" stroke-width="0.5" stroke="rgb(136,88,24)" />
	<path d="M41.3793,82.7586 44.8276,82.7586 44.8276,79.3103 41.3793,79.3103 z " fill-rule="evenodd" fill="rgb(136,88,24)" stroke-width="0.5" stroke="rgb(136,88,24)" />
	<path d="M41.3793,79.3103 44.8276,79.3103 45.6897,76.7241 43.9655,75 42.2414,76.7241 z " fill-rule="evenodd" fill="rgb(136,88,24)" stroke-width="0.5" stroke="rgb(136,88,24)" />
	<path d="M40.5172,75 42.2414,76.7241 43.9655,75 45.6897,73.2759 43.9655,71.5517 42.2414,73.2759 z " fill-rule="evenodd" fill="rgb(32,48,136)" stroke-width="0.5" stroke="rgb(32,48,136)" />
	<path d="M40.5172,71.5517 42.2414,73.2759 43.9655,71.5517 44.8276,68.9655 41.3793,68.9655 z " fill-rule="evenodd" fill="rgb(128,216,200)" stroke-width="0.5" stroke="rgb(128,216,200)" />
	<path d="M41.3793,68.9655 44.8276,68.9655 45.6897,66.3793 43.9655,64.6552 41.3793,65.5172 z " fill-rule="evenodd" fill="rgb(128,216,200)" stroke-width="0.5" stroke="rgb(128,216,200)" />
	<path d="M41.3793,65.5172 43.9655,64.6552 44.8276,62.069 41.3793,62.069 z " fill-rule="evenodd" fill="rgb(80,0,0)" stroke-width="0.5" stroke="rgb(80,0,0)" />
	<path d="M41.3793,62.069 44.8276,62.069 44.8276,58.6207 41.3793,58.6207 z " fill-rule="evenodd" fill="rgb(64,128,152)" stroke-width="0.5" stroke="rgb(64,128,152)" />
	<path d="M41.3793,58.6207 44.8276,58.6207 45.6897,56.0345 43.9655,54.3103 41.3793,55.1724 z " fill-rule="evenodd" fill="rgb(248,248,248)" stroke-width="0.5" stroke="rgb(248,248,248)" />
	<path d="M41.3793,55.1724 43.9655,54.3103 45.6897,52.5862 43.9655,50.8621 42.2414,52.5862 z " fill-rule="evenodd" fill="rgb(136,88,24)" stroke-width="0.5" stroke="rgb(136,88,24)" />
	<path d="M40.5172,50.8621 42.2414,52.5862 43.9655,50.8621 44.8276,48.2759 41.3793,48.2759 z " fill-rule="evenodd" fill="rgb(136,88,24)" stroke-width="0.5" stroke="rgb(136,88,24)" />
	<path d="M41.3793,48.2759 44.8276,48.2759 44.8276,44.8276 41.3793,44.8276 z " fill-rule="evenodd" fill="rgb(0,0,0)" stroke-width="0.5" stroke="rgb(0,0,0)" />
	<path d="M41.3793,44.8276 44.8276,44.8276 44.8276,41.3793 41.3793,41.3793 z " fill-rule="evenodd" fill="rgb(0,0,0)" stroke-width="0.5" stroke="rgb(0,0,0)" />
	<path d="M41.3793,41.3793 44.8276,41.3793 44.8276,37.931 41.3793,37.931 z " fill-rule="evenodd" fill="rgb(248,112,104)" stroke-width="0.5" stroke="rgb(248,112,104)" />
	<path d="M41.3793,37.931 44.8276,37.931 45.6897,35.3448 43.9655,33.6207 41.3793,34.4828 z " fill-rule="evenodd" fill="rgb(248,208,192)" stroke-width="0.5" stroke="rgb(248,208,192)" />
	<path d="M41.3793,34.4828 43.9655,33.6207 44.8276,31.0345 41.3793,31.0345 z " fill-rule="evenodd" fill="rgb(248,248,248)" stroke-width="0.5" stroke="rgb(248,248,248)" />
	<path d="M41.3793,31.0345 44.8276,31.0345 44.8276,27.5862 42.2414,26.7241 40.5172,28.4483 z " fill-rule="evenodd" fill="rgb(248,248,248)" stroke-width="0.5" stroke="rgb(248,248,248)" />
	<path d="M42.2414,26.7241 44.8276,27.5862 43.9655,25 41.3793,24.1379 z " fill-rule="evenodd" fill="rgb(248,248,248)" stroke-width="0.5" stroke="rgb(248,248,248)" />
	<path d="M41.3793,24.1379 43.9655,25 45.6897,23.2759 44.8276,20.6897 41.3793,20.6897 z " fill-rule="evenodd" fill="rgb(0,0,0)" stroke-width="0.5" stroke="rgb(0,0,0)" />
	<path d="M41.3793,20.6897 44.8276,20.6897 44.8276,17.2414 41.3793,17.2414 z " fill-rule="evenodd" fill="rgb(0,0,0)" stroke-width="0.5" stroke="rgb(0,0,0)" />
	<path d="M41.3793,17.2414 44.8276,17.2414 44.8276,13.7931 41.3793,13.7931 z " fill-rule="evenodd" fill="rgb(0,0,0)" stroke-width="0.5" stroke="rgb(0,0,0)" />
	<path d="M41.3793,13.7931 44.8276,13.7931 44.8276,10.3448 41.3793,10.3448 z " fill-rule="evenodd" fill="rgb(176,40,96)" stroke-width="0.5" stroke="rgb(176,40,96)" />
	<path d="M41.3793,10.3448 44.8276,10.3448 43.9655,7.75862 41.3793,6.89655 z " fill-rule="evenodd" fill="rgb(248,64,112)" stroke-width="0.5" stroke="rgb(248,64,112)" />
	<path d="M41.3793,6.89655 43.9655,7.75862 45.6897,6.03448 43.9655,4.31035 41.3793,3.44828 z " fill-rule="evenodd" fill="rgb(80,0,0)" stroke-width="0.5" stroke="rgb(80,0,0)" />
	<path d="M41.3793,3.44828 43.9655,4.31035 45.6897,2.58621 44.8276,0 43.1034,0 41.3793,0 z " fill-rule="evenodd" fill="rgb(164,207,212)" stroke-width="0.5" stroke="rgb(164,207,212)" />
	<path d="M44.8276,100 46.5517,100 48.2759,100 48.2759,96.5517 44.8276,96.5517 z " fill-rule="evenodd" fill="rgb(164,207,212)" stroke-width="0.5" stroke="rgb(164,207,212)" />
	<path d="M44.8276,96.5517 48.2759,96.5517 48.2759,93.1034 45.6897,92.2414 43.9655,93.9655 z " fill-rule="evenodd" fill="rgb(164,207,212)" stroke-width="0.5" stroke="rgb(164,207,212)" />
	<path d="M45.6897,92.2414 48.2759,93.1034 48.2759,89.6552 44.8276,89.6552 z " fill-rule="evenodd" fill="rgb(0,0,0)" stroke-width="0.5" stroke="rgb(0,0,0)" />
	<path d="M44.8276,89.6552 48.2759,89.6552 49.1379,87.069 47.4138,85.3448 45.6897,87.069 z " fill-rule="evenodd" fill="rgb(0,0,0)" stroke-width="0.5" stroke="rgb(0,0,0)" />
	<path d="M43.9655,85.3448 45.6897,87.069 47.4138,85.3448 49.1379,83.6207 47.4138,81.8966 44.8276,82.7586 z " fill-rule="evenodd" fill="rgb(136,88,24)" stroke-width="0.5" stroke="rgb(136,88,24)" />
	<path d="M44.8276,82.7586 47.4138,81.8966 48.2759,79.3103 44.8276,79.3103 z " fill-rule="evenodd" fill="rgb(136,88,24)" stroke-width="0.5" stroke="rgb(136,88,24)" />
	<path d="M44.8276,79.3103 48.2759,79.3103 47.4138,76.7241 45.6897,76.7241 z " fill-rule="evenodd" fill="rgb(136,88,24)" stroke-width="0.5" stroke="rgb(136,88,24)" />
	<path d="M43.9655,75 45.6897,76.7241 47.4138,76.7241 49.1379,75 49.1379,73.2759 47.4138,71.5517 45.6897,73.2759 z " fill-rule="evenodd" fill="rgb(136,88,24)" stroke-width="0.5" stroke="rgb(136,88,24)" />
	<path d="M43.9655,71.5517 45.6897,73.2759 47.4138,71.5517 49.1379,69.8276 47.4138,68.1034 44.8276,68.9655 z " fill-rule="evenodd" fill="rgb(32,48,136)" stroke-width="0.5" stroke="rgb(32,48,136)" />
	<path d="M44.8276,68.9655 47.4138,68.1034 48.2759,65.5172 45.6897,66.3793 z " fill-rule="evenodd" fill="rgb(248,248,248)" stroke-width="0.5" stroke="rgb(248,248,248)" />
	<path d="M43.9655,64.6552 45.6897,66.3793 48.2759,65.5172 47.4138,62.931 44.8276,62.069 z " fill-rule="evenodd" fill="rgb(128,216,200)" stroke-width="0.5" stroke="rgb(128,216,200)" />
	<path d="M44.8276,62.069 47.4138,62.931 49.1379,61.2069 48.2759,58.6207 44.8276,58.6207 z " fill-rule="evenodd" fill="rgb(136,88,24)" stroke-width="0.5" stroke="rgb(136,88,24)" />
	<path d="M44.8276,58.6207 48.2759,58.6207 47.4138,56.0345 45.6897,56.0345 z " fill-rule="evenodd" fill="rgb(136,88,24)" stroke-width="0.5" stroke="rgb(136,88,24)" />
	<path d="M43.9655,54.3103 45.6897,56.0345 47.4138,56.0345 49.1379,54.3103 47.4138,52.5862 45.6897,52.5862 z " fill-rule="evenodd" fill="rgb(248,248,248)" stroke-width="0.5" stroke="rgb(248,248,248)" />
	<path d="M43.9655,50.8621 45.6897,52.5862 47.4138,52.5862 49.1379,50.8621 48.2759,48.2759 44.8276,48.2759 z " fill-rule="evenodd" fill="rgb(136,88,24)" stroke-width="0.5" stroke="rgb(136,88,24)" />
	<path d="M44.8276,48.2759 48.2759,48.2759 48.2759,44.8276 44.8276,44.8276 z " fill-rule="evenodd" fill="rgb(0,0,0)" stroke-width="0.5" stroke="rgb(0,0,0)" />
	<path d="M44.8276,44.8276 48.2759,44.8276 48.2759,41.3793 44.8276,41.3793 z " fill-rule="evenodd" fill="rgb(0,0,0)" stroke-width="0.5" stroke="rgb(0,0,0)" />
	<path d="M44.8276,41.3793 48.2759,41.3793 48.2759,37.931 44.8276,37.931 z " fill-rule="evenodd" fill="rgb(248,112,104)" stroke-width="0.5" stroke="rgb(248,112,104)" />
	<path d="M44.8276,37.931 48.2759,37.931 48.2759,34.4828 45.6897,35.3448 z " fill-rule="evenodd" fill="rgb(248,208,192)" stroke-width="0.5" stroke="rgb(248,208,192)" />
	<path d="M43.9655,33.6207 45.6897,35.3448 48.2759,34.4828 48.2759,31.0345 44.8276,31.0345 z " fill-rule="evenodd" fill="rgb(248,208,192)" stroke-width="0.5" stroke="rgb(248,208,192)" />
	<path d="M44.8276,31.0345 48.2759,31.0345 48.2759,27.5862 44.8276,27.5862 z " fill-rule="evenodd" fill="rgb(164,207,212)" stroke-width="0.5" stroke="rgb(164,207,212)" />
	<path d="M44.8276,27.5862 48.2759,27.5862 48.2759,24.1379 45.6897,23.2759 43.9655,25 z " fill-rule="evenodd" fill="rgb(0,0,0)" stroke-width="0.5" stroke="rgb(0,0,0)" />
	<path d="M45.6897,23.2759 48.2759,24.1379 48.2759,20.6897 44.8276,20.6897 z " fill-rule="evenodd" fill="rgb(0,0,0)" stroke-width="0.5" stroke="rgb(0,0,0)" />
	<path d="M44.8276,20.6897 48.2759,20.6897 48.2759,17.2414 44.8276,17.2414 z " fill-rule="evenodd" fill="rgb(0,0,0)" stroke-width="0.5" stroke="rgb(0,0,0)" />
	<path d="M44.8276,17.2414 48.2759,17.2414 48.2759,13.7931 44.8276,13.7931 z " fill-rule="evenodd" fill="rgb(0,0,0)" stroke-width="0.5" stroke="rgb(0,0,0)" />
	<path d="M44.8276,13.7931 48.2759,13.7931 48.2759,10.3448 44.8276,10.3448 z " fill-rule="evenodd" fill="rgb(80,0,0)" stroke-width="0.5" stroke="rgb(80,0,0)" />
	<path d="M44.8276,10.3448 48.2759,10.3448 47.4138,7.75862 45.6897,6.03448 43.9655,7.75862 z " fill-rule="evenodd" fill="rgb(80,0,0)" stroke-width="0.5" stroke="rgb(80,0,0)" />
	<path d="M45.6897,6.03448 47.4138,7.75862 49.1379,6.03448 48.2759,3.44828 45.6897,2.58621 43.9655,4.31035 z " fill-rule="evenodd" fill="rgb(164,207,212)" stroke-width="0.5" stroke="rgb(164,207,212)" />
	<path d="M45.6897,2.58621 48.2759,3.44828 48.2759,0 46.5517,0 44.8276,0 z " fill-rule="evenodd" fill="rgb(164,207,212)" stroke-width="0.5" stroke="rgb(164,207,212)" />
	<path d="M48.2759,100 50,100 51.7241,100 51.7241,96.5517 48.2759,96.5517 z " fill-rule="evenodd" fill="rgb(164,207,212)" stroke-width="0.5" stroke="rgb(164,207,212)" />
	<path d="M48.2759,96.5517 51.7241,96.5517 52.5862,93.9655 50.8621,92.2414 48.2759,93.1034 z " fill-rule="evenodd" fill="rgb(164,207,212)" stroke-width="0.5" stroke="rgb(164,207,212)" />
	<path d="M48.2759,93.1034 50.8621,92.2414 52.5862,90.5172 50.8621,88.7931 48.2759,89.6552 z " fill-rule="evenodd" fill="rgb(0,0,0)" stroke-width="0.5" stroke="rgb(0,0,0)" />
	<path d="M48.2759,89.6552 50.8621,88.7931 51.7241,86.2069 49.1379,87.069 z " fill-rule="evenodd" fill="rgb(0,0,0)" stroke-width="0.5" stroke="rgb(0,0,0)" />
	<path d="M47.4138,85.3448 49.1379,87.069 51.7241,86.2069 52.5862,83.6207 50.8621,81.8966 49.1379,83.6207 z " fill-rule="evenodd" fill="rgb(0,0,0)" stroke-width="0.5" stroke="rgb(0,0,0)" />
	<path d="M47.4138,81.8966 49.1379,83.6207 50.8621,81.8966 51.7241,79.3103 48.2759,79.3103 z " fill-rule="evenodd" fill="rgb(136,88,24)" stroke-width="0.5" stroke="rgb(136,88,24)" />
	<path d="M48.2759,79.3103 51.7241,79.3103 52.5862,76.7241 50.8621,75 49.1379,75 47.4138,76.7241 z " fill-rule="evenodd" fill="rgb(136,88,24)" stroke-width="0.5" stroke="rgb(136,88,24)" />
	<path d="M49.1379,75 50.8621,75 50.8621,73.2759 49.1379,73.2759 z " fill-rule="evenodd" fill="rgb(248,216,112)" stroke-width="0.5" stroke="rgb(248,216,112)" />
	<path d="M47.4138,71.5517 49.1379,73.2759 50.8621,73.2759 52.5862,71.5517 51.7241,68.9655 49.1379,69.8276 z " fill-rule="evenodd" fill="rgb(136,88,24)" stroke-width="0.5" stroke="rgb(136,88,24)" />
	<path d="M47.4138,68.1034 49.1379,69.8276 51.7241,68.9655 51.7241,65.5172 48.2759,65.5172 z " fill-rule="evenodd" fill="rgb(32,48,136)" stroke-width="0.5" stroke="rgb(32,48,136)" />
	<path d="M48.2759,65.5172 51.7241,65.5172 51.7241,62.069 49.1379,61.2069 47.4138,62.931 z " fill-rule="evenodd" fill="rgb(136,88,24)" stroke-width="0.5" stroke="rgb(136,88,24)" />
	<path d="M49.1379,61.2069 51.7241,62.069 51.7241,58.6207 48.2759,58.6207 z " fill-rule="evenodd" fill="rgb(248,248,248)" stroke-width="0.5" stroke="rgb(248,248,248)" />
	<path d="M48.2759,58.6207 51.7241,58.6207 52.5862,56.0345 50.8621,54.3103 49.1379,54.3103 47.4138,56.0345 z " fill-rule="evenodd" fill="rgb(248,248,248)" stroke-width="0.5" stroke="rgb(248,248,248)" />
	<path d="M49.1379,54.3103 50.8621,54.3103 52.5862,52.5862 50.8621,50.8621 49.1379,50.8621 47.4138,52.5862 z " fill-rule="evenodd" fill="rgb(136,88,24)" stroke-width="0.5" stroke="rgb(136,88,24)" />
	<path d="M49.1379,50.8621 50.8621,50.8621 51.7241,48.2759 48.2759,48.2759 z " fill-rule="evenodd" fill="rgb(136,88,24)" stroke-width="0.5" stroke="rgb(136,88,24)" />
	<path d="M48.2759,48.2759 51.7241,48.2759 52.5862,45.6897 50.8621,43.9655 48.2759,44.8276 z " fill-rule="evenodd" fill="rgb(0,0,0)" stroke-width="0.5" stroke="rgb(0,0,0)" />
	<path d="M48.2759,44.8276 50.8621,43.9655 51.7241,41.3793 48.2759,41.3793 z " fill-rule="evenodd" fill="rgb(0,0,0)" stroke-width="0.5" stroke="rgb(0,0,0)" />
	<path d="M48.2759,41.3793 51.7241,41.3793 51.7241,37.931 48.2759,37.931 z " fill-rule="evenodd" fill="rgb(136,88,24)" stroke-width="0.5" stroke="rgb(136,88,24)" />
	<path d="M48.2759,37.931 51.7241,37.931 51.7241,34.4828 48.2759,34.4828 z " fill-rule="evenodd" fill="rgb(136,88,24)" stroke-width="0.5" stroke="rgb(136,88,24)" />
	<path d="M48.2759,34.4828 51.7241,34.4828 50.8621,31.8966 48.2759,31.0345 z " fill-rule="evenodd" fill="rgb(136,88,24)" stroke-width="0.5" stroke="rgb(136,88,24)" />
	<path d="M48.2759,31.0345 50.8621,31.8966 52.5862,30.1724 52.5862,28.4483 50.8621,26.7241 48.2759,27.5862 z " fill-rule="evenodd" fill="rgb(164,207,212)" stroke-width="0.5" stroke="rgb(164,207,212)" />
	<path d="M48.2759,27.5862 50.8621,26.7241 52.5862,25 50.8621,23.2759 48.2759,24.1379 z " fill-rule="evenodd" fill="rgb(0,0,0)" stroke-width="0.5" stroke="rgb(0,0,0)" />
	<path d="M48.2759,24.1379 50.8621,23.2759 51.7241,20.6897 48.2759,20.6897 z " fill-rule="evenodd" fill="rgb(0,0,0)" stroke-width="0.5" stroke="rgb(0,0,0)" />
	<path d="M48.2759,20.6897 51.7241,20.6897 50.8621,18.1034 48.2759,17.2414 z " fill-rule="evenodd" fill="rgb(0,0,0)" stroke-width="0.5" stroke="rgb(0,0,0)" />
	<path d="M48.2759,17.2414 50.8621,18.1034 52.5862,16.3793 50.8621,14.6552 48.2759,13.7931 z " fill-rule="evenodd" fill="rgb(0,0,0)" stroke-width="0.5" stroke="rgb(0,0,0)" />
	<path d="M48.2759,13.7931 50.8621,14.6552 52.5862,12.931 51.7241,10.3448 48.2759,10.3448 z " fill-rule="evenodd" fill="rgb(164,207,212)" stroke-width="0.5" stroke="rgb(164,207,212)" />
	<path d="M48.2759,10.3448 51.7241,10.3448 51.7241,6.89655 49.1379,6.03448 47.4138,7.75862 z " fill-rule="evenodd" fill="rgb(164,207,212)" stroke-width="0.5" stroke="rgb(164,207,212)" />
	<path d="M49.1379,6.03448 51.7241,6.89655 51.7241,3.44828 48.2759,3.44828 z " fill-rule="evenodd" fill="rgb(164,207,212)" stroke-width="0.5" stroke="rgb(164,207,212)" />
	<path d="M48.2759,3.44828 51.7241,3.44828 51.7241,0 50,0 48.2759,0 z " fill-rule="evenodd" fill="rgb(164,207,212)" stroke-width="0.5" stroke="rgb(164,207,212)" />
	<path d="M51.7241,100 53.4483,100 55.1724,100 55.1724,96.5517 51.7241,96.5517 z " fill-rule="evenodd" fill="rgb(164,207,212)" stroke-width="0.5" stroke="rgb(164,207,212)" />
	<path d="M51.7241,96.5517 55.1724,96.5517 55.1724,93.1034 52.5862,93.9655 z " fill-rule="evenodd" fill="rgb(164,207,212)" stroke-width="0.5" stroke="rgb(164,207,212)" />
	<path d="M50.8621,92.2414 52.5862,93.9655 55.1724,93.1034 56.0345,90.5172 54.3103,88.7931 52.5862,90.5172 z " fill-rule="evenodd" fill="rgb(164,207,212)" stroke-width="0.5" stroke="rgb(164,207,212)" />
	<path d="M50.8621,88.7931 52.5862,90.5172 54.3103,88.7931 55.1724,86.2069 51.7241,86.2069 z " fill-rule="evenodd" fill="rgb(0,0,0)" stroke-width="0.5" stroke="rgb(0,0,0)" />
	<path d="M51.7241,86.2069 55.1724,86.2069 56.0345,83.6207 54.3103,81.8966 52.5862,83.6207 z " fill-rule="evenodd" fill="rgb(0,0,0)" stroke-width="0.5" stroke="rgb(0,0,0)" />
	<path d="M50.8621,81.8966 52.5862,83.6207 54.3103,81.8966 55.1724,79.3103 51.7241,79.3103 z " fill-rule="evenodd" fill="rgb(0,0,0)" stroke-width="0.5" stroke="rgb(0,0,0)" />
	<path d="M51.7241,79.3103 55.1724,79.3103 56.0345,76.7241 54.3103,75 52.5862,76.7241 z " fill-rule="evenodd" fill="rgb(0,0,0)" stroke-width="0.5" stroke="rgb(0,0,0)" />
	<path d="M50.8621,75 52.5862,76.7241 54.3103,75 55.1724,72.4138 52.5862,71.5517 50.8621,73.2759 z " fill-rule="evenodd" fill="rgb(136,88,24)" stroke-width="0.5" stroke="rgb(136,88,24)" />
	<path d="M52.5862,71.5517 55.1724,72.4138 54.3103,69.8276 51.7241,68.9655 z " fill-rule="evenodd" fill="rgb(136,88,24)" stroke-width="0.5" stroke="rgb(136,88,24)" />
	<path d="M51.7241,68.9655 54.3103,69.8276 56.0345,68.1034 56.0345,66.3793 54.3103,64.6552 51.7241,65.5172 z " fill-rule="evenodd" fill="rgb(164,207,212)" stroke-width="0.5" stroke="rgb(164,207,212)" />
	<path d="M51.7241,65.5172 54.3103,64.6552 56.0345,62.931 54.3103,61.2069 51.7241,62.069 z " fill-rule="evenodd" fill="rgb(136,88,24)" stroke-width="0.5" stroke="rgb(136,88,24)" />
	<path d="M51.7241,62.069 54.3103,61.2069 55.1724,58.6207 51.7241,58.6207 z " fill-rule="evenodd" fill="rgb(248,248,248)" stroke-width="0.5" stroke="rgb(248,248,248)" />
	<path d="M51.7241,58.6207 55.1724,58.6207 55.1724,55.1724 52.5862,56.0345 z " fill-rule="evenodd" fill="rgb(248,248,248)" stroke-width="0.5" stroke="rgb(248,248,248)" />
	<path d="M50.8621,54.3103 52.5862,56.0345 55.1724,55.1724 54.3103,52.5862 52.5862,52.5862 z " fill-rule="evenodd" fill="rgb(248,248,248)" stroke-width="0.5" stroke="rgb(248,248,248)" />
	<path d="M50.8621,50.8621 52.5862,52.5862 54.3103,52.5862 56.0345,50.8621 54.3103,49.1379 51.7241,48.2759 z " fill-rule="evenodd" fill="rgb(136,88,24)" stroke-width="0.5" stroke="rgb(136,88,24)" />
	<path d="M51.7241,48.2759 54.3103,49.1379 56.0345,47.4138 56.0345,45.6897 54.3103,43.9655 52.5862,45.6897 z " fill-rule="evenodd" fill="rgb(164,207,212)" stroke-width="0.5" stroke="rgb(164,207,212)" />
	<path d="M50.8621,43.9655 52.5862,45.6897 54.3103,43.9655 54.3103,42.2414 51.7241,41.3793 z " fill-rule="evenodd" fill="rgb(0,0,0)" stroke-width="0.5" stroke="rgb(0,0,0)" />
	<path d="M51.7241,41.3793 54.3103,42.2414 56.0345,40.5172 55.1724,37.931 51.7241,37.931 z " fill-rule="evenodd" fill="rgb(164,207,212)" stroke-width="0.5" stroke="rgb(164,207,212)" />
	<path d="M51.7241,37.931 55.1724,37.931 55.1724,34.4828 51.7241,34.4828 z " fill-rule="evenodd" fill="rgb(164,207,212)" stroke-width="0.5" stroke="rgb(164,207,212)" />
	<path d="M51.7241,34.4828 55.1724,34.4828 55.1724,31.0345 52.5862,30.1724 50.8621,31.8966 z " fill-rule="evenodd" fill="rgb(164,207,212)" stroke-width="0.5" stroke="rgb(164,207,212)" />
	<path d="M52.5862,30.1724 55.1724,31.0345 55.1724,27.5862 52.5862,28.4483 z " fill-rule="evenodd" fill="rgb(164,207,212)" stroke-width="0.5" stroke="rgb(164,207,212)" />
	<path d="M50.8621,26.7241 52.5862,28.4483 55.1724,27.5862 56.0345,25 54.3103,23.2759 52.5862,25 z " fill-rule="evenodd" fill="rgb(164,207,212)" stroke-width="0.5" stroke="rgb(164,207,212)" />
	<path d="M50.8621,23.2759 52.5862,25 54.3103,23.2759 55.1724,20.6897 51.7241,20.6897 z " fill-rule="evenodd" fill="rgb(0,0,0)" stroke-width="0.5" stroke="rgb(0,0,0)" />
	<path d="M51.7241,20.6897 55.1724,20.6897 54.3103,18.1034 52.5862,16.3793 50.8621,18.1034 z " fill-rule="evenodd" fill="rgb(0,0,0)" stroke-width="0.5" stroke="rgb(0,0,0)" />
	<path d="M52.5862,16.3793 54.3103,18.1034 56.0345,16.3793 55.1724,13.7931 52.5862,12.931 50.8621,14.6552 z " fill-rule="evenodd" fill="rgb(164,207,212)" stroke-width="0.5" stroke="rgb(164,207,212)" />
	<path d="M52.5862,12.931 55.1724,13.7931 55.1724,10.3448 51.7241,10.3448 z " fill-rule="evenodd" fill="rgb(164,207,212)" stroke-width="0.5" stroke="rgb(164,207,212)" />
	<path d="M51.7241,10.3448 55.1724,10.3448 55.1724,6.89655 51.7241,6.89655 z " fill-rule="evenodd" fill="rgb(164,207,212)" stroke-width="0.5" stroke="rgb(164,207,212)" />
	<path d="M51.7241,6.89655 55.1724,6.89655 55.1724,3.44828 51.7241,3.44828 z " fill-rule="evenodd" fill="rgb(164,207,212)" stroke-width="0.5" stroke="rgb(164,207,212)" />
	<path d="M51.7241,3.44828 55.1724,3.44828 55.1724,0 53.4483,0 51.7241,0 z " fill-rule="evenodd" fill="rgb(164,207,212)" stroke-width="0.5" stroke="rgb(164,207,212)" />
	<path d="M55.1724,100 56.8965,100 58.6207,100 58.6207,96.5517 55.1724,96.5517 z " fill-rule="evenodd" fill="rgb(164,207,212)" stroke-width="0.5" stroke="rgb(164,207,212)" />
	<path d="M55.1724,96.5517 58.6207,96.5517 58.6207,93.1034 55.1724,93.1034 z " fill-rule="evenodd" fill="rgb(164,207,212)" stroke-width="0.5" stroke="rgb(164,207,212)" />
	<path d="M55.1724,93.1034 58.6207,93.1034 58.6207,89.6552 56.0345,90.5172 z " fill-rule="evenodd" fill="rgb(164,207,212)" stroke-width="0.5" stroke="rgb(164,207,212)" />
	<path d="M54.3103,88.7931 56.0345,90.5172 58.6207,89.6552 58.6207,86.2069 55.1724,86.2069 z " fill-rule="evenodd" fill="rgb(164,207,212)" stroke-width="0.5" stroke="rgb(164,207,212)" />
	<path d="M55.1724,86.2069 58.6207,86.2069 59.4828,83.6207 57.7586,81.8966 56.0345,83.6207 z " fill-rule="evenodd" fill="rgb(164,207,212)" stroke-width="0.5" stroke="rgb(164,207,212)" />
	<path d="M54.3103,81.8966 56.0345,83.6207 57.7586,81.8966 58.6207,79.3103 55.1724,79.3103 z " fill-rule="evenodd" fill="rgb(0,0,0)" stroke-width="0.5" stroke="rgb(0,0,0)" />
	<path d="M55.1724,79.3103 58.6207,79.3103 58.6207,75.8621 56.0345,76.7241 z " fill-rule="evenodd" fill="rgb(0,0,0)" stroke-width="0.5" stroke="rgb(0,0,0)" />
	<path d="M54.3103,75 56.0345,76.7241 58.6207,75.8621 57.7586,73.2759 55.1724,72.4138 z " fill-rule="evenodd" fill="rgb(0,0,0)" stroke-width="0.5" stroke="rgb(0,0,0)" />
	<path d="M55.1724,72.4138 57.7586,73.2759 59.4828,71.5517 58.6207,68.9655 56.0345,68.1034 54.3103,69.8276 z " fill-rule="evenodd" fill="rgb(164,207,212)" stroke-width="0.5" stroke="rgb(164,207,212)" />
	<path d="M56.0345,68.1034 58.6207,68.9655 58.6207,65.5172 56.0345,66.3793 z " fill-rule="evenodd" fill="rgb(164,207,212)" stroke-width="0.5" stroke="rgb(164,207,212)" />
	<path d="M54.3103,64.6552 56.0345,66.3793 58.6207,65.5172 59.4828,62.931 57.7586,61.2069 56.0345,62.931 z " fill-rule="evenodd" fill="rgb(164,207,212)" stroke-width="0.5" stroke="rgb(164,207,212)" />
	<path d="M54.3103,61.2069 56.0345,62.931 57.7586,61.2069 58.6207,58.6207 55.1724,58.6207 z " fill-rule="evenodd" fill="rgb(136,88,24)" stroke-width="0.5" stroke="rgb(136,88,24)" />
	<path d="M55.1724,58.6207 58.6207,58.6207 58.6207,55.1724 55.1724,55.1724 z " fill-rule="evenodd" fill="rgb(136,88,24)" stroke-width="0.5" stroke="rgb(136,88,24)" />
	<path d="M55.1724,55.1724 58.6207,55.1724 57.7586,52.5862 56.0345,50.8621 54.3103,52.5862 z " fill-rule="evenodd" fill="rgb(136,88,24)" stroke-width="0.5" stroke="rgb(136,88,24)" />
	<path d="M56.0345,50.8621 57.7586,52.5862 59.4828,50.8621 58.6207,48.2759 56.0345,47.4138 54.3103,49.1379 z " fill-rule="evenodd" fill="rgb(164,207,212)" stroke-width="0.5" stroke="rgb(164,207,212)" />
	<path d="M56.0345,47.4138 58.6207,48.2759 58.6207,44.8276 56.0345,45.6897 z " fill-rule="evenodd" fill="rgb(164,207,212)" stroke-width="0.5" stroke="rgb(164,207,212)" />
	<path d="M54.3103,43.9655 56.0345,45.6897 58.6207,44.8276 58.6207,41.3793 56.0345,40.5172 54.3103,42.2414 z " fill-rule="evenodd" fill="rgb(164,207,212)" stroke-width="0.5" stroke="rgb(164,207,212)" />
	<path d="M56.0345,40.5172 58.6207,41.3793 58.6207,37.931 55.1724,37.931 z " fill-rule="evenodd" fill="rgb(164,207,212)" stroke-width="0.5" stroke="rgb(164,207,212)" />
	<path d="M55.1724,37.931 58.6207,37.931 58.6207,34.4828 55.1724,34.4828 z " fill-rule="evenodd" fill="rgb(164,207,212)" stroke-width="0.5" stroke="rgb(164,207,212)" />
	<path d="M55.1724,34.4828 58.6207,34.4828 58.6207,31.0345 55.1724,31.0345 z " fill-rule="evenodd" fill="rgb(164,207,212)" stroke-width="0.5" stroke="rgb(164,207,212)" />
	<path d="M55.1724,31.0345 58.6207,31.0345 58.6207,27.5862 55.1724,27.5862 z " fill-rule="evenodd" fill="rgb(164,207,212)" stroke-width="0.5" stroke="rgb(164,207,212)" />
	<path d="M55.1724,27.5862 58.6207,27.5862 58.6207,24.1379 56.0345,25 z " fill-rule="evenodd" fill="rgb(164,207,212)" stroke-width="0.5" stroke="rgb(164,207,212)" />
	<path d="M54.3103,23.2759 56.0345,25 58.6207,24.1379 58.6207,20.6897 55.1724,20.6897 z " fill-rule="evenodd" fill="rgb(164,207,212)" stroke-width="0.5" stroke="rgb(164,207,212)" />
	<path d="M55.1724,20.6897 58.6207,20.6897 58.6207,17.2414 56.0345,16.3793 54.3103,18.1034 z " fill-rule="evenodd" fill="rgb(164,207,212)" stroke-width="0.5" stroke="rgb(164,207,212)" />
	<path d="M56.0345,16.3793 58.6207,17.2414 58.6207,13.7931 55.1724,13.7931 z " fill-rule="evenodd" fill="rgb(164,207,212)" stroke-width="0.5" stroke="rgb(164,207,212)" />
	<path d="M55.1724,13.7931 58.6207,13.7931 58.6207,10.3448 55.1724,10.3448 z " fill-rule="evenodd" fill="rgb(164,207,212)" stroke-width="0.5" stroke="rgb(164,207,212)" />
	<path d="M55.1724,10.3448 58.6207,10.3448 58.6207,6.89655 55.1724,6.89655 z " fill-rule="evenodd" fill="rgb(164,207,212)" stroke-width="0.5" stroke="rgb(164,207,212)" />
	<path d="M55.1724,6.89655 58.6207,6.89655 58.6207,3.44828 55.1724,3.44828 z " fill-rule="evenodd" fill="rgb(164,207,212)" stroke-width="0.5" stroke="rgb(164,207,212)" />
	<path d="M55.1724,3.44828 58.6207,3.44828 58.6207,0 56.8965,0 55.1724,0 z " fill-rule="evenodd" fill="rgb(164,207,212)" stroke-width="0.5" stroke="rgb(164,207,212)" />
	<path d="M58.6207,100 60.3448,100 62.069,100 62.069,98.2759 62.069,96.5517 58.6207,96.5517 z " fill-rule="evenodd" fill="rgb(164,207,212)" stroke-width="0.5" stroke="rgb(164,207,212)" />
	<path d="M58.6207,96.5517 62.069,96.5517 62.069,94.8276 62.069,93.1034 58.6207,93.1034 z " fill-rule="evenodd" fill="rgb(164,207,212)" stroke-width="0.5" stroke="rgb(164,207,212)" />
	<path d="M58.6207,93.1034 62.069,93.1034 62.069,91.3793 62.069,89.6552 58.6207,89.6552 z " fill-rule="evenodd" fill="rgb(164,207,212)" stroke-width="0.5" stroke="rgb(164,207,212)" />
	<path d="M58.6207,89.6552 62.069,89.6552 62.069,87.931 62.069,86.2069 58.6207,86.2069 z " fill-rule="evenodd" fill="rgb(164,207,212)" stroke-width="0.5" stroke="rgb(164,207,212)" />
	<path d="M58.6207,86.2069 62.069,86.2069 62.069,84.4828 62.069,82.7586 59.4828,83.6207 z " fill-rule="evenodd" fill="rgb(164,207,212)" stroke-width="0.5" stroke="rgb(164,207,212)" />
	<path d="M57.7586,81.8966 59.4828,83.6207 62.069,82.7586 62.069,81.0345 62.069,79.3103 58.6207,79.3103 z " fill-rule="evenodd" fill="rgb(164,207,212)" stroke-width="0.5" stroke="rgb(164,207,212)" />
	<path d="M58.6207,79.3103 62.069,79.3103 62.069,77.5862 62.069,75.8621 58.6207,75.8621 z " fill-rule="evenodd" fill="rgb(164,207,212)" stroke-width="0.5" stroke="rgb(164,207,212)" />
	<path d="M58.6207,75.8621 62.069,75.8621 62.069,74.1379 62.069,72.4138 59.4828,71.5517 57.7586,73.2759 z " fill-rule="evenodd" fill="rgb(164,207,212)" stroke-width="0.5" stroke="rgb(164,207,212)" />
	<path d="M59.4828,71.5517 62.069,72.4138 62.069,70.6897 62.069,68.9655 58.6207,68.9655 z " fill-rule="evenodd" fill="rgb(164,207,212)" stroke-width="0.5" stroke="rgb(164,207,212)" />
	<path d="M58.6207,68.9655 62.069,68.9655 62.069,67.2414 62.069,65.5172 58.6207,65.5172 z " fill-rule="evenodd" fill="rgb(164,207,212)" stroke-width="0.5" stroke="rgb(164,207,212)" />
	<path d="M58.6207,65.5172 62.069,65.5172 62.069,63.7931 62.069,62.069 59.4828,62.931 z " fill-rule="evenodd" fill="rgb(164,207,212)" stroke-width="0.5" stroke="rgb(164,207,212)" />
	<path d="M57.7586,61.2069 59.4828,62.931 62.069,62.069 62.069,60.3448 62.069,58.6207 58.6207,58.6207 z " fill-rule="evenodd" fill="rgb(164,207,212)" stroke-width="0.5" stroke="rgb(164,207,212)" />
	<path d="M58.6207,58.6207 62.069,58.6207 62.069,56.8966 62.069,55.1724 58.6207,55.1724 z " fill-rule="evenodd" fill="rgb(164,207,212)" stroke-width="0.5" stroke="rgb(164,207,212)" />
	<path d="M58.6207,55.1724 62.069,55.1724 62.069,53.4483 62.069,51.7241 59.4828,50.8621 57.7586,52.5862 z " fill-rule="evenodd" fill="rgb(164,207,212)" stroke-width="0.5" stroke="rgb(164,207,212)" />
	<path d="M59.4828,50.8621 62.069,51.7241 62.069,50 62.069,48.2759 58.6207,48.2759 z " fill-rule="evenodd" fill="rgb(164,207,212)" stroke-width="0.5" stroke="rgb(164,207,212)" />
	<path d="M58.6207,48.2759 62.069,48.2759 62.069,46.5517 62.069,44.8276 58.6207,44.8276 z " fill-rule="evenodd" fill="rgb(164,207,212)" stroke-width="0.5" stroke="rgb(164,207,212)" />
	<path d="M58.6207,44.8276 62.069,44.8276 62.069,43.1035 62.069,41.3793 58.6207,41.3793 z " fill-rule="evenodd" fill="rgb(164,207,212)" stroke-width="0.5" stroke="rgb(164,207,212)" />
	<path d="M58.6207,41.3793 62.069,41.3793 62.069,39.6552 62.069,37.931 58.6207,37.931 z " fill-rule="evenodd" fill="rgb(164,207,212)" stroke-width="0.5" stroke="rgb(164,207,212)" />
	<path d="M58.6207,37.931 62.069,37.931 62.069,36.2069 62.069,34.4828 58.6207,34.4828 z " fill-rule="evenodd" fill="rgb(164,207,212)" stroke-width="0.5" stroke="rgb(164,207,212)" />
	<path d="M58.6207,34.4828 62.069,34.4828 62.069,32.7586 62.069,31.0345 58.6207,31.0345 z " fill-rule="evenodd" fill="rgb(164,207,212)" stroke-width="0.5" stroke="rgb(164,207,212)" />
	<path d="M58.6207,31.0345 62.069,31.0345 62.069,29.3103 62.069,27.5862 58.6207,27.5862 z " fill-rule="evenodd" fill="rgb(164,207,212)" stroke-width="0.5" stroke="rgb(164,207,212)" />
	<path d="M58.6207,27.5862 62.069,27.5862 62.069,25.8621 62.069,24.1379 58.6207,24.1379 z " fill-rule="evenodd" fill="rgb(164,207,212)" stroke-width="0.5" stroke="rgb(164,207,212)" />
	<path d="M58.6207,24.1379 62.069,24.1379 62.069,22.4138 62.069,20.6897 58.6207,20.6897 z " fill-rule="evenodd" fill="rgb(164,207,212)" stroke-width="0.5" stroke="rgb(164,207,212)" />
	<path d="M58.6207,20.6897 62.069,20.6897 62.069,18.9655 62.069,17.2414 58.6207,17.2414 z " fill-rule="evenodd" fill="rgb(164,207,212)" stroke-width="0.5" stroke="rgb(164,207,212)" />
	<path d="M58.6207,17.2414 62.069,17.2414 62.069,15.5172 62.069,13.7931 58.6207,13.7931 z " fill-rule="evenodd" fill="rgb(164,207,212)" stroke-width="0.5" stroke="rgb(164,207,212)" />
	<path d="M58.6207,13.7931 62.069,13.7931 62.069,12.069 62.069,10.3448 58.6207,10.3448 z " fill-rule="evenodd" fill="rgb(164,207,212)" stroke-width="0.5" stroke="rgb(164,207,212)" />
	<path d="M58.6207,10.3448 62.069,10.3448 62.069,8.62069 62.069,6.89655 58.6207,6.89655 z " fill-rule="evenodd" fill="rgb(164,207,212)" stroke-width="0.5" stroke="rgb(164,207,212)" />
	<path d="M58.6207,6.89655 62.069,6.89655 62.069,5.17242 62.069,3.44828 58.6207,3.44828 z " fill-rule="evenodd" fill="rgb(164,207,212)" stroke-width="0.5" stroke="rgb(164,207,212)" />
	<path d="M58.6207,3.44828 62.069,3.44828 62.069,1.72414 62.069,0 60.3448,0 58.6207,0 z " fill-rule="evenodd" fill="rgb(164,207,212)" stroke-width="0.5" stroke="rgb(164,207,212)" />
</svg>
