<?xml version="1.0" standalone="no" ?>
<!DOCTYPE svg PUBLIC "-//W3C//DTD SVG 1.1//EN" "http://www.w3.org/Graphics/SVG/1.1/DTD/svg11.dtd">
<svg width="100px" height="100px" xmlns="http://www.w3.org/2000/svg" version="1.1" >
	<path d="M0,100 1.72414,100 3.44828,100 5.17241,100 6.89655,100 8.62069,100 10.3448,100 12.069,100 13.7931,100 15.5172,100 17.2414,100 18.9655,100 20.6897,100 22.4138,100 24.1379,100 25.8621,100 27.5862,100 29.3103,100 31.0345,100 32.7586,100 34.4828,100 36.2069,100 37.931,100 39.6552,100 41.3793,100 43.1034,100 44.8276,100 46.5517,100 48.2759,100 50,100 51.7241,100 53.4483,100 55.1724,100 56.8965,100 58.6207,100 60.3448,100 62.069,100 62.069,98.2759 62.069,96.5517 62.069,94.8276 62.069,93.1034 62.069,91.3793 62.069,89.6552 62.069,87.931 62.069,86.2069 62.069,84.4828 62.069,82.7586 62.069,81.0345 62.069,79.3103 62.069,77.5862 62.069,75.8621 58.6207,75.8621 58.6207,79.3103 57.7586,81.8966 56.0345,83.6207 55.1724,86.2069 54.3103,88.7931 52.5862,90.5172 50.8621,92.2414 48.2759,93.1034 45.6897,92.2414 44.8276,89.6552 42.2414,88.7931 41.3793,86.2069 37.931,86.2069 34.4828,86.2069 31.0345,86.2069 28.4483,87.069 26.7241,88.7931 24.1379,89.6552 20.6897,89.6552 19.8276,92.2414 17.2414,93.1034 14.6552,93.9655 12.931,95.6897 10.3448,96.5517 7.75862,95.6897 6.03448,93.9655 4.31034,92.2414 3.44828,89.6552 3.44828,86.2069 3.44828,82.7586 4.31034,80.1724 6.03448,78.4483 6.89655,75.8621 6.03448,73.2759 4.31034,71.5517 3.44828,68.9655 3.44828,65.5172 3.44828,62.069 3.44828,58.6207 3.44828,55.1724 4.31034,52.5862 6.03448,50.8621 7.75862,49.1379 10.3448,48.2759 9.48276,45.6897 7.75862,43.9655 6.89655,41.3793 6.03448,38.7931 4.31034,37.069 3.44828,34.4828 4.31034,31.8966 6.03448,30.1724 6.89655,27.5862 6.89655,24.1379 7.75862,21.5517 9.48276,19.8276 11.2069,18.1034 12.931,16.3793 14.6552,14.6552 16.3793,12.931 18.1034,11.2069 19.8276,9.48276 21.5517,7.75862 24.1379,6.89655 26.7241,6.03448 28.4483,4.31035 31.0345,3.44828 34.4828,3.44828 37.931,3.44828 41.3793,3.44828 43.9655,4.31035 45.6897,6.03448 47.4138,7.75862 48.2759,10.3448 51.7241,10.3448 55.1724,10.3448 58.6207,10.3448 62.069,10.3448 62.069,8.62069 62.069,6.89655 62.069,5.17242 62.069,3.44828 62.069,1.72414 62.069,0 60.3448,0 58.6207,0 56.8965,0 55.1724,0 53.4483,0 51.7241,0 50,0 48.2759,0 46.5517,0 44.8276,0 43.1034,0 41.3793,0 39.6552,0 37.931,0 36.2069,0 34.4828,0 32.7586,0 31.0345,0 29.3103,0 27.5862,0 25.8621,0 24.1379,0 22.4138,0 20.6897,0 18.9655,0 17.2414,0 15.5172,0 13.7931,0 12.069,0 10.3448,0 8.62069,0 6.89655,0 5.17241,0 3.44828,0 1.72414,0 0,0 0,1.72414 0,3.44828 0,5.17242 0,6.89655 0,8.62069 0,10.3448 0,12.069 0,13.7931 0,15.5172 0,17.2414 0,18.9655 0,20.6897 0,22.4138 0,24.1379 0,25.8621 0,27.5862 0,29.3103 0,31.0345 0,32.7586 0,34.4828 0,36.2069 0,37.931 0,39.6552 0,41.3793 0,43.1035 0,44.8276 0,46.5517 0,48.2759 0,50 0,51.7241 0,53.4483 0,55.1724 0,56.8966 0,58.6207 0,60.3448 0,62.069 0,63.7931 0,65.5172 0,67.2414 0,68.9655 0,70.6897 0,72.4138 0,74.1379 0,75.8621 0,77.5862 0,79.3103 0,81.0345 0,82.7586 0,84.4828 0,86.2069 0,87.931 0,89.6552 0,91.3793 0,93.1034 0,94.8276 0,96.5517 0,98.2759 z " fill-rule="evenodd" fill="rgb(164,207,212)" stroke-width="1" stroke="rgb(255,255,255)" />
	<path d="M3.44828,89.6552 4.31034,92.2414 6.03448,93.9655 7.75862,95.6897 10.3448,96.5517 12.931,95.6897 14.6552,93.9655 17.2414,93.1034 19.8276,92.2414 20.6897,89.6552 17.2414,89.6552 14.6552,90.5172 12.931,92.2414 10.3448,93.1034 7.75862,92.2414 6.89655,89.6552 6.89655,86.2069 6.89655,82.7586 7.75862,80.1724 9.48276,78.4483 9.48276,76.7241 6.89655,75.8621 6.03448,78.4483 4.31034,80.1724 3.44828,82.7586 3.44828,86.2069 z " fill-rule="evenodd" fill="rgb(0,0,0)" stroke-width="1" stroke="rgb(255,255,255)" />
	<path d="M3.44828,68.9655 4.31034,71.5517 6.03448,73.2759 7.75862,71.5517 6.89655,68.9655 7.75862,66.3793 9.48276,64.6552 11.2069,62.931 13.7931,62.069 16.3793,62.931 18.1034,64.6552 20.6897,65.5172 23.2759,66.3793 24.1379,68.9655 23.2759,71.5517 21.5517,73.2759 19.8276,75 17.2414,75.8621 13.7931,75.8621 11.2069,75 9.48276,73.2759 7.75862,71.5517 6.03448,73.2759 6.89655,75.8621 9.48276,76.7241 9.48276,78.4483 11.2069,80.1724 12.931,78.4483 14.6552,80.1724 17.2414,79.3103 20.6897,79.3103 21.5517,76.7241 24.1379,75.8621 25,73.2759 26.7241,71.5517 27.5862,68.9655 27.5862,65.5172 25,64.6552 24.1379,62.069 21.5517,61.2069 20.6897,58.6207 17.2414,58.6207 13.7931,58.6207 10.3448,58.6207 9.48276,61.2069 6.89655,62.069 6.03448,64.6552 3.44828,65.5172 z " fill-rule="evenodd" fill="rgb(136,88,24)" stroke-width="1" stroke="rgb(255,255,255)" />
	<path d="M3.44828,65.5172 6.03448,64.6552 6.89655,62.069 6.89655,58.6207 6.89655,55.1724 7.75862,52.5862 10.3448,51.7241 13.7931,51.7241 12.931,49.1379 10.3448,48.2759 7.75862,49.1379 6.03448,50.8621 4.31034,52.5862 3.44828,55.1724 3.44828,58.6207 3.44828,62.069 z " fill-rule="evenodd" fill="rgb(80,0,0)" stroke-width="1" stroke="rgb(255,255,255)" />
	<path d="M3.44828,34.4828 4.31034,37.069 6.03448,38.7931 6.89655,41.3793 10.3448,41.3793 12.931,42.2414 14.6552,43.9655 16.3793,45.6897 17.2414,48.2759 19.8276,49.1379 20.6897,51.7241 24.1379,51.7241 27.5862,51.7241 31.0345,51.7241 34.4828,51.7241 37.931,51.7241 40.5172,50.8621 41.3793,48.2759 37.931,48.2759 34.4828,48.2759 31.0345,48.2759 27.5862,48.2759 25,47.4138 24.1379,44.8276 24.1379,41.3793 20.6897,41.3793 18.1034,40.5172 16.3793,38.7931 14.6552,37.069 13.7931,34.4828 10.3448,34.4828 9.48276,37.069 7.75862,37.069 6.89655,34.4828 7.75862,31.8966 10.3448,31.0345 10.3448,27.5862 6.89655,27.5862 6.03448,30.1724 4.31034,31.8966 z " fill-rule="evenodd" fill="rgb(248,112,104)" stroke-width="1" stroke="rgb(255,255,255)" />
	<path d="M6.89655,89.6552 7.75862,92.2414 10.3448,93.1034 12.931,92.2414 14.6552,90.5172 12.931,88.7931 11.2069,88.7931 11.2069,87.069 12.931,87.069 12.931,88.7931 14.6552,90.5172 17.2414,89.6552 20.6897,89.6552 19.8276,87.069 17.2414,86.2069 14.6552,85.3448 13.7931,82.7586 14.6552,80.1724 12.931,78.4483 11.2069,80.1724 9.48276,78.4483 7.75862,80.1724 6.89655,82.7586 6.89655,86.2069 z " fill-rule="evenodd" fill="rgb(136,88,24)" stroke-width="1" stroke="rgb(255,255,255)" />
	<path d="M6.89655,68.9655 7.75862,71.5517 9.48276,73.2759 11.2069,75 13.7931,75.8621 17.2414,75.8621 19.8276,75 21.5517,73.2759 23.2759,71.5517 24.1379,68.9655 23.2759,66.3793 20.6897,65.5172 18.1034,64.6552 16.3793,62.931 13.7931,62.069 11.2069,62.931 9.48276,64.6552 7.75862,66.3793 z " fill-rule="evenodd" fill="rgb(248,248,248)" stroke-width="1" stroke="rgb(255,255,255)" />
	<path d="M6.89655,62.069 9.48276,61.2069 10.3448,58.6207 11.2069,56.0345 13.7931,55.1724 17.2414,55.1724 20.6897,55.1724 24.1379,55.1724 27.5862,55.1724 27.5862,51.7241 24.1379,51.7241 20.6897,51.7241 17.2414,51.7241 13.7931,51.7241 10.3448,51.7241 7.75862,52.5862 6.89655,55.1724 6.89655,58.6207 z " fill-rule="evenodd" fill="rgb(176,40,96)" stroke-width="1" stroke="rgb(255,255,255)" />
	<path d="M6.89655,41.3793 7.75862,43.9655 9.48276,45.6897 10.3448,48.2759 12.931,49.1379 13.7931,51.7241 17.2414,51.7241 17.2414,48.2759 16.3793,45.6897 14.6552,43.9655 12.931,42.2414 10.3448,41.3793 z " fill-rule="evenodd" fill="rgb(0,0,0)" stroke-width="1" stroke="rgb(255,255,255)" />
	<path d="M6.89655,34.4828 7.75862,37.069 9.48276,37.069 10.3448,34.4828 10.3448,31.0345 7.75862,31.8966 z " fill-rule="evenodd" fill="rgb(136,88,24)" stroke-width="1" stroke="rgb(255,255,255)" />
	<path d="M6.89655,27.5862 10.3448,27.5862 10.3448,24.1379 11.2069,21.5517 13.7931,20.6897 14.6552,18.1034 16.3793,16.3793 18.1034,14.6552 19.8276,12.931 21.5517,11.2069 24.1379,10.3448 26.7241,9.48276 28.4483,7.75862 31.0345,6.89655 34.4828,6.89655 37.931,6.89655 41.3793,6.89655 43.9655,7.75862 44.8276,10.3448 48.2759,10.3448 47.4138,7.75862 45.6897,6.03448 43.9655,4.31035 41.3793,3.44828 37.931,3.44828 34.4828,3.44828 31.0345,3.44828 28.4483,4.31035 26.7241,6.03448 24.1379,6.89655 21.5517,7.75862 19.8276,9.48276 18.1034,11.2069 16.3793,12.931 14.6552,14.6552 12.931,16.3793 11.2069,18.1034 9.48276,19.8276 7.75862,21.5517 6.89655,24.1379 z " fill-rule="evenodd" fill="rgb(80,0,0)" stroke-width="1" stroke="rgb(255,255,255)" />
	<path d="M11.2069,88.7931 12.931,88.7931 12.931,87.069 11.2069,87.069 z " fill-rule="evenodd" fill="rgb(248,216,112)" stroke-width="1" stroke="rgb(255,255,255)" />
	<path d="M10.3448,58.6207 13.7931,58.6207 17.2414,58.6207 20.6897,58.6207 24.1379,58.6207 24.1379,55.1724 20.6897,55.1724 17.2414,55.1724 13.7931,55.1724 11.2069,56.0345 z " fill-rule="evenodd" fill="rgb(248,64,112)" stroke-width="1" stroke="rgb(255,255,255)" />
	<path d="M10.3448,34.4828 13.7931,34.4828 13.7931,31.0345 13.7931,27.5862 10.3448,27.5862 10.3448,31.0345 z " fill-rule="evenodd" fill="rgb(248,208,192)" stroke-width="1" stroke="rgb(255,255,255)" />
	<path d="M10.3448,27.5862 13.7931,27.5862 16.3793,26.7241 17.2414,24.1379 18.1034,21.5517 19.8276,19.8276 21.5517,18.1034 24.1379,17.2414 26.7241,16.3793 28.4483,14.6552 31.0345,13.7931 31.0345,10.3448 28.4483,11.2069 26.7241,12.931 24.1379,13.7931 21.5517,14.6552 19.8276,16.3793 18.1034,18.1034 16.3793,19.8276 13.7931,20.6897 11.2069,21.5517 10.3448,24.1379 z " fill-rule="evenodd" fill="rgb(176,40,96)" stroke-width="1" stroke="rgb(255,255,255)" />
	<path d="M13.7931,82.7586 14.6552,85.3448 17.2414,86.2069 19.8276,87.069 20.6897,89.6552 24.1379,89.6552 26.7241,88.7931 28.4483,87.069 31.0345,86.2069 34.4828,86.2069 37.931,86.2069 41.3793,86.2069 41.3793,82.7586 41.3793,79.3103 42.2414,76.7241 43.9655,75 45.6897,73.2759 47.4138,71.5517 49.1379,69.8276 51.7241,68.9655 51.7241,65.5172 48.2759,65.5172 47.4138,68.1034 44.8276,68.9655 43.9655,71.5517 42.2414,73.2759 40.5172,75 38.7931,76.7241 37.931,79.3103 37.069,81.8966 34.4828,82.7586 31.0345,82.7586 27.5862,82.7586 24.1379,82.7586 21.5517,81.8966 20.6897,79.3103 17.2414,79.3103 14.6552,80.1724 z " fill-rule="evenodd" fill="rgb(32,48,136)" stroke-width="1" stroke="rgb(255,255,255)" />
	<path d="M13.7931,34.4828 14.6552,37.069 16.3793,38.7931 18.1034,40.5172 20.6897,41.3793 21.5517,38.7931 23.2759,37.069 24.1379,34.4828 21.5517,33.6207 20.6897,31.0345 21.5517,28.4483 23.2759,26.7241 25,25 27.5862,24.1379 31.0345,24.1379 34.4828,24.1379 37.931,24.1379 41.3793,24.1379 43.9655,25 44.8276,27.5862 48.2759,27.5862 50.8621,26.7241 52.5862,25 54.3103,23.2759 55.1724,20.6897 54.3103,18.1034 52.5862,16.3793 50.8621,14.6552 48.2759,13.7931 44.8276,13.7931 41.3793,13.7931 37.931,13.7931 34.4828,13.7931 31.0345,13.7931 28.4483,14.6552 26.7241,16.3793 24.1379,17.2414 21.5517,18.1034 19.8276,19.8276 18.1034,21.5517 17.2414,24.1379 16.3793,26.7241 13.7931,27.5862 13.7931,31.0345 z " fill-rule="evenodd" fill="rgb(0,0,0)" stroke-width="1" stroke="rgb(255,255,255)" />
	<path d="M13.7931,20.6897 16.3793,19.8276 18.1034,18.1034 19.8276,16.3793 21.5517,14.6552 24.1379,13.7931 26.7241,12.931 28.4483,11.2069 31.0345,10.3448 34.4828,10.3448 34.4828,6.89655 31.0345,6.89655 28.4483,7.75862 26.7241,9.48276 24.1379,10.3448 21.5517,11.2069 19.8276,12.931 18.1034,14.6552 16.3793,16.3793 14.6552,18.1034 z " fill-rule="evenodd" fill="rgb(248,64,112)" stroke-width="1" stroke="rgb(255,255,255)" />
	<path d="M17.2414,51.7241 20.6897,51.7241 19.8276,49.1379 17.2414,48.2759 z " fill-rule="evenodd" fill="rgb(136,88,24)" stroke-width="1" stroke="rgb(255,255,255)" />
	<path d="M20.6897,79.3103 21.5517,81.8966 24.1379,82.7586 27.5862,82.7586 31.0345,82.7586 34.4828,82.7586 37.069,81.8966 37.931,79.3103 34.4828,79.3103 31.0345,79.3103 28.4483,78.4483 26.7241,76.7241 24.1379,75.8621 21.5517,76.7241 z " fill-rule="evenodd" fill="rgb(64,128,152)" stroke-width="1" stroke="rgb(255,255,255)" />
	<path d="M20.6897,58.6207 21.5517,61.2069 24.1379,62.069 27.5862,62.069 27.5862,58.6207 24.1379,58.6207 z " fill-rule="evenodd" fill="rgb(176,40,96)" stroke-width="1" stroke="rgb(255,255,255)" />
	<path d="M20.6897,41.3793 24.1379,41.3793 26.7241,40.5172 28.4483,38.7931 31.0345,37.931 31.0345,34.4828 28.4483,33.6207 27.5862,31.0345 25,31.8966 24.1379,34.4828 23.2759,37.069 21.5517,38.7931 z " fill-rule="evenodd" fill="rgb(248,208,192)" stroke-width="1" stroke="rgb(255,255,255)" />
	<path d="M20.6897,31.0345 21.5517,33.6207 24.1379,34.4828 25,31.8966 27.5862,31.0345 27.5862,27.5862 27.5862,24.1379 25,25 23.2759,26.7241 21.5517,28.4483 z " fill-rule="evenodd" fill="rgb(248,112,104)" stroke-width="1" stroke="rgb(255,255,255)" />
	<path d="M24.1379,75.8621 26.7241,76.7241 28.4483,78.4483 31.0345,79.3103 34.4828,79.3103 37.931,79.3103 38.7931,76.7241 40.5172,75 42.2414,73.2759 43.9655,71.5517 44.8276,68.9655 45.6897,66.3793 48.2759,65.5172 47.4138,62.931 44.8276,62.069 43.9655,64.6552 41.3793,65.5172 38.7931,64.6552 37.069,66.3793 37.931,68.9655 37.069,71.5517 34.4828,72.4138 31.8966,71.5517 31.0345,68.9655 31.8966,66.3793 34.4828,65.5172 37.069,66.3793 38.7931,64.6552 37.931,62.069 34.4828,62.069 31.0345,62.069 30.1724,64.6552 27.5862,65.5172 27.5862,68.9655 26.7241,71.5517 25,73.2759 z " fill-rule="evenodd" fill="rgb(128,216,200)" stroke-width="1" stroke="rgb(255,255,255)" />
	<path d="M24.1379,62.069 25,64.6552 27.5862,65.5172 30.1724,64.6552 31.0345,62.069 27.5862,62.069 z " fill-rule="evenodd" fill="rgb(80,0,0)" stroke-width="1" stroke="rgb(255,255,255)" />
	<path d="M24.1379,58.6207 27.5862,58.6207 31.0345,58.6207 31.0345,55.1724 27.5862,55.1724 24.1379,55.1724 z " fill-rule="evenodd" fill="rgb(32,48,136)" stroke-width="1" stroke="rgb(255,255,255)" />
	<path d="M24.1379,44.8276 25,47.4138 27.5862,48.2759 31.0345,48.2759 30.1724,45.6897 27.5862,44.8276 z " fill-rule="evenodd" fill="rgb(248,208,192)" stroke-width="1" stroke="rgb(255,255,255)" />
	<path d="M24.1379,44.8276 27.5862,44.8276 30.1724,45.6897 31.0345,48.2759 34.4828,48.2759 37.931,48.2759 41.3793,48.2759 44.8276,48.2759 48.2759,48.2759 51.7241,48.2759 52.5862,45.6897 54.3103,43.9655 54.3103,42.2414 51.7241,41.3793 48.2759,41.3793 44.8276,41.3793 41.3793,41.3793 37.931,41.3793 34.4828,41.3793 31.8966,40.5172 31.0345,37.931 28.4483,38.7931 26.7241,40.5172 24.1379,41.3793 z " fill-rule="evenodd" fill="rgb(0,0,0)" stroke-width="1" stroke="rgb(255,255,255)" />
	<path d="M27.5862,62.069 31.0345,62.069 34.4828,62.069 34.4828,58.6207 31.0345,58.6207 27.5862,58.6207 z " fill-rule="evenodd" fill="rgb(64,128,152)" stroke-width="1" stroke="rgb(255,255,255)" />
	<path d="M27.5862,55.1724 31.0345,55.1724 34.4828,55.1724 34.4828,51.7241 31.0345,51.7241 27.5862,51.7241 z " fill-rule="evenodd" fill="rgb(80,0,0)" stroke-width="1" stroke="rgb(255,255,255)" />
	<path d="M27.5862,31.0345 28.4483,33.6207 31.0345,34.4828 31.0345,31.0345 31.8966,28.4483 34.4828,27.5862 34.4828,24.1379 31.0345,24.1379 27.5862,24.1379 27.5862,27.5862 z " fill-rule="evenodd" fill="rgb(248,248,248)" stroke-width="1" stroke="rgb(255,255,255)" />
	<path d="M31.0345,68.9655 31.8966,71.5517 34.4828,72.4138 37.069,71.5517 37.931,68.9655 37.069,66.3793 34.4828,65.5172 31.8966,66.3793 z " fill-rule="evenodd" fill="rgb(248,248,248)" stroke-width="1" stroke="rgb(255,255,255)" />
	<path d="M31.0345,58.6207 34.4828,58.6207 37.931,58.6207 37.931,55.1724 34.4828,55.1724 31.0345,55.1724 z " fill-rule="evenodd" fill="rgb(248,64,112)" stroke-width="1" stroke="rgb(255,255,255)" />
	<path d="M31.0345,37.931 31.8966,40.5172 34.4828,41.3793 33.6207,38.7931 z " fill-rule="evenodd" fill="rgb(136,88,24)" stroke-width="1" stroke="rgb(255,255,255)" />
	<path d="M31.0345,37.931 33.6207,38.7931 34.4828,41.3793 37.931,41.3793 41.3793,41.3793 44.8276,41.3793 48.2759,41.3793 48.2759,37.931 44.8276,37.931 41.3793,37.931 38.7931,37.069 37.069,35.3448 34.4828,34.4828 31.0345,34.4828 z " fill-rule="evenodd" fill="rgb(248,112,104)" stroke-width="1" stroke="rgb(255,255,255)" />
	<path d="M31.0345,34.4828 34.4828,34.4828 34.4828,31.0345 34.4828,27.5862 31.8966,28.4483 31.0345,31.0345 z " fill-rule="evenodd" fill="rgb(0,0,0)" stroke-width="1" stroke="rgb(255,255,255)" />
	<path d="M31.0345,13.7931 34.4828,13.7931 34.4828,10.3448 31.0345,10.3448 z " fill-rule="evenodd" fill="rgb(216,160,56)" stroke-width="1" stroke="rgb(255,255,255)" />
	<path d="M34.4828,62.069 37.931,62.069 41.3793,62.069 41.3793,58.6207 37.931,58.6207 34.4828,58.6207 z " fill-rule="evenodd" fill="rgb(176,40,96)" stroke-width="1" stroke="rgb(255,255,255)" />
	<path d="M34.4828,55.1724 37.931,55.1724 41.3793,55.1724 43.9655,54.3103 45.6897,52.5862 47.4138,52.5862 49.1379,54.3103 50.8621,54.3103 52.5862,52.5862 54.3103,52.5862 55.1724,55.1724 58.6207,55.1724 57.7586,52.5862 56.0345,50.8621 54.3103,49.1379 51.7241,48.2759 48.2759,48.2759 44.8276,48.2759 41.3793,48.2759 40.5172,50.8621 37.931,51.7241 34.4828,51.7241 z " fill-rule="evenodd" fill="rgb(136,88,24)" stroke-width="1" stroke="rgb(255,255,255)" />
	<path d="M34.4828,34.4828 37.069,35.3448 38.7931,37.069 41.3793,37.931 44.8276,37.931 48.2759,37.931 48.2759,34.4828 48.2759,31.0345 44.8276,31.0345 43.9655,33.6207 41.3793,34.4828 38.7931,33.6207 37.931,31.0345 37.931,27.5862 34.4828,27.5862 34.4828,31.0345 z " fill-rule="evenodd" fill="rgb(248,208,192)" stroke-width="1" stroke="rgb(255,255,255)" />
	<path d="M34.4828,27.5862 37.931,27.5862 37.931,24.1379 34.4828,24.1379 z " fill-rule="evenodd" fill="rgb(248,112,104)" stroke-width="1" stroke="rgb(255,255,255)" />
	<path d="M34.4828,13.7931 37.931,13.7931 37.931,10.3448 37.931,6.89655 34.4828,6.89655 34.4828,10.3448 z " fill-rule="evenodd" fill="rgb(248,216,112)" stroke-width="1" stroke="rgb(255,255,255)" />
	<path d="M37.931,62.069 38.7931,64.6552 41.3793,65.5172 43.9655,64.6552 44.8276,62.069 41.3793,62.069 z " fill-rule="evenodd" fill="rgb(80,0,0)" stroke-width="1" stroke="rgb(255,255,255)" />
	<path d="M37.931,58.6207 41.3793,58.6207 41.3793,55.1724 37.931,55.1724 z " fill-rule="evenodd" fill="rgb(32,48,136)" stroke-width="1" stroke="rgb(255,255,255)" />
	<path d="M37.931,31.0345 38.7931,33.6207 41.3793,34.4828 41.3793,31.0345 40.5172,28.4483 37.931,27.5862 z " fill-rule="evenodd" fill="rgb(0,0,0)" stroke-width="1" stroke="rgb(255,255,255)" />
	<path d="M37.931,27.5862 40.5172,28.4483 41.3793,31.0345 44.8276,31.0345 44.8276,27.5862 43.9655,25 41.3793,24.1379 37.931,24.1379 z " fill-rule="evenodd" fill="rgb(248,248,248)" stroke-width="1" stroke="rgb(255,255,255)" />
	<path d="M37.931,13.7931 41.3793,13.7931 41.3793,10.3448 37.931,10.3448 z " fill-rule="evenodd" fill="rgb(248,248,248)" stroke-width="1" stroke="rgb(255,255,255)" />
	<path d="M37.931,10.3448 41.3793,10.3448 44.8276,10.3448 43.9655,7.75862 41.3793,6.89655 37.931,6.89655 z " fill-rule="evenodd" fill="rgb(248,64,112)" stroke-width="1" stroke="rgb(255,255,255)" />
	<path d="M41.3793,86.2069 42.2414,88.7931 44.8276,89.6552 45.6897,87.069 47.4138,85.3448 49.1379,83.6207 50.8621,81.8966 51.7241,79.3103 52.5862,76.7241 50.8621,75 49.1379,75 49.1379,73.2759 50.8621,73.2759 50.8621,75 52.5862,76.7241 54.3103,75 55.1724,72.4138 54.3103,69.8276 51.7241,68.9655 49.1379,69.8276 47.4138,71.5517 45.6897,73.2759 43.9655,75 42.2414,76.7241 41.3793,79.3103 41.3793,82.7586 z " fill-rule="evenodd" fill="rgb(136,88,24)" stroke-width="1" stroke="rgb(255,255,255)" />
	<path d="M41.3793,62.069 44.8276,62.069 44.8276,58.6207 41.3793,58.6207 z " fill-rule="evenodd" fill="rgb(64,128,152)" stroke-width="1" stroke="rgb(255,255,255)" />
	<path d="M41.3793,58.6207 44.8276,58.6207 45.6897,56.0345 47.4138,56.0345 48.2759,58.6207 51.7241,58.6207 55.1724,58.6207 55.1724,55.1724 54.3103,52.5862 52.5862,52.5862 50.8621,54.3103 49.1379,54.3103 47.4138,52.5862 45.6897,52.5862 43.9655,54.3103 41.3793,55.1724 z " fill-rule="evenodd" fill="rgb(248,248,248)" stroke-width="1" stroke="rgb(255,255,255)" />
	<path d="M41.3793,34.4828 43.9655,33.6207 44.8276,31.0345 41.3793,31.0345 z " fill-rule="evenodd" fill="rgb(248,248,248)" stroke-width="1" stroke="rgb(255,255,255)" />
	<path d="M41.3793,13.7931 44.8276,13.7931 44.8276,10.3448 41.3793,10.3448 z " fill-rule="evenodd" fill="rgb(176,40,96)" stroke-width="1" stroke="rgb(255,255,255)" />
	<path d="M44.8276,89.6552 45.6897,92.2414 48.2759,93.1034 50.8621,92.2414 52.5862,90.5172 54.3103,88.7931 55.1724,86.2069 56.0345,83.6207 57.7586,81.8966 58.6207,79.3103 58.6207,75.8621 57.7586,73.2759 55.1724,72.4138 54.3103,75 52.5862,76.7241 51.7241,79.3103 50.8621,81.8966 49.1379,83.6207 47.4138,85.3448 45.6897,87.069 z " fill-rule="evenodd" fill="rgb(0,0,0)" stroke-width="1" stroke="rgb(255,255,255)" />
	<path d="M44.8276,68.9655 47.4138,68.1034 48.2759,65.5172 45.6897,66.3793 z " fill-rule="evenodd" fill="rgb(248,248,248)" stroke-width="1" stroke="rgb(255,255,255)" />
	<path d="M44.8276,62.069 47.4138,62.931 48.2759,65.5172 51.7241,65.5172 54.3103,64.6552 56.0345,62.931 57.7586,61.2069 58.6207,58.6207 58.6207,55.1724 55.1724,55.1724 55.1724,58.6207 54.3103,61.2069 51.7241,62.069 49.1379,61.2069 48.2759,58.6207 47.4138,56.0345 45.6897,56.0345 44.8276,58.6207 z " fill-rule="evenodd" fill="rgb(136,88,24)" stroke-width="1" stroke="rgb(255,255,255)" />
	<path d="M44.8276,31.0345 48.2759,31.0345 50.8621,31.8966 51.7241,34.4828 55.1724,34.4828 58.6207,34.4828 62.069,34.4828 62.069,32.7586 62.069,31.0345 62.069,29.3103 62.069,27.5862 62.069,25.8621 62.069,24.1379 62.069,22.4138 62.069,20.6897 58.6207,20.6897 55.1724,20.6897 54.3103,23.2759 52.5862,25 50.8621,26.7241 48.2759,27.5862 44.8276,27.5862 z " fill-rule="evenodd" fill="rgb(164,207,212)" stroke-width="1" stroke="rgb(255,255,255)" />
	<path d="M44.8276,13.7931 48.2759,13.7931 48.2759,10.3448 44.8276,10.3448 z " fill-rule="evenodd" fill="rgb(80,0,0)" stroke-width="1" stroke="rgb(255,255,255)" />
	<path d="M49.1379,75 50.8621,75 50.8621,73.2759 49.1379,73.2759 z " fill-rule="evenodd" fill="rgb(248,216,112)" stroke-width="1" stroke="rgb(255,255,255)" />
	<path d="M48.2759,58.6207 49.1379,61.2069 51.7241,62.069 54.3103,61.2069 55.1724,58.6207 51.7241,58.6207 z " fill-rule="evenodd" fill="rgb(248,248,248)" stroke-width="1" stroke="rgb(255,255,255)" />
	<path d="M48.2759,41.3793 51.7241,41.3793 51.7241,37.931 51.7241,34.4828 50.8621,31.8966 48.2759,31.0345 48.2759,34.4828 48.2759,37.931 z " fill-rule="evenodd" fill="rgb(136,88,24)" stroke-width="1" stroke="rgb(255,255,255)" />
	<path d="M48.2759,13.7931 50.8621,14.6552 52.5862,16.3793 54.3103,18.1034 55.1724,20.6897 58.6207,20.6897 62.069,20.6897 62.069,18.9655 62.069,17.2414 62.069,15.5172 62.069,13.7931 62.069,12.069 62.069,10.3448 58.6207,10.3448 55.1724,10.3448 51.7241,10.3448 48.2759,10.3448 z " fill-rule="evenodd" fill="rgb(164,207,212)" stroke-width="1" stroke="rgb(255,255,255)" />
	<path d="M51.7241,68.9655 54.3103,69.8276 55.1724,72.4138 57.7586,73.2759 58.6207,75.8621 62.069,75.8621 62.069,74.1379 62.069,72.4138 62.069,70.6897 62.069,68.9655 62.069,67.2414 62.069,65.5172 62.069,63.7931 62.069,62.069 62.069,60.3448 62.069,58.6207 62.069,56.8966 62.069,55.1724 58.6207,55.1724 58.6207,58.6207 57.7586,61.2069 56.0345,62.931 54.3103,64.6552 51.7241,65.5172 z " fill-rule="evenodd" fill="rgb(164,207,212)" stroke-width="1" stroke="rgb(255,255,255)" />
	<path d="M51.7241,48.2759 54.3103,49.1379 56.0345,50.8621 57.7586,52.5862 58.6207,55.1724 62.069,55.1724 62.069,53.4483 62.069,51.7241 62.069,50 62.069,48.2759 62.069,46.5517 62.069,44.8276 58.6207,44.8276 56.0345,45.6897 54.3103,43.9655 52.5862,45.6897 z " fill-rule="evenodd" fill="rgb(164,207,212)" stroke-width="1" stroke="rgb(255,255,255)" />
	<path d="M51.7241,41.3793 54.3103,42.2414 54.3103,43.9655 56.0345,45.6897 58.6207,44.8276 62.069,44.8276 62.069,43.1035 62.069,41.3793 62.069,39.6552 62.069,37.931 62.069,36.2069 62.069,34.4828 58.6207,34.4828 55.1724,34.4828 51.7241,34.4828 51.7241,37.931 z " fill-rule="evenodd" fill="rgb(164,207,212)" stroke-width="1" stroke="rgb(255,255,255)" />
</svg>
