<?xml version="1.0" standalone="no" ?>
<!DOCTYPE svg PUBLIC "-//W3C//DTD SVG 1.1//EN" "http://www.w3.org/Graphics/SVG/1.1/DTD/svg11.dtd">
<svg width="100px" height="100px" xmlns="http://www.w3.org/2000/svg" version="1.1" >
	<path d="M0,100 1.66667,100 3.33333,100 5,100 6.66667,100 8.33333,100 10,100 11.6667,100 13.3333,100 15,100 16.6667,100 18.3333,100 20,100 21.6667,100 23.3333,100 25,100 26.6667,100 28.3333,100 30,100 31.6667,100 33.3333,100 35,100 36.6667,100 38.3333,100 40,100 41.6667,100 43.3333,100 45,100 46.6667,100 48.3333,100 50,100 51.6667,100 53.3333,100 55,100 56.6667,100 58.3333,100 60,100 61.6667,100 63.3333,100 65,100 66.6667,100 68.3333,100 70,100 71.6667,100 73.3333,100 75,100 76.6667,100 78.3333,100 80,100 81.6667,100 83.3333,100 85,100 86.6667,100 88.3333,100 90,100 91.6667,100 93.3333,100 93.3333,98.3333 93.3333,96.6667 93.3333,95 93.3333,93.3333 93.3333,91.6667 93.3333,90 93.3333,88.3333 93.3333,86.6667 93.3333,85 93.3333,83.3333 93.3333,81.6667 93.3333,80 93.3333,78.3333 93.3333,76.6667 93.3333,75 93.3333,73.3333 93.3333,71.6667 93.3333,70 93.3333,68.3333 93.3333,66.6667 93.3333,65 93.3333,63.3333 90,63.3333 89.1667,65.8333 87.5,67.5 86.6667,70 86.6667,73.3333 85.8333,75.8333 84.1667,77.5 83.3333,80 83.3333,83.3333 82.5,85.8333 80.8333,87.5 79.1667,89.1667 77.5,90.8333 76.6667,93.3333 75.8333,95.8333 73.3333,96.6667 70,96.6667 66.6667,96.6667 63.3333,96.6667 60,96.6667 56.6667,96.6667 53.3333,96.6667 50.8333,95.8333 50,93.3333 49.1667,90.8333 46.6667,90 43.3333,90 40.8333,89.1667 39.1667,87.5 37.5,85.8333 36.6667,83.3333 36.6667,80 37.5,77.5 39.1667,75.8333 39.1667,74.1667 37.5,72.5 36.6667,70 36.6667,66.6667 36.6667,63.3333 36.6667,60 35.8333,57.5 34.1667,55.8333 32.5,54.1667 30.8333,54.1667 29.1667,55.8333 26.6667,56.6667 23.3333,56.6667 20.8333,55.8333 19.1667,54.1667 16.6667,53.3333 13.3333,53.3333 10.8333,52.5 9.16667,50.8333 7.5,49.1667 5.83333,47.5 4.16667,45.8333 3.33333,43.3333 3.33333,40 3.33333,36.6667 3.33333,33.3333 4.16667,30.8333 5.83333,29.1667 6.66667,26.6667 7.5,24.1667 9.16667,22.5 10.8333,20.8333 13.3333,20 15.8333,19.1667 17.5,17.5 20,16.6667 23.3333,16.6667 25.8333,17.5 27.5,19.1667 29.1667,19.1667 30,16.6667 30,13.3333 30,10 30.8333,7.5 32.5,5.83334 34.1667,4.16667 36.6667,3.33334 39.1667,4.16667 40.8333,5.83334 42.5,7.5 44.1667,9.16667 45.8333,10.8333 46.6667,13.3333 50,13.3333 53.3333,13.3333 56.6667,13.3333 60,13.3333 63.3333,13.3333 66.6667,13.3333 70,13.3333 73.3333,13.3333 76.6667,13.3333 80,13.3333 83.3333,13.3333 86.6667,13.3333 90,13.3333 93.3333,13.3333 93.3333,11.6667 93.3333,10 93.3333,8.33334 93.3333,6.66667 93.3333,5 93.3333,3.33334 93.3333,1.66667 93.3333,0 91.6667,0 90,0 88.3333,0 86.6667,0 85,0 83.3333,0 81.6667,0 80,0 78.3333,0 76.6667,0 75,0 73.3333,0 71.6667,0 70,0 68.3333,0 66.6667,0 65,0 63.3333,0 61.6667,0 60,0 58.3333,0 56.6667,0 55,0 53.3333,0 51.6667,0 50,0 48.3333,0 46.6667,0 45,0 43.3333,0 41.6667,0 40,0 38.3333,0 36.6667,0 35,0 33.3333,0 31.6667,0 30,0 28.3333,0 26.6667,0 25,0 23.3333,0 21.6667,0 20,0 18.3333,0 16.6667,0 15,0 13.3333,0 11.6667,0 10,0 8.33333,0 6.66667,0 5,0 3.33333,0 1.66667,0 0,0 0,1.66667 0,3.33334 0,5 0,6.66667 0,8.33334 0,10 0,11.6667 0,13.3333 0,15 0,16.6667 0,18.3333 0,20 0,21.6667 0,23.3333 0,25 0,26.6667 0,28.3333 0,30 0,31.6667 0,33.3333 0,35 0,36.6667 0,38.3333 0,40 0,41.6667 0,43.3333 0,45 0,46.6667 0,48.3333 0,50 0,51.6667 0,53.3333 0,55 0,56.6667 0,58.3333 0,60 0,61.6667 0,63.3333 0,65 0,66.6667 0,68.3333 0,70 0,71.6667 0,73.3333 0,75 0,76.6667 0,78.3333 0,80 0,81.6667 0,83.3333 0,85 0,86.6667 0,88.3333 0,90 0,91.6667 0,93.3333 0,95 0,96.6667 0,98.3333 z " fill-rule="evenodd" fill="rgb(184,173,199)" stroke-width="1" stroke="rgb(255,255,255)" />
	<path d="M3.33333,43.3333 4.16667,45.8333 5.83333,47.5 7.5,49.1667 9.16667,50.8333 10.8333,52.5 13.3333,53.3333 16.6667,53.3333 19.1667,54.1667 20.8333,55.8333 23.3333,56.6667 26.6667,56.6667 29.1667,55.8333 30.8333,54.1667 32.5,54.1667 34.1667,55.8333 35.8333,57.5 36.6667,60 40,60 39.1667,57.5 37.5,55.8333 35.8333,54.1667 34.1667,52.5 32.5,50.8333 30.8333,50.8333 29.1667,52.5 26.6667,53.3333 23.3333,53.3333 20.8333,52.5 20.8333,50.8333 22.5,49.1667 24.1667,47.5 26.6667,46.6667 29.1667,45.8333 29.1667,44.1667 27.5,42.5 26.6667,40 26.6667,36.6667 24.1667,37.5 23.3333,40 23.3333,43.3333 22.5,45.8333 20.8333,47.5 19.1667,49.1667 16.6667,50 13.3333,50 10.8333,49.1667 9.16667,47.5 7.5,45.8333 6.66667,43.3333 6.66667,40 6.66667,36.6667 6.66667,33.3333 7.5,30.8333 10,30 10,26.6667 10.8333,24.1667 13.3333,23.3333 16.6667,23.3333 17.5,20.8333 20,20 23.3333,20 25.8333,20.8333 27.5,22.5 30,23.3333 30.8333,20.8333 32.5,19.1667 33.3333,16.6667 32.5,14.1667 30,13.3333 30,16.6667 29.1667,19.1667 27.5,19.1667 25.8333,17.5 23.3333,16.6667 20,16.6667 17.5,17.5 15.8333,19.1667 13.3333,20 10.8333,20.8333 9.16667,22.5 7.5,24.1667 6.66667,26.6667 5.83333,29.1667 4.16667,30.8333 3.33333,33.3333 3.33333,36.6667 3.33333,40 z " fill-rule="evenodd" fill="rgb(41,41,41)" stroke-width="1" stroke="rgb(255,255,255)" />
	<path d="M6.66667,43.3333 7.5,45.8333 9.16667,47.5 10.8333,49.1667 13.3333,50 16.6667,50 17.5,47.5 19.1667,45.8333 20.8333,44.1667 23.3333,43.3333 23.3333,40 24.1667,37.5 26.6667,36.6667 25.8333,34.1667 24.1667,34.1667 22.5,35.8333 20.8333,37.5 20,40 19.1667,42.5 17.5,44.1667 15.8333,45.8333 13.3333,46.6667 10.8333,45.8333 9.16667,44.1667 z " fill-rule="evenodd" fill="rgb(0,189,0)" stroke-width="1" stroke="rgb(255,255,255)" />
	<path d="M6.66667,43.3333 9.16667,44.1667 10.8333,45.8333 13.3333,46.6667 15.8333,45.8333 17.5,44.1667 19.1667,42.5 20,40 20.8333,37.5 22.5,35.8333 24.1667,34.1667 25.8333,34.1667 26.6667,36.6667 29.1667,37.5 30,40 33.3333,40 36.6667,40 40,40 40,36.6667 36.6667,36.6667 35.8333,34.1667 33.3333,33.3333 32.5,30.8333 30,30 29.1667,27.5 26.6667,26.6667 23.3333,26.6667 20.8333,27.5 19.1667,25.8333 16.6667,26.6667 15.8333,29.1667 13.3333,30 10,30 7.5,30.8333 6.66667,33.3333 6.66667,36.6667 6.66667,40 z " fill-rule="evenodd" fill="rgb(0,255,0)" stroke-width="1" stroke="rgb(255,255,255)" />
	<path d="M10,30 13.3333,30 14.1667,27.5 16.6667,26.6667 19.1667,25.8333 19.1667,24.1667 16.6667,23.3333 13.3333,23.3333 12.5,25.8333 10,26.6667 z " fill-rule="evenodd" fill="rgb(255,255,255)" stroke-width="1" stroke="rgb(255,255,255)" />
	<path d="M10,26.6667 12.5,25.8333 13.3333,23.3333 10.8333,24.1667 z " fill-rule="evenodd" fill="rgb(0,255,0)" stroke-width="1" stroke="rgb(255,255,255)" />
	<path d="M13.3333,30 15.8333,29.1667 16.6667,26.6667 14.1667,27.5 z " fill-rule="evenodd" fill="rgb(41,41,41)" stroke-width="1" stroke="rgb(255,255,255)" />
	<path d="M16.6667,50 19.1667,49.1667 20.8333,47.5 22.5,45.8333 23.3333,43.3333 20.8333,44.1667 19.1667,45.8333 17.5,47.5 z " fill-rule="evenodd" fill="rgb(0,123,0)" stroke-width="1" stroke="rgb(255,255,255)" />
	<path d="M16.6667,23.3333 19.1667,24.1667 19.1667,25.8333 20.8333,27.5 23.3333,26.6667 26.6667,26.6667 29.1667,27.5 30,30 32.5,30.8333 33.3333,33.3333 35.8333,34.1667 36.6667,36.6667 40,36.6667 39.1667,34.1667 37.5,32.5 36.6667,30 34.1667,29.1667 32.5,27.5 30.8333,25.8333 30,23.3333 27.5,22.5 25.8333,20.8333 23.3333,20 20,20 17.5,20.8333 z " fill-rule="evenodd" fill="rgb(0,255,0)" stroke-width="1" stroke="rgb(255,255,255)" />
	<path d="M20.8333,52.5 23.3333,53.3333 26.6667,53.3333 29.1667,52.5 30.8333,50.8333 32.5,50.8333 34.1667,52.5 35.8333,54.1667 37.5,55.8333 39.1667,57.5 40,60 42.5,60.8333 43.3333,63.3333 45.8333,64.1667 46.6667,66.6667 49.1667,67.5 49.1667,69.1667 50.8333,70.8333 52.5,69.1667 52.5,67.5 50.8333,65.8333 50,63.3333 47.5,62.5 45.8333,60.8333 44.1667,59.1667 43.3333,56.6667 40.8333,55.8333 40,53.3333 40,50 36.6667,50 34.1667,49.1667 32.5,47.5 30.8333,47.5 29.1667,45.8333 26.6667,46.6667 24.1667,47.5 22.5,49.1667 20.8333,50.8333 z " fill-rule="evenodd" fill="rgb(255,255,255)" stroke-width="1" stroke="rgb(255,255,255)" />
	<path d="M26.6667,40 27.5,42.5 29.1667,44.1667 29.1667,45.8333 30.8333,47.5 32.5,47.5 34.1667,49.1667 36.6667,50 40,50 40,46.6667 36.6667,46.6667 34.1667,45.8333 32.5,44.1667 30.8333,42.5 30,40 29.1667,37.5 26.6667,36.6667 z " fill-rule="evenodd" fill="rgb(255,255,255)" stroke-width="1" stroke="rgb(255,255,255)" />
	<path d="M30,40 30.8333,42.5 32.5,44.1667 34.1667,45.8333 36.6667,46.6667 40,46.6667 40,43.3333 40,40 36.6667,40 33.3333,40 z " fill-rule="evenodd" fill="rgb(0,255,0)" stroke-width="1" stroke="rgb(255,255,255)" />
	<path d="M30,23.3333 30.8333,25.8333 32.5,27.5 34.1667,29.1667 36.6667,30 39.1667,29.1667 40.8333,27.5 43.3333,26.6667 43.3333,23.3333 40.8333,24.1667 39.1667,25.8333 36.6667,26.6667 34.1667,25.8333 32.5,24.1667 z " fill-rule="evenodd" fill="rgb(0,123,0)" stroke-width="1" stroke="rgb(255,255,255)" />
	<path d="M30,23.3333 32.5,24.1667 34.1667,25.8333 36.6667,26.6667 39.1667,25.8333 40.8333,24.1667 43.3333,23.3333 43.3333,20 40,20 39.1667,17.5 36.6667,16.6667 33.3333,16.6667 32.5,19.1667 30.8333,20.8333 z " fill-rule="evenodd" fill="rgb(255,255,255)" stroke-width="1" stroke="rgb(255,255,255)" />
	<path d="M30,13.3333 32.5,14.1667 33.3333,16.6667 36.6667,16.6667 39.1667,17.5 40,20 43.3333,20 43.3333,16.6667 40.8333,15.8333 39.1667,14.1667 37.5,12.5 35.8333,10.8333 33.3333,10 30,10 z " fill-rule="evenodd" fill="rgb(255,255,255)" stroke-width="1" stroke="rgb(255,255,255)" />
	<path d="M30,10 33.3333,10 34.1667,7.5 36.6667,6.66667 39.1667,7.5 40,10 42.5,10.8333 43.3333,13.3333 46.6667,13.3333 45.8333,10.8333 44.1667,9.16667 42.5,7.5 40.8333,5.83334 39.1667,4.16667 36.6667,3.33334 34.1667,4.16667 32.5,5.83334 30.8333,7.5 z " fill-rule="evenodd" fill="rgb(41,41,41)" stroke-width="1" stroke="rgb(255,255,255)" />
	<path d="M33.3333,10 35.8333,10.8333 37.5,12.5 39.1667,14.1667 40.8333,15.8333 43.3333,16.6667 43.3333,13.3333 40.8333,12.5 40,10 37.5,9.16667 36.6667,6.66667 34.1667,7.5 z " fill-rule="evenodd" fill="rgb(0,123,0)" stroke-width="1" stroke="rgb(255,255,255)" />
	<path d="M36.6667,83.3333 37.5,85.8333 39.1667,87.5 40.8333,89.1667 43.3333,90 46.6667,90 49.1667,90.8333 50,93.3333 52.5,94.1667 54.1667,92.5 53.3333,90 54.1667,87.5 56.6667,86.6667 57.5,84.1667 60,83.3333 63.3333,83.3333 66.6667,83.3333 70,83.3333 72.5,84.1667 73.3333,86.6667 73.3333,90 72.5,92.5 70,93.3333 66.6667,93.3333 63.3333,93.3333 60,93.3333 56.6667,93.3333 54.1667,92.5 52.5,94.1667 53.3333,96.6667 56.6667,96.6667 60,96.6667 63.3333,96.6667 66.6667,96.6667 70,96.6667 73.3333,96.6667 75.8333,95.8333 76.6667,93.3333 77.5,90.8333 79.1667,89.1667 80.8333,87.5 82.5,85.8333 83.3333,83.3333 83.3333,80 84.1667,77.5 85.8333,75.8333 86.6667,73.3333 86.6667,70 83.3333,70 83.3333,73.3333 82.5,75.8333 80.8333,77.5 80,80 80,83.3333 79.1667,85.8333 77.5,85.8333 76.6667,83.3333 76.6667,80 74.1667,80.8333 72.5,79.1667 70,80 66.6667,80 63.3333,80 60.8333,79.1667 60.8333,77.5 59.1667,75.8333 56.6667,76.6667 55.8333,79.1667 54.1667,80.8333 52.5,82.5 50.8333,84.1667 49.1667,85.8333 46.6667,86.6667 44.1667,85.8333 42.5,84.1667 40.8333,82.5 40,80 40.8333,77.5 39.1667,75.8333 37.5,77.5 36.6667,80 z " fill-rule="evenodd" fill="rgb(41,41,41)" stroke-width="1" stroke="rgb(255,255,255)" />
	<path d="M36.6667,70 37.5,72.5 39.1667,74.1667 39.1667,75.8333 40.8333,77.5 43.3333,76.6667 45.8333,77.5 47.5,79.1667 49.1667,79.1667 50.8333,77.5 52.5,75.8333 54.1667,74.1667 55.8333,74.1667 56.6667,76.6667 59.1667,75.8333 59.1667,74.1667 57.5,72.5 55.8333,70.8333 54.1667,70.8333 52.5,69.1667 50.8333,70.8333 49.1667,72.5 46.6667,73.3333 43.3333,73.3333 40.8333,72.5 40,70 40,66.6667 40,63.3333 40,60 36.6667,60 36.6667,63.3333 36.6667,66.6667 z " fill-rule="evenodd" fill="rgb(41,41,41)" stroke-width="1" stroke="rgb(255,255,255)" />
	<path d="M36.6667,30 37.5,32.5 39.1667,34.1667 40,36.6667 43.3333,36.6667 43.3333,33.3333 43.3333,30 43.3333,26.6667 40.8333,27.5 39.1667,29.1667 z " fill-rule="evenodd" fill="rgb(0,189,0)" stroke-width="1" stroke="rgb(255,255,255)" />
	<path d="M36.6667,6.66667 37.5,9.16667 40,10 39.1667,7.5 z " fill-rule="evenodd" fill="rgb(0,255,0)" stroke-width="1" stroke="rgb(255,255,255)" />
	<path d="M40,80 40.8333,82.5 42.5,84.1667 44.1667,85.8333 46.6667,86.6667 49.1667,85.8333 50.8333,84.1667 52.5,82.5 54.1667,80.8333 55.8333,79.1667 56.6667,76.6667 55.8333,74.1667 54.1667,74.1667 52.5,75.8333 50.8333,77.5 49.1667,79.1667 47.5,79.1667 45.8333,77.5 43.3333,76.6667 40.8333,77.5 z " fill-rule="evenodd" fill="rgb(255,140,0)" stroke-width="1" stroke="rgb(255,255,255)" />
	<path d="M40,70 40.8333,72.5 43.3333,73.3333 46.6667,73.3333 49.1667,72.5 50.8333,70.8333 49.1667,69.1667 49.1667,67.5 46.6667,66.6667 45.8333,64.1667 43.3333,63.3333 42.5,60.8333 40,60 40,63.3333 40,66.6667 z " fill-rule="evenodd" fill="rgb(255,255,255)" stroke-width="1" stroke="rgb(255,255,255)" />
	<path d="M40,53.3333 40.8333,55.8333 43.3333,56.6667 46.6667,56.6667 46.6667,53.3333 44.1667,52.5 43.3333,50 43.3333,46.6667 43.3333,43.3333 43.3333,40 43.3333,36.6667 40,36.6667 40,40 40,43.3333 40,46.6667 40,50 z " fill-rule="evenodd" fill="rgb(0,189,0)" stroke-width="1" stroke="rgb(255,255,255)" />
	<path d="M40,10 40.8333,12.5 43.3333,13.3333 42.5,10.8333 z " fill-rule="evenodd" fill="rgb(0,189,0)" stroke-width="1" stroke="rgb(255,255,255)" />
	<path d="M43.3333,56.6667 44.1667,59.1667 45.8333,60.8333 47.5,62.5 50,63.3333 50,60 47.5,59.1667 46.6667,56.6667 z " fill-rule="evenodd" fill="rgb(0,255,0)" stroke-width="1" stroke="rgb(255,255,255)" />
	<path d="M43.3333,50 44.1667,52.5 46.6667,53.3333 45.8333,50.8333 z " fill-rule="evenodd" fill="rgb(0,123,0)" stroke-width="1" stroke="rgb(255,255,255)" />
	<path d="M43.3333,50 45.8333,50.8333 46.6667,53.3333 49.1667,54.1667 50.8333,52.5 50.8333,50.8333 52.5,50.8333 52.5,52.5 50.8333,52.5 49.1667,54.1667 50.8333,55.8333 52.5,57.5 52.5,59.1667 54.1667,60.8333 55.8333,60.8333 56.6667,63.3333 60,63.3333 60.8333,60.8333 63.3333,60 66.6667,60 70,60 72.5,60.8333 73.3333,63.3333 76.6667,63.3333 77.5,60.8333 79.1667,60.8333 80,63.3333 82.5,62.5 84.1667,64.1667 85.8333,64.1667 85.8333,65.8333 87.5,67.5 89.1667,65.8333 90,63.3333 89.1667,60.8333 86.6667,60 84.1667,59.1667 82.5,57.5 80,56.6667 77.5,57.5 75.8333,59.1667 74.1667,59.1667 72.5,57.5 70,56.6667 66.6667,56.6667 63.3333,56.6667 60.8333,57.5 59.1667,59.1667 57.5,59.1667 55.8333,57.5 54.1667,55.8333 54.1667,54.1667 55.8333,52.5 55.8333,50.8333 54.1667,49.1667 53.3333,46.6667 53.3333,43.3333 53.3333,40 54.1667,37.5 55.8333,35.8333 56.6667,33.3333 53.3333,33.3333 52.5,35.8333 50.8333,35.8333 50,33.3333 46.6667,33.3333 46.6667,36.6667 45.8333,39.1667 47.5,40.8333 49.1667,40.8333 50,43.3333 49.1667,45.8333 47.5,45.8333 46.6667,43.3333 47.5,40.8333 45.8333,39.1667 43.3333,40 43.3333,43.3333 43.3333,46.6667 z " fill-rule="evenodd" fill="rgb(41,41,41)" stroke-width="1" stroke="rgb(255,255,255)" />
	<path d="M43.3333,40 45.8333,39.1667 46.6667,36.6667 46.6667,33.3333 45.8333,30.8333 43.3333,30 43.3333,33.3333 43.3333,36.6667 z " fill-rule="evenodd" fill="rgb(0,123,0)" stroke-width="1" stroke="rgb(255,255,255)" />
	<path d="M43.3333,30 45.8333,30.8333 46.6667,33.3333 50,33.3333 50.8333,30.8333 52.5,30.8333 53.3333,33.3333 56.6667,33.3333 55.8333,30.8333 54.1667,29.1667 54.1667,27.5 52.5,25.8333 50,26.6667 47.5,25.8333 46.6667,23.3333 47.5,20.8333 50,20 52.5,20.8333 53.3333,23.3333 52.5,25.8333 54.1667,27.5 55.8333,25.8333 56.6667,23.3333 55.8333,20.8333 54.1667,19.1667 52.5,17.5 50,16.6667 47.5,15.8333 46.6667,13.3333 43.3333,13.3333 43.3333,16.6667 43.3333,20 43.3333,23.3333 43.3333,26.6667 z " fill-rule="evenodd" fill="rgb(41,41,41)" stroke-width="1" stroke="rgb(255,255,255)" />
	<path d="M46.6667,56.6667 47.5,59.1667 50,60 49.1667,57.5 z " fill-rule="evenodd" fill="rgb(0,123,0)" stroke-width="1" stroke="rgb(255,255,255)" />
	<path d="M46.6667,56.6667 49.1667,57.5 50,60 52.5,59.1667 52.5,57.5 50.8333,55.8333 49.1667,54.1667 46.6667,53.3333 z " fill-rule="evenodd" fill="rgb(41,41,41)" stroke-width="1" stroke="rgb(255,255,255)" />
	<path d="M46.6667,43.3333 47.5,45.8333 49.1667,45.8333 50,43.3333 49.1667,40.8333 47.5,40.8333 z " fill-rule="evenodd" fill="rgb(255,140,0)" stroke-width="1" stroke="rgb(255,255,255)" />
	<path d="M46.6667,23.3333 47.5,25.8333 50,26.6667 52.5,25.8333 53.3333,23.3333 52.5,20.8333 50,20 47.5,20.8333 z " fill-rule="evenodd" fill="rgb(255,140,0)" stroke-width="1" stroke="rgb(255,255,255)" />
	<path d="M46.6667,13.3333 47.5,15.8333 50,16.6667 52.5,17.5 54.1667,19.1667 55.8333,20.8333 56.6667,23.3333 60,23.3333 63.3333,23.3333 66.6667,23.3333 70,23.3333 73.3333,23.3333 76.6667,23.3333 80,23.3333 83.3333,23.3333 86.6667,23.3333 90,23.3333 93.3333,23.3333 93.3333,21.6667 93.3333,20 93.3333,18.3333 93.3333,16.6667 93.3333,15 93.3333,13.3333 90,13.3333 86.6667,13.3333 83.3333,13.3333 80,13.3333 76.6667,13.3333 73.3333,13.3333 70,13.3333 66.6667,13.3333 63.3333,13.3333 60,13.3333 56.6667,13.3333 53.3333,13.3333 50,13.3333 z " fill-rule="evenodd" fill="rgb(184,173,199)" stroke-width="1" stroke="rgb(255,255,255)" />
	<path d="M50,93.3333 50.8333,95.8333 53.3333,96.6667 52.5,94.1667 z " fill-rule="evenodd" fill="rgb(41,41,41)" stroke-width="1" stroke="rgb(255,255,255)" />
	<path d="M50,63.3333 50.8333,65.8333 52.5,67.5 52.5,69.1667 54.1667,70.8333 55.8333,70.8333 57.5,72.5 59.1667,74.1667 59.1667,75.8333 60.8333,77.5 63.3333,76.6667 66.6667,76.6667 70,76.6667 72.5,77.5 72.5,79.1667 74.1667,80.8333 76.6667,80 76.6667,76.6667 77.5,74.1667 79.1667,72.5 80,70 76.6667,70 75.8333,72.5 73.3333,73.3333 70,73.3333 66.6667,73.3333 63.3333,73.3333 60.8333,72.5 59.1667,70.8333 57.5,69.1667 55.8333,67.5 54.1667,65.8333 53.3333,63.3333 54.1667,60.8333 52.5,59.1667 50,60 z " fill-rule="evenodd" fill="rgb(41,41,41)" stroke-width="1" stroke="rgb(255,255,255)" />
	<path d="M50.8333,52.5 52.5,52.5 52.5,50.8333 50.8333,50.8333 z " fill-rule="evenodd" fill="rgb(255,140,0)" stroke-width="1" stroke="rgb(255,255,255)" />
	<path d="M50,33.3333 50.8333,35.8333 52.5,35.8333 53.3333,33.3333 52.5,30.8333 50.8333,30.8333 z " fill-rule="evenodd" fill="rgb(255,140,0)" stroke-width="1" stroke="rgb(255,255,255)" />
	<path d="M53.3333,90 54.1667,92.5 56.6667,93.3333 60,93.3333 63.3333,93.3333 66.6667,93.3333 70,93.3333 72.5,92.5 73.3333,90 73.3333,86.6667 72.5,84.1667 70,83.3333 66.6667,83.3333 63.3333,83.3333 60,83.3333 57.5,84.1667 56.6667,86.6667 55.8333,89.1667 z " fill-rule="evenodd" fill="rgb(189,41,0)" stroke-width="1" stroke="rgb(255,255,255)" />
	<path d="M53.3333,90 55.8333,89.1667 56.6667,86.6667 54.1667,87.5 z " fill-rule="evenodd" fill="rgb(255,255,255)" stroke-width="1" stroke="rgb(255,255,255)" />
	<path d="M53.3333,63.3333 54.1667,65.8333 55.8333,67.5 57.5,69.1667 59.1667,70.8333 60.8333,72.5 63.3333,73.3333 66.6667,73.3333 70,73.3333 73.3333,73.3333 75.8333,72.5 76.6667,70 75.8333,67.5 74.1667,67.5 72.5,69.1667 70,70 66.6667,70 63.3333,70 60.8333,69.1667 59.1667,67.5 57.5,65.8333 56.6667,63.3333 55.8333,60.8333 54.1667,60.8333 z " fill-rule="evenodd" fill="rgb(255,255,255)" stroke-width="1" stroke="rgb(255,255,255)" />
	<path d="M54.1667,55.8333 55.8333,57.5 57.5,59.1667 59.1667,59.1667 60.8333,57.5 63.3333,56.6667 66.6667,56.6667 70,56.6667 72.5,57.5 74.1667,59.1667 75.8333,59.1667 77.5,57.5 80,56.6667 82.5,57.5 84.1667,59.1667 86.6667,60 89.1667,60.8333 90,63.3333 93.3333,63.3333 93.3333,61.6667 93.3333,60 93.3333,58.3333 93.3333,56.6667 93.3333,55 93.3333,53.3333 90,53.3333 86.6667,53.3333 83.3333,53.3333 80,53.3333 76.6667,53.3333 73.3333,53.3333 70,53.3333 66.6667,53.3333 63.3333,53.3333 60,53.3333 57.5,54.1667 55.8333,52.5 54.1667,54.1667 z " fill-rule="evenodd" fill="rgb(184,173,199)" stroke-width="1" stroke="rgb(255,255,255)" />
	<path d="M53.3333,46.6667 54.1667,49.1667 55.8333,50.8333 55.8333,52.5 57.5,54.1667 60,53.3333 63.3333,53.3333 66.6667,53.3333 70,53.3333 73.3333,53.3333 76.6667,53.3333 80,53.3333 83.3333,53.3333 86.6667,53.3333 90,53.3333 93.3333,53.3333 93.3333,51.6667 93.3333,50 93.3333,48.3333 93.3333,46.6667 93.3333,45 93.3333,43.3333 93.3333,41.6667 93.3333,40 93.3333,38.3333 93.3333,36.6667 93.3333,35 93.3333,33.3333 90,33.3333 86.6667,33.3333 83.3333,33.3333 80,33.3333 76.6667,33.3333 73.3333,33.3333 70,33.3333 66.6667,33.3333 63.3333,33.3333 60,33.3333 56.6667,33.3333 55.8333,35.8333 54.1667,37.5 53.3333,40 53.3333,43.3333 z " fill-rule="evenodd" fill="rgb(184,173,199)" stroke-width="1" stroke="rgb(255,255,255)" />
	<path d="M54.1667,29.1667 55.8333,30.8333 56.6667,33.3333 60,33.3333 63.3333,33.3333 66.6667,33.3333 70,33.3333 73.3333,33.3333 76.6667,33.3333 80,33.3333 83.3333,33.3333 86.6667,33.3333 90,33.3333 93.3333,33.3333 93.3333,31.6667 93.3333,30 93.3333,28.3333 93.3333,26.6667 93.3333,25 93.3333,23.3333 90,23.3333 86.6667,23.3333 83.3333,23.3333 80,23.3333 76.6667,23.3333 73.3333,23.3333 70,23.3333 66.6667,23.3333 63.3333,23.3333 60,23.3333 56.6667,23.3333 55.8333,25.8333 54.1667,27.5 z " fill-rule="evenodd" fill="rgb(184,173,199)" stroke-width="1" stroke="rgb(255,255,255)" />
	<path d="M56.6667,63.3333 57.5,65.8333 59.1667,67.5 60.8333,69.1667 63.3333,70 66.6667,70 70,70 72.5,69.1667 74.1667,67.5 75.8333,67.5 76.6667,70 80,70 79.1667,67.5 77.5,65.8333 76.6667,63.3333 73.3333,63.3333 72.5,65.8333 70,66.6667 66.6667,66.6667 63.3333,66.6667 60.8333,65.8333 60,63.3333 z " fill-rule="evenodd" fill="rgb(41,41,41)" stroke-width="1" stroke="rgb(255,255,255)" />
	<path d="M60.8333,79.1667 63.3333,80 66.6667,80 70,80 70,76.6667 66.6667,76.6667 63.3333,76.6667 60.8333,77.5 z " fill-rule="evenodd" fill="rgb(0,189,0)" stroke-width="1" stroke="rgb(255,255,255)" />
	<path d="M60,63.3333 60.8333,65.8333 63.3333,66.6667 64.1667,64.1667 66.6667,63.3333 69.1667,62.5 70,60 66.6667,60 63.3333,60 62.5,62.5 z " fill-rule="evenodd" fill="rgb(255,140,0)" stroke-width="1" stroke="rgb(255,255,255)" />
	<path d="M60,63.3333 62.5,62.5 63.3333,60 60.8333,60.8333 z " fill-rule="evenodd" fill="rgb(255,255,255)" stroke-width="1" stroke="rgb(255,255,255)" />
	<path d="M63.3333,66.6667 66.6667,66.6667 70,66.6667 72.5,65.8333 73.3333,63.3333 72.5,60.8333 70,60 69.1667,62.5 66.6667,63.3333 64.1667,64.1667 z " fill-rule="evenodd" fill="rgb(189,41,0)" stroke-width="1" stroke="rgb(255,255,255)" />
	<path d="M70,80 72.5,79.1667 72.5,77.5 70,76.6667 z " fill-rule="evenodd" fill="rgb(255,255,255)" stroke-width="1" stroke="rgb(255,255,255)" />
	<path d="M76.6667,83.3333 77.5,85.8333 79.1667,85.8333 80,83.3333 80,80 80.8333,77.5 82.5,75.8333 83.3333,73.3333 83.3333,70 80,70 79.1667,72.5 77.5,74.1667 76.6667,76.6667 76.6667,80 z " fill-rule="evenodd" fill="rgb(255,255,255)" stroke-width="1" stroke="rgb(255,255,255)" />
	<path d="M76.6667,63.3333 77.5,65.8333 79.1667,67.5 80,70 83.3333,70 82.5,67.5 80.8333,65.8333 80,63.3333 79.1667,60.8333 77.5,60.8333 z " fill-rule="evenodd" fill="rgb(255,255,255)" stroke-width="1" stroke="rgb(255,255,255)" />
	<path d="M80,63.3333 80.8333,65.8333 82.5,67.5 83.3333,70 86.6667,70 87.5,67.5 85.8333,65.8333 84.1667,65.8333 84.1667,64.1667 82.5,62.5 z " fill-rule="evenodd" fill="rgb(41,41,41)" stroke-width="1" stroke="rgb(255,255,255)" />
	<path d="M84.1667,65.8333 85.8333,65.8333 85.8333,64.1667 84.1667,64.1667 z " fill-rule="evenodd" fill="rgb(0,189,0)" stroke-width="1" stroke="rgb(255,255,255)" />
</svg>
