<?xml version="1.0" standalone="no" ?>
<!DOCTYPE svg PUBLIC "-//W3C//DTD SVG 1.1//EN" "http://www.w3.org/Graphics/SVG/1.1/DTD/svg11.dtd">
<svg width="100px" height="100px" xmlns="http://www.w3.org/2000/svg" version="1.1" >
	<path d="M0,100 6.25,100 12.5,100 18.75,100 25,100 25,87.5 15.625,84.375 12.5,75 12.5,62.5 12.5,50 12.5,37.5 12.5,25 15.625,15.625 25,12.5 37.5,12.5 50,12.5 62.5,12.5 75,12.5 84.375,15.625 87.5,25 87.5,37.5 87.5,50 87.5,62.5 87.5,75 84.375,84.375 75,87.5 62.5,87.5 50,87.5 37.5,87.5 25,87.5 25,100 31.25,100 37.5,100 43.75,100 50,100 56.25,100 62.5,100 68.75,100 75,100 81.25,100 87.5,100 93.75,100 100,100 100,93.75 100,87.5 100,81.25 100,75 100,68.75 100,62.5 100,56.25 100,50 100,43.75 100,37.5 100,31.25 100,25 100,18.75 100,12.5 100,6.25 100,0 93.75,0 87.5,0 81.25,0 75,0 68.75,0 62.5,0 56.25,0 50,0 43.75,0 37.5,0 31.25,0 25,0 18.75,0 12.5,0 6.25,0 0,0 0,6.25 0,12.5 0,18.75 0,25 0,31.25 0,37.5 0,43.75 0,50 0,56.25 0,62.5 0,68.75 0,75 0,81.25 0,87.5 0,93.75 z " fill-rule="evenodd" fill="rgb(0,0,0)" stroke-width="1" stroke="rgb(255,255,255)" />
	<path d="M12.5,75 15.625,84.375 25,87.5 37.5,87.5 50,87.5 62.5,87.5 75,87.5 84.375,84.375 87.5,75 87.5,62.5 87.5,50 87.5,37.5 87.5,25 84.375,15.625 75,12.5 62.5,12.5 50,12.5 37.5,12.5 25,12.5 15.625,15.625 12.5,25 12.5,37.5 12.5,50 12.5,62.5 z " fill-rule="evenodd" fill="rgb(255,0,0)" stroke-width="1" stroke="rgb(255,255,255)" />
</svg>
