<?xml version="1.0" standalone="no" ?>
<!DOCTYPE svg PUBLIC "-//W3C//DTD SVG 1.1//EN" "http://www.w3.org/Graphics/SVG/1.1/DTD/svg11.dtd">
<svg width="100px" height="100px" xmlns="http://www.w3.org/2000/svg" version="1.1" >
	<line x1="0" y1="100" x2="6.25" y2="100" stroke-width="2" stroke="rgb(0,0,0)" />
	<line x1="0" y1="93.75" x2="0" y2="100" stroke-width="2" stroke="rgb(0,0,0)" />
	<line x1="0" y1="93.75" x2="6.25" y2="93.75" stroke-width="2" stroke="rgb(0,0,0)" />
	<line x1="0" y1="87.5" x2="0" y2="93.75" stroke-width="2" stroke="rgb(0,0,0)" />
	<line x1="0" y1="87.5" x2="6.25" y2="87.5" stroke-width="2" stroke="rgb(0,0,0)" />
	<line x1="0" y1="81.25" x2="0" y2="87.5" stroke-width="2" stroke="rgb(0,0,0)" />
	<line x1="0" y1="81.25" x2="6.25" y2="87.5" stroke-width="2" stroke="rgb(0,0,0)" />
	<line x1="0" y1="75" x2="0" y2="81.25" stroke-width="2" stroke="rgb(0,0,0)" />
	<line x1="0" y1="68.75" x2="6.25" y2="75" stroke-width="2" stroke="rgb(0,0,0)" />
	<line x1="0" y1="62.5" x2="0" y2="68.75" stroke-width="2" stroke="rgb(0,0,0)" />
	<line x1="0" y1="56.25" x2="0" y2="62.5" stroke-width="2" stroke="rgb(0,0,0)" />
	<line x1="0" y1="50" x2="0" y2="56.25" stroke-width="2" stroke="rgb(0,0,0)" />
	<line x1="0" y1="43.75" x2="0" y2="50" stroke-width="2" stroke="rgb(0,0,0)" />
	<line x1="0" y1="37.5" x2="0" y2="43.75" stroke-width="2" stroke="rgb(0,0,0)" />
	<line x1="0" y1="37.5" x2="6.25" y2="31.25" stroke-width="2" stroke="rgb(0,0,0)" />
	<line x1="0" y1="25" x2="0" y2="31.25" stroke-width="2" stroke="rgb(0,0,0)" />
	<line x1="0" y1="25" x2="6.25" y2="18.75" stroke-width="2" stroke="rgb(0,0,0)" />
	<line x1="0" y1="18.75" x2="0" y2="25" stroke-width="2" stroke="rgb(0,0,0)" />
	<line x1="0" y1="18.75" x2="6.25" y2="18.75" stroke-width="2" stroke="rgb(0,0,0)" />
	<line x1="0" y1="12.5" x2="0" y2="18.75" stroke-width="2" stroke="rgb(0,0,0)" />
	<line x1="0" y1="12.5" x2="6.25" y2="12.5" stroke-width="2" stroke="rgb(0,0,0)" />
	<line x1="0" y1="6.25" x2="0" y2="12.5" stroke-width="2" stroke="rgb(0,0,0)" />
	<line x1="0" y1="6.25" x2="6.25" y2="6.25" stroke-width="2" stroke="rgb(0,0,0)" />
	<line x1="6.25" y1="100" x2="12.5" y2="100" stroke-width="2" stroke="rgb(0,0,0)" />
	<line x1="6.25" y1="93.75" x2="6.25" y2="100" stroke-width="2" stroke="rgb(0,0,0)" />
	<line x1="6.25" y1="93.75" x2="12.5" y2="93.75" stroke-width="2" stroke="rgb(0,0,0)" />
	<line x1="6.25" y1="87.5" x2="6.25" y2="93.75" stroke-width="2" stroke="rgb(0,0,0)" />
	<line x1="6.25" y1="87.5" x2="12.5" y2="93.75" stroke-width="2" stroke="rgb(0,0,0)" />
	<line x1="6.25" y1="81.25" x2="12.5" y2="87.5" stroke-width="2" stroke="rgb(0,0,0)" />
	<line x1="6.25" y1="75" x2="6.25" y2="81.25" stroke-width="2" stroke="rgb(0,0,0)" />
	<line x1="6.25" y1="68.75" x2="12.5" y2="75" stroke-width="2" stroke="rgb(0,0,0)" />
	<line x1="6.25" y1="68.75" x2="12.5" y2="68.75" stroke-width="2" stroke="rgb(0,0,0)" />
	<line x1="6.25" y1="62.5" x2="6.25" y2="68.75" stroke-width="2" stroke="rgb(0,0,0)" />
	<line x1="6.25" y1="62.5" x2="12.5" y2="62.5" stroke-width="2" stroke="rgb(0,0,0)" />
	<line x1="6.25" y1="56.25" x2="6.25" y2="62.5" stroke-width="2" stroke="rgb(0,0,0)" />
	<line x1="6.25" y1="56.25" x2="12.5" y2="62.5" stroke-width="2" stroke="rgb(0,0,0)" />
	<line x1="6.25" y1="50" x2="6.25" y2="56.25" stroke-width="2" stroke="rgb(0,0,0)" />
	<line x1="6.25" y1="50" x2="12.5" y2="43.75" stroke-width="2" stroke="rgb(0,0,0)" />
	<line x1="6.25" y1="43.75" x2="6.25" y2="50" stroke-width="2" stroke="rgb(0,0,0)" />
	<line x1="6.25" y1="43.75" x2="12.5" y2="43.75" stroke-width="2" stroke="rgb(0,0,0)" />
	<line x1="6.25" y1="37.5" x2="6.25" y2="43.75" stroke-width="2" stroke="rgb(0,0,0)" />
	<line x1="6.25" y1="37.5" x2="12.5" y2="37.5" stroke-width="2" stroke="rgb(0,0,0)" />
	<line x1="6.25" y1="37.5" x2="12.5" y2="31.25" stroke-width="2" stroke="rgb(0,0,0)" />
	<line x1="6.25" y1="25" x2="6.25" y2="31.25" stroke-width="2" stroke="rgb(0,0,0)" />
	<line x1="6.25" y1="25" x2="12.5" y2="18.75" stroke-width="2" stroke="rgb(0,0,0)" />
	<line x1="6.25" y1="18.75" x2="12.5" y2="12.5" stroke-width="2" stroke="rgb(0,0,0)" />
	<line x1="6.25" y1="12.5" x2="6.25" y2="18.75" stroke-width="2" stroke="rgb(0,0,0)" />
	<line x1="6.25" y1="12.5" x2="12.5" y2="12.5" stroke-width="2" stroke="rgb(0,0,0)" />
	<line x1="6.25" y1="6.25" x2="6.25" y2="12.5" stroke-width="2" stroke="rgb(0,0,0)" />
	<line x1="6.25" y1="6.25" x2="12.5" y2="6.25" stroke-width="2" stroke="rgb(0,0,0)" />
	<line x1="12.5" y1="100" x2="18.75" y2="100" stroke-width="2" stroke="rgb(0,0,0)" />
	<line x1="12.5" y1="93.75" x2="12.5" y2="100" stroke-width="2" stroke="rgb(0,0,0)" />
	<line x1="12.5" y1="93.75" x2="18.75" y2="100" stroke-width="2" stroke="rgb(0,0,0)" />
	<line x1="12.5" y1="87.5" x2="18.75" y2="93.75" stroke-width="2" stroke="rgb(0,0,0)" />
	<line x1="12.5" y1="81.25" x2="18.75" y2="87.5" stroke-width="2" stroke="rgb(0,0,0)" />
	<line x1="12.5" y1="81.25" x2="18.75" y2="81.25" stroke-width="2" stroke="rgb(0,0,0)" />
	<line x1="12.5" y1="75" x2="12.5" y2="81.25" stroke-width="2" stroke="rgb(0,0,0)" />
	<line x1="12.5" y1="75" x2="18.75" y2="75" stroke-width="2" stroke="rgb(0,0,0)" />
	<line x1="12.5" y1="68.75" x2="12.5" y2="75" stroke-width="2" stroke="rgb(0,0,0)" />
	<line x1="12.5" y1="68.75" x2="18.75" y2="68.75" stroke-width="2" stroke="rgb(0,0,0)" />
	<line x1="12.5" y1="62.5" x2="12.5" y2="68.75" stroke-width="2" stroke="rgb(0,0,0)" />
	<line x1="12.5" y1="62.5" x2="18.75" y2="62.5" stroke-width="2" stroke="rgb(0,0,0)" />
	<line x1="12.5" y1="56.25" x2="18.75" y2="56.25" stroke-width="2" stroke="rgb(0,0,0)" />
	<line x1="12.5" y1="50" x2="12.5" y2="56.25" stroke-width="2" stroke="rgb(0,0,0)" />
	<line x1="12.5" y1="50" x2="18.75" y2="50" stroke-width="2" stroke="rgb(0,0,0)" />
	<line x1="12.5" y1="43.75" x2="18.75" y2="43.75" stroke-width="2" stroke="rgb(0,0,0)" />
	<line x1="12.5" y1="37.5" x2="12.5" y2="43.75" stroke-width="2" stroke="rgb(0,0,0)" />
	<line x1="12.5" y1="37.5" x2="18.75" y2="37.5" stroke-width="2" stroke="rgb(0,0,0)" />
	<line x1="12.5" y1="31.25" x2="12.5" y2="37.5" stroke-width="2" stroke="rgb(0,0,0)" />
	<line x1="12.5" y1="31.25" x2="18.75" y2="31.25" stroke-width="2" stroke="rgb(0,0,0)" />
	<line x1="12.5" y1="25" x2="12.5" y2="31.25" stroke-width="2" stroke="rgb(0,0,0)" />
	<line x1="12.5" y1="25" x2="18.75" y2="25" stroke-width="2" stroke="rgb(0,0,0)" />
	<line x1="12.5" y1="25" x2="18.75" y2="18.75" stroke-width="2" stroke="rgb(0,0,0)" />
	<line x1="12.5" y1="18.75" x2="18.75" y2="12.5" stroke-width="2" stroke="rgb(0,0,0)" />
	<line x1="12.5" y1="12.5" x2="18.75" y2="6.25" stroke-width="2" stroke="rgb(0,0,0)" />
	<line x1="12.5" y1="6.25" x2="12.5" y2="12.5" stroke-width="2" stroke="rgb(0,0,0)" />
	<line x1="12.5" y1="6.25" x2="18.75" y2="6.25" stroke-width="2" stroke="rgb(0,0,0)" />
	<line x1="18.75" y1="100" x2="25" y2="100" stroke-width="2" stroke="rgb(0,0,0)" />
	<line x1="18.75" y1="93.75" x2="25" y2="93.75" stroke-width="2" stroke="rgb(0,0,0)" />
	<line x1="18.75" y1="87.5" x2="25" y2="87.5" stroke-width="2" stroke="rgb(0,0,0)" />
	<line x1="18.75" y1="81.25" x2="18.75" y2="87.5" stroke-width="2" stroke="rgb(0,0,0)" />
	<line x1="18.75" y1="81.25" x2="25" y2="81.25" stroke-width="2" stroke="rgb(0,0,0)" />
	<line x1="18.75" y1="75" x2="18.75" y2="81.25" stroke-width="2" stroke="rgb(0,0,0)" />
	<line x1="18.75" y1="75" x2="25" y2="75" stroke-width="2" stroke="rgb(0,0,0)" />
	<line x1="18.75" y1="68.75" x2="18.75" y2="75" stroke-width="2" stroke="rgb(0,0,0)" />
	<line x1="18.75" y1="68.75" x2="25" y2="68.75" stroke-width="2" stroke="rgb(0,0,0)" />
	<line x1="18.75" y1="62.5" x2="18.75" y2="68.75" stroke-width="2" stroke="rgb(0,0,0)" />
	<line x1="18.75" y1="62.5" x2="25" y2="62.5" stroke-width="2" stroke="rgb(0,0,0)" />
	<line x1="18.75" y1="56.25" x2="25" y2="56.25" stroke-width="2" stroke="rgb(0,0,0)" />
	<line x1="18.75" y1="50" x2="18.75" y2="56.25" stroke-width="2" stroke="rgb(0,0,0)" />
	<line x1="18.75" y1="50" x2="25" y2="50" stroke-width="2" stroke="rgb(0,0,0)" />
	<line x1="18.75" y1="43.75" x2="25" y2="43.75" stroke-width="2" stroke="rgb(0,0,0)" />
	<line x1="18.75" y1="37.5" x2="18.75" y2="43.75" stroke-width="2" stroke="rgb(0,0,0)" />
	<line x1="18.75" y1="37.5" x2="25" y2="37.5" stroke-width="2" stroke="rgb(0,0,0)" />
	<line x1="18.75" y1="31.25" x2="18.75" y2="37.5" stroke-width="2" stroke="rgb(0,0,0)" />
	<line x1="18.75" y1="31.25" x2="25" y2="31.25" stroke-width="2" stroke="rgb(0,0,0)" />
	<line x1="18.75" y1="25" x2="18.75" y2="31.25" stroke-width="2" stroke="rgb(0,0,0)" />
	<line x1="18.75" y1="25" x2="25" y2="25" stroke-width="2" stroke="rgb(0,0,0)" />
	<line x1="18.75" y1="18.75" x2="18.75" y2="25" stroke-width="2" stroke="rgb(0,0,0)" />
	<line x1="18.75" y1="18.75" x2="25" y2="18.75" stroke-width="2" stroke="rgb(0,0,0)" />
	<line x1="18.75" y1="12.5" x2="25" y2="12.5" stroke-width="2" stroke="rgb(0,0,0)" />
	<line x1="18.75" y1="6.25" x2="25" y2="6.25" stroke-width="2" stroke="rgb(0,0,0)" />
	<line x1="25" y1="93.75" x2="31.25" y2="100" stroke-width="2" stroke="rgb(0,0,0)" />
	<line x1="25" y1="87.5" x2="31.25" y2="93.75" stroke-width="2" stroke="rgb(0,0,0)" />
	<line x1="25" y1="87.5" x2="31.25" y2="87.5" stroke-width="2" stroke="rgb(0,0,0)" />
	<line x1="25" y1="81.25" x2="25" y2="87.5" stroke-width="2" stroke="rgb(0,0,0)" />
	<line x1="25" y1="81.25" x2="31.25" y2="81.25" stroke-width="2" stroke="rgb(0,0,0)" />
	<line x1="25" y1="75" x2="25" y2="81.25" stroke-width="2" stroke="rgb(0,0,0)" />
	<line x1="25" y1="75" x2="31.25" y2="75" stroke-width="2" stroke="rgb(0,0,0)" />
	<line x1="25" y1="68.75" x2="25" y2="75" stroke-width="2" stroke="rgb(0,0,0)" />
	<line x1="25" y1="68.75" x2="31.25" y2="68.75" stroke-width="2" stroke="rgb(0,0,0)" />
	<line x1="25" y1="62.5" x2="25" y2="68.75" stroke-width="2" stroke="rgb(0,0,0)" />
	<line x1="25" y1="62.5" x2="31.25" y2="62.5" stroke-width="2" stroke="rgb(0,0,0)" />
	<line x1="25" y1="56.25" x2="31.25" y2="56.25" stroke-width="2" stroke="rgb(0,0,0)" />
	<line x1="25" y1="50" x2="25" y2="56.25" stroke-width="2" stroke="rgb(0,0,0)" />
	<line x1="25" y1="50" x2="31.25" y2="50" stroke-width="2" stroke="rgb(0,0,0)" />
	<line x1="25" y1="43.75" x2="31.25" y2="43.75" stroke-width="2" stroke="rgb(0,0,0)" />
	<line x1="25" y1="37.5" x2="25" y2="43.75" stroke-width="2" stroke="rgb(0,0,0)" />
	<line x1="25" y1="37.5" x2="31.25" y2="37.5" stroke-width="2" stroke="rgb(0,0,0)" />
	<line x1="25" y1="31.25" x2="25" y2="37.5" stroke-width="2" stroke="rgb(0,0,0)" />
	<line x1="25" y1="31.25" x2="31.25" y2="31.25" stroke-width="2" stroke="rgb(0,0,0)" />
	<line x1="25" y1="25" x2="25" y2="31.25" stroke-width="2" stroke="rgb(0,0,0)" />
	<line x1="25" y1="25" x2="31.25" y2="25" stroke-width="2" stroke="rgb(0,0,0)" />
	<line x1="25" y1="18.75" x2="25" y2="25" stroke-width="2" stroke="rgb(0,0,0)" />
	<line x1="25" y1="18.75" x2="31.25" y2="18.75" stroke-width="2" stroke="rgb(0,0,0)" />
	<line x1="25" y1="18.75" x2="31.25" y2="12.5" stroke-width="2" stroke="rgb(0,0,0)" />
	<line x1="25" y1="12.5" x2="31.25" y2="6.25" stroke-width="2" stroke="rgb(0,0,0)" />
	<line x1="31.25" y1="100" x2="37.5" y2="100" stroke-width="2" stroke="rgb(0,0,0)" />
	<line x1="31.25" y1="93.75" x2="37.5" y2="93.75" stroke-width="2" stroke="rgb(0,0,0)" />
	<line x1="31.25" y1="87.5" x2="31.25" y2="93.75" stroke-width="2" stroke="rgb(0,0,0)" />
	<line x1="31.25" y1="87.5" x2="37.5" y2="87.5" stroke-width="2" stroke="rgb(0,0,0)" />
	<line x1="31.25" y1="81.25" x2="31.25" y2="87.5" stroke-width="2" stroke="rgb(0,0,0)" />
	<line x1="31.25" y1="81.25" x2="37.5" y2="81.25" stroke-width="2" stroke="rgb(0,0,0)" />
	<line x1="31.25" y1="75" x2="31.25" y2="81.25" stroke-width="2" stroke="rgb(0,0,0)" />
	<line x1="31.25" y1="75" x2="37.5" y2="75" stroke-width="2" stroke="rgb(0,0,0)" />
	<line x1="31.25" y1="68.75" x2="31.25" y2="75" stroke-width="2" stroke="rgb(0,0,0)" />
	<line x1="31.25" y1="68.75" x2="37.5" y2="68.75" stroke-width="2" stroke="rgb(0,0,0)" />
	<line x1="31.25" y1="62.5" x2="31.25" y2="68.75" stroke-width="2" stroke="rgb(0,0,0)" />
	<line x1="31.25" y1="62.5" x2="37.5" y2="62.5" stroke-width="2" stroke="rgb(0,0,0)" />
	<line x1="31.25" y1="56.25" x2="37.5" y2="56.25" stroke-width="2" stroke="rgb(0,0,0)" />
	<line x1="31.25" y1="50" x2="31.25" y2="56.25" stroke-width="2" stroke="rgb(0,0,0)" />
	<line x1="31.25" y1="50" x2="37.5" y2="50" stroke-width="2" stroke="rgb(0,0,0)" />
	<line x1="31.25" y1="43.75" x2="37.5" y2="43.75" stroke-width="2" stroke="rgb(0,0,0)" />
	<line x1="31.25" y1="37.5" x2="31.25" y2="43.75" stroke-width="2" stroke="rgb(0,0,0)" />
	<line x1="31.25" y1="37.5" x2="37.5" y2="37.5" stroke-width="2" stroke="rgb(0,0,0)" />
	<line x1="31.25" y1="31.25" x2="31.25" y2="37.5" stroke-width="2" stroke="rgb(0,0,0)" />
	<line x1="31.25" y1="31.25" x2="37.5" y2="31.25" stroke-width="2" stroke="rgb(0,0,0)" />
	<line x1="31.25" y1="25" x2="31.25" y2="31.25" stroke-width="2" stroke="rgb(0,0,0)" />
	<line x1="31.25" y1="25" x2="37.5" y2="25" stroke-width="2" stroke="rgb(0,0,0)" />
	<line x1="31.25" y1="18.75" x2="31.25" y2="25" stroke-width="2" stroke="rgb(0,0,0)" />
	<line x1="31.25" y1="18.75" x2="37.5" y2="18.75" stroke-width="2" stroke="rgb(0,0,0)" />
	<line x1="31.25" y1="12.5" x2="31.25" y2="18.75" stroke-width="2" stroke="rgb(0,0,0)" />
	<line x1="31.25" y1="12.5" x2="37.5" y2="12.5" stroke-width="2" stroke="rgb(0,0,0)" />
	<line x1="31.25" y1="6.25" x2="37.5" y2="6.25" stroke-width="2" stroke="rgb(0,0,0)" />
	<line x1="37.5" y1="100" x2="43.75" y2="100" stroke-width="2" stroke="rgb(0,0,0)" />
	<line x1="37.5" y1="93.75" x2="43.75" y2="93.75" stroke-width="2" stroke="rgb(0,0,0)" />
	<line x1="37.5" y1="87.5" x2="37.5" y2="93.75" stroke-width="2" stroke="rgb(0,0,0)" />
	<line x1="37.5" y1="87.5" x2="43.75" y2="93.75" stroke-width="2" stroke="rgb(0,0,0)" />
	<line x1="37.5" y1="81.25" x2="37.5" y2="87.5" stroke-width="2" stroke="rgb(0,0,0)" />
	<line x1="37.5" y1="75" x2="37.5" y2="81.25" stroke-width="2" stroke="rgb(0,0,0)" />
	<line x1="37.5" y1="68.75" x2="37.5" y2="75" stroke-width="2" stroke="rgb(0,0,0)" />
	<line x1="37.5" y1="62.5" x2="37.5" y2="68.75" stroke-width="2" stroke="rgb(0,0,0)" />
	<line x1="37.5" y1="56.25" x2="43.75" y2="62.5" stroke-width="2" stroke="rgb(0,0,0)" />
	<line x1="37.5" y1="56.25" x2="43.75" y2="56.25" stroke-width="2" stroke="rgb(0,0,0)" />
	<line x1="37.5" y1="50" x2="37.5" y2="56.25" stroke-width="2" stroke="rgb(0,0,0)" />
	<line x1="37.5" y1="50" x2="43.75" y2="50" stroke-width="2" stroke="rgb(0,0,0)" />
	<line x1="37.5" y1="50" x2="43.75" y2="43.75" stroke-width="2" stroke="rgb(0,0,0)" />
	<line x1="37.5" y1="37.5" x2="37.5" y2="43.75" stroke-width="2" stroke="rgb(0,0,0)" />
	<line x1="37.5" y1="31.25" x2="37.5" y2="37.5" stroke-width="2" stroke="rgb(0,0,0)" />
	<line x1="37.5" y1="25" x2="37.5" y2="31.25" stroke-width="2" stroke="rgb(0,0,0)" />
	<line x1="37.5" y1="18.75" x2="37.5" y2="25" stroke-width="2" stroke="rgb(0,0,0)" />
	<line x1="37.5" y1="18.75" x2="43.75" y2="12.5" stroke-width="2" stroke="rgb(0,0,0)" />
	<line x1="37.5" y1="12.5" x2="37.5" y2="18.75" stroke-width="2" stroke="rgb(0,0,0)" />
	<line x1="37.5" y1="12.5" x2="43.75" y2="12.5" stroke-width="2" stroke="rgb(0,0,0)" />
	<line x1="37.5" y1="6.25" x2="43.75" y2="6.25" stroke-width="2" stroke="rgb(0,0,0)" />
	<line x1="43.75" y1="100" x2="50" y2="100" stroke-width="2" stroke="rgb(0,0,0)" />
	<line x1="43.75" y1="93.75" x2="50" y2="93.75" stroke-width="2" stroke="rgb(0,0,0)" />
	<line x1="43.75" y1="87.5" x2="50" y2="87.5" stroke-width="2" stroke="rgb(0,0,0)" />
	<line x1="43.75" y1="81.25" x2="43.75" y2="87.5" stroke-width="2" stroke="rgb(0,0,0)" />
	<line x1="43.75" y1="81.25" x2="50" y2="81.25" stroke-width="2" stroke="rgb(0,0,0)" />
	<line x1="43.75" y1="75" x2="43.75" y2="81.25" stroke-width="2" stroke="rgb(0,0,0)" />
	<line x1="43.75" y1="75" x2="50" y2="75" stroke-width="2" stroke="rgb(0,0,0)" />
	<line x1="43.75" y1="68.75" x2="43.75" y2="75" stroke-width="2" stroke="rgb(0,0,0)" />
	<line x1="43.75" y1="68.75" x2="50" y2="68.75" stroke-width="2" stroke="rgb(0,0,0)" />
	<line x1="43.75" y1="62.5" x2="43.75" y2="68.75" stroke-width="2" stroke="rgb(0,0,0)" />
	<line x1="43.75" y1="62.5" x2="50" y2="62.5" stroke-width="2" stroke="rgb(0,0,0)" />
	<line x1="43.75" y1="56.25" x2="43.75" y2="62.5" stroke-width="2" stroke="rgb(0,0,0)" />
	<line x1="43.75" y1="56.25" x2="50" y2="56.25" stroke-width="2" stroke="rgb(0,0,0)" />
	<line x1="43.75" y1="50" x2="43.75" y2="56.25" stroke-width="2" stroke="rgb(0,0,0)" />
	<line x1="43.75" y1="50" x2="50" y2="50" stroke-width="2" stroke="rgb(0,0,0)" />
	<line x1="43.75" y1="43.75" x2="43.75" y2="50" stroke-width="2" stroke="rgb(0,0,0)" />
	<line x1="43.75" y1="43.75" x2="50" y2="43.75" stroke-width="2" stroke="rgb(0,0,0)" />
	<line x1="43.75" y1="37.5" x2="43.75" y2="43.75" stroke-width="2" stroke="rgb(0,0,0)" />
	<line x1="43.75" y1="37.5" x2="50" y2="37.5" stroke-width="2" stroke="rgb(0,0,0)" />
	<line x1="43.75" y1="31.25" x2="43.75" y2="37.5" stroke-width="2" stroke="rgb(0,0,0)" />
	<line x1="43.75" y1="31.25" x2="50" y2="31.25" stroke-width="2" stroke="rgb(0,0,0)" />
	<line x1="43.75" y1="25" x2="43.75" y2="31.25" stroke-width="2" stroke="rgb(0,0,0)" />
	<line x1="43.75" y1="25" x2="50" y2="25" stroke-width="2" stroke="rgb(0,0,0)" />
	<line x1="43.75" y1="18.75" x2="43.75" y2="25" stroke-width="2" stroke="rgb(0,0,0)" />
	<line x1="43.75" y1="18.75" x2="50" y2="18.75" stroke-width="2" stroke="rgb(0,0,0)" />
	<line x1="43.75" y1="12.5" x2="50" y2="12.5" stroke-width="2" stroke="rgb(0,0,0)" />
	<line x1="43.75" y1="6.25" x2="50" y2="6.25" stroke-width="2" stroke="rgb(0,0,0)" />
	<line x1="50" y1="100" x2="56.25" y2="100" stroke-width="2" stroke="rgb(0,0,0)" />
	<line x1="50" y1="93.75" x2="56.25" y2="93.75" stroke-width="2" stroke="rgb(0,0,0)" />
	<line x1="50" y1="93.75" x2="56.25" y2="87.5" stroke-width="2" stroke="rgb(0,0,0)" />
	<line x1="50" y1="81.25" x2="50" y2="87.5" stroke-width="2" stroke="rgb(0,0,0)" />
	<line x1="50" y1="75" x2="50" y2="81.25" stroke-width="2" stroke="rgb(0,0,0)" />
	<line x1="50" y1="68.75" x2="50" y2="75" stroke-width="2" stroke="rgb(0,0,0)" />
	<line x1="50" y1="62.5" x2="50" y2="68.75" stroke-width="2" stroke="rgb(0,0,0)" />
	<line x1="50" y1="62.5" x2="56.25" y2="56.25" stroke-width="2" stroke="rgb(0,0,0)" />
	<line x1="50" y1="56.25" x2="50" y2="62.5" stroke-width="2" stroke="rgb(0,0,0)" />
	<line x1="50" y1="56.25" x2="56.25" y2="56.25" stroke-width="2" stroke="rgb(0,0,0)" />
	<line x1="50" y1="50" x2="50" y2="56.25" stroke-width="2" stroke="rgb(0,0,0)" />
	<line x1="50" y1="50" x2="56.25" y2="50" stroke-width="2" stroke="rgb(0,0,0)" />
	<line x1="50" y1="43.75" x2="50" y2="50" stroke-width="2" stroke="rgb(0,0,0)" />
	<line x1="50" y1="43.75" x2="56.25" y2="50" stroke-width="2" stroke="rgb(0,0,0)" />
	<line x1="50" y1="37.5" x2="50" y2="43.75" stroke-width="2" stroke="rgb(0,0,0)" />
	<line x1="50" y1="31.25" x2="50" y2="37.5" stroke-width="2" stroke="rgb(0,0,0)" />
	<line x1="50" y1="25" x2="50" y2="31.25" stroke-width="2" stroke="rgb(0,0,0)" />
	<line x1="50" y1="18.75" x2="50" y2="25" stroke-width="2" stroke="rgb(0,0,0)" />
	<line x1="50" y1="12.5" x2="56.25" y2="18.75" stroke-width="2" stroke="rgb(0,0,0)" />
	<line x1="50" y1="12.5" x2="56.25" y2="12.5" stroke-width="2" stroke="rgb(0,0,0)" />
	<line x1="50" y1="6.25" x2="56.25" y2="6.25" stroke-width="2" stroke="rgb(0,0,0)" />
	<line x1="56.25" y1="100" x2="62.5" y2="100" stroke-width="2" stroke="rgb(0,0,0)" />
	<line x1="56.25" y1="93.75" x2="62.5" y2="93.75" stroke-width="2" stroke="rgb(0,0,0)" />
	<line x1="56.25" y1="87.5" x2="56.25" y2="93.75" stroke-width="2" stroke="rgb(0,0,0)" />
	<line x1="56.25" y1="87.5" x2="62.5" y2="87.5" stroke-width="2" stroke="rgb(0,0,0)" />
	<line x1="56.25" y1="81.25" x2="56.25" y2="87.5" stroke-width="2" stroke="rgb(0,0,0)" />
	<line x1="56.25" y1="81.25" x2="62.5" y2="81.25" stroke-width="2" stroke="rgb(0,0,0)" />
	<line x1="56.25" y1="75" x2="56.25" y2="81.25" stroke-width="2" stroke="rgb(0,0,0)" />
	<line x1="56.25" y1="75" x2="62.5" y2="75" stroke-width="2" stroke="rgb(0,0,0)" />
	<line x1="56.25" y1="68.75" x2="56.25" y2="75" stroke-width="2" stroke="rgb(0,0,0)" />
	<line x1="56.25" y1="68.75" x2="62.5" y2="68.75" stroke-width="2" stroke="rgb(0,0,0)" />
	<line x1="56.25" y1="62.5" x2="56.25" y2="68.75" stroke-width="2" stroke="rgb(0,0,0)" />
	<line x1="56.25" y1="62.5" x2="62.5" y2="62.5" stroke-width="2" stroke="rgb(0,0,0)" />
	<line x1="56.25" y1="56.25" x2="62.5" y2="56.25" stroke-width="2" stroke="rgb(0,0,0)" />
	<line x1="56.25" y1="50" x2="56.25" y2="56.25" stroke-width="2" stroke="rgb(0,0,0)" />
	<line x1="56.25" y1="50" x2="62.5" y2="50" stroke-width="2" stroke="rgb(0,0,0)" />
	<line x1="56.25" y1="43.75" x2="62.5" y2="43.75" stroke-width="2" stroke="rgb(0,0,0)" />
	<line x1="56.25" y1="37.5" x2="56.25" y2="43.75" stroke-width="2" stroke="rgb(0,0,0)" />
	<line x1="56.25" y1="37.5" x2="62.5" y2="37.5" stroke-width="2" stroke="rgb(0,0,0)" />
	<line x1="56.25" y1="31.25" x2="56.25" y2="37.5" stroke-width="2" stroke="rgb(0,0,0)" />
	<line x1="56.25" y1="31.25" x2="62.5" y2="31.25" stroke-width="2" stroke="rgb(0,0,0)" />
	<line x1="56.25" y1="25" x2="56.25" y2="31.25" stroke-width="2" stroke="rgb(0,0,0)" />
	<line x1="56.25" y1="25" x2="62.5" y2="25" stroke-width="2" stroke="rgb(0,0,0)" />
	<line x1="56.25" y1="18.75" x2="56.25" y2="25" stroke-width="2" stroke="rgb(0,0,0)" />
	<line x1="56.25" y1="18.75" x2="62.5" y2="18.75" stroke-width="2" stroke="rgb(0,0,0)" />
	<line x1="56.25" y1="12.5" x2="56.25" y2="18.75" stroke-width="2" stroke="rgb(0,0,0)" />
	<line x1="56.25" y1="12.5" x2="62.5" y2="12.5" stroke-width="2" stroke="rgb(0,0,0)" />
	<line x1="56.25" y1="6.25" x2="62.5" y2="6.25" stroke-width="2" stroke="rgb(0,0,0)" />
	<line x1="62.5" y1="100" x2="68.75" y2="93.75" stroke-width="2" stroke="rgb(0,0,0)" />
	<line x1="62.5" y1="93.75" x2="68.75" y2="87.5" stroke-width="2" stroke="rgb(0,0,0)" />
	<line x1="62.5" y1="87.5" x2="62.5" y2="93.75" stroke-width="2" stroke="rgb(0,0,0)" />
	<line x1="62.5" y1="87.5" x2="68.75" y2="87.5" stroke-width="2" stroke="rgb(0,0,0)" />
	<line x1="62.5" y1="81.25" x2="62.5" y2="87.5" stroke-width="2" stroke="rgb(0,0,0)" />
	<line x1="62.5" y1="81.25" x2="68.75" y2="81.25" stroke-width="2" stroke="rgb(0,0,0)" />
	<line x1="62.5" y1="75" x2="62.5" y2="81.25" stroke-width="2" stroke="rgb(0,0,0)" />
	<line x1="62.5" y1="75" x2="68.75" y2="75" stroke-width="2" stroke="rgb(0,0,0)" />
	<line x1="62.5" y1="68.75" x2="62.5" y2="75" stroke-width="2" stroke="rgb(0,0,0)" />
	<line x1="62.5" y1="68.75" x2="68.75" y2="68.75" stroke-width="2" stroke="rgb(0,0,0)" />
	<line x1="62.5" y1="62.5" x2="62.5" y2="68.75" stroke-width="2" stroke="rgb(0,0,0)" />
	<line x1="62.5" y1="62.5" x2="68.75" y2="62.5" stroke-width="2" stroke="rgb(0,0,0)" />
	<line x1="62.5" y1="56.25" x2="68.75" y2="56.25" stroke-width="2" stroke="rgb(0,0,0)" />
	<line x1="62.5" y1="50" x2="62.5" y2="56.25" stroke-width="2" stroke="rgb(0,0,0)" />
	<line x1="62.5" y1="50" x2="68.75" y2="50" stroke-width="2" stroke="rgb(0,0,0)" />
	<line x1="62.5" y1="43.75" x2="68.75" y2="43.75" stroke-width="2" stroke="rgb(0,0,0)" />
	<line x1="62.5" y1="37.5" x2="62.5" y2="43.75" stroke-width="2" stroke="rgb(0,0,0)" />
	<line x1="62.5" y1="37.5" x2="68.75" y2="37.5" stroke-width="2" stroke="rgb(0,0,0)" />
	<line x1="62.5" y1="31.25" x2="62.5" y2="37.5" stroke-width="2" stroke="rgb(0,0,0)" />
	<line x1="62.5" y1="31.25" x2="68.75" y2="31.25" stroke-width="2" stroke="rgb(0,0,0)" />
	<line x1="62.5" y1="25" x2="62.5" y2="31.25" stroke-width="2" stroke="rgb(0,0,0)" />
	<line x1="62.5" y1="25" x2="68.75" y2="25" stroke-width="2" stroke="rgb(0,0,0)" />
	<line x1="62.5" y1="18.75" x2="62.5" y2="25" stroke-width="2" stroke="rgb(0,0,0)" />
	<line x1="62.5" y1="18.75" x2="68.75" y2="18.75" stroke-width="2" stroke="rgb(0,0,0)" />
	<line x1="62.5" y1="12.5" x2="62.5" y2="18.75" stroke-width="2" stroke="rgb(0,0,0)" />
	<line x1="62.5" y1="12.5" x2="68.75" y2="18.75" stroke-width="2" stroke="rgb(0,0,0)" />
	<line x1="62.5" y1="6.25" x2="68.75" y2="12.5" stroke-width="2" stroke="rgb(0,0,0)" />
	<line x1="68.75" y1="100" x2="75" y2="100" stroke-width="2" stroke="rgb(0,0,0)" />
	<line x1="68.75" y1="93.75" x2="75" y2="93.75" stroke-width="2" stroke="rgb(0,0,0)" />
	<line x1="68.75" y1="87.5" x2="75" y2="87.5" stroke-width="2" stroke="rgb(0,0,0)" />
	<line x1="68.75" y1="81.25" x2="68.75" y2="87.5" stroke-width="2" stroke="rgb(0,0,0)" />
	<line x1="68.75" y1="81.25" x2="75" y2="81.25" stroke-width="2" stroke="rgb(0,0,0)" />
	<line x1="68.75" y1="75" x2="68.75" y2="81.25" stroke-width="2" stroke="rgb(0,0,0)" />
	<line x1="68.75" y1="75" x2="75" y2="75" stroke-width="2" stroke="rgb(0,0,0)" />
	<line x1="68.75" y1="68.75" x2="68.75" y2="75" stroke-width="2" stroke="rgb(0,0,0)" />
	<line x1="68.75" y1="68.75" x2="75" y2="68.75" stroke-width="2" stroke="rgb(0,0,0)" />
	<line x1="68.75" y1="62.5" x2="68.75" y2="68.75" stroke-width="2" stroke="rgb(0,0,0)" />
	<line x1="68.75" y1="62.5" x2="75" y2="62.5" stroke-width="2" stroke="rgb(0,0,0)" />
	<line x1="68.75" y1="56.25" x2="75" y2="56.25" stroke-width="2" stroke="rgb(0,0,0)" />
	<line x1="68.75" y1="50" x2="68.75" y2="56.25" stroke-width="2" stroke="rgb(0,0,0)" />
	<line x1="68.75" y1="50" x2="75" y2="50" stroke-width="2" stroke="rgb(0,0,0)" />
	<line x1="68.75" y1="43.75" x2="75" y2="43.75" stroke-width="2" stroke="rgb(0,0,0)" />
	<line x1="68.75" y1="37.5" x2="68.75" y2="43.75" stroke-width="2" stroke="rgb(0,0,0)" />
	<line x1="68.75" y1="37.5" x2="75" y2="37.5" stroke-width="2" stroke="rgb(0,0,0)" />
	<line x1="68.75" y1="31.25" x2="68.75" y2="37.5" stroke-width="2" stroke="rgb(0,0,0)" />
	<line x1="68.75" y1="31.25" x2="75" y2="31.25" stroke-width="2" stroke="rgb(0,0,0)" />
	<line x1="68.75" y1="25" x2="68.75" y2="31.25" stroke-width="2" stroke="rgb(0,0,0)" />
	<line x1="68.75" y1="25" x2="75" y2="25" stroke-width="2" stroke="rgb(0,0,0)" />
	<line x1="68.75" y1="18.75" x2="68.75" y2="25" stroke-width="2" stroke="rgb(0,0,0)" />
	<line x1="68.75" y1="18.75" x2="75" y2="18.75" stroke-width="2" stroke="rgb(0,0,0)" />
	<line x1="68.75" y1="12.5" x2="75" y2="12.5" stroke-width="2" stroke="rgb(0,0,0)" />
	<line x1="68.75" y1="6.25" x2="75" y2="6.25" stroke-width="2" stroke="rgb(0,0,0)" />
	<line x1="75" y1="100" x2="81.25" y2="100" stroke-width="2" stroke="rgb(0,0,0)" />
	<line x1="75" y1="100" x2="81.25" y2="93.75" stroke-width="2" stroke="rgb(0,0,0)" />
	<line x1="75" y1="93.75" x2="81.25" y2="87.5" stroke-width="2" stroke="rgb(0,0,0)" />
	<line x1="75" y1="87.5" x2="81.25" y2="81.25" stroke-width="2" stroke="rgb(0,0,0)" />
	<line x1="75" y1="81.25" x2="75" y2="87.5" stroke-width="2" stroke="rgb(0,0,0)" />
	<line x1="75" y1="81.25" x2="81.25" y2="81.25" stroke-width="2" stroke="rgb(0,0,0)" />
	<line x1="75" y1="75" x2="75" y2="81.25" stroke-width="2" stroke="rgb(0,0,0)" />
	<line x1="75" y1="75" x2="81.25" y2="75" stroke-width="2" stroke="rgb(0,0,0)" />
	<line x1="75" y1="68.75" x2="75" y2="75" stroke-width="2" stroke="rgb(0,0,0)" />
	<line x1="75" y1="68.75" x2="81.25" y2="68.75" stroke-width="2" stroke="rgb(0,0,0)" />
	<line x1="75" y1="62.5" x2="75" y2="68.75" stroke-width="2" stroke="rgb(0,0,0)" />
	<line x1="75" y1="62.5" x2="81.25" y2="62.5" stroke-width="2" stroke="rgb(0,0,0)" />
	<line x1="75" y1="56.25" x2="81.25" y2="56.25" stroke-width="2" stroke="rgb(0,0,0)" />
	<line x1="75" y1="50" x2="75" y2="56.25" stroke-width="2" stroke="rgb(0,0,0)" />
	<line x1="75" y1="50" x2="81.25" y2="50" stroke-width="2" stroke="rgb(0,0,0)" />
	<line x1="75" y1="43.75" x2="81.25" y2="43.75" stroke-width="2" stroke="rgb(0,0,0)" />
	<line x1="75" y1="37.5" x2="75" y2="43.75" stroke-width="2" stroke="rgb(0,0,0)" />
	<line x1="75" y1="37.5" x2="81.25" y2="37.5" stroke-width="2" stroke="rgb(0,0,0)" />
	<line x1="75" y1="31.25" x2="75" y2="37.5" stroke-width="2" stroke="rgb(0,0,0)" />
	<line x1="75" y1="31.25" x2="81.25" y2="31.25" stroke-width="2" stroke="rgb(0,0,0)" />
	<line x1="75" y1="25" x2="75" y2="31.25" stroke-width="2" stroke="rgb(0,0,0)" />
	<line x1="75" y1="25" x2="81.25" y2="25" stroke-width="2" stroke="rgb(0,0,0)" />
	<line x1="75" y1="18.75" x2="75" y2="25" stroke-width="2" stroke="rgb(0,0,0)" />
	<line x1="75" y1="18.75" x2="81.25" y2="25" stroke-width="2" stroke="rgb(0,0,0)" />
	<line x1="75" y1="12.5" x2="81.25" y2="18.75" stroke-width="2" stroke="rgb(0,0,0)" />
	<line x1="75" y1="6.25" x2="81.25" y2="12.5" stroke-width="2" stroke="rgb(0,0,0)" />
	<line x1="75" y1="6.25" x2="81.25" y2="6.25" stroke-width="2" stroke="rgb(0,0,0)" />
	<line x1="81.25" y1="100" x2="87.5" y2="100" stroke-width="2" stroke="rgb(0,0,0)" />
	<line x1="81.25" y1="93.75" x2="81.25" y2="100" stroke-width="2" stroke="rgb(0,0,0)" />
	<line x1="81.25" y1="93.75" x2="87.5" y2="93.75" stroke-width="2" stroke="rgb(0,0,0)" />
	<line x1="81.25" y1="93.75" x2="87.5" y2="87.5" stroke-width="2" stroke="rgb(0,0,0)" />
	<line x1="81.25" y1="87.5" x2="87.5" y2="81.25" stroke-width="2" stroke="rgb(0,0,0)" />
	<line x1="81.25" y1="75" x2="81.25" y2="81.25" stroke-width="2" stroke="rgb(0,0,0)" />
	<line x1="81.25" y1="75" x2="87.5" y2="68.75" stroke-width="2" stroke="rgb(0,0,0)" />
	<line x1="81.25" y1="68.75" x2="81.25" y2="75" stroke-width="2" stroke="rgb(0,0,0)" />
	<line x1="81.25" y1="68.75" x2="87.5" y2="68.75" stroke-width="2" stroke="rgb(0,0,0)" />
	<line x1="81.25" y1="62.5" x2="81.25" y2="68.75" stroke-width="2" stroke="rgb(0,0,0)" />
	<line x1="81.25" y1="62.5" x2="87.5" y2="62.5" stroke-width="2" stroke="rgb(0,0,0)" />
	<line x1="81.25" y1="62.5" x2="87.5" y2="56.25" stroke-width="2" stroke="rgb(0,0,0)" />
	<line x1="81.25" y1="50" x2="81.25" y2="56.25" stroke-width="2" stroke="rgb(0,0,0)" />
	<line x1="81.25" y1="43.75" x2="87.5" y2="50" stroke-width="2" stroke="rgb(0,0,0)" />
	<line x1="81.25" y1="43.75" x2="87.5" y2="43.75" stroke-width="2" stroke="rgb(0,0,0)" />
	<line x1="81.25" y1="37.5" x2="81.25" y2="43.75" stroke-width="2" stroke="rgb(0,0,0)" />
	<line x1="81.25" y1="37.5" x2="87.5" y2="37.5" stroke-width="2" stroke="rgb(0,0,0)" />
	<line x1="81.25" y1="31.25" x2="81.25" y2="37.5" stroke-width="2" stroke="rgb(0,0,0)" />
	<line x1="81.25" y1="31.25" x2="87.5" y2="37.5" stroke-width="2" stroke="rgb(0,0,0)" />
	<line x1="81.25" y1="25" x2="81.25" y2="31.25" stroke-width="2" stroke="rgb(0,0,0)" />
	<line x1="81.25" y1="18.75" x2="87.5" y2="25" stroke-width="2" stroke="rgb(0,0,0)" />
	<line x1="81.25" y1="12.5" x2="87.5" y2="18.75" stroke-width="2" stroke="rgb(0,0,0)" />
	<line x1="81.25" y1="12.5" x2="87.5" y2="12.5" stroke-width="2" stroke="rgb(0,0,0)" />
	<line x1="81.25" y1="6.25" x2="81.25" y2="12.5" stroke-width="2" stroke="rgb(0,0,0)" />
	<line x1="81.25" y1="6.25" x2="87.5" y2="6.25" stroke-width="2" stroke="rgb(0,0,0)" />
	<line x1="87.5" y1="100" x2="93.75" y2="100" stroke-width="2" stroke="rgb(0,0,0)" />
	<line x1="87.5" y1="93.75" x2="87.5" y2="100" stroke-width="2" stroke="rgb(0,0,0)" />
	<line x1="87.5" y1="93.75" x2="93.75" y2="93.75" stroke-width="2" stroke="rgb(0,0,0)" />
	<line x1="87.5" y1="87.5" x2="87.5" y2="93.75" stroke-width="2" stroke="rgb(0,0,0)" />
	<line x1="87.5" y1="87.5" x2="93.75" y2="87.5" stroke-width="2" stroke="rgb(0,0,0)" />
	<line x1="87.5" y1="87.5" x2="93.75" y2="81.25" stroke-width="2" stroke="rgb(0,0,0)" />
	<line x1="87.5" y1="75" x2="87.5" y2="81.25" stroke-width="2" stroke="rgb(0,0,0)" />
	<line x1="87.5" y1="75" x2="93.75" y2="68.75" stroke-width="2" stroke="rgb(0,0,0)" />
	<line x1="87.5" y1="62.5" x2="87.5" y2="68.75" stroke-width="2" stroke="rgb(0,0,0)" />
	<line x1="87.5" y1="56.25" x2="87.5" y2="62.5" stroke-width="2" stroke="rgb(0,0,0)" />
	<line x1="87.5" y1="50" x2="87.5" y2="56.25" stroke-width="2" stroke="rgb(0,0,0)" />
	<line x1="87.5" y1="43.75" x2="87.5" y2="50" stroke-width="2" stroke="rgb(0,0,0)" />
	<line x1="87.5" y1="37.5" x2="87.5" y2="43.75" stroke-width="2" stroke="rgb(0,0,0)" />
	<line x1="87.5" y1="31.25" x2="93.75" y2="37.5" stroke-width="2" stroke="rgb(0,0,0)" />
	<line x1="87.5" y1="25" x2="87.5" y2="31.25" stroke-width="2" stroke="rgb(0,0,0)" />
	<line x1="87.5" y1="18.75" x2="93.75" y2="25" stroke-width="2" stroke="rgb(0,0,0)" />
	<line x1="87.5" y1="18.75" x2="93.75" y2="18.75" stroke-width="2" stroke="rgb(0,0,0)" />
	<line x1="87.5" y1="12.5" x2="87.5" y2="18.75" stroke-width="2" stroke="rgb(0,0,0)" />
	<line x1="87.5" y1="12.5" x2="93.75" y2="12.5" stroke-width="2" stroke="rgb(0,0,0)" />
	<line x1="87.5" y1="6.25" x2="87.5" y2="12.5" stroke-width="2" stroke="rgb(0,0,0)" />
	<line x1="87.5" y1="6.25" x2="93.75" y2="6.25" stroke-width="2" stroke="rgb(0,0,0)" />
	<line x1="93.75" y1="93.75" x2="93.75" y2="100" stroke-width="2" stroke="rgb(0,0,0)" />
	<line x1="93.75" y1="87.5" x2="93.75" y2="93.75" stroke-width="2" stroke="rgb(0,0,0)" />
	<line x1="93.75" y1="81.25" x2="93.75" y2="87.5" stroke-width="2" stroke="rgb(0,0,0)" />
	<line x1="93.75" y1="75" x2="93.75" y2="81.25" stroke-width="2" stroke="rgb(0,0,0)" />
	<line x1="93.75" y1="62.5" x2="93.75" y2="68.75" stroke-width="2" stroke="rgb(0,0,0)" />
	<line x1="93.75" y1="56.25" x2="93.75" y2="62.5" stroke-width="2" stroke="rgb(0,0,0)" />
	<line x1="93.75" y1="50" x2="93.75" y2="56.25" stroke-width="2" stroke="rgb(0,0,0)" />
	<line x1="93.75" y1="43.75" x2="93.75" y2="50" stroke-width="2" stroke="rgb(0,0,0)" />
	<line x1="93.75" y1="37.5" x2="93.75" y2="43.75" stroke-width="2" stroke="rgb(0,0,0)" />
	<line x1="93.75" y1="25" x2="93.75" y2="31.25" stroke-width="2" stroke="rgb(0,0,0)" />
	<line x1="93.75" y1="18.75" x2="93.75" y2="25" stroke-width="2" stroke="rgb(0,0,0)" />
	<line x1="93.75" y1="12.5" x2="93.75" y2="18.75" stroke-width="2" stroke="rgb(0,0,0)" />
	<line x1="93.75" y1="6.25" x2="93.75" y2="12.5" stroke-width="2" stroke="rgb(0,0,0)" />
</svg>
