<?xml version="1.0" standalone="no" ?>
<!DOCTYPE svg PUBLIC "-//W3C//DTD SVG 1.1//EN" "http://www.w3.org/Graphics/SVG/1.1/DTD/svg11.dtd">
<svg width="100px" height="100px" xmlns="http://www.w3.org/2000/svg" version="1.1" >
	<path d="M0,100 6.25,100 12.5,100 9.375,90.625 0,87.5 0,93.75 z " fill-rule="evenodd" fill="rgb(0,0,0)" stroke-width="0.5" stroke="rgb(0,0,0)" />
	<path d="M0,87.5 9.375,90.625 15.625,84.375 12.5,75 0,75 0,81.25 z " fill-rule="evenodd" fill="rgb(0,0,0)" stroke-width="0.5" stroke="rgb(0,0,0)" />
	<path d="M0,75 12.5,75 12.5,62.5 0,62.5 0,68.75 z " fill-rule="evenodd" fill="rgb(0,0,0)" stroke-width="0.5" stroke="rgb(0,0,0)" />
	<path d="M0,62.5 12.5,62.5 12.5,50 0,50 0,56.25 z " fill-rule="evenodd" fill="rgb(0,0,0)" stroke-width="0.5" stroke="rgb(0,0,0)" />
	<path d="M0,50 12.5,50 12.5,37.5 0,37.5 0,43.75 z " fill-rule="evenodd" fill="rgb(0,0,0)" stroke-width="0.5" stroke="rgb(0,0,0)" />
	<path d="M0,37.5 12.5,37.5 12.5,25 0,25 0,31.25 z " fill-rule="evenodd" fill="rgb(0,0,0)" stroke-width="0.5" stroke="rgb(0,0,0)" />
	<path d="M0,25 12.5,25 15.625,15.625 9.375,9.375 0,12.5 0,18.75 z " fill-rule="evenodd" fill="rgb(0,0,0)" stroke-width="0.5" stroke="rgb(0,0,0)" />
	<path d="M0,12.5 9.375,9.375 12.5,0 6.25,0 0,0 0,6.25 z " fill-rule="evenodd" fill="rgb(0,0,0)" stroke-width="0.5" stroke="rgb(0,0,0)" />
	<path d="M12.5,100 18.75,100 25,100 25,87.5 15.625,84.375 9.375,90.625 z " fill-rule="evenodd" fill="rgb(0,0,0)" stroke-width="0.5" stroke="rgb(0,0,0)" />
	<path d="M15.625,84.375 25,87.5 25,75 12.5,75 z " fill-rule="evenodd" fill="rgb(255,0,0)" stroke-width="0.5" stroke="rgb(255,0,0)" />
	<path d="M12.5,75 25,75 25,62.5 12.5,62.5 z " fill-rule="evenodd" fill="rgb(255,0,0)" stroke-width="0.5" stroke="rgb(255,0,0)" />
	<path d="M12.5,62.5 25,62.5 25,50 12.5,50 z " fill-rule="evenodd" fill="rgb(255,0,0)" stroke-width="0.5" stroke="rgb(255,0,0)" />
	<path d="M12.5,50 25,50 25,37.5 12.5,37.5 z " fill-rule="evenodd" fill="rgb(255,0,0)" stroke-width="0.5" stroke="rgb(255,0,0)" />
	<path d="M12.5,37.5 25,37.5 25,25 12.5,25 z " fill-rule="evenodd" fill="rgb(255,0,0)" stroke-width="0.5" stroke="rgb(255,0,0)" />
	<path d="M12.5,25 25,25 25,12.5 15.625,15.625 z " fill-rule="evenodd" fill="rgb(255,0,0)" stroke-width="0.5" stroke="rgb(255,0,0)" />
	<path d="M9.375,9.375 15.625,15.625 25,12.5 25,0 18.75,0 12.5,0 z " fill-rule="evenodd" fill="rgb(0,0,0)" stroke-width="0.5" stroke="rgb(0,0,0)" />
	<path d="M25,100 31.25,100 37.5,100 37.5,87.5 25,87.5 z " fill-rule="evenodd" fill="rgb(0,0,0)" stroke-width="0.5" stroke="rgb(0,0,0)" />
	<path d="M25,87.5 37.5,87.5 37.5,75 25,75 z " fill-rule="evenodd" fill="rgb(255,0,0)" stroke-width="0.5" stroke="rgb(255,0,0)" />
	<path d="M25,75 37.5,75 37.5,62.5 25,62.5 z " fill-rule="evenodd" fill="rgb(255,0,0)" stroke-width="0.5" stroke="rgb(255,0,0)" />
	<path d="M25,62.5 37.5,62.5 37.5,50 25,50 z " fill-rule="evenodd" fill="rgb(255,0,0)" stroke-width="0.5" stroke="rgb(255,0,0)" />
	<path d="M25,50 37.5,50 37.5,37.5 25,37.5 z " fill-rule="evenodd" fill="rgb(255,0,0)" stroke-width="0.5" stroke="rgb(255,0,0)" />
	<path d="M25,37.5 37.5,37.5 37.5,25 25,25 z " fill-rule="evenodd" fill="rgb(255,0,0)" stroke-width="0.5" stroke="rgb(255,0,0)" />
	<path d="M25,25 37.5,25 37.5,12.5 25,12.5 z " fill-rule="evenodd" fill="rgb(255,0,0)" stroke-width="0.5" stroke="rgb(255,0,0)" />
	<path d="M25,12.5 37.5,12.5 37.5,0 31.25,0 25,0 z " fill-rule="evenodd" fill="rgb(0,0,0)" stroke-width="0.5" stroke="rgb(0,0,0)" />
	<path d="M37.5,100 43.75,100 50,100 50,87.5 37.5,87.5 z " fill-rule="evenodd" fill="rgb(0,0,0)" stroke-width="0.5" stroke="rgb(0,0,0)" />
	<path d="M37.5,87.5 50,87.5 50,75 37.5,75 z " fill-rule="evenodd" fill="rgb(255,0,0)" stroke-width="0.5" stroke="rgb(255,0,0)" />
	<path d="M37.5,75 50,75 50,62.5 37.5,62.5 z " fill-rule="evenodd" fill="rgb(255,0,0)" stroke-width="0.5" stroke="rgb(255,0,0)" />
	<path d="M37.5,62.5 50,62.5 50,50 37.5,50 z " fill-rule="evenodd" fill="rgb(255,0,0)" stroke-width="0.5" stroke="rgb(255,0,0)" />
	<path d="M37.5,50 50,50 50,37.5 37.5,37.5 z " fill-rule="evenodd" fill="rgb(255,0,0)" stroke-width="0.5" stroke="rgb(255,0,0)" />
	<path d="M37.5,37.5 50,37.5 50,25 37.5,25 z " fill-rule="evenodd" fill="rgb(255,0,0)" stroke-width="0.5" stroke="rgb(255,0,0)" />
	<path d="M37.5,25 50,25 50,12.5 37.5,12.5 z " fill-rule="evenodd" fill="rgb(255,0,0)" stroke-width="0.5" stroke="rgb(255,0,0)" />
	<path d="M37.5,12.5 50,12.5 50,0 43.75,0 37.5,0 z " fill-rule="evenodd" fill="rgb(0,0,0)" stroke-width="0.5" stroke="rgb(0,0,0)" />
	<path d="M50,100 56.25,100 62.5,100 62.5,87.5 50,87.5 z " fill-rule="evenodd" fill="rgb(0,0,0)" stroke-width="0.5" stroke="rgb(0,0,0)" />
	<path d="M50,87.5 62.5,87.5 62.5,75 50,75 z " fill-rule="evenodd" fill="rgb(255,0,0)" stroke-width="0.5" stroke="rgb(255,0,0)" />
	<path d="M50,75 62.5,75 62.5,62.5 50,62.5 z " fill-rule="evenodd" fill="rgb(255,0,0)" stroke-width="0.5" stroke="rgb(255,0,0)" />
	<path d="M50,62.5 62.5,62.5 62.5,50 50,50 z " fill-rule="evenodd" fill="rgb(255,0,0)" stroke-width="0.5" stroke="rgb(255,0,0)" />
	<path d="M50,50 62.5,50 62.5,37.5 50,37.5 z " fill-rule="evenodd" fill="rgb(255,0,0)" stroke-width="0.5" stroke="rgb(255,0,0)" />
	<path d="M50,37.5 62.5,37.5 62.5,25 50,25 z " fill-rule="evenodd" fill="rgb(255,0,0)" stroke-width="0.5" stroke="rgb(255,0,0)" />
	<path d="M50,25 62.5,25 62.5,12.5 50,12.5 z " fill-rule="evenodd" fill="rgb(255,0,0)" stroke-width="0.5" stroke="rgb(255,0,0)" />
	<path d="M50,12.5 62.5,12.5 62.5,0 56.25,0 50,0 z " fill-rule="evenodd" fill="rgb(0,0,0)" stroke-width="0.5" stroke="rgb(0,0,0)" />
	<path d="M62.5,100 68.75,100 75,100 75,87.5 62.5,87.5 z " fill-rule="evenodd" fill="rgb(0,0,0)" stroke-width="0.5" stroke="rgb(0,0,0)" />
	<path d="M62.5,87.5 75,87.5 75,75 62.5,75 z " fill-rule="evenodd" fill="rgb(255,0,0)" stroke-width="0.5" stroke="rgb(255,0,0)" />
	<path d="M62.5,75 75,75 75,62.5 62.5,62.5 z " fill-rule="evenodd" fill="rgb(255,0,0)" stroke-width="0.5" stroke="rgb(255,0,0)" />
	<path d="M62.5,62.5 75,62.5 75,50 62.5,50 z " fill-rule="evenodd" fill="rgb(255,0,0)" stroke-width="0.5" stroke="rgb(255,0,0)" />
	<path d="M62.5,50 75,50 75,37.5 62.5,37.5 z " fill-rule="evenodd" fill="rgb(255,0,0)" stroke-width="0.5" stroke="rgb(255,0,0)" />
	<path d="M62.5,37.5 75,37.5 75,25 62.5,25 z " fill-rule="evenodd" fill="rgb(255,0,0)" stroke-width="0.5" stroke="rgb(255,0,0)" />
	<path d="M62.5,25 75,25 75,12.5 62.5,12.5 z " fill-rule="evenodd" fill="rgb(255,0,0)" stroke-width="0.5" stroke="rgb(255,0,0)" />
	<path d="M62.5,12.5 75,12.5 75,0 68.75,0 62.5,0 z " fill-rule="evenodd" fill="rgb(0,0,0)" stroke-width="0.5" stroke="rgb(0,0,0)" />
	<path d="M75,100 81.25,100 87.5,100 90.625,90.625 84.375,84.375 75,87.5 z " fill-rule="evenodd" fill="rgb(0,0,0)" stroke-width="0.5" stroke="rgb(0,0,0)" />
	<path d="M75,87.5 84.375,84.375 87.5,75 75,75 z " fill-rule="evenodd" fill="rgb(255,0,0)" stroke-width="0.5" stroke="rgb(255,0,0)" />
	<path d="M75,75 87.5,75 87.5,62.5 75,62.5 z " fill-rule="evenodd" fill="rgb(255,0,0)" stroke-width="0.5" stroke="rgb(255,0,0)" />
	<path d="M75,62.5 87.5,62.5 87.5,50 75,50 z " fill-rule="evenodd" fill="rgb(255,0,0)" stroke-width="0.5" stroke="rgb(255,0,0)" />
	<path d="M75,50 87.5,50 87.5,37.5 75,37.5 z " fill-rule="evenodd" fill="rgb(255,0,0)" stroke-width="0.5" stroke="rgb(255,0,0)" />
	<path d="M75,37.5 87.5,37.5 87.5,25 75,25 z " fill-rule="evenodd" fill="rgb(255,0,0)" stroke-width="0.5" stroke="rgb(255,0,0)" />
	<path d="M75,25 87.5,25 84.375,15.625 75,12.5 z " fill-rule="evenodd" fill="rgb(255,0,0)" stroke-width="0.5" stroke="rgb(255,0,0)" />
	<path d="M75,12.5 84.375,15.625 90.625,9.375 87.5,0 81.25,0 75,0 z " fill-rule="evenodd" fill="rgb(0,0,0)" stroke-width="0.5" stroke="rgb(0,0,0)" />
	<path d="M87.5,100 93.75,100 100,100 100,93.75 100,87.5 90.625,90.625 z " fill-rule="evenodd" fill="rgb(0,0,0)" stroke-width="0.5" stroke="rgb(0,0,0)" />
	<path d="M84.375,84.375 90.625,90.625 100,87.5 100,81.25 100,75 87.5,75 z " fill-rule="evenodd" fill="rgb(0,0,0)" stroke-width="0.5" stroke="rgb(0,0,0)" />
	<path d="M87.5,75 100,75 100,68.75 100,62.5 87.5,62.5 z " fill-rule="evenodd" fill="rgb(0,0,0)" stroke-width="0.5" stroke="rgb(0,0,0)" />
	<path d="M87.5,62.5 100,62.5 100,56.25 100,50 87.5,50 z " fill-rule="evenodd" fill="rgb(0,0,0)" stroke-width="0.5" stroke="rgb(0,0,0)" />
	<path d="M87.5,50 100,50 100,43.75 100,37.5 87.5,37.5 z " fill-rule="evenodd" fill="rgb(0,0,0)" stroke-width="0.5" stroke="rgb(0,0,0)" />
	<path d="M87.5,37.5 100,37.5 100,31.25 100,25 87.5,25 z " fill-rule="evenodd" fill="rgb(0,0,0)" stroke-width="0.5" stroke="rgb(0,0,0)" />
	<path d="M87.5,25 100,25 100,18.75 100,12.5 90.625,9.375 84.375,15.625 z " fill-rule="evenodd" fill="rgb(0,0,0)" stroke-width="0.5" stroke="rgb(0,0,0)" />
	<path d="M90.625,9.375 100,12.5 100,6.25 100,0 93.75,0 87.5,0 z " fill-rule="evenodd" fill="rgb(0,0,0)" stroke-width="0.5" stroke="rgb(0,0,0)" />
</svg>
