<?xml version="1.0" encoding="UTF-8" standalone="no"?>
<svg
   xmlns:dc="http://purl.org/dc/elements/1.1/"
   xmlns:cc="http://creativecommons.org/ns#"
   xmlns:rdf="http://www.w3.org/1999/02/22-rdf-syntax-ns#"
   xmlns:svg="http://www.w3.org/2000/svg"
   xmlns="http://www.w3.org/2000/svg"
   xmlns:sodipodi="http://sodipodi.sourceforge.net/DTD/sodipodi-0.dtd"
   xmlns:inkscape="http://www.inkscape.org/namespaces/inkscape"
   width="100px"
   height="100px"
   version="1.1"
   id="svg2"
   inkscape:version="0.91 r13725"
   sodipodi:docname="boo_shapes.svg">
  <metadata
     id="metadata62">
    <rdf:RDF>
      <cc:Work
         rdf:about="">
        <dc:format>image/svg+xml</dc:format>
        <dc:type
           rdf:resource="http://purl.org/dc/dcmitype/StillImage" />
      </cc:Work>
    </rdf:RDF>
  </metadata>
  <defs
     id="defs60" />
  <sodipodi:namedview
     pagecolor="#ffffff"
     bordercolor="#666666"
     borderopacity="1"
     objecttolerance="10"
     gridtolerance="10"
     guidetolerance="10"
     inkscape:pageopacity="0"
     inkscape:pageshadow="2"
     inkscape:window-width="1600"
     inkscape:window-height="837"
     id="namedview58"
     showgrid="false"
     inkscape:zoom="4.72"
     inkscape:cx="31.873252"
     inkscape:cy="48.198021"
     inkscape:window-x="-8"
     inkscape:window-y="-8"
     inkscape:window-maximized="1"
     inkscape:current-layer="layer7" />
  <g
     inkscape:groupmode="layer"
     id="layer1"
     inkscape:label="Background"
     style="display:inline"
     sodipodi:insensitive="true">
    <path
       d="m 0,0 0,2.7773438 0,2.7773437 0,2.7792969 0,2.7773436 0,2.777344 0,2.777344 0,2.779296 0,2.777344 L 0,25 l 0,2.777344 0,2.777344 0,2.779296 0,2.777344 0,2.777344 0,2.777344 0,2.779296 0,2.777344 L 0,50 l 0,2.777344 0,2.777344 0,2.779296 0,2.777344 0,2.777344 0,2.777344 0,2.779296 0,2.777344 L 0,75 l 0,2.777344 0,2.777344 0,2.779296 0,2.777344 0,2.777344 0,2.777344 0,2.779296 0,2.777344 L 0,100 l 2.7773438,0 2.7773437,0 2.7792969,0 2.7773436,0 2.777344,0 2.777344,0 2.779296,0 2.777344,0 2.777344,0 2.777344,0 2.777344,0 2.779296,0 2.777344,0 2.777344,0 2.777344,0 2.779296,0 2.777344,0 2.777344,0 2.777344,0 2.777344,0 2.779296,0 2.777344,0 2.777344,0 2.777344,0 2.779296,0 2.777344,0 2.777344,0 2.777344,0 2.777344,0 2.779296,0 2.777344,0 2.777344,0 2.777344,0 2.779296,0 2.777344,0 2.777344,0 0,-2.777344 0,-2.777344 0,-2.779296 0,-2.777344 0,-2.777344 0,-2.777344 0,-2.779296 0,-2.777344 L 100,75 l 0,-2.777344 0,-2.777344 0,-2.779296 0,-2.777344 0,-2.777344 0,-2.777344 0,-2.779296 0,-2.777344 L 100,50 l 0,-2.777344 0,-2.777344 0,-2.779296 0,-2.777344 0,-2.777344 0,-2.777344 0,-2.779296 0,-2.777344 L 100,25 l 0,-2.777344 0,-2.777344 0,-2.779296 0,-2.777344 0,-2.777344 0,-2.7773436 0,-2.7792969 0,-2.7773437 L 100,0 97.222656,0 94.445312,0 91.666016,0 88.888672,0 86.111328,0 83.333984,0 80.554688,0 77.777344,0 75,0 72.222656,0 69.445312,0 66.666016,0 63.888672,0 61.111328,0 58.333984,0 55.554688,0 52.777344,0 50,0 47.222656,0 44.445312,0 41.666016,0 38.888672,0 36.111328,0 33.333984,0 30.554688,0 27.777344,0 25,0 22.222656,0 19.445312,0 16.666016,0 13.888672,0 11.111328,0 8.3339844,0 5.5546875,0 2.7773438,0 0,0 Z m 38.888672,5.5546875 5.55664,0 5.554688,0 5.554688,0 4.167968,1.390625 L 62.5,9.7226562 66.666016,11.111328 70.833984,12.5 l 2.777344,2.777344 2.777344,2.777344 2.777344,2.779296 2.779296,2.777344 1.388672,4.166016 1.388672,4.167968 L 87.5,34.722656 90.277344,37.5 l 2.777344,2.777344 1.390624,4.167968 -1.390624,4.166016 -2.777344,2.777344 0,2.777344 2.777344,2.779296 1.390624,4.166016 -1.390624,4.166016 -2.777344,2.777344 -1.388672,4.167968 L 87.5,76.388672 84.722656,79.166016 81.945312,81.945312 77.777344,83.333984 73.611328,84.722656 70.833984,87.5 66.666016,88.888672 62.5,90.277344 l -2.777344,2.777344 -4.167968,1.390624 -5.554688,0 -5.554688,0 -5.55664,0 L 34.722656,93.054688 31.945312,90.277344 27.777344,88.888672 23.611328,87.5 20.833984,84.722656 18.054688,81.945312 15.277344,79.166016 12.5,76.388672 11.111328,72.222656 9.7226562,68.054688 6.9453125,65.277344 l -1.390625,-4.166016 0,-5.55664 0,-5.554688 0,-5.554688 0,-5.55664 1.390625,-4.166016 L 9.7226562,31.945312 11.111328,27.777344 12.5,23.611328 15.277344,20.833984 18.054688,18.054688 20.833984,15.277344 23.611328,12.5 l 4.166016,-1.388672 4.167968,-1.3886718 2.777344,-2.7773437 4.166016,-1.390625 z"
       id="path4"
       style="fill:#c4c4c4;fill-opacity:1;stroke:#c4c4c4;stroke-opacity:1"
       inkscape:connector-curvature="0" />
  </g>
  <g
     inkscape:groupmode="layer"
     id="layer6"
     inkscape:label="White"
     style="display:inline"
     sodipodi:insensitive="true">
    <path
       style="fill:#f8f8f8;fill-rule:evenodd;stroke:#f8f8f8;stroke-width:1;stroke-opacity:1"
       d="m 38.888672,22.222656 c -1.444888,0.234473 -2.920843,0.619113 -4.166016,1.388672 -1.113717,0.688315 -1.663579,2.089107 -2.777344,2.777344 -1.245752,0.769796 -3.311631,0.200744 -4.167968,1.388672 -1.083114,1.502518 0,3.704427 0,5.55664 0,1.851563 0.296587,3.727034 0,5.554688 -0.234473,1.444888 -0.353835,3.130743 -1.388672,4.166016 -1.034982,1.035419 -3.310254,0.202789 -4.166016,1.390624 -1.082311,1.502294 0,3.703125 0,5.554688 0,1.851563 -0.296459,3.727013 0,5.554688 0.23447,1.445513 0.200744,3.311631 1.388672,4.167968 0.750995,0.541367 1.922034,0.354281 2.777344,0 1.209592,-0.501029 1.567752,-2.276315 2.777344,-2.777344 0.855912,-0.35453 1.923384,-0.35453 2.779296,0 1.209592,0.501029 1.567752,2.276315 2.777344,2.777344 0.85531,0.354281 1.922034,0.354281 2.777344,0 1.209592,-0.501029 1.567752,-2.276315 2.777344,-2.777344 0.85531,-0.354281 1.921971,-0.354131 2.777344,0 1.210105,0.500993 1.853027,1.8514 2.779296,2.777344 0.925944,0.925619 2.276315,1.567752 2.777344,2.777344 0.354281,0.85531 0.654626,2.122718 0,2.777344 -0.654626,0.654626 -1.921971,0.354131 -2.777344,0 C 44.623879,64.776351 44.264793,63.000993 43.054688,62.5 c -0.855373,-0.354131 -1.922034,-0.354281 -2.777344,0 -1.209592,0.501029 -1.567752,2.276315 -2.777344,2.777344 -0.85531,0.354281 -1.922034,0.354281 -2.777344,0 C 33.513064,64.776315 33.154904,63.001029 31.945312,62.5 c -0.855912,-0.35453 -2.027735,-0.541694 -2.779296,0 -1.187487,0.855892 -2.04339,2.856809 -1.388672,4.166016 0.654994,1.309759 2.922351,0.618657 4.167968,1.388672 1.114036,0.688674 1.663357,2.090544 2.777344,2.779296 1.245038,0.769778 2.721128,1.154199 4.166016,1.388672 1.828297,0.296692 3.728343,-0.296692 5.55664,0 1.444888,0.234473 2.920843,0.619113 4.166016,1.388672 1.113717,0.688315 1.663627,2.089029 2.777344,2.777344 1.245173,0.769559 2.721128,1.154199 4.166016,1.388672 1.828297,0.296692 3.728343,0.296692 5.55664,0 1.444888,-0.234473 2.920843,-0.619113 4.166016,-1.388672 1.113717,-0.688315 1.8514,-1.851725 2.777344,-2.777344 0.926269,-0.925944 1.853189,-1.851237 2.779296,-2.777344 0.926107,-0.926107 1.8514,-1.853027 2.777344,-2.779296 0.925619,-0.925944 2.276315,-1.567752 2.777344,-2.777344 0.354281,-0.85531 0.354281,-1.922034 0,-2.777344 -0.501029,-1.209592 -2.276315,-1.567752 -2.777344,-2.777344 -0.354281,-0.85531 -0.354131,-1.921971 0,-2.777344 0.500993,-1.210105 2.088983,-1.665067 2.777344,-2.779296 0.769341,-1.245308 1.154199,-2.721128 1.388672,-4.166016 0.296587,-1.827654 0.296459,-3.727013 0,-5.554688 -0.23447,-1.445513 -0.353253,-3.132404 -1.388672,-4.167968 -1.034982,-1.035128 -2.978529,-2.244564 -4.166016,-1.388672 -1.502594,1.083008 0,3.704427 0,5.55664 0,1.851563 0.296587,3.727034 0,5.554688 -0.234473,1.444888 -0.201185,3.310124 -1.388672,4.166016 -0.751561,0.541694 -2.027735,0.541694 -2.779296,0 C 66.867201,53.310124 66.900489,51.444888 66.666016,50 c -0.296587,-1.827654 0,-3.703125 0,-5.554688 0,-1.852213 -0.296692,-3.728343 0,-5.55664 0.234473,-1.444888 0.353544,-3.131034 1.388672,-4.166016 1.035564,-1.035419 3.512882,-0.07896 4.167968,-1.388672 0.655086,-1.309713 -0.618657,-2.922351 -1.388672,-4.167968 -0.688674,-1.114036 -1.853027,-1.8514 -2.779296,-2.777344 -0.925944,-0.925619 -1.663627,-2.089029 -2.777344,-2.777344 -1.245173,-0.769559 -2.721128,-1.154199 -4.166016,-1.388672 -1.828297,-0.296692 -3.704427,0 -5.55664,0 -1.851563,0 -3.703125,0 -5.554688,0 -1.851563,0 -3.703125,0 -5.554688,0 -1.852213,0 -3.728343,-0.296692 -5.55664,0 z m 22.222656,5.554688 c 1.463789,0 3.310124,0.201185 4.166016,1.388672 0.541694,0.751561 0.541694,2.027735 0,2.779296 -0.855892,1.187487 -2.777344,0.925781 -4.166016,1.388672 -1.388672,0.462891 -3.130743,0.353835 -4.166016,1.388672 -1.035419,1.034982 -0.927375,2.777246 -1.390624,4.166016 -0.463183,1.388574 -0.201185,3.310124 -1.388672,4.166016 -0.751033,0.541314 -2.026311,0.541314 -2.777344,0 C 50.201185,42.198796 50,40.352461 50,38.888672 c 0,-1.463789 0.619113,-2.920843 1.388672,-4.166016 0.688315,-1.113717 1.851563,-1.851563 2.777344,-2.777344 0.926432,-0.926432 1.664797,-2.090497 2.779296,-2.779296 1.245173,-0.769559 2.702227,-1.388672 4.166016,-1.388672 z m -26.388672,1.388672 c 0.750995,-0.541367 2.026349,-0.541367 2.777344,0 1.187928,0.856337 1.154202,2.722455 1.388672,4.167968 0.296459,1.827675 0.296587,3.727034 0,5.554688 -0.234473,1.444888 -0.201185,3.310124 -1.388672,4.166016 -0.751033,0.541314 -2.026311,0.541314 -2.777344,0 -1.187487,-0.855892 -1.154199,-2.721128 -1.388672,-4.166016 -0.296587,-1.827654 -0.296459,-3.727013 0,-5.554688 0.23447,-1.445513 0.200744,-3.311631 1.388672,-4.167968 z"
       id="path20"
       inkscape:connector-curvature="0"
       sodipodi:nodetypes="aaaaaaaaaaaaaaaaaaaaaaaaaaaaaaaaaaaaaaaaaaaaaaaaaaaaaaaaaaaaaaaaaaaaaaaaaaaaaaaaaaaaaaaaa" />
  </g>
  <g
     inkscape:groupmode="layer"
     id="layer5"
     inkscape:label="LighterGray"
     style="display:inline"
     sodipodi:insensitive="true">
    <path
       style="fill:#e0e0e0;fill-rule:evenodd;stroke:#e0e0e0;stroke-width:1;stroke-opacity:1"
       d="m 48.707031,13.699219 c -4.418338,-0.04212 -7.68583,1.25557 -9.818359,2.966797 -1.444888,0.234473 -2.920978,0.618894 -4.166016,1.388672 -1.113987,0.688752 -1.663308,2.090622 -2.777344,2.779296 -1.245616,0.770015 -2.778678,0.925684 -4.167968,1.388672 -1.388705,0.462793 -3.130961,0.353617 -4.166016,1.388672 -1.035055,1.035055 -2.244564,2.978529 -1.388672,4.166016 1.082628,1.502066 3.727013,0.296459 5.554688,0 1.445513,-0.23447 2.922216,-0.618876 4.167968,-1.388672 1.113766,-0.688237 1.663627,-2.089029 2.777344,-2.777344 1.245173,-0.769559 2.721128,-1.154199 4.166016,-1.388672 1.828297,-0.296692 3.704428,0 5.55664,0 l 5.554688,0 5.554688,0 c 1.852212,0 3.728343,-0.296692 5.55664,0 1.444888,0.234473 2.920843,0.619113 4.166016,1.388672 1.113717,0.688315 1.851399,1.851725 2.777344,2.777344 0.926269,0.925944 2.090622,1.663308 2.779296,2.777344 0.770015,1.245617 1.154202,2.722455 1.388672,4.167968 0.296459,1.827675 -1.082628,4.052622 0,5.554688 0.855892,1.187487 3.131034,0.353544 4.166016,1.388672 1.035419,1.035564 1.154202,2.722455 1.388672,4.167968 0.296459,1.827675 0.296587,3.727034 0,5.554688 -0.234473,1.444888 -0.619331,2.920708 -1.388672,4.166016 -0.688361,1.114229 -2.276351,1.569192 -2.777344,2.779296 -0.354131,0.855374 -0.354281,1.922034 0,2.777344 0.501029,1.209592 2.276315,1.567752 2.777344,2.777344 0.354281,0.85531 0.354281,1.922034 0,2.777344 -0.501029,1.209592 -1.851725,1.851399 -2.777344,2.777344 -0.925944,0.926269 -1.851237,1.853189 -2.777344,2.779296 -0.926107,0.926107 -1.853027,1.8514 -2.779296,2.777344 -0.925945,0.925619 -1.663627,2.089029 -2.777344,2.777344 -1.245173,0.769559 -2.721128,1.154199 -4.166016,1.388672 -1.828297,0.296692 -3.728344,0.296692 -5.55664,0 -1.444888,-0.234473 -2.920843,-0.619113 -4.166016,-1.388672 -1.113717,-0.688315 -1.663627,-2.089029 -2.777344,-2.777344 -1.245173,-0.769559 -2.721128,-1.154199 -4.166016,-1.388672 -1.828296,-0.296692 -3.728343,0.296692 -5.55664,0 -1.444888,-0.234473 -2.920978,-0.618894 -4.166016,-1.388672 -1.113987,-0.688752 -1.663308,-2.090622 -2.777344,-2.779296 -1.245617,-0.770016 -2.778678,-0.925684 -4.167968,-1.388672 -1.388705,-0.462793 -2.920843,-0.619113 -4.166016,-1.388672 -0.810102,-0.500671 -1.32324,-1.375859 -1.970703,-2.082032 1.226268,-4.133986 -2.14079,-9.127199 -1.964752,-13.494934 0.07458,-1.850364 0.749054,-6.753174 0.749054,-6.753174 l 4.04489,-9.901152 c 0.70035,-1.714328 1.502316,-4.471888 0,-5.554688 -1.18766,-0.85601 -5.37993,6.196086 -6.415129,7.231292 -1.035221,1.035229 -1.154161,2.720891 -1.388672,4.166016 -7.3703546,9.089489 -2.545976,23.108713 -1.197174,24.60666 2.91721,2.730174 5.497483,5.641547 8.142486,7.338652 1.245038,0.769778 2.777311,0.925879 4.166016,1.388672 2.574382,3.425692 4.190172,6.780892 6.945312,9.722656 1.034982,1.035129 2.721128,1.154199 4.166016,1.388672 4.997958,2.489841 9.550069,2.247161 16.666016,0 l 5.55664,0 c 1.851563,0 4.052698,1.082733 5.554688,0 1.187928,-0.856337 0.618656,-2.922351 1.388672,-4.167968 0.688674,-1.114036 1.853027,-1.8514 2.779296,-2.777344 0.925944,-0.925619 1.851563,-1.851563 2.777344,-2.777344 0.925781,-0.925781 1.851725,-1.8514 2.777344,-2.777344 0.925944,-0.926269 1.851237,-1.853189 2.777344,-2.779296 0.926107,-0.926108 2.277878,-1.567415 2.779296,-2.777344 0.354432,-0.855248 0.354432,-1.922096 0,-2.777344 1.710661,-4.80714 1.489598,-7.441614 1.388672,-12.5 0,-1.851563 0.296459,-3.727013 0,-5.554688 C 83.099514,42.9998 82.715328,41.522961 81.945312,40.277344 81.256638,39.163308 79.854768,38.613987 79.166016,37.5 c -0.769778,-1.245038 0.04429,-2.571317 -0.190186,-4.016205 -0.296692,-1.828297 -0.901794,-3.878154 -1.198486,-5.706451 -0.234473,-1.444888 -0.353617,-3.130961 -1.388672,-4.166016 -1.035055,-1.035055 -2.777311,-0.925879 -4.166016,-1.388672 -1.38929,-0.462988 -3.132477,-0.353181 -4.167968,-1.388672 -1.035491,-1.035491 -0.200744,-3.311631 -1.388672,-4.167968 -1.50199,-1.082733 -3.703125,0 -5.554688,0 -4.834864,-2.091042 -8.967811,-2.934037 -12.404297,-2.966797 z"
       id="path14"
       inkscape:connector-curvature="0"
       sodipodi:nodetypes="scsssssssssscssssssssssssssssssssssssssssscscssscccccccssssssssccssssssssscs" />
  </g>
  <g
     inkscape:groupmode="layer"
     id="layer4"
     inkscape:label="DarkerGray"
     sodipodi:insensitive="true">
    <path
       style="fill:#c0c0c0;fill-rule:evenodd;stroke:#c0c0c0;stroke-width:1;stroke-opacity:1"
       d="m 42.923828,10.845703 c -1.349303,-0.0043 -2.690636,0.06345 -4.035156,0.265625 -4.691992,2.16347 -11.609511,4.883201 -15.277344,6.94336 -1.113987,0.688752 -1.851237,1.853189 -2.777344,2.779296 -0.926107,0.926107 -2.090546,1.663357 -2.779296,2.777344 -0.769778,1.245038 -0.925879,2.777311 -1.388672,4.166016 -0.462988,1.38929 -0.618876,2.922216 -1.388672,4.167968 -0.688237,1.113766 -2.089029,1.663627 -2.777344,2.777344 -0.769559,1.245173 -1.154199,2.721128 -1.388672,4.166016 C 7.3908446,46.663135 7.9862872,57.784147 12.5,65.277344 c 0.688315,1.113717 2.089107,1.663578 2.777344,2.777344 0.769796,1.24575 0.925684,2.778678 1.388672,4.167968 0.462793,1.388705 0.618894,2.920978 1.388672,4.166016 0.688752,1.113987 1.853189,1.851237 2.779296,2.777344 0.926107,0.926107 1.663357,2.090544 2.777344,2.779296 1.245038,0.769779 2.777311,0.925879 4.166016,1.388672 1.38929,0.462988 2.922216,0.618876 4.167968,1.388672 1.113766,0.688237 1.663627,2.089029 2.777344,2.777344 1.245173,0.769559 2.721128,1.154199 4.166016,1.388672 1.828297,0.296692 3.704428,0 5.55664,0 l 5.554688,0 c 1.851563,0 3.727013,0.296459 5.554688,0 1.445512,-0.23447 2.836457,-0.779111 4.167968,-1.388672 1.758086,-0.804846 9.570283,-2.420758 9.179688,-4.314453 -5.58e-4,-0.0027 -0.0014,-0.0051 -0.002,-0.0078 0.683364,-0.378811 1.373777,-0.886354 1.933593,-1.232422 1.114036,-0.688674 1.663357,-2.090544 2.777344,-2.779296 1.245038,-0.769778 2.777311,-0.925879 4.166016,-1.388672 1.38929,-0.462988 3.132404,-0.353253 4.167968,-1.388672 1.035129,-1.034982 0.925879,-2.777311 1.388672,-4.166016 0.462988,-1.38929 0.618876,-2.922217 1.388672,-4.167968 0.688237,-1.113766 2.089029,-1.663627 2.777344,-2.777344 0.769559,-1.245173 1.388672,-2.702227 1.388672,-4.166016 0,-1.463789 -0.353835,-3.130743 -1.388672,-4.166016 -1.034982,-1.035418 -2.702021,-1.390522 -4.166016,-1.390624 -2.768069,0.155684 -2.830482,1.451084 -3.119293,3.568725 1.66966,1.576399 2.585199,3.991101 1.730621,6.153931 -0.501418,1.209929 -1.853189,1.851236 -2.779296,2.777344 -2.806402,5.586629 -8.389143,7.230893 -11.111328,11.111328 -4.140901,2.643015 -8.072423,3.996915 -12.5,4.167968 -5.987792,2.273415 -15.817183,2.29363 -20.832032,-1.388672 C 32.630601,80.348901 30.800832,76.770162 30.337844,75.380872 26.830578,70.422177 27.34829,73.0591 23.611281,70.833997 22.497294,70.145245 21.760044,68.980808 20.833937,68.054701 18.749903,65.830923 15.601919,63.36626 15.017531,60.361341 13.160071,52.618637 14.05025,47.208493 14.869094,41.285169 c 0.234473,-1.444888 2.150418,-5.527518 3.185547,-6.5625 2.520737,-2.587473 1.939397,-3.124039 3.417968,-6.496094 0.324281,-4.181356 3.013546,-4.962784 6.304688,-6.003906 2.221728,-1.779199 4.744385,-2.60939 6.945312,-4.167968 1.610526,-1.088658 3.920347,-2.052637 5.365235,-2.28711 3.33318,-1.31995 6.146718,-1.648864 15.318359,-0.75 4.186619,0.681103 5.696902,0.249546 12.648438,5.816406 1.035217,1.035232 3.132747,2.423901 4.167968,1.388672 C 73.257855,21.18745 71.869187,19.08989 70.833984,18.054688 70.131788,17.352491 68.94596,16.506419 67.929688,16.345703 66.607023,14.546385 62.078757,13.657425 59.722656,12.5 58.408281,11.854319 57.0002,11.345798 55.554688,11.111328 51.08845,11.516186 46.971738,10.8585 42.923828,10.845703 Z"
       id="path38"
       inkscape:connector-curvature="0"
       sodipodi:nodetypes="cccsssssccsssssssssssssccssssssssscccccccccccccccccccsscscc" />
    <path
       style="fill:#c0c0c0;fill-rule:evenodd;stroke:#c0c0c0;stroke-width:1;stroke-opacity:1"
       d="m 77.777344,33.333984 c -1.034982,1.035128 0.618894,2.920978 1.388672,4.166016 0.688752,1.113987 2.090622,1.663308 2.779296,2.777344 0.770015,1.245617 1.154202,2.722455 1.388672,4.167968 0.296459,1.827675 -1.502066,4.47206 0,5.554688 1.187487,0.855892 3.130961,-0.353617 4.166016,-1.388672 1.035055,-1.035055 1.388569,-2.702227 1.388672,-4.166016 C 88.888775,42.980906 88.269796,41.523096 87.5,40.277344 86.811763,39.163579 85.648437,38.425781 84.722656,37.5 83.796875,36.574219 83.059077,35.410893 81.945312,34.722656 80.69956,33.95286 78.812763,32.29842 77.777344,33.333984 Z"
       id="path46"
       inkscape:connector-curvature="0"
       sodipodi:nodetypes="aaaaaaaaaaa" />
  </g>
  <g
     inkscape:groupmode="layer"
     id="layer3"
     inkscape:label="BlackOutline"
     style="display:inline"
     sodipodi:insensitive="true">
    <path
       style="display:inline;fill:#000000;fill-rule:evenodd;stroke:#000000;stroke-width:1;stroke-opacity:1"
       d="M 38.888672,5.5546875 C 37.443631,5.7894983 35.967842,6.1753823 34.722656,6.9453125 29.293343,9.0110246 27.090574,10.429145 23.611328,12.5 c -1.113717,0.688315 -4.181908,2.805115 -5.107852,3.730734 -2.820021,2.966233 -4.022807,4.292328 -6.003476,7.380594 -0.769559,1.245173 -0.925879,2.777311 -1.388672,4.166016 -0.462988,1.38929 -0.618876,2.922216 -1.3886718,4.167968 -0.6882364,1.113765 -2.1613973,1.622029 -2.7773437,2.777344 -1.7324482,3.249508 -1.8973396,9.394704 -2.1321504,10.839745 -0.159572,3.855608 -0.2916929,8.686744 0.7415254,15.548927 0.2348108,1.445041 4.4342541,8.747101 5.2041845,9.992287 0.736832,1.661545 2.095518,5.167464 4.200675,8.168333 3.088315,2.42686 4.338494,4.983856 7.274662,6.956866 1.245173,0.769559 3.643351,1.891123 5.543135,2.659858 1.357482,0.549296 2.922216,0.618876 4.167968,1.388672 1.113765,0.688237 1.663772,2.088794 2.777344,2.777344 1.245186,0.76993 2.720975,1.155813 4.166016,1.390624 1.823633,0.413245 11.288197,0.809362 16.666016,0 1.445667,-0.234808 2.922203,-0.620457 4.167968,-1.390624 1.11362,-0.688471 1.663627,-2.089029 2.777344,-2.777344 1.245173,-0.769559 2.777311,-0.925879 4.166016,-1.388672 1.38929,-0.462988 2.922216,-0.618876 4.167968,-1.388672 1.113765,-0.688237 1.663627,-2.089029 2.777344,-2.777344 1.245173,-0.769559 2.777311,-0.925879 4.166016,-1.388672 1.38929,-0.462988 2.922351,-0.618657 4.167968,-1.388672 1.114036,-0.688674 1.8514,-1.853027 2.777344,-2.779296 0.925619,-0.925944 2.089029,-1.663627 2.777344,-2.777344 0.769559,-1.245173 0.925879,-2.777311 1.388672,-4.166016 0.462988,-1.38929 0.618876,-2.922216 1.388672,-4.167968 0.688237,-1.113765 2.088794,-1.663772 2.777344,-2.777344 0.76993,-1.245186 1.390624,-2.702021 1.390624,-4.166016 0,-1.463995 -0.620913,-2.920695 -1.390624,-4.166016 -0.688596,-1.114084 -2.276351,-1.569191 -2.777344,-2.779296 -0.354131,-0.855373 -0.354281,-1.922034 0,-2.777344 0.501029,-1.209592 2.088794,-1.663772 2.777344,-2.777344 0.76993,-1.245186 1.390521,-2.702021 1.390624,-4.166016 C 94.445415,42.9807 93.824855,41.523109 93.054688,40.277344 92.366217,39.163724 91.203125,38.425781 90.277344,37.5 L 87.5,34.722656 C 85.373951,32.389553 84.468838,30.263391 83.333984,27.777344 82.173305,25.344366 79.748988,22.208061 78.97921,20.963023 76.375855,18.028987 74.968835,15.151487 70.833984,12.5 67.427742,10.781437 63.953486,8.5431371 59.722656,6.9453125 58.476891,6.1751453 57.000355,5.7894956 55.554688,5.5546875 c -5.191481,-0.2718751 -11.504871,-0.692562 -16.666016,0 z m 0,5.5566405 c 5.001861,-1.3672776 11.287738,-0.808356 16.666016,0 4.540352,0.885635 11.086298,3.707519 15.279296,6.94336 0.967376,0.808856 0.938298,2.41166 1.812401,3.32051 1.00732,1.047364 2.831977,1.103434 3.742287,2.23613 0.91697,1.140983 0.939183,2.772948 1.388672,4.166016 0.436792,1.353717 0.532416,2.858041 1.271186,4.073589 0.706165,1.161901 1.93327,1.912387 2.896782,2.871723 0.92779,0.923768 1.851563,1.851563 2.777344,2.777344 0.925781,0.925781 2.089107,1.663579 2.777344,2.777344 0.769796,1.245752 1.388775,2.703562 1.388672,4.167968 C 88.888569,45.909101 88.535055,47.576273 87.5,48.611328 86.464945,49.646383 84.189876,48.812513 83.333984,50 c -1.082628,1.502066 -1.082311,4.052394 0,5.554688 0.855762,1.187835 3.131034,0.355205 4.166016,1.390624 1.034837,1.035273 1.388672,2.702227 1.388672,4.166016 0,1.463789 -0.619113,2.920843 -1.388672,4.166016 -0.688315,1.113717 -2.089107,1.663579 -2.777344,2.777344 -0.769796,1.245752 -0.925684,2.778678 -1.388672,4.167968 -0.462793,1.388705 -0.353544,3.131034 -1.388672,4.166016 -1.035564,1.035419 -2.778678,0.925684 -4.167968,1.388672 -1.388705,0.462793 -2.920978,0.618894 -4.166016,1.388672 -1.113987,0.688752 -1.663308,2.090622 -2.777344,2.779296 -1.245617,0.770015 -2.758909,0.989875 -4.167968,1.388672 -1.341239,0.379602 -2.87298,0.241884 -4.071637,0.95339 -1.235137,0.733159 -1.671449,2.423686 -2.871723,3.212626 -1.223724,0.804353 -2.722455,1.154202 -4.167968,1.388672 -5.403506,1.75534 -11.716292,1.115435 -16.666016,0 C 37.443784,88.654199 36.032937,88.152565 34.722656,87.5 32.372545,85.904469 30.237456,84.358305 27.777344,83.333984 24.545539,82.809398 22.888764,81.25359 20.833984,79.166016 18.157143,77.35965 17.013814,74.714687 16.136355,72.010792 12.825601,65.914546 13.294529,67.196746 12.5,65.277344 11.778937,64.302459 11.028004,63.509606 10.793531,62.064718 8.3026455,56.937564 8.9141403,43.315001 10.052006,39.842062 10.286479,38.397174 11.407555,36.266823 12.5,34.722656 c 0.756153,-1.06882 2.089107,-1.663579 2.777344,-2.777344 0.769796,-1.245752 0.925684,-2.778678 1.388672,-4.167968 0.462793,-1.388705 0.618894,-2.920978 1.388672,-4.166016 0.688752,-1.113987 1.853189,-1.851237 2.779296,-2.777344 0.926107,-0.926107 1.663357,-2.090544 2.777344,-2.779296 4.642028,-3.343846 10.033231,-6.053891 15.277344,-6.94336 z"
       id="path6"
       inkscape:connector-curvature="0"
       sodipodi:nodetypes="cccccaaacccccaaaccaaaaaaaaaaaaaaaaaaaaccccccccccaaaaaaaaaaaaaaaaaaaaaaacccccccccaaaaacc" />
  </g>
  <g
     inkscape:groupmode="layer"
     id="layer7"
     inkscape:label="Mouth">
    <path
       style="fill:#f81058;fill-rule:evenodd;stroke:#f81058;stroke-width:0.5;stroke-miterlimit:4;stroke-dasharray:none;stroke-opacity:1"
       d="m 20.8333,62.5 c 1.819044,1.572773 3.173091,4.049135 4.922055,4.01689 1.009846,0.319035 1.139975,-1.371093 3.411345,-4.01689 2.542207,-3.070638 4.400677,3.792716 7.284625,3.976286 1.20979,-0.501112 2.133864,-3.256073 3.826475,-3.976286 0.85201,-0.362534 1.922352,-0.354347 2.7778,0 1.594191,1.244904 2.694271,4.022051 5.330784,3.75157 0.923663,-1.341715 -3.063481,-8.197285 -5.330784,-9.30717 -3.201662,-0.968474 -5.07424,6.012953 -7.50314,4.275908 -2.529639,-1.244986 -2.228438,-3.53801 -3.982587,-4.350813 -3.053918,-1.301765 -3.42686,2.039918 -5.180973,2.852705 -0.855451,0.354339 -2.026642,0.5414 -2.7778,0 -3.151879,-3.788135 -7.214765,-7.485167 -6.644778,-3.417546 0.105333,2.415011 3.054187,5.15426 3.866978,6.195346 z"
       id="path16"
       inkscape:connector-curvature="0"
       sodipodi:nodetypes="ccccaccccccccc" />
  </g>
  <g
     inkscape:groupmode="layer"
     id="layer8"
     inkscape:label="Hand"
     sodipodi:insensitive="true">
    <path
       style="fill:#000000;fill-rule:evenodd;stroke:#000000;stroke-width:1;stroke-opacity:1"
       d="m 66.579117,28.23176 c -1.528068,-0.627137 -3.282817,-0.690904 -4.926773,-0.530588 -1.635474,0.159489 -3.255365,0.69486 -4.707032,1.464844 -1.186894,0.629545 -2.259154,1.508814 -3.150059,2.514465 -0.790117,0.891883 -1.463392,1.924707 -1.87692,3.042175 -0.481674,1.301618 -0.676788,2.725483 -0.647147,4.11305 0.02333,1.092137 -0.134159,2.449168 0.647147,3.212626 0.50577,0.494217 1.481863,0.733669 2.088785,0.370763 1.079039,-0.645207 1.068479,-2.330838 1.176807,-3.583389 0.128016,-1.480204 0.25313,-3.341723 1.17876,-4.642711 0.87832,-1.234492 2.345221,-2.061842 3.795253,-2.50096 1.597633,-0.483818 3.445015,-0.669825 5.007779,-0.02731 2.273528,0.934738 2.633155,4.137839 2.842261,5.676575 0.366104,2.694028 0.217578,4.911823 0.194054,7.368843 -0.01859,1.941758 -0.299251,3.825758 -0.264831,5.819518 0.03186,1.845491 -0.166041,2.645225 0.700113,3.424491 0.546868,0.492009 1.567233,0.592584 2.196669,0.211864 0.809921,-0.489888 0.961962,-1.660306 1.070872,-2.629999 0.21173,-1.885152 0.264818,-4.725357 0.317797,-7.090705 0.04148,-1.851749 0.159477,-3.711305 0,-5.55664 -0.208656,-2.414389 -0.01008,-5.078594 -1.247285,-7.162374 -0.955695,-1.609646 -2.664446,-2.783786 -4.39625,-3.494538 z"
       id="path32"
       inkscape:connector-curvature="0"
       sodipodi:nodetypes="aaaaaaaasaassasaasaaaa" />
  </g>
  <g
     inkscape:groupmode="layer"
     id="layer9"
     inkscape:label="Eyes"
     sodipodi:insensitive="true">
    <path
       style="fill:#000000;fill-rule:evenodd;stroke:#000000;stroke-width:0.97202611;stroke-opacity:1"
       d="m 23.315965,42.820637 c 0.612711,0.55163 1.577581,0.718931 2.268625,0.328635 0.777493,-0.439122 1.310257,-1.67374 1.420125,-2.613415 0.271775,-2.324389 0.151903,-5.730866 -0.01131,-7.937838 -0.0855,-1.156164 -0.166277,-2.602852 -0.932298,-3.291654 -0.774486,-0.696411 -2.076841,-0.750684 -2.884987,-0.113724 -0.958407,0.755393 -1.305219,3.860279 -1.305219,3.860279 0,0 -0.05098,4.456405 0.164809,6.245757 0.153223,1.270552 0.433196,2.759345 1.280254,3.52196 z"
       id="path22"
       inkscape:connector-curvature="0"
       sodipodi:nodetypes="aassaacsa" />
    <path
       style="fill:#000000;fill-rule:evenodd;stroke:#000000;stroke-width:1;stroke-opacity:1"
       d="m 33.3333,38.589278 c 0.153053,1.456007 0.201218,3.310667 1.3889,4.1667 0.751156,0.541403 2.098305,0.628998 2.7778,0 0.93397,-0.864562 1.314635,-2.742008 1.3889,-4.204153 0.07192,-1.415974 0.146832,-4.139626 0,-5.518147 -0.15506,-1.455763 -0.20124,-3.31059 -1.3889,-4.1666 -0.751158,-0.5414 -2.026642,-0.5414 -2.7778,0 -1.18766,0.85601 -1.356675,2.702957 -1.3889,4.1666 -0.03447,1.565784 -0.184278,3.802551 0,5.5556 z"
       id="path30"
       inkscape:connector-curvature="0"
       sodipodi:nodetypes="sasssaass" />
  </g>
</svg>
