<?xml version="1.0" encoding="UTF-8" standalone="no"?>
<svg
   xmlns:dc="http://purl.org/dc/elements/1.1/"
   xmlns:cc="http://creativecommons.org/ns#"
   xmlns:rdf="http://www.w3.org/1999/02/22-rdf-syntax-ns#"
   xmlns:svg="http://www.w3.org/2000/svg"
   xmlns="http://www.w3.org/2000/svg"
   xmlns:sodipodi="http://sodipodi.sourceforge.net/DTD/sodipodi-0.dtd"
   xmlns:inkscape="http://www.inkscape.org/namespaces/inkscape"
   width="100px"
   height="100px"
   version="1.1"
   id="svg2"
   inkscape:version="0.91 r13725"
   sodipodi:docname="yoshi_shapes.svg">
  <metadata
     id="metadata118">
    <rdf:RDF>
      <cc:Work
         rdf:about="">
        <dc:format>image/svg+xml</dc:format>
        <dc:type
           rdf:resource="http://purl.org/dc/dcmitype/StillImage" />
      </cc:Work>
    </rdf:RDF>
  </metadata>
  <defs
     id="defs116" />
  <sodipodi:namedview
     pagecolor="#ffffff"
     bordercolor="#666666"
     borderopacity="1"
     objecttolerance="10"
     gridtolerance="10"
     guidetolerance="10"
     inkscape:pageopacity="0"
     inkscape:pageshadow="2"
     inkscape:window-width="1600"
     inkscape:window-height="837"
     id="namedview114"
     showgrid="false"
     inkscape:zoom="4.0510045"
     inkscape:cx="49.470568"
     inkscape:cy="51.11495"
     inkscape:window-x="-8"
     inkscape:window-y="-8"
     inkscape:window-maximized="1"
     inkscape:current-layer="layer3" />
  <g
     inkscape:groupmode="layer"
     id="layer2"
     inkscape:label="Background"
     sodipodi:insensitive="true">
    <path
       style="fill:#b8adc7;fill-opacity:1;stroke:#b8adc7;stroke-opacity:1"
       d="M 0,0 0,1.6660156 0,3.3339844 0,5 0,6.6660156 0,8.3339844 0,10 0,11.666016 0,13.333984 0,15 0,16.666016 0,18.333984 0,20 0,21.666016 0,23.333984 0,25 0,26.666016 0,28.333984 0,30 0,31.666016 0,33.333984 0,35 0,36.666016 0,38.333984 0,40 0,41.666016 0,43.333984 0,45 0,46.666016 0,48.333984 0,50 0,51.666016 0,53.333984 0,55 0,56.666016 0,58.333984 0,60 0,61.666016 0,63.333984 0,65 0,66.666016 0,68.333984 0,70 0,71.666016 0,73.333984 0,75 0,76.666016 0,78.333984 0,80 0,81.666016 0,83.333984 0,85 0,86.666016 0,88.333984 0,90 0,91.666016 0,93.333984 0,95 0,96.666016 0,98.333984 0,100 1.6660156,100 3.3339844,100 5,100 6.6660156,100 8.3339844,100 10,100 l 1.666016,0 1.667968,0 1.666016,0 1.666016,0 1.667968,0 1.666016,0 1.666016,0 1.667968,0 1.666016,0 1.666016,0 1.667968,0 1.666016,0 1.666016,0 1.667968,0 1.666016,0 1.666016,0 1.667968,0 1.666016,0 1.666016,0 1.667968,0 1.666016,0 1.666016,0 1.667968,0 1.666016,0 1.666016,0 1.667968,0 1.666016,0 1.666016,0 1.667968,0 1.666016,0 1.666016,0 1.667968,0 1.666016,0 1.666016,0 1.667968,0 1.666016,0 1.666016,0 1.667968,0 1.666016,0 1.666016,0 1.667968,0 1.666016,0 1.666016,0 1.667968,0 1.666016,0 1.666016,0 1.667968,0 1.666016,0 1.666016,0 1.667968,0 0,-1.666016 0,-1.667968 0,-1.666016 0,-1.666016 0,-1.667968 0,-1.666016 0,-1.666016 0,-1.667968 0,-1.666016 0,-1.666016 0,-1.667968 0,-1.666016 0,-1.666016 0,-1.667968 0,-1.666016 0,-1.666016 0,-1.667968 0,-1.666016 0,-1.666016 0,-1.667968 0,-1.666016 0,-1.666016 0,-1.667968 0,-1.666016 0,-1.666016 0,-1.667968 0,-1.666016 0,-1.666016 0,-1.667968 0,-1.666016 0,-1.666016 0,-1.667968 0,-1.666016 0,-1.666016 0,-1.667968 0,-1.666016 0,-1.666016 0,-1.667968 0,-1.666016 0,-1.666016 0,-1.667968 0,-1.666016 0,-1.666016 0,-1.667968 0,-1.666016 0,-1.666016 0,-1.667968 0,-1.666016 0,-1.666016 0,-1.667968 0,-1.666016 0,-1.666016 0,-1.667968 0,-1.666016 0,-1.6660156 0,-1.6679688 0,-1.6660156 0,-1.6660156 0,-1.6679688 L 93.333984,0 91.666016,0 90,0 88.333984,0 86.666016,0 85,0 83.333984,0 81.666016,0 80,0 78.333984,0 76.666016,0 75,0 73.333984,0 71.666016,0 70,0 68.333984,0 66.666016,0 65,0 63.333984,0 61.666016,0 60,0 58.333984,0 56.666016,0 55,0 53.333984,0 51.666016,0 50,0 48.333984,0 46.666016,0 45,0 43.333984,0 41.666016,0 40,0 38.333984,0 36.666016,0 35,0 33.333984,0 31.666016,0 30,0 28.333984,0 26.666016,0 25,0 23.333984,0 21.666016,0 20,0 18.333984,0 16.666016,0 15,0 13.333984,0 11.666016,0 10,0 8.3339844,0 6.6660156,0 5,0 3.3339844,0 1.6660156,0 0,0 Z m 36.666016,3.3339844 2.5,0.8320312 1.667968,1.6679688 L 42.5,7.5 l 1.666016,1.6660156 1.667968,1.6679684 0.832032,2.5 0.833984,2.5 2.5,0.832032 2.5,0.833984 1.666016,1.666016 1.667968,1.667968 0.832032,2.5 -0.832032,2.5 -1.667968,1.666016 0,1.666016 1.667968,1.667968 0.832032,2.5 -0.832032,2.5 L 54.166016,37.5 53.333984,40 l 0,3.333984 0,3.332032 0.832032,2.5 1.667968,1.667968 0,1.666016 -1.667968,1.666016 0,1.667968 L 55.833984,57.5 57.5,59.166016 l 1.666016,0 1.667968,-1.666016 2.5,-0.833984 3.332032,0 3.333984,0 2.5,0.833984 1.666016,1.666016 1.667968,0 L 77.5,57.5 80,56.666016 82.5,57.5 l 1.666016,1.666016 2.5,0.833984 2.5,0.833984 0.833984,2.5 -0.833984,2.5 L 87.5,67.5 86.666016,70 l 0,3.333984 -0.832032,2.5 L 84.166016,77.5 83.333984,80 l 0,3.333984 -0.833984,2.5 L 80.833984,87.5 79.166016,89.166016 77.5,90.833984 l -0.833984,2.5 -0.832032,2.5 -2.5,0.832032 -3.333984,0 -3.333984,0 -3.332032,0 -3.333984,0 -3.333984,0 -3.332032,0 -2.5,-0.832032 -0.833984,-2.5 -0.833984,-2.5 -2.5,-0.833984 -3.332032,0 -2.5,-0.833984 L 39.166016,87.5 37.5,85.833984 l -0.833984,-2.5 0,-3.333984 0.833984,-2.5 1.666016,-1.666016 0,-1.667968 L 37.5,72.5 36.666016,70 l 0,-3.333984 0,-3.332032 0,-3.333984 L 35.833984,57.5 34.166016,55.833984 32.5,54.166016 l -1.666016,0 -1.667968,1.667968 -2.5,0.832032 -3.332032,0 -2.5,-0.832032 -1.667968,-1.667968 -2.5,-0.832032 -3.332032,0 L 10.833984,52.5 9.1660156,50.833984 7.5,49.166016 5.8339844,47.5 4.1660156,45.833984 l -0.8320312,-2.5 0,-3.333984 0,-3.333984 0,-3.332032 0.8320312,-2.5 1.6679688,-1.667968 0.8320312,-2.5 L 7.5,24.166016 9.1660156,22.5 10.833984,20.833984 13.333984,20 l 2.5,-0.833984 L 17.5,17.5 20,16.666016 l 3.333984,0 2.5,0.833984 1.666016,1.666016 1.666016,0 L 30,16.666016 30,13.333984 30,10 30.833984,7.5 32.5,5.8339844 l 1.666016,-1.6679688 2.5,-0.8320312 z"
       id="path72"
       inkscape:connector-curvature="0" />
  </g>
  <g
     inkscape:groupmode="layer"
     id="layer4"
     inkscape:label="Green"
     sodipodi:insensitive="true">
    <path
       style="fill:#00bd00;fill-rule:evenodd;stroke:none;stroke-width:1"
       d="m 6.66667,43.3333 c -0.6211376,0.621122 0.3715263,1.752777 0.83333,2.5 0.4130545,0.668344 1.1111167,1.11113 1.66667,1.6667 0.5555467,0.555563 0.998298,1.253644 1.66663,1.6667 0.747216,0.461809 1.632935,0.6926 2.5,0.8333 1.096787,0.177977 2.432006,0.649696 3.3334,0 0.712598,-0.513618 0.371499,-1.75278 0.8333,-2.5 0.413058,-0.66835 1.111133,-1.111133 1.6667,-1.6667 0.555533,-0.555533 0.998297,-1.253555 1.6666,-1.6666 0.747221,-0.46182 1.986389,-0.120785 2.5,-0.8334 0.649661,-0.901379 -0.177992,-2.236549 0,-3.3333 0.140717,-0.867073 0.212254,-1.878876 0.8334,-2.5 0.621139,-0.621116 2.107169,-0.04763 2.5,-0.8333 0.392836,-0.785683 -0.120785,-1.986389 -0.8334,-2.5 -0.450676,-0.324821 -1.153351,-0.212586 -1.6666,0 -0.725866,0.300651 -1.111142,1.111058 -1.6667,1.6666 -0.555575,0.555558 -1.253642,0.99835 -1.6667,1.6667 -0.461801,0.74722 -0.555533,1.666667 -0.8333,2.5 -0.277767,0.833333 -0.371499,1.75278 -0.8333,2.5 -0.413058,0.66835 -1.111125,1.111142 -1.6667,1.6667 -0.555558,0.555542 -0.998371,1.253553 -1.6667,1.6666 -0.747228,0.461809 -1.621583,0.8334 -2.5,0.8334 -0.878417,0 -1.752777,-0.371583 -2.5,-0.8334 -0.668311,-0.413046 -0.9983194,-1.253554 -1.66663,-1.6666 -0.7472231,-0.461817 -1.8788572,-1.454527 -2.5,-0.8334 z"
       id="path8"
       inkscape:connector-curvature="0"
       sodipodi:nodetypes="aaaaaaaaaaaaaaaaaaaaaaaaa" />
    <path
       style="fill:#00ff00;fill-rule:evenodd;stroke:none;stroke-width:1"
       d="m 6.66667,43.3333 c 0.5136112,0.712615 1.7527769,0.371583 2.5,0.8334 0.6683106,0.413046 0.998319,1.253554 1.66663,1.6666 0.747223,0.461817 1.621583,0.8334 2.5,0.8334 0.878417,0 1.752772,-0.371591 2.5,-0.8334 0.668329,-0.413047 1.111142,-1.111058 1.6667,-1.6666 0.555575,-0.555558 1.253642,-0.99835 1.6667,-1.6667 0.461801,-0.74722 0.555533,-1.666667 0.8333,-2.5 0.277767,-0.833333 0.371499,-1.75278 0.8333,-2.5 0.413058,-0.66835 1.111125,-1.111142 1.6667,-1.6667 0.555558,-0.555542 0.940834,-1.365949 1.6667,-1.6666 0.513249,-0.212586 1.215924,-0.324821 1.6666,0 0.712615,0.513611 0.212254,1.878876 0.8334,2.5 0.621139,0.621116 1.878872,0.212172 2.5,0.8333 0.621128,0.621128 0.120702,1.986382 0.8333,2.5 0.901367,0.649677 2.2222,0 3.3333,0 1.111133,0 2.222267,0 3.3334,0 1.1111,0 2.547634,0.785666 3.3333,0 0.785666,-0.785666 0.785666,-2.547634 0,-3.3333 -0.785666,-0.785666 -2.431921,0.649661 -3.3333,0 -0.712615,-0.513611 -0.212265,-1.878865 -0.8334,-2.5 -0.621135,-0.621135 -1.878876,-0.212254 -2.5,-0.8334 C 32.712184,32.712161 33.121128,31.454428 32.5,30.8333 31.878872,30.212172 30.621128,30.621128 30,30 c -0.621128,-0.621128 -0.212172,-1.878872 -0.8333,-2.5 -0.621128,-0.621128 -1.632935,-0.6926 -2.5,-0.8333 -1.096787,-0.177977 -2.236613,-0.177977 -3.3334,0 -0.867065,0.1407 -1.645096,1.035135 -2.5,0.8333 -0.764645,-0.180525 -0.901952,-1.486189 -1.6666,-1.6667 -0.854918,-0.201822 -1.878865,0.212265 -2.5,0.8334 -0.621135,0.621135 -0.212254,1.878876 -0.8334,2.5 -0.621139,0.621116 -1.632935,0.6926 -2.5,0.8333 -1.096754,0.177972 -2.236546,-0.177972 -3.3333,0 -0.8670653,0.1407 -1.8788691,0.212176 -2.5,0.8333 -0.6211331,0.621126 -0.6926248,1.632932 -0.83333,2.5 -0.1779832,1.096786 0,2.222267 0,3.3334 0,1.1111 0,2.2222 0,3.3333 0,1.1111 -0.6496608,2.431921 0,3.3333 z"
       id="path10"
       inkscape:connector-curvature="0"
       sodipodi:nodetypes="aaaaaaaaaaaaaaaaaaaaaaaaaaaaaaaaaaaaaa" />
    <path
       style="fill:#ffffff;fill-rule:evenodd;stroke:none;stroke-width:1"
       d="m 10,30 c 0.785666,0.785666 2.431921,0.649661 3.3333,0 0.712615,-0.513611 0.212254,-1.878876 0.8334,-2.5 0.621139,-0.621116 1.666672,-0.555518 2.5,-0.8333 0.833338,-0.277785 1.986389,-0.120785 2.5,-0.8334 0.324821,-0.450676 0.324821,-1.215924 0,-1.6666 -0.513611,-0.712615 -1.632927,-0.692683 -2.5,-0.8334 -1.096784,-0.177997 -2.432006,-0.649696 -3.3334,0 -0.712598,0.513618 -0.212184,1.878861 -0.8333,2.5 -0.621124,0.621146 -1.986389,0.120785 -2.5,0.8334 C 9.3503392,27.568079 9.2143337,29.214334 10,30 Z"
       id="path12"
       inkscape:connector-curvature="0"
       sodipodi:nodetypes="aaaaaaaaaaa" />
    <path
       style="fill:#00ff00;fill-rule:evenodd;stroke:none;stroke-width:1"
       d="m 10,26.6667 c 0.621146,0.621124 1.878876,-0.212254 2.5,-0.8334 0.621116,-0.621139 1.454439,-1.878884 0.8333,-2.5 -0.621146,-0.621124 -1.878876,0.212254 -2.5,0.8334 -0.621116,0.621139 -1.4544387,1.878884 -0.8333,2.5 z"
       id="path14"
       inkscape:connector-curvature="0"
       sodipodi:nodetypes="aaaaa" />
    <path
       style="fill:#292929;fill-rule:evenodd;stroke:none;stroke-width:1"
       d="m 13.3333,30 c 0.621116,0.621139 1.878861,-0.212184 2.5,-0.8333 0.621146,-0.621124 1.454524,-1.878854 0.8334,-2.5 -0.621116,-0.621139 -1.878861,0.212184 -2.5,0.8333 -0.621146,0.621124 -1.454524,1.878854 -0.8334,2.5 z"
       id="path16"
       inkscape:connector-curvature="0"
       sodipodi:nodetypes="aaaaa" />
    <path
       style="fill:#007b00;fill-rule:evenodd;stroke:none;stroke-width:1"
       d="m 16.6667,50 c 0.621128,0.621128 1.752787,-0.371487 2.5,-0.8333 0.668324,-0.413055 1.111058,-1.111142 1.6666,-1.6667 0.555558,-0.555575 1.253642,-0.99835 1.6667,-1.6667 0.461801,-0.74722 1.454439,-1.878884 0.8333,-2.5 -0.621146,-0.621124 -1.752779,0.37158 -2.5,0.8334 -0.668303,0.413045 -1.111067,1.111067 -1.6666,1.6666 -0.555567,0.555567 -1.253642,0.99835 -1.6667,1.6667 -0.461801,0.74722 -1.454428,1.878872 -0.8333,2.5 z"
       id="path18"
       inkscape:connector-curvature="0"
       sodipodi:nodetypes="aaaaaaaaa" />
    <path
       style="fill:#00ff00;fill-rule:evenodd;stroke:none;stroke-width:1"
       d="m 16.6667,23.3333 c 0.392836,0.785683 1.986389,0.120785 2.5,0.8334 0.324821,0.450676 -0.212586,1.153351 0,1.6666 0.300651,0.725866 0.901955,1.486175 1.6666,1.6667 0.854904,0.201835 1.632935,-0.6926 2.5,-0.8333 1.096787,-0.177977 2.236613,-0.177977 3.3334,0 0.867065,0.1407 1.878872,0.212172 2.5,0.8333 0.621128,0.621128 0.212172,1.878872 0.8333,2.5 0.621128,0.621128 1.878872,0.212172 2.5,0.8333 0.621128,0.621128 0.212184,1.878861 0.8333,2.5 0.621124,0.621146 1.878865,0.212265 2.5,0.8334 0.621135,0.621135 0.120785,1.986389 0.8334,2.5 0.901379,0.649661 2.683623,0.901367 3.3333,0 0.513618,-0.712598 -0.371499,-1.75278 -0.8333,-2.5 C 38.753642,33.49835 37.913058,33.16835 37.5,32.5 37.038199,31.75278 37.287828,30.621128 36.6667,30 36.045572,29.378872 34.91392,29.628501 34.1667,29.1667 33.49835,28.753642 33.055567,28.055567 32.5,27.5 31.944433,26.944433 31.246358,26.50165 30.8333,25.8333 30.371499,25.08608 30.621128,23.954428 30,23.3333 29.378872,22.712172 28.24722,22.961801 27.5,22.5 26.83165,22.086942 26.50165,21.246358 25.8333,20.8333 25.08608,20.371499 24.200365,20.1407 23.3333,20 22.236546,19.822028 21.096754,19.822028 20,20 c -0.867065,0.1407 -1.878872,0.212172 -2.5,0.8333 -0.621128,0.621128 -1.226131,1.714327 -0.8333,2.5 z"
       id="path20"
       inkscape:connector-curvature="0"
       sodipodi:nodetypes="aaaaaaaaaaaaaaaaaaaaaaaaaa" />
    <path
       style="fill:#ffffff;fill-rule:evenodd;stroke:none;stroke-width:1"
       d="m 20.8333,52.5 c 0.513618,0.712598 1.632935,0.6926 2.5,0.8333 1.096787,0.177977 2.236613,0.177977 3.3334,0 0.867065,-0.1407 1.752787,-0.371487 2.5,-0.8333 0.668324,-0.413055 0.940743,-1.366028 1.6666,-1.6667 0.513273,-0.212614 1.153423,-0.212606 1.6667,0 0.725883,0.300671 1.111142,1.111125 1.6667,1.6667 0.555542,0.555558 1.11105,1.11115 1.6666,1.6667 0.55555,0.55555 1.111142,1.111058 1.6667,1.6666 0.555575,0.555558 1.253642,0.99835 1.6667,1.6667 0.461801,0.74722 0.212172,1.878872 0.8333,2.5 0.621128,0.621128 1.878872,0.212172 2.5,0.8333 0.621128,0.621128 0.212184,1.878861 0.8333,2.5 0.621124,0.621146 1.878865,0.212265 2.5,0.8334 0.621135,0.621135 0.212254,1.878876 0.8334,2.5 0.621139,0.621116 1.986382,0.120702 2.5,0.8333 0.324848,0.450697 -0.212606,1.153423 0,1.6667 0.300652,0.725839 0.880957,1.666588 1.6666,1.6666 0.785666,1.2e-5 1.366028,-0.940743 1.6667,-1.6666 0.212614,-0.513273 0.212606,-1.153423 0,-1.6667 C 52.199329,66.774117 51.246358,66.50165 50.8333,65.8333 50.371499,65.08608 50.621128,63.954428 50,63.3333 49.378872,62.712172 48.24722,62.961801 47.5,62.5 c -0.66835,-0.413058 -1.111133,-1.111133 -1.6667,-1.6667 -0.555533,-0.555533 -1.253555,-0.998297 -1.6666,-1.6666 -0.46182,-0.747221 -0.212265,-1.878865 -0.8334,-2.5 -0.621135,-0.621135 -1.878876,-0.212254 -2.5,-0.8334 C 40.212184,55.212161 40.1407,54.200365 40,53.3333 39.822028,52.236546 40.785666,50.785666 40,50 c -0.785666,-0.785666 -2.236546,0.177972 -3.3333,0 -0.867065,-0.1407 -1.75278,-0.371499 -2.5,-0.8333 C 33.49835,48.753642 33.225883,47.800671 32.5,47.5 c -0.513277,-0.212606 -1.153427,0.212614 -1.6667,0 -0.725857,-0.300672 -0.901952,-1.486189 -1.6666,-1.6667 -0.854918,-0.201822 -1.666662,0.555615 -2.5,0.8334 -0.833328,0.277782 -1.75278,0.371499 -2.5,0.8333 -0.66835,0.413058 -1.111125,1.111142 -1.6667,1.6667 -0.555558,0.555542 -1.366028,0.940743 -1.6667,1.6666 -0.212614,0.513273 -0.324848,1.216003 0,1.6667 z"
       id="path22"
       inkscape:connector-curvature="0"
       sodipodi:nodetypes="aaaaaaaaaaaaaaaaaaaaaaaaaaaaaaaaaaaaaaa" />
    <path
       style="fill:#ffffff;fill-rule:evenodd;stroke:none;stroke-width:1"
       d="m 26.6667,40 c 0.1407,0.867065 0.371499,1.75278 0.8333,2.5 0.413058,0.66835 1.366029,0.940817 1.6667,1.6667 0.212593,0.513246 -0.212586,1.153351 0,1.6666 0.300651,0.725866 0.940743,1.366028 1.6666,1.6667 0.513273,0.212614 1.153423,-0.212606 1.6667,0 0.725883,0.300671 0.99835,1.253642 1.6667,1.6667 0.74722,0.461801 1.632935,0.6926 2.5,0.8333 1.096754,0.177972 2.547634,0.785666 3.3333,0 0.785666,-0.785666 0.785666,-2.547634 0,-3.3333 -0.785666,-0.785666 -2.236549,0.177992 -3.3333,0 -0.867073,-0.140717 -1.752772,-0.371591 -2.5,-0.8334 C 33.498371,45.420253 33.055558,44.722242 32.5,44.1667 31.944425,43.611142 31.246358,43.16835 30.8333,42.5 30.371499,41.75278 30.277767,40.833333 30,40 c -0.277767,-0.833333 -0.212172,-1.878872 -0.8333,-2.5 -0.621128,-0.621128 -1.787402,-1.346918 -2.5,-0.8333 -0.901367,0.649677 -0.177972,2.236546 0,3.3333 z"
       id="path24"
       inkscape:connector-curvature="0"
       sodipodi:nodetypes="aaaaaaaaaaaaaaaaaa" />
    <path
       style="fill:#00ff00;fill-rule:evenodd;stroke:none;stroke-width:1"
       d="m 30,40 c -0.513618,0.712598 0.371499,1.75278 0.8333,2.5 0.413058,0.66835 1.111125,1.111142 1.6667,1.6667 0.555558,0.555542 0.998371,1.253553 1.6667,1.6666 0.747228,0.461809 1.632927,0.692683 2.5,0.8334 1.096751,0.177992 2.547634,0.785666 3.3333,0 0.78569,-0.78569 0,-2.222267 0,-3.3334 0,-1.1111 0.785666,-2.547634 0,-3.3333 -0.785666,-0.785666 -2.2222,0 -3.3333,0 -1.111133,0 -2.222267,0 -3.3334,0 C 32.2222,40 30.649677,39.098633 30,40 Z"
       id="path26"
       inkscape:connector-curvature="0"
       sodipodi:nodetypes="aaaaaaaaaaa" />
    <path
       style="fill:#007b00;fill-rule:evenodd;stroke:none;stroke-width:1"
       d="m 30,23.3333 c -0.621139,0.621116 0.371499,1.75278 0.8333,2.5 0.413058,0.66835 1.111133,1.111133 1.6667,1.6667 0.555567,0.555567 0.99835,1.253642 1.6667,1.6667 0.74722,0.461801 1.621593,0.8333 2.5,0.8333 0.878407,0 1.752787,-0.371487 2.5,-0.8333 0.668324,-0.413055 0.998276,-1.253645 1.6666,-1.6667 0.747213,-0.461813 1.986382,-0.120702 2.5,-0.8333 0.649696,-0.901394 0.901406,-2.68372 0,-3.3334 -0.712615,-0.513611 -1.752779,0.37158 -2.5,0.8334 -0.668303,0.413045 -0.998297,1.253555 -1.6666,1.6666 -0.747221,0.46182 -1.621583,0.8334 -2.5,0.8334 -0.878417,0 -1.752772,-0.371591 -2.5,-0.8334 C 33.498371,25.420253 33.168329,24.579747 32.5,24.1667 31.752772,23.704891 30.621146,22.712176 30,23.3333 Z"
       id="path28"
       inkscape:connector-curvature="0"
       sodipodi:nodetypes="aaaaaaaaaaaaaaa" />
    <path
       style="fill:#ffffff;fill-rule:evenodd;stroke:none;stroke-width:1"
       d="m 30,23.3333 c 0.392836,0.785683 1.752772,0.371591 2.5,0.8334 0.668329,0.413047 0.998371,1.253553 1.6667,1.6666 0.747228,0.461809 1.621583,0.8334 2.5,0.8334 0.878417,0 1.752779,-0.37158 2.5,-0.8334 0.668303,-0.413045 0.998297,-1.253555 1.6666,-1.6666 0.747221,-0.46182 1.986389,-0.120785 2.5,-0.8334 0.649661,-0.901379 0.785666,-2.547634 0,-3.3333 -0.785666,-0.785666 -2.431933,0.649677 -3.3333,0 -0.712598,-0.513618 -0.212172,-1.878872 -0.8333,-2.5 -0.621128,-0.621128 -1.632935,-0.6926 -2.5,-0.8333 -1.096787,-0.177977 -2.432006,-0.649696 -3.3334,0 -0.712598,0.513618 -0.371487,1.752787 -0.8333,2.5 -0.413055,0.668324 -1.253645,0.998276 -1.6667,1.6666 -0.461813,0.747213 -1.226131,1.714327 -0.8333,2.5 z"
       id="path30"
       inkscape:connector-curvature="0"
       sodipodi:nodetypes="aaaaaaaaaaaaaaa" />
    <path
       style="fill:#ffffff;fill-rule:evenodd;stroke:none;stroke-width:1"
       d="m 30,13.3333 c 0.513611,0.712615 1.878876,0.212254 2.5,0.8334 0.621116,0.621139 0.120702,1.986382 0.8333,2.5 0.901394,0.649696 2.236613,-0.177977 3.3334,0 0.867065,0.1407 1.878872,0.212172 2.5,0.8333 0.621128,0.621128 0.120702,1.986382 0.8333,2.5 0.901367,0.649677 2.547634,0.785666 3.3333,0 0.785666,-0.785666 0.649661,-2.431921 0,-3.3333 -0.513611,-0.712615 -1.752779,-0.37158 -2.5,-0.8334 C 40.164997,15.420255 39.722233,14.722233 39.1667,14.1667 38.611133,13.611133 38.055567,13.055567 37.5,12.5 36.944433,11.944433 36.50165,11.246358 35.8333,10.8333 35.08608,10.371499 34.200365,10.1407 33.3333,10 32.236546,9.8220281 30.785666,9.2143337 30,10 c -0.785666,0.785666 -0.649661,2.431921 0,3.3333 z"
       id="path32"
       inkscape:connector-curvature="0"
       sodipodi:nodetypes="aaaaaaaaaaaaaaa" />
    <path
       style="fill:#007b00;fill-rule:evenodd;stroke:none;stroke-width:1"
       d="m 33.3333,10 c 0.392831,0.785673 1.75278,0.371499 2.5,0.8333 0.66835,0.413058 1.111133,1.111133 1.6667,1.6667 0.555567,0.555567 1.111133,1.111133 1.6667,1.6667 0.555533,0.555533 0.998297,1.253555 1.6666,1.6666 0.747221,0.46182 1.787385,1.347011 2.5,0.8334 0.901406,-0.64968 0.649696,-2.432006 0,-3.3334 C 42.819682,12.620702 41.454428,13.121128 40.8333,12.5 40.212172,11.878872 40.621124,10.621131 40,10 39.378874,9.3788669 38.121126,9.7878031 37.5,9.16667 36.878876,8.5455391 37.452368,7.0595107 36.6667,6.66667 35.881029,6.2738279 34.787838,6.8788781 34.1667,7.5 33.545557,8.1211271 32.940464,9.2143172 33.3333,10 Z"
       id="path36"
       inkscape:connector-curvature="0"
       sodipodi:nodetypes="aaaaaaaaaaaaa" />
    <path
       style="fill:#00bd00;fill-rule:evenodd;stroke:none;stroke-width:1"
       d="m 36.6667,30 c -0.392845,0.785666 0.371499,1.75278 0.8333,2.5 0.413058,0.66835 1.253642,0.99835 1.6667,1.6667 0.461801,0.74722 0.120702,1.986382 0.8333,2.5 0.901367,0.649677 2.547634,0.785666 3.3333,0 0.78569,-0.78569 0,-2.222267 0,-3.3334 0,-1.1111 0,-2.2222 0,-3.3333 0,-1.1111 0.901367,-2.683623 0,-3.3333 -0.712598,-0.513618 -1.752787,0.371487 -2.5,0.8333 -0.668324,0.413055 -0.998276,1.253645 -1.6666,1.6667 -0.747213,0.461813 -2.107155,0.04763 -2.5,0.8333 z"
       id="path42"
       inkscape:connector-curvature="0"
       sodipodi:nodetypes="aaaaaaaaaaa" />
    <path
       style="fill:#00ff00;fill-rule:evenodd;stroke:none;stroke-width:1"
       d="m 36.6667,6.66667 c -0.621131,0.6211242 0.212176,1.8788691 0.8333,2.5 C 38.121126,9.7878031 39.378867,10.621126 40,10 40.621131,9.3788758 39.787824,8.1211309 39.1667,7.5 38.545574,6.8788669 37.287833,6.0455436 36.6667,6.66667 Z"
       id="path44"
       inkscape:connector-curvature="0"
       sodipodi:nodetypes="aaaaa" />
    <path
       style="fill:#ffffff;fill-rule:evenodd;stroke:none;stroke-width:1"
       d="m 40,70 c 0.1407,0.867065 0.212172,1.878872 0.8333,2.5 0.621128,0.621128 1.632935,0.6926 2.5,0.8333 1.096787,0.177977 2.236613,0.177977 3.3334,0 0.867065,-0.1407 1.752787,-0.371487 2.5,-0.8333 0.668324,-0.413055 1.666612,-0.881034 1.6666,-1.6667 -1.2e-5,-0.785643 -1.365948,-0.940761 -1.6666,-1.6666 -0.212606,-0.513277 0.324848,-1.216003 0,-1.6667 -0.513618,-0.712598 -1.878861,-0.212184 -2.5,-0.8333 -0.621146,-0.621124 -0.212265,-1.878865 -0.8334,-2.5 -0.621135,-0.621135 -1.878876,-0.212254 -2.5,-0.8334 C 42.712184,62.712161 43.121128,61.454428 42.5,60.8333 41.878872,60.212172 40.712598,59.486382 40,60 c -0.901367,0.649677 0,2.2222 0,3.3333 0,1.111133 0,2.222267 0,3.3334 0,1.1111 -0.177972,2.236546 0,3.3333 z"
       id="path48"
       inkscape:connector-curvature="0"
       sodipodi:nodetypes="aaaaaaaaaaaaaaaa" />
    <path
       style="fill:#00bd00;fill-rule:evenodd;stroke:none;stroke-width:1"
       d="m 40,53.3333 c 0.1407,0.867065 0.212184,1.878861 0.8333,2.5 0.621124,0.621146 1.632927,0.692683 2.5,0.8334 1.096784,0.177997 2.54771,0.78569 3.3334,0 0.78569,-0.78569 0.649696,-2.432006 0,-3.3334 -0.513618,-0.712598 -1.878861,-0.212184 -2.5,-0.8333 -0.621146,-0.621124 -0.692683,-1.632927 -0.8334,-2.5 -0.177992,-1.096751 0,-2.2222 0,-3.3333 0,-1.111133 0,-2.222267 0,-3.3334 0,-1.1111 0,-2.2222 0,-3.3333 0,-1.1111 0.785666,-2.547634 0,-3.3333 -0.785666,-0.785666 -2.547634,-0.785666 -3.3333,0 -0.785666,0.785666 0,2.2222 0,3.3333 0,1.1111 0,2.2222 0,3.3333 0,1.111133 0,2.222267 0,3.3334 0,1.1111 0,2.2222 0,3.3333 0,1.1111 -0.177972,2.236546 0,3.3333 z"
       id="path50"
       inkscape:connector-curvature="0"
       sodipodi:nodetypes="aaaaaaaaaaaaaaaaa" />
    <path
       style="fill:#00bd00;fill-rule:evenodd;stroke:none;stroke-width:1"
       d="m 40,10 c -0.621128,0.621128 0.212172,1.878872 0.8333,2.5 0.621128,0.621128 1.878872,1.454428 2.5,0.8333 0.621128,-0.621128 -0.212172,-1.878872 -0.8333,-2.5 C 41.878872,10.212172 40.621128,9.3788725 40,10 Z"
       id="path52"
       inkscape:connector-curvature="0"
       sodipodi:nodetypes="aaaaa" />
    <path
       style="fill:#00ff00;fill-rule:evenodd;stroke:none;stroke-width:1"
       d="m 43.3333,56.6667 c -0.513611,0.712615 0.37158,1.752779 0.8334,2.5 0.413045,0.668303 1.111067,1.111067 1.6666,1.6666 0.555567,0.555567 0.99835,1.253642 1.6667,1.6667 0.74722,0.461801 1.787402,1.346918 2.5,0.8333 0.901367,-0.649677 0.649677,-2.431933 0,-3.3333 -0.513618,-0.712598 -1.878872,-0.212172 -2.5,-0.8333 -0.621128,-0.621128 -0.120702,-1.986382 -0.8333,-2.5 -0.901394,-0.649696 -2.68372,-0.901406 -3.3334,0 z"
       id="path54"
       inkscape:connector-curvature="0"
       sodipodi:nodetypes="aaaaaaaaa" />
    <path
       style="fill:#007b00;fill-rule:evenodd;stroke:none;stroke-width:1"
       d="m 43.3333,50 c -0.621124,0.621146 0.212254,1.878876 0.8334,2.5 0.621139,0.621116 1.878884,1.454439 2.5,0.8333 0.621124,-0.621146 -0.212254,-1.878876 -0.8334,-2.5 -0.621139,-0.621116 -1.878884,-1.454439 -2.5,-0.8333 z"
       id="path56"
       inkscape:connector-curvature="0"
       sodipodi:nodetypes="aaaaa" />
    <path
       style="fill:#007b00;fill-rule:evenodd;stroke:none;stroke-width:1"
       d="m 43.3333,40 c 0.712598,0.513618 1.878861,-0.212184 2.5,-0.8333 0.621146,-0.621124 0.692683,-1.632927 0.8334,-2.5 0.177997,-1.096784 0.177997,-2.236616 0,-3.3334 -0.140717,-0.867073 -0.212254,-1.878876 -0.8334,-2.5 -0.621139,-0.621116 -1.787402,-1.346918 -2.5,-0.8333 -0.901367,0.649677 0,2.2222 0,3.3333 0,1.111133 0,2.222267 0,3.3334 0,1.1111 -0.901367,2.683623 0,3.3333 z"
       id="path60"
       inkscape:connector-curvature="0"
       sodipodi:nodetypes="aaaaaaaaa" />
    <path
       style="fill:#007b00;fill-rule:evenodd;stroke:none;stroke-width:1"
       d="m 46.6667,56.6667 c -0.621128,0.621128 0.212172,1.878872 0.8333,2.5 0.621128,0.621128 1.878872,1.454428 2.5,0.8333 0.621128,-0.621128 -0.212172,-1.878872 -0.8333,-2.5 -0.621128,-0.621128 -1.878872,-1.454428 -2.5,-0.8333 z"
       id="path64"
       inkscape:connector-curvature="0"
       sodipodi:nodetypes="aaaaa" />
    <path
       style="fill:#ffffff;fill-rule:evenodd;stroke:none;stroke-width:1"
       d="m 53.3333,90 c 0.621116,0.621139 1.878861,-0.212184 2.5,-0.8333 0.621146,-0.621124 1.454524,-1.878854 0.8334,-2.5 -0.621116,-0.621139 -1.878861,0.212184 -2.5,0.8333 -0.621146,0.621124 -1.454524,1.878854 -0.8334,2.5 z"
       id="path84"
       inkscape:connector-curvature="0"
       sodipodi:nodetypes="aaaaa" />
    <path
       style="fill:#ffffff;fill-rule:evenodd;stroke:none;stroke-width:1"
       d="m 53.3333,63.3333 c 0,0.878417 0.371591,1.752772 0.8334,2.5 0.413047,0.668329 1.111058,1.111142 1.6666,1.6667 0.555558,0.555575 1.111125,1.111142 1.6667,1.6667 0.555558,0.555542 1.11115,1.11105 1.6667,1.6666 0.55555,0.55555 0.998276,1.253645 1.6666,1.6667 0.747213,0.461813 1.632935,0.6926 2.5,0.8333 1.096787,0.177977 2.222267,0 3.3334,0 1.1111,0 2.2222,0 3.3333,0 1.1111,0 2.236546,0.177972 3.3333,0 0.867065,-0.1407 1.878861,-0.212184 2.5,-0.8333 0.621146,-0.621124 0.8334,-1.621583 0.8334,-2.5 0,-0.878417 -0.120785,-1.986389 -0.8334,-2.5 -0.450676,-0.324821 -1.153354,-0.212593 -1.6666,0 -0.725883,0.300671 -0.99835,1.253642 -1.6667,1.6667 -0.74722,0.461801 -1.632935,0.6926 -2.5,0.8333 -1.096754,0.177972 -2.2222,0 -3.3333,0 -1.111133,0 -2.236613,0.177977 -3.3334,0 -0.867065,-0.1407 -1.752787,-0.371487 -2.5,-0.8333 C 60.164976,68.753645 59.722242,68.055558 59.1667,67.5 58.611142,66.944425 57.913058,66.50165 57.5,65.8333 c -0.461801,-0.74722 -0.555518,-1.666672 -0.8333,-2.5 -0.277785,-0.833338 -0.120785,-1.986389 -0.8334,-2.5 -0.450676,-0.324821 -1.215924,-0.324821 -1.6666,0 -0.712615,0.513611 -0.8334,1.621583 -0.8334,2.5 z"
       id="path86"
       inkscape:connector-curvature="0"
       sodipodi:nodetypes="aaaaaaaaaaaaaaaaaaaaaaaaa" />
    <path
       style="fill:#00bd00;fill-rule:evenodd;stroke:none;stroke-width:1"
       d="m 60.8333,79.1667 c 0.513618,0.712598 1.632935,0.6926 2.5,0.8333 1.096787,0.177977 2.222267,0 3.3334,0 1.1111,0 2.547634,0.785666 3.3333,0 0.785666,-0.785666 0.785666,-2.547634 0,-3.3333 -0.785666,-0.785666 -2.2222,0 -3.3333,0 -1.111133,0 -2.236613,-0.177977 -3.3334,0 -0.867065,0.1407 -1.986382,0.120702 -2.5,0.8333 -0.324848,0.450697 -0.324848,1.216003 0,1.6667 z"
       id="path96"
       inkscape:connector-curvature="0"
       sodipodi:nodetypes="aaaaaaaaa" />
    <path
       style="fill:#ffffff;fill-rule:evenodd;stroke:none;stroke-width:1"
       d="m 60,63.3333 c 0.621128,0.621128 1.878872,-0.212172 2.5,-0.8333 0.621128,-0.621128 1.454428,-1.878872 0.8333,-2.5 -0.621128,-0.621128 -1.878872,0.212172 -2.5,0.8333 -0.621128,0.621128 -1.454428,1.878872 -0.8333,2.5 z"
       id="path100"
       inkscape:connector-curvature="0"
       sodipodi:nodetypes="aaaaa" />
    <path
       style="fill:#ffffff;fill-rule:evenodd;stroke:none;stroke-width:1"
       d="m 70,80 c 0.712598,0.513618 1.986382,-0.120702 2.5,-0.8333 0.324848,-0.450697 0.324848,-1.216003 0,-1.6667 C 71.986382,76.787402 70.712598,76.153082 70,76.6667 69.098633,77.316377 69.098633,79.350323 70,80 Z"
       id="path104"
       inkscape:connector-curvature="0"
       sodipodi:nodetypes="aaaaa" />
    <path
       style="fill:#ffffff;fill-rule:evenodd;stroke:none;stroke-width:1"
       d="m 76.6667,83.3333 c 0.1407,0.867065 0.120702,1.986382 0.8333,2.5 0.450697,0.324848 1.216003,0.324848 1.6667,0 0.712598,-0.513618 0.6926,-1.632935 0.8333,-2.5 0.177972,-1.096754 -0.177972,-2.236546 0,-3.3333 0.1407,-0.867065 0.371499,-1.75278 0.8333,-2.5 0.413058,-0.66835 1.253642,-0.99835 1.6667,-1.6667 0.461801,-0.74722 0.6926,-1.632935 0.8333,-2.5 0.177972,-1.096754 0.785666,-2.547634 0,-3.3333 -0.785666,-0.785666 -2.431933,-0.649677 -3.3333,0 -0.712598,0.513618 -0.371499,1.75278 -0.8333,2.5 -0.413058,0.66835 -1.253642,0.99835 -1.6667,1.6667 -0.461801,0.74722 -0.6926,1.632935 -0.8333,2.5 -0.177972,1.096754 0,2.2222 0,3.3333 0,1.1111 -0.177972,2.236546 0,3.3333 z"
       id="path106"
       inkscape:connector-curvature="0"
       sodipodi:nodetypes="aaaaaaaaaaaaaaa" />
    <path
       style="fill:#ffffff;fill-rule:evenodd;stroke:none;stroke-width:1"
       d="m 76.6667,63.3333 c 0,0.878407 0.371499,1.75278 0.8333,2.5 0.413058,0.66835 1.253642,0.99835 1.6667,1.6667 0.461801,0.74722 0.120702,1.986382 0.8333,2.5 0.901367,0.649677 2.683623,0.901367 3.3333,0 0.513618,-0.712598 -0.371499,-1.75278 -0.8333,-2.5 -0.413058,-0.66835 -1.253642,-0.99835 -1.6667,-1.6667 -0.461801,-0.74722 -0.555533,-1.666667 -0.8333,-2.5 -0.277767,-0.833333 -0.120702,-1.986382 -0.8333,-2.5 -0.450697,-0.324848 -1.216003,-0.324848 -1.6667,0 -0.712598,0.513618 -0.8333,1.621593 -0.8333,2.5 z"
       id="path108"
       inkscape:connector-curvature="0"
       sodipodi:nodetypes="aaaaaaaaaaa" />
    <path
       style="fill:#00bd00;fill-rule:evenodd;stroke:none;stroke-width:1"
       d="m 84.1667,65.8333 c 0.392821,0.392821 1.273779,0.392821 1.6666,0 0.392821,-0.392821 0.392821,-1.273779 0,-1.6666 -0.392821,-0.392821 -1.273779,-0.392821 -1.6666,0 -0.392821,0.392821 -0.392821,1.273779 0,1.6666 z"
       id="path112"
       inkscape:connector-curvature="0"
       sodipodi:nodetypes="aaaaa" />
  </g>
  <g
     inkscape:groupmode="layer"
     id="layer5"
     inkscape:label="Hand"
     style="display:inline"
     sodipodi:insensitive="true">
    <path
       style="fill:#ff8c00;fill-rule:evenodd;stroke:none;stroke-width:1"
       d="m 40,80 c 0,0.878407 0.371499,1.75278 0.8333,2.5 0.413058,0.66835 1.111125,1.111142 1.6667,1.6667 0.555558,0.555542 0.998371,1.253553 1.6667,1.6666 0.747228,0.461809 1.621583,0.8334 2.5,0.8334 0.878417,0 1.752779,-0.37158 2.5,-0.8334 0.668303,-0.413045 1.111067,-1.111067 1.6666,-1.6666 0.555567,-0.555567 1.111133,-1.111133 1.6667,-1.6667 0.555567,-0.555567 1.111133,-1.111133 1.6667,-1.6667 0.555533,-0.555533 1.253555,-0.998297 1.6666,-1.6666 0.46182,-0.747221 0.8334,-1.621583 0.8334,-2.5 0,-0.878417 -0.120785,-1.986389 -0.8334,-2.5 -0.450676,-0.324821 -1.153351,-0.212586 -1.6666,0 -0.725866,0.300651 -1.111142,1.111058 -1.6667,1.6666 -0.555575,0.555558 -1.111142,1.111125 -1.6667,1.6667 -0.555542,0.555558 -0.940743,1.366028 -1.6666,1.6667 -0.513273,0.212614 -1.153423,0.212606 -1.6667,0 -0.725883,-0.300671 -0.99835,-1.253642 -1.6667,-1.6667 -0.74722,-0.461801 -1.621593,-0.8333 -2.5,-0.8333 -0.878407,0 -1.878872,0.212172 -2.5,0.8333 C 40.212172,78.121128 40,79.121593 40,80 Z"
       id="path46"
       inkscape:connector-curvature="0"
       sodipodi:nodetypes="aaaaaaaaaaaaaaaaaaaaa" />
  </g>
  <g
     inkscape:groupmode="layer"
     id="layer6"
     inkscape:label="Ridges"
     style="display:inline"
     sodipodi:insensitive="true">
    <path
       style="fill:#ff8c00;fill-rule:evenodd;stroke:none;stroke-width:1"
       d="m 46.6667,43.3333 c 0,0.878407 0.120702,1.986382 0.8333,2.5 0.450697,0.324848 1.216003,0.324848 1.6667,0 0.712598,-0.513618 0.8333,-1.621593 0.8333,-2.5 0,-0.878407 -0.120702,-1.986382 -0.8333,-2.5 -0.450697,-0.324848 -1.216003,-0.324848 -1.6667,0 -0.712598,0.513618 -0.8333,1.621593 -0.8333,2.5 z"
       id="path68"
       inkscape:connector-curvature="0"
       sodipodi:nodetypes="aaaaaaa" />
    <path
       style="fill:#ff8c00;fill-rule:evenodd;stroke:none;stroke-width:1"
       d="m 46.6667,23.3333 c 0,0.878407 0.212184,1.878861 0.8333,2.5 0.621124,0.621146 1.621583,0.8334 2.5,0.8334 0.878417,0 1.878876,-0.212254 2.5,-0.8334 0.621116,-0.621139 0.8333,-1.621593 0.8333,-2.5 0,-0.878407 -0.212172,-1.878872 -0.8333,-2.5 C 51.878872,20.212172 50.878407,20 50,20 c -0.878407,0 -1.878872,0.212172 -2.5,0.8333 -0.621128,0.621128 -0.8333,1.621593 -0.8333,2.5 z"
       id="path70"
       inkscape:connector-curvature="0"
       sodipodi:nodetypes="aaaaaaaaa" />
    <path
       style="fill:#ff8c00;fill-rule:evenodd;stroke:none;stroke-width:1"
       d="m 50.8333,52.5 c 0.392845,0.392845 1.273855,0.392845 1.6667,0 0.392845,-0.392845 0.392845,-1.273855 0,-1.6667 -0.392845,-0.392845 -1.273855,-0.392845 -1.6667,0 -0.392845,0.392845 -0.392845,1.273855 0,1.6667 z"
       id="path78"
       inkscape:connector-curvature="0"
       sodipodi:nodetypes="aaaaa" />
    <path
       style="fill:#ff8c00;fill-rule:evenodd;stroke:none;stroke-width:1"
       d="m 50,33.3333 c 0,0.878407 0.120702,1.986382 0.8333,2.5 0.450697,0.324848 1.216003,0.324848 1.6667,0 0.712598,-0.513618 0.8333,-1.621593 0.8333,-2.5 0,-0.878407 -0.120702,-1.986382 -0.8333,-2.5 -0.450697,-0.324848 -1.216003,-0.324848 -1.6667,0 C 50.120702,31.346918 50,32.454893 50,33.3333 Z"
       id="path80"
       inkscape:connector-curvature="0"
       sodipodi:nodetypes="aaaaaaa" />
  </g>
  <g
     inkscape:groupmode="layer"
     id="layer7"
     inkscape:label="Shell"
     style="display:inline"
     sodipodi:insensitive="true">
    <path
       style="fill:#ff8c00;fill-rule:evenodd;stroke:none;stroke-width:1"
       d="m 60,63.3333 c -0.392845,0.785666 0.212184,1.878861 0.8333,2.5 0.621124,0.621146 1.71431,1.226221 2.5,0.8334 0.78569,-0.392821 0.212265,-1.878865 0.8334,-2.5 0.621135,-0.621135 1.666662,-0.555615 2.5,-0.8334 0.833328,-0.277782 1.878872,-0.212172 2.5,-0.8333 0.621128,-0.621128 1.346918,-1.787402 0.8333,-2.5 -0.649677,-0.901367 -2.2222,0 -3.3333,0 -1.111133,0 -2.432006,-0.649696 -3.3334,0 -0.712598,0.513618 -0.212172,1.878872 -0.8333,2.5 -0.621128,0.621128 -2.107155,0.04763 -2.5,0.8333 z"
       id="path98"
       inkscape:connector-curvature="0"
       sodipodi:nodetypes="aaaaaaaaaaa" />
    <path
       style="fill:#bd2900;fill-rule:evenodd;stroke:none;stroke-width:1"
       d="m 63.3333,66.6667 c 0.64968,0.901406 2.222267,0 3.3334,0 1.1111,0 2.236549,0.177992 3.3333,0 0.867073,-0.140717 1.878876,-0.212254 2.5,-0.8334 0.621116,-0.621139 0.8333,-1.621593 0.8333,-2.5 0,-0.878407 -0.212172,-1.878872 -0.8333,-2.5 C 71.878872,60.212172 70.785666,59.607155 70,60 c -0.785666,0.392845 -0.212172,1.878872 -0.8333,2.5 -0.621128,0.621128 -1.666672,0.555518 -2.5,0.8333 -0.833338,0.277785 -1.878865,0.212265 -2.5,0.8334 -0.621135,0.621135 -1.347011,1.787385 -0.8334,2.5 z"
       id="path102"
       inkscape:connector-curvature="0"
       sodipodi:nodetypes="aaaaaaaaaaa" />
  </g>
  <g
     inkscape:groupmode="layer"
     id="layer3"
     inkscape:label="BlackOutline"
     style="display:inline"
     sodipodi:insensitive="true">
    <path
       style="fill:#292929;fill-rule:evenodd;stroke:none;stroke-width:1;stroke-opacity:1"
       d="m 36.666016,3.3339844 c -0.878273,0 -1.752923,0.3702519 -2.5,0.8320312 C 33.497575,4.5791888 33.055502,5.2781575 32.5,5.8339844 31.944824,6.3894856 31.246954,6.831975 30.833984,7.5 30.372053,8.2472248 29.486428,9.2872806 30,10 c 0.649699,0.901632 2.43258,0.650016 3.333984,0 0.712372,-0.5137024 0.211217,-1.8787487 0.832032,-2.5 0.62096,-0.6213968 1.621521,-0.8339844 2.5,-0.8339844 0.878479,0 1.878822,0.2128058 2.5,0.8339844 C 39.787194,8.1211786 39.378821,9.3788215 40,10 c 0.621179,0.621179 1.878821,0.212805 2.5,0.833984 0.621179,0.621179 0.693166,1.632881 0.833984,2.5 0.178039,1.096315 0,2.221355 0,3.332032 l 0,3.333984 0,3.333984 0,3.332032 c 0,1.111328 -0.649699,2.432352 0,3.333984 0.513572,0.712719 1.87904,0.212587 2.5,0.833984 0.620815,0.621251 0.691551,1.633034 0.832032,2.5 0.177654,1.096377 0.177654,2.235655 0,3.332032 -0.140481,0.866966 -0.211217,1.878749 -0.832032,2.5 -0.62096,0.621397 -1.986428,0.121265 -2.5,0.833984 -0.649699,0.901632 0,2.222656 0,3.333984 l 0,3.332032 c 0,1.111328 -0.649699,2.432352 0,3.333984 0.513572,0.712719 1.87904,0.212587 2.5,0.833984 0.620815,0.621251 0.691551,1.633034 0.832032,2.5 0.177654,1.096377 -0.649319,2.430928 0,3.332032 0.513572,0.712719 1.878821,0.212805 2.5,0.833984 0.621179,0.621179 0.693166,1.632881 0.833984,2.5 0.178143,1.096957 -0.178143,2.237027 0,3.333984 0.140818,0.867119 0.372053,1.752775 0.833984,2.5 0.41297,0.668025 1.365469,0.940431 1.666016,1.666016 0.212519,0.513066 0.212369,1.152888 0,1.666016 -0.300511,0.726098 -1.110352,1.112304 -1.666016,1.667968 -0.555664,0.555664 -0.99943,1.252999 -1.667968,1.666016 -0.74736,0.461713 -1.632881,0.693166 -2.5,0.833984 -1.096315,0.178039 -2.235717,0.178039 -3.332032,0 C 42.466865,73.193166 41.455163,73.121179 40.833984,72.5 40.212805,71.878821 40.140818,70.867119 40,70 c -0.178143,-1.096957 0,-2.222656 0,-3.333984 l 0,-3.332032 C 40,62.222656 40.178143,61.096957 40,60 39.859182,59.132881 39.627947,58.247225 39.166016,57.5 38.753046,56.831975 38.055176,56.389485 37.5,55.833984 36.944499,55.278157 36.389648,54.72168 35.833984,54.166016 35.27832,53.610352 34.721843,53.055501 34.166016,52.5 33.610515,51.944824 33.225585,51.134531 32.5,50.833984 c -0.513066,-0.212519 -1.152888,-0.212369 -1.666016,0 -0.726098,0.300511 -0.99943,1.252999 -1.667968,1.666016 -0.74736,0.461713 -1.632881,0.693166 -2.5,0.833984 -1.096315,0.178039 -2.235717,0.178039 -3.332032,0 -0.867119,-0.140818 -1.986428,-0.121265 -2.5,-0.833984 -0.324659,-0.450552 -0.212369,-1.152888 0,-1.666016 C 21.134495,50.107886 21.944499,49.721843 22.5,49.166016 23.055176,48.610515 23.497991,47.91297 24.166016,47.5 c 0.747225,-0.461931 1.666569,-0.556282 2.5,-0.833984 0.833236,-0.277637 1.986298,-0.11966 2.5,-0.832032 0.325198,-0.450966 0.212768,-1.154301 0,-1.667968 C 28.865469,43.440431 27.91297,43.168025 27.5,42.5 27.038069,41.752775 26.806834,40.867119 26.666016,40 c -0.178143,-1.096957 0.901632,-2.684285 0,-3.333984 -0.712719,-0.513572 -1.87904,0.212587 -2.5,0.833984 -0.620815,0.621251 -0.691551,1.633034 -0.832032,2.5 -0.177758,1.09702 0.178143,2.237027 0,3.333984 -0.140818,0.867119 -0.372053,1.752775 -0.833984,2.5 -0.41297,0.668025 -1.110515,1.11084 -1.666016,1.666016 -0.555827,0.555501 -0.99943,1.252999 -1.667968,1.666016 -0.74736,0.461713 -1.632881,0.693166 -2.5,0.833984 -1.096315,0.178039 -2.235717,0.178039 -3.332032,0 -0.867119,-0.140818 -1.75264,-0.372272 -2.5,-0.833984 C 10.165446,48.752999 9.7218424,48.055501 9.1660156,47.5 8.6105145,46.944824 7.9129703,46.502009 7.5,45.833984 c -0.4619313,-0.747225 -0.693166,-1.632881 -0.8339844,-2.5 -0.1781436,-1.096957 0,-2.222656 0,-3.333984 l 0,-3.333984 c 0,-1.110677 -0.1780393,-2.235717 0,-3.332032 C 6.806834,32.466865 6.8788214,31.455162 7.5,30.833984 8.1211786,30.212806 9.4864277,30.712719 10,30 c 0.649699,-0.901632 -0.1781435,-2.237027 0,-3.333984 0.140818,-0.867119 0.212587,-1.87904 0.833984,-2.5 0.621251,-0.620815 1.633034,-0.691551 2.5,-0.832032 1.096377,-0.177654 2.430928,0.649319 3.332032,0 0.712719,-0.513572 0.212805,-1.878821 0.833984,-2.5 C 18.121179,20.212805 19.132881,20.140818 20,20 c 1.096957,-0.178143 2.237027,-0.178143 3.333984,0 0.867119,0.140818 1.752775,0.372053 2.5,0.833984 0.668025,0.41297 0.997991,1.253046 1.666016,1.666016 0.747225,0.461931 1.714172,1.226668 2.5,0.833984 0.785828,-0.392684 0.372271,-1.75264 0.833984,-2.5 0.413017,-0.668538 1.252999,-0.99943 1.666016,-1.667968 0.461713,-0.74736 0.833984,-1.621521 0.833984,-2.5 0,-0.878479 -0.212587,-1.87904 -0.833984,-2.5 -0.621251,-0.620815 -1.787628,-1.345734 -2.5,-0.832032 -0.900876,0.649636 0.178039,2.235717 0,3.332032 -0.140818,0.867119 -0.121265,1.986428 -0.833984,2.5 -0.450552,0.324659 -1.15295,0.212519 -1.666016,0 C 26.774415,18.865469 26.502009,17.91297 25.833984,17.5 c -0.747225,-0.461931 -1.632881,-0.693166 -2.5,-0.833984 -1.096957,-0.178143 -2.237027,-0.178143 -3.333984,0 -0.867119,0.140818 -1.752775,0.372053 -2.5,0.833984 -0.668025,0.41297 -0.997991,1.253046 -1.666016,1.666016 -0.747225,0.461931 -1.666667,0.555989 -2.5,0.833984 -0.833333,0.277995 -1.75264,0.372272 -2.5,0.833984 C 10.165446,21.247001 9.7218424,21.944499 9.1660156,22.5 8.6105145,23.055176 7.9129703,23.497991 7.5,24.166016 c -0.4619313,0.747225 -0.5562826,1.666569 -0.8339844,2.5 -0.2776367,0.833236 -0.3704707,1.752788 -0.8320312,2.5 -0.4132193,0.668953 -1.2547495,0.999015 -1.6679688,1.667968 -0.4615605,0.747212 -0.6915506,1.633034 -0.8320312,2.5 -0.1776538,1.096377 0,2.221355 0,3.332032 l 0,3.333984 c 0,1.111328 -0.1777579,2.236964 0,3.333984 0.1404806,0.866966 0.3702519,1.752923 0.8320312,2.5 C 4.5791888,46.502425 5.2781575,46.944498 5.8339844,47.5 6.3894856,48.055176 6.9448241,48.610515 7.5,49.166016 c 0.5555013,0.555827 1.1103516,1.112304 1.6660156,1.667968 0.5556642,0.555664 0.9994304,1.252999 1.6679684,1.666016 0.74736,0.461712 1.632881,0.693166 2.5,0.833984 1.096315,0.178039 2.235655,-0.177654 3.332032,0 0.866966,0.140481 1.752788,0.370471 2.5,0.832032 0.668953,0.413219 0.999015,1.254749 1.667968,1.667968 0.747212,0.461561 1.633034,0.691551 2.5,0.832032 1.096377,0.177654 2.235655,0.177654 3.332032,0 0.866966,-0.140481 1.752788,-0.370471 2.5,-0.832032 0.668953,-0.413219 0.941533,-1.367069 1.667968,-1.667968 0.513066,-0.212519 1.153012,-0.212669 1.666016,0 0.725922,0.300936 1.110352,1.112304 1.666016,1.667968 0.555664,0.555664 1.254795,0.997575 1.667968,1.666016 0.461779,0.747077 0.691551,1.633034 0.832032,2.5 0.177758,1.09702 0,2.222656 0,3.333984 l 0,3.332032 c 0,1.111328 -0.178143,2.237027 0,3.333984 0.140818,0.867119 0.372053,1.752775 0.833984,2.5 0.41297,0.668025 1.365469,0.940431 1.666016,1.666016 0.212768,0.513667 0.212768,1.154301 0,1.667968 C 38.865469,76.559569 37.91297,76.831975 37.5,77.5 c -0.461931,0.747225 -0.693166,1.632881 -0.833984,2.5 -0.178143,1.096957 -0.178143,2.237027 0,3.333984 0.140818,0.867119 0.372053,1.752775 0.833984,2.5 0.41297,0.668025 1.110515,1.11084 1.666016,1.666016 0.555827,0.555501 0.99943,1.252999 1.667968,1.666016 0.74736,0.461713 1.632881,0.693166 2.5,0.833984 1.096315,0.178039 2.235717,-0.178039 3.332032,0 0.867119,0.140818 1.878821,0.212805 2.5,0.833984 0.621179,0.621179 0.555989,1.666667 0.833984,2.5 0.277995,0.833333 0.212587,1.87904 0.833984,2.5 0.621251,0.620815 1.633034,0.691551 2.5,0.832032 1.096377,0.177654 2.221355,0 3.332032,0 l 3.333984,0 3.333984,0 3.332032,0 3.333984,0 c 1.111328,0 2.236964,0.177758 3.333984,0 0.866966,-0.140481 1.878967,-0.210999 2.5,-0.832032 0.621033,-0.621033 0.554395,-1.666764 0.832032,-2.5 0.277702,-0.833431 0.372271,-1.75264 0.833984,-2.5 0.413017,-0.668538 1.110352,-1.112304 1.666016,-1.667968 C 79.72168,88.610352 80.278157,88.055501 80.833984,87.5 81.389485,86.944824 82.08703,86.502009 82.5,85.833984 c 0.461931,-0.747225 0.693166,-1.632881 0.833984,-2.5 0.178143,-1.096957 -0.177758,-2.236964 0,-3.333984 0.140481,-0.866966 0.370253,-1.752923 0.832032,-2.5 0.413173,-0.668441 1.254795,-0.997575 1.667968,-1.666016 0.461779,-0.747077 0.691551,-1.633034 0.832032,-2.5 0.177758,-1.09702 -0.178143,-2.237027 0,-3.333984 0.140818,-0.867119 0.372053,-1.752775 0.833984,-2.5 0.41297,-0.668025 1.253046,-0.997991 1.666016,-1.666016 C 89.627947,65.086759 90,64.212463 90,63.333984 c 0,-0.878479 -0.212805,-1.878821 -0.833984,-2.5 -0.621179,-0.621179 -1.666667,-0.555989 -2.5,-0.833984 -0.833333,-0.277995 -1.752775,-0.372053 -2.5,-0.833984 C 83.497991,58.753046 83.168025,57.91297 82.5,57.5 81.752775,57.038069 80.878479,56.666016 80,56.666016 c -0.878479,0 -1.752775,0.372053 -2.5,0.833984 -0.668025,0.41297 -0.940431,1.365469 -1.666016,1.666016 -0.513667,0.212768 -1.154301,0.212768 -1.667968,0 C 73.440431,58.865469 73.168025,57.91297 72.5,57.5 71.752775,57.038069 70.867119,56.806834 70,56.666016 c -1.096957,-0.178143 -2.222656,0 -3.333984,0 -1.110677,0 -2.235717,-0.178039 -3.332032,0 -0.867119,0.140818 -1.75264,0.372271 -2.5,0.833984 -0.668538,0.413017 -0.94187,1.365505 -1.667968,1.666016 -0.513128,0.212369 -1.15295,0.212519 -1.666016,0 -0.725585,-0.300547 -1.110515,-1.11084 -1.666016,-1.666016 -0.555827,-0.555501 -1.367032,-0.940094 -1.667968,-1.666016 -0.212918,-0.513605 -0.212918,-1.154363 0,-1.667968 0.300936,-0.725922 1.367032,-0.940094 1.667968,-1.666016 0.212669,-0.513004 0.212519,-1.15295 0,-1.666016 -0.300899,-0.726435 -1.254749,-0.999015 -1.667968,-1.667968 -0.461561,-0.747212 -0.691551,-1.633034 -0.832032,-2.5 -0.177654,-1.096377 0,-2.221355 0,-3.332032 0,-1.111328 -0.177758,-2.236964 0,-3.333984 0.140481,-0.866966 0.370253,-1.752923 0.832032,-2.5 0.413173,-0.668441 1.254795,-0.997575 1.667968,-1.666016 0.461779,-0.747077 0.832032,-1.621727 0.832032,-2.5 0,-0.878273 -0.370471,-1.752788 -0.832032,-2.5 -0.413219,-0.668953 -1.367069,-0.941533 -1.667968,-1.667968 -0.212519,-0.513066 -0.212669,-1.153012 0,-1.666016 0.300936,-0.725922 1.254795,-0.997575 1.667968,-1.666016 0.461779,-0.747077 0.832032,-1.621727 0.832032,-2.5 0,-0.878273 -0.370471,-1.752788 -0.832032,-2.5 C 55.420765,20.165031 54.722005,19.722005 54.166016,19.166016 53.610677,18.610677 53.168025,17.91297 52.5,17.5 51.752775,17.038069 50.833431,16.943718 50,16.666016 c -0.833236,-0.277637 -1.878749,-0.211217 -2.5,-0.832032 -0.621397,-0.62096 -0.556282,-1.666569 -0.833984,-2.5 -0.277637,-0.833236 -0.370471,-1.752788 -0.832032,-2.5 C 45.420765,10.165031 44.722005,9.722005 44.166016,9.1660156 L 42.5,7.5 40.833984,5.8339844 C 40.277995,5.2779949 39.834969,4.5792349 39.166016,4.1660156 38.418804,3.7044551 37.544289,3.3339844 36.666016,3.3339844 Z M 50,20 c 0.878479,0 1.878821,0.212805 2.5,0.833984 0.621179,0.621179 0.833984,1.621521 0.833984,2.5 0,0.878479 -0.212587,1.87904 -0.833984,2.5 -0.621251,0.620815 -1.621727,0.832032 -2.5,0.832032 -0.878273,0 -1.878749,-0.211217 -2.5,-0.832032 -0.621397,-0.62096 -0.833984,-1.621521 -0.833984,-2.5 0,-0.878479 0.212805,-1.878821 0.833984,-2.5 C 48.121179,20.212805 49.121521,20 50,20 Z m 0.833984,10.833984 c 0.450552,-0.324659 1.215464,-0.324659 1.666016,0 0.712719,0.513572 0.833984,1.621521 0.833984,2.5 0,0.878479 -0.121265,1.986428 -0.833984,2.5 -0.450552,0.324659 -1.215464,0.324659 -1.666016,0 C 50.121265,35.320412 50,34.212463 50,33.333984 c 0,-0.878479 0.121265,-1.986428 0.833984,-2.5 z m -3.333984,10 c 0.450552,-0.324659 1.215464,-0.324659 1.666016,0 0.712719,0.513572 0.833984,1.621521 0.833984,2.5 0,0.878479 -0.121265,1.986428 -0.833984,2.5 -0.450552,0.324659 -1.215464,0.324659 -1.666016,0 -0.712719,-0.513572 -0.833984,-1.621521 -0.833984,-2.5 0,-0.878479 0.121265,-1.986428 0.833984,-2.5 z m 3.333984,10 c 0.392684,-0.392684 1.273332,-0.392684 1.666016,0 0.392684,0.392684 0.392684,1.273332 0,1.666016 -0.392684,0.392684 -1.273332,0.392684 -1.666016,0 -0.392684,-0.392684 -0.392684,-1.273332 0,-1.666016 z M 63.333984,60 c 1.096315,-0.178039 2.221355,0 3.332032,0 1.111328,0 2.237027,-0.178143 3.333984,0 0.867119,0.140818 1.878821,0.212805 2.5,0.833984 0.621179,0.621179 0.833984,1.621521 0.833984,2.5 0,0.878479 -0.212587,1.87904 -0.833984,2.5 -0.621251,0.620815 -1.633034,0.691551 -2.5,0.832032 -1.09702,0.177758 -2.222656,0 -3.333984,0 -1.110677,0 -2.235655,0.177654 -3.332032,0 -0.866966,-0.140481 -1.878749,-0.211217 -2.5,-0.832032 C 60.212587,65.213024 60,64.212463 60,63.333984 c 0,-0.878479 0.212805,-1.878821 0.833984,-2.5 0.621179,-0.621179 1.632881,-0.693166 2.5,-0.833984 z m -9.167968,0.833984 c 0.450966,-0.325198 1.217002,-0.325198 1.667968,0 0.712372,0.513702 0.554395,1.666764 0.832032,2.5 0.277702,0.833431 0.372053,1.752775 0.833984,2.5 0.41297,0.668025 1.110515,1.11084 1.666016,1.666016 0.555827,0.555501 0.99943,1.252999 1.667968,1.666016 0.74736,0.461713 1.632881,0.693166 2.5,0.833984 1.096315,0.178039 2.221355,0 3.332032,0 1.111328,0 2.237027,0.178143 3.333984,0 0.867119,-0.140818 1.752775,-0.372053 2.5,-0.833984 0.668025,-0.41297 0.940431,-1.365469 1.666016,-1.666016 0.513667,-0.212768 1.217002,-0.325198 1.667968,0 0.712372,0.513702 0.832032,1.621727 0.832032,2.5 0,0.878273 -0.211217,1.878749 -0.832032,2.5 -0.62096,0.621397 -1.632881,0.693166 -2.5,0.833984 -1.096957,0.178143 -2.222656,0 -3.333984,0 l -3.333984,0 c -1.110677,0 -2.235717,0.178039 -3.332032,0 -0.867119,-0.140818 -1.75264,-0.372271 -2.5,-0.833984 C 60.165446,72.086983 59.72168,71.389648 59.166016,70.833984 58.610352,70.27832 58.055501,69.721843 57.5,69.166016 56.944824,68.610515 56.389485,68.055176 55.833984,67.5 c -0.555827,-0.555501 -1.254795,-0.997575 -1.667968,-1.666016 -0.461779,-0.747077 -0.832032,-1.621727 -0.832032,-2.5 0,-0.878273 0.11966,-1.986298 0.832032,-2.5 z m 23.333984,0 c 0.450552,-0.324659 1.215464,-0.324659 1.666016,0 0.712719,0.513572 0.555989,1.666667 0.833984,2.5 0.277995,0.833333 0.372053,1.752775 0.833984,2.5 0.41297,0.668025 1.253046,0.997991 1.666016,1.666016 0.461931,0.747225 0.693166,1.632881 0.833984,2.5 0.178143,1.096957 0.178143,2.237027 0,3.333984 -0.140818,0.867119 -0.372053,1.752775 -0.833984,2.5 C 82.08703,76.502009 81.246954,76.831975 80.833984,77.5 80.372053,78.247225 80.140818,79.132881 80,80 c -0.178143,1.096957 0.178143,2.237027 0,3.333984 -0.140818,0.867119 -0.121265,1.986428 -0.833984,2.5 -0.450552,0.324659 -1.215464,0.324659 -1.666016,0 -0.712719,-0.513572 -0.693166,-1.632881 -0.833984,-2.5 -0.178143,-1.096957 0,-2.222656 0,-3.333984 0,-1.111328 -0.178143,-2.237027 0,-3.333984 0.140818,-0.867119 0.372053,-1.752775 0.833984,-2.5 C 77.91297,73.497991 78.753046,73.168025 79.166016,72.5 79.627947,71.752775 80,70.878479 80,70 80,69.121521 79.627947,68.247225 79.166016,67.5 78.753046,66.831975 77.91297,66.502009 77.5,65.833984 c -0.461931,-0.747225 -0.833984,-1.621521 -0.833984,-2.5 0,-0.878479 0.121265,-1.986428 0.833984,-2.5 z m 6.666016,3.332032 c 0.393144,-0.393144 1.274824,-0.393144 1.667968,0 0.393144,0.393144 0.393144,1.274824 0,1.667968 -0.393144,0.393144 -1.274824,0.393144 -1.667968,0 -0.393144,-0.393144 -0.393144,-1.274824 0,-1.667968 z m -30,10 c 0.513605,-0.212918 1.217002,-0.325198 1.667968,0 0.712372,0.513702 0.832032,1.621727 0.832032,2.5 0,0.878273 -0.370471,1.752788 -0.832032,2.5 -0.413219,0.668953 -1.111979,1.111979 -1.667968,1.667968 L 52.5,82.5 50.833984,84.166016 c -0.555989,0.555989 -0.999015,1.254749 -1.667968,1.667968 -0.747212,0.461561 -1.621727,0.832032 -2.5,0.832032 -0.878273,0 -1.752923,-0.370253 -2.5,-0.832032 C 43.497575,85.420811 43.055501,84.721843 42.5,84.166016 41.944824,83.610515 41.246954,83.168025 40.833984,82.5 40.372053,81.752775 40,80.878479 40,80 c 0,-0.878479 0.212805,-1.878821 0.833984,-2.5 0.621179,-0.621179 1.621521,-0.833984 2.5,-0.833984 0.878479,0 1.752775,0.372053 2.5,0.833984 0.668025,0.41297 0.940431,1.365469 1.666016,1.666016 0.513066,0.212519 1.152888,0.212369 1.666016,0 0.726098,-0.300511 1.112141,-1.110515 1.667968,-1.666016 0.555501,-0.555176 1.11084,-1.110515 1.666016,-1.666016 0.555501,-0.555827 0.940094,-1.367032 1.666016,-1.667968 z m 9.167968,2.5 c 1.096315,-0.178039 2.221355,0 3.332032,0 1.111328,0 2.237027,-0.178143 3.333984,0 0.867119,0.140818 1.986428,0.121265 2.5,0.833984 0.324659,0.450552 0.324659,1.215464 0,1.666016 C 71.986428,79.878735 70.867119,79.859182 70,80 c -1.096957,0.178143 -2.222656,0 -3.333984,0 -1.110677,0 -2.235717,0.178039 -3.332032,0 -0.867119,-0.140818 -1.986428,-0.121265 -2.5,-0.833984 -0.324659,-0.450552 -0.324659,-1.215464 0,-1.666016 0.513572,-0.712719 1.632881,-0.693166 2.5,-0.833984 z M 60,83.333984 c 1.09702,-0.177758 2.222656,0 3.333984,0 l 3.332032,0 c 1.111328,0 2.236964,-0.177758 3.333984,0 0.866966,0.140481 1.878749,0.211217 2.5,0.832032 0.621397,0.62096 0.693166,1.632881 0.833984,2.5 0.178143,1.096957 0.178143,2.237027 0,3.333984 -0.140818,0.867119 -0.212805,1.878821 -0.833984,2.5 -0.621179,0.621179 -1.632881,0.693166 -2.5,0.833984 -1.096957,0.178143 -2.222656,0 -3.333984,0 l -3.332032,0 -3.333984,0 c -1.111328,0 -2.237027,0.178143 -3.333984,0 -0.867119,-0.140818 -1.87904,-0.212587 -2.5,-0.833984 -0.620815,-0.621251 -0.832032,-1.621727 -0.832032,-2.5 0,-0.878273 0.211217,-1.878749 0.832032,-2.5 0.62096,-0.621397 1.878821,-0.212805 2.5,-0.833984 0.621179,-0.621179 0.212587,-1.87904 0.833984,-2.5 0.621251,-0.620815 1.633034,-0.691551 2.5,-0.832032 z"
       id="path58"
       inkscape:connector-curvature="0"
       sodipodi:nodetypes="aaaaaaaaaaaaaaaaaaaaaaaaaaaaaaaaaaaaaaaaaaaaaaaaaaaaaaaaaaaaaaaaaaaaaaaaaaaaaaaaaaaaaaaaaaaaaaaaaaaaaaaaaaaaaaaaaaaaaaaaaaaaaaaaaaaaaaaaaaaaaaaaaaaaaaaaaaaaaaaaaaaaaaaaaaaaaaaaaaaaaaaaaaaaaaaaaaaaaaaaaaaaaaaaaaaaaaaaaaaaaaaaaaaaaaaaaaaaaaaaaaaaaaaaaaaaaaaaaaaaaaaaaaaaaaaaaaaaaaaaaaaaaaaaaaaaaaaaaaaaaaaaaaaaaaaaaaaaaaaaaaaaaaaaaaaaaaaaaaaaaaaaaaaaaaaaaaaaaa" />
  </g>
  <g
     inkscape:groupmode="layer"
     id="layer8"
     inkscape:label="Foot"
     style="display:inline"
     sodipodi:insensitive="true">
    <path
       style="fill:#bd2900;fill-rule:evenodd;stroke:none;stroke-width:1"
       d="m 53.3333,90 c -0.392836,0.785683 0.212254,1.878876 0.8334,2.5 0.621139,0.621116 1.632935,0.6926 2.5,0.8333 1.096754,0.177972 2.2222,0 3.3333,0 1.1111,0 2.2222,0 3.3333,0 1.111133,0 2.222267,0 3.3334,0 1.1111,0 2.236546,0.177972 3.3333,0 0.867065,-0.1407 1.878872,-0.212172 2.5,-0.8333 0.621128,-0.621128 0.6926,-1.632935 0.8333,-2.5 0.177972,-1.096754 0.177972,-2.236546 0,-3.3333 -0.1407,-0.867065 -0.212184,-1.878861 -0.8333,-2.5 -0.621124,-0.621146 -1.632927,-0.692683 -2.5,-0.8334 -1.096751,-0.177992 -2.2222,0 -3.3333,0 -1.111133,0 -2.222267,0 -3.3334,0 -1.1111,0 -2.236549,-0.177992 -3.3333,0 -0.867073,0.140717 -1.878876,0.212254 -2.5,0.8334 -0.621116,0.621139 -0.555518,1.666672 -0.8333,2.5 -0.277785,0.833338 -0.212254,1.878876 -0.8334,2.5 -0.621139,0.621116 -2.107169,0.04763 -2.5,0.8333 z"
       id="path82"
       inkscape:connector-curvature="0"
       sodipodi:nodetypes="aaaaaaaaaaaaaaaaaaa" />
  </g>
</svg>
