<?xml version="1.0" standalone="no" ?>
<!DOCTYPE svg PUBLIC "-//W3C//DTD SVG 1.1//EN" "http://www.w3.org/Graphics/SVG/1.1/DTD/svg11.dtd">
<svg width="100px" height="100px" xmlns="http://www.w3.org/2000/svg" version="1.1" >
	<path d="M0,100 2.77778,100 5.55556,100 8.33333,100 11.1111,100 13.8889,100 16.6667,100 19.4444,100 22.2222,100 25,100 27.7778,100 30.5556,100 33.3333,100 36.1111,100 38.8889,100 41.6667,100 44.4444,100 47.2222,100 50,100 52.7778,100 55.5556,100 58.3333,100 61.1111,100 63.8889,100 66.6667,100 69.4444,100 72.2222,100 75,100 77.7778,100 80.5555,100 83.3333,100 86.1111,100 88.8889,100 91.6667,100 94.4444,100 97.2222,100 100,100 100,97.2222 100,94.4444 100,91.6667 100,88.8889 100,86.1111 100,83.3333 100,80.5556 100,77.7778 100,75 100,72.2222 100,69.4444 100,66.6667 100,63.8889 100,61.1111 94.4444,61.1111 93.0555,65.2778 90.2778,68.0556 87.5,65.2778 83.3333,66.6667 77.7778,66.6667 72.2222,66.6667 66.6667,66.6667 61.1111,66.6667 55.5556,66.6667 51.3889,68.0556 48.6111,65.2778 45.8333,65.2778 43.0556,62.5 40.2778,62.5 37.5,65.2778 34.7222,65.2778 31.9444,62.5 29.1667,62.5 27.7778,66.6667 23.6111,65.2778 20.8333,62.5 16.6667,61.1111 16.6667,55.5556 16.6667,50 16.6667,44.4444 16.6667,38.8889 18.0556,34.7222 20.8333,31.9445 23.6111,34.7222 27.7778,33.3333 27.7778,27.7778 31.9444,29.1667 33.3333,33.3333 38.8889,33.3333 44.4444,33.3333 50,33.3333 54.1667,31.9445 56.9444,34.7222 59.7222,31.9445 62.5,34.7222 65.2778,34.7222 66.6667,38.8889 72.2222,38.8889 76.3889,40.2778 77.7778,44.4444 83.3333,44.4444 88.8889,44.4444 94.4444,44.4444 100,44.4444 100,41.6667 100,38.8889 100,36.1111 100,33.3333 100,30.5556 100,27.7778 100,25 100,22.2222 100,19.4445 100,16.6667 100,13.8889 100,11.1111 100,8.33334 100,5.55556 100,2.77778 100,0 97.2222,0 94.4444,0 91.6667,0 88.8889,0 86.1111,0 83.3333,0 80.5555,0 77.7778,0 75,0 72.2222,0 69.4444,0 66.6667,0 63.8889,0 61.1111,0 58.3333,0 55.5556,0 52.7778,0 50,0 47.2222,0 44.4444,0 41.6667,0 38.8889,0 36.1111,0 33.3333,0 30.5556,0 27.7778,0 25,0 22.2222,0 19.4444,0 16.6667,0 13.8889,0 11.1111,0 8.33333,0 5.55556,0 2.77778,0 0,0 0,2.77778 0,5.55556 0,8.33334 0,11.1111 0,13.8889 0,16.6667 0,19.4445 0,22.2222 0,25 0,27.7778 0,30.5556 0,33.3333 0,36.1111 0,38.8889 0,41.6667 0,44.4444 0,47.2222 0,50 0,52.7778 0,55.5556 0,58.3333 0,61.1111 0,63.8889 0,66.6667 0,69.4444 0,72.2222 0,75 0,77.7778 0,80.5556 0,83.3333 0,86.1111 0,88.8889 0,91.6667 0,94.4444 0,97.2222 z " fill-rule="evenodd" fill="rgb(196,196,196)" stroke-width="1" stroke="rgb(255,255,255)" />
	<path d="M16.6667,61.1111 20.8333,62.5 23.6111,65.2778 27.7778,66.6667 29.1667,62.5 31.9444,62.5 34.7222,65.2778 37.5,65.2778 40.2778,62.5 43.0556,62.5 45.8333,65.2778 48.6111,65.2778 48.6111,62.5 45.8333,59.7222 43.0556,56.9444 40.2778,56.9444 37.5,59.7222 34.7222,59.7222 31.9444,56.9444 29.1667,56.9444 26.3889,59.7222 23.6111,59.7222 22.2222,55.5556 16.6667,55.5556 z " fill-rule="evenodd" fill="rgb(248,16,88)" stroke-width="1" stroke="rgb(255,255,255)" />
	<path d="M16.6667,55.5556 22.2222,55.5556 22.2222,50 23.6111,45.8333 26.3889,43.0556 27.7778,38.8889 27.7778,33.3333 23.6111,34.7222 20.8333,31.9445 18.0556,34.7222 16.6667,38.8889 16.6667,44.4444 16.6667,50 z " fill-rule="evenodd" fill="rgb(224,224,224)" stroke-width="1" stroke="rgb(255,255,255)" />
	<path d="M22.2222,55.5556 23.6111,59.7222 26.3889,59.7222 29.1667,56.9444 31.9444,56.9444 34.7222,59.7222 37.5,59.7222 40.2778,56.9444 43.0556,56.9444 45.8333,59.7222 48.6111,62.5 48.6111,65.2778 51.3889,68.0556 55.5556,66.6667 61.1111,66.6667 66.6667,66.6667 72.2222,66.6667 77.7778,66.6667 83.3333,66.6667 87.5,65.2778 90.2778,68.0556 93.0555,65.2778 94.4444,61.1111 100,61.1111 100,58.3333 100,55.5556 100,52.7778 100,50 100,47.2222 100,44.4444 94.4444,44.4444 88.8889,44.4444 83.3333,44.4444 77.7778,44.4444 76.3889,40.2778 72.2222,38.8889 66.6667,38.8889 65.2778,34.7222 62.5,34.7222 59.7222,31.9445 56.9444,34.7222 54.1667,31.9445 50,33.3333 44.4444,33.3333 38.8889,33.3333 33.3333,33.3333 31.9444,29.1667 27.7778,27.7778 27.7778,33.3333 27.7778,38.8889 26.3889,43.0556 23.6111,45.8333 22.2222,50 z " fill-rule="evenodd" fill="rgb(248,248,248)" stroke-width="1" stroke="rgb(255,255,255)" />
</svg>
