<?xml version="1.0" standalone="no" ?>
<!DOCTYPE svg PUBLIC "-//W3C//DTD SVG 1.1//EN" "http://www.w3.org/Graphics/SVG/1.1/DTD/svg11.dtd">
<svg width="100px" height="100px" xmlns="http://www.w3.org/2000/svg" version="1.1" >
	<line x1="0" y1="100" x2="7.69231" y2="100" stroke-width="2" stroke="rgb(0,0,0)" />
	<line x1="0" y1="92.3077" x2="0" y2="100" stroke-width="2" stroke="rgb(0,0,0)" />
	<line x1="0" y1="92.3077" x2="7.69231" y2="92.3077" stroke-width="2" stroke="rgb(0,0,0)" />
	<line x1="0" y1="84.6154" x2="0" y2="92.3077" stroke-width="2" stroke="rgb(0,0,0)" />
	<line x1="0" y1="84.6154" x2="7.69231" y2="84.6154" stroke-width="2" stroke="rgb(0,0,0)" />
	<line x1="0" y1="76.9231" x2="0" y2="84.6154" stroke-width="2" stroke="rgb(0,0,0)" />
	<line x1="0" y1="76.9231" x2="7.69231" y2="76.9231" stroke-width="2" stroke="rgb(0,0,0)" />
	<line x1="0" y1="69.2308" x2="0" y2="76.9231" stroke-width="2" stroke="rgb(0,0,0)" />
	<line x1="0" y1="69.2308" x2="7.69231" y2="76.9231" stroke-width="2" stroke="rgb(0,0,0)" />
	<line x1="0" y1="69.2308" x2="7.69231" y2="69.2308" stroke-width="2" stroke="rgb(0,0,0)" />
	<line x1="0" y1="61.5385" x2="0" y2="69.2308" stroke-width="2" stroke="rgb(0,0,0)" />
	<line x1="0" y1="61.5385" x2="7.69231" y2="61.5385" stroke-width="2" stroke="rgb(0,0,0)" />
	<line x1="0" y1="53.8462" x2="0" y2="61.5385" stroke-width="2" stroke="rgb(0,0,0)" />
	<line x1="0" y1="53.8462" x2="7.69231" y2="53.8462" stroke-width="2" stroke="rgb(0,0,0)" />
	<line x1="0" y1="46.1538" x2="0" y2="53.8462" stroke-width="2" stroke="rgb(0,0,0)" />
	<line x1="0" y1="46.1538" x2="7.69231" y2="46.1538" stroke-width="2" stroke="rgb(0,0,0)" />
	<line x1="0" y1="38.4615" x2="0" y2="46.1538" stroke-width="2" stroke="rgb(0,0,0)" />
	<line x1="0" y1="38.4615" x2="7.69231" y2="38.4615" stroke-width="2" stroke="rgb(0,0,0)" />
	<line x1="0" y1="30.7692" x2="0" y2="38.4615" stroke-width="2" stroke="rgb(0,0,0)" />
	<line x1="0" y1="30.7692" x2="7.69231" y2="30.7692" stroke-width="2" stroke="rgb(0,0,0)" />
	<line x1="7.69231" y1="100" x2="15.3846" y2="100" stroke-width="2" stroke="rgb(0,0,0)" />
	<line x1="7.69231" y1="92.3077" x2="7.69231" y2="100" stroke-width="2" stroke="rgb(0,0,0)" />
	<line x1="7.69231" y1="92.3077" x2="15.3846" y2="100" stroke-width="2" stroke="rgb(0,0,0)" />
	<line x1="7.69231" y1="92.3077" x2="15.3846" y2="92.3077" stroke-width="2" stroke="rgb(0,0,0)" />
	<line x1="7.69231" y1="84.6154" x2="7.69231" y2="92.3077" stroke-width="2" stroke="rgb(0,0,0)" />
	<line x1="7.69231" y1="84.6154" x2="15.3846" y2="84.6154" stroke-width="2" stroke="rgb(0,0,0)" />
	<line x1="7.69231" y1="76.9231" x2="7.69231" y2="84.6154" stroke-width="2" stroke="rgb(0,0,0)" />
	<line x1="7.69231" y1="76.9231" x2="15.3846" y2="84.6154" stroke-width="2" stroke="rgb(0,0,0)" />
	<line x1="7.69231" y1="76.9231" x2="15.3846" y2="76.9231" stroke-width="2" stroke="rgb(0,0,0)" />
	<line x1="7.69231" y1="69.2308" x2="15.3846" y2="76.9231" stroke-width="2" stroke="rgb(0,0,0)" />
	<line x1="7.69231" y1="69.2308" x2="15.3846" y2="69.2308" stroke-width="2" stroke="rgb(0,0,0)" />
	<line x1="7.69231" y1="61.5385" x2="7.69231" y2="69.2308" stroke-width="2" stroke="rgb(0,0,0)" />
	<line x1="7.69231" y1="61.5385" x2="15.3846" y2="61.5385" stroke-width="2" stroke="rgb(0,0,0)" />
	<line x1="7.69231" y1="53.8462" x2="7.69231" y2="61.5385" stroke-width="2" stroke="rgb(0,0,0)" />
	<line x1="7.69231" y1="53.8462" x2="15.3846" y2="61.5385" stroke-width="2" stroke="rgb(0,0,0)" />
	<line x1="7.69231" y1="46.1538" x2="7.69231" y2="53.8462" stroke-width="2" stroke="rgb(0,0,0)" />
	<line x1="7.69231" y1="38.4615" x2="7.69231" y2="46.1538" stroke-width="2" stroke="rgb(0,0,0)" />
	<line x1="7.69231" y1="38.4615" x2="15.3846" y2="46.1538" stroke-width="2" stroke="rgb(0,0,0)" />
	<line x1="7.69231" y1="38.4615" x2="15.3846" y2="38.4615" stroke-width="2" stroke="rgb(0,0,0)" />
	<line x1="7.69231" y1="30.7692" x2="7.69231" y2="38.4615" stroke-width="2" stroke="rgb(0,0,0)" />
	<line x1="7.69231" y1="30.7692" x2="15.3846" y2="30.7692" stroke-width="2" stroke="rgb(0,0,0)" />
	<line x1="15.3846" y1="100" x2="23.0769" y2="100" stroke-width="2" stroke="rgb(0,0,0)" />
	<line x1="15.3846" y1="100" x2="23.0769" y2="92.3077" stroke-width="2" stroke="rgb(0,0,0)" />
	<line x1="15.3846" y1="92.3077" x2="23.0769" y2="84.6154" stroke-width="2" stroke="rgb(0,0,0)" />
	<line x1="15.3846" y1="84.6154" x2="15.3846" y2="92.3077" stroke-width="2" stroke="rgb(0,0,0)" />
	<line x1="15.3846" y1="84.6154" x2="23.0769" y2="84.6154" stroke-width="2" stroke="rgb(0,0,0)" />
	<line x1="15.3846" y1="76.9231" x2="23.0769" y2="84.6154" stroke-width="2" stroke="rgb(0,0,0)" />
	<line x1="15.3846" y1="76.9231" x2="23.0769" y2="76.9231" stroke-width="2" stroke="rgb(0,0,0)" />
	<line x1="15.3846" y1="69.2308" x2="15.3846" y2="76.9231" stroke-width="2" stroke="rgb(0,0,0)" />
	<line x1="15.3846" y1="69.2308" x2="23.0769" y2="69.2308" stroke-width="2" stroke="rgb(0,0,0)" />
	<line x1="15.3846" y1="61.5385" x2="15.3846" y2="69.2308" stroke-width="2" stroke="rgb(0,0,0)" />
	<line x1="15.3846" y1="61.5385" x2="23.0769" y2="61.5385" stroke-width="2" stroke="rgb(0,0,0)" />
	<line x1="15.3846" y1="53.8462" x2="15.3846" y2="61.5385" stroke-width="2" stroke="rgb(0,0,0)" />
	<line x1="15.3846" y1="53.8462" x2="23.0769" y2="53.8462" stroke-width="2" stroke="rgb(0,0,0)" />
	<line x1="15.3846" y1="46.1538" x2="15.3846" y2="53.8462" stroke-width="2" stroke="rgb(0,0,0)" />
	<line x1="15.3846" y1="46.1538" x2="23.0769" y2="46.1538" stroke-width="2" stroke="rgb(0,0,0)" />
	<line x1="15.3846" y1="38.4615" x2="15.3846" y2="46.1538" stroke-width="2" stroke="rgb(0,0,0)" />
	<line x1="15.3846" y1="38.4615" x2="23.0769" y2="46.1538" stroke-width="2" stroke="rgb(0,0,0)" />
	<line x1="15.3846" y1="38.4615" x2="23.0769" y2="38.4615" stroke-width="2" stroke="rgb(0,0,0)" />
	<line x1="15.3846" y1="30.7692" x2="15.3846" y2="38.4615" stroke-width="2" stroke="rgb(0,0,0)" />
	<line x1="15.3846" y1="30.7692" x2="23.0769" y2="30.7692" stroke-width="2" stroke="rgb(0,0,0)" />
	<line x1="23.0769" y1="100" x2="30.7692" y2="100" stroke-width="2" stroke="rgb(0,0,0)" />
	<line x1="23.0769" y1="92.3077" x2="23.0769" y2="100" stroke-width="2" stroke="rgb(0,0,0)" />
	<line x1="23.0769" y1="92.3077" x2="30.7692" y2="92.3077" stroke-width="2" stroke="rgb(0,0,0)" />
	<line x1="23.0769" y1="92.3077" x2="30.7692" y2="84.6154" stroke-width="2" stroke="rgb(0,0,0)" />
	<line x1="23.0769" y1="84.6154" x2="30.7692" y2="76.9231" stroke-width="2" stroke="rgb(0,0,0)" />
	<line x1="23.0769" y1="76.9231" x2="23.0769" y2="84.6154" stroke-width="2" stroke="rgb(0,0,0)" />
	<line x1="23.0769" y1="76.9231" x2="30.7692" y2="76.9231" stroke-width="2" stroke="rgb(0,0,0)" />
	<line x1="23.0769" y1="69.2308" x2="23.0769" y2="76.9231" stroke-width="2" stroke="rgb(0,0,0)" />
	<line x1="23.0769" y1="69.2308" x2="30.7692" y2="69.2308" stroke-width="2" stroke="rgb(0,0,0)" />
	<line x1="23.0769" y1="61.5385" x2="23.0769" y2="69.2308" stroke-width="2" stroke="rgb(0,0,0)" />
	<line x1="23.0769" y1="61.5385" x2="30.7692" y2="69.2308" stroke-width="2" stroke="rgb(0,0,0)" />
	<line x1="23.0769" y1="61.5385" x2="30.7692" y2="53.8462" stroke-width="2" stroke="rgb(0,0,0)" />
	<line x1="23.0769" y1="53.8462" x2="23.0769" y2="61.5385" stroke-width="2" stroke="rgb(0,0,0)" />
	<line x1="23.0769" y1="53.8462" x2="30.7692" y2="53.8462" stroke-width="2" stroke="rgb(0,0,0)" />
	<line x1="23.0769" y1="46.1538" x2="23.0769" y2="53.8462" stroke-width="2" stroke="rgb(0,0,0)" />
	<line x1="23.0769" y1="46.1538" x2="30.7692" y2="46.1538" stroke-width="2" stroke="rgb(0,0,0)" />
	<line x1="23.0769" y1="38.4615" x2="30.7692" y2="46.1538" stroke-width="2" stroke="rgb(0,0,0)" />
	<line x1="23.0769" y1="30.7692" x2="23.0769" y2="38.4615" stroke-width="2" stroke="rgb(0,0,0)" />
	<line x1="23.0769" y1="30.7692" x2="30.7692" y2="38.4615" stroke-width="2" stroke="rgb(0,0,0)" />
	<line x1="23.0769" y1="30.7692" x2="30.7692" y2="30.7692" stroke-width="2" stroke="rgb(0,0,0)" />
	<line x1="30.7692" y1="100" x2="38.4615" y2="100" stroke-width="2" stroke="rgb(0,0,0)" />
	<line x1="30.7692" y1="92.3077" x2="30.7692" y2="100" stroke-width="2" stroke="rgb(0,0,0)" />
	<line x1="30.7692" y1="92.3077" x2="38.4615" y2="92.3077" stroke-width="2" stroke="rgb(0,0,0)" />
	<line x1="30.7692" y1="84.6154" x2="30.7692" y2="92.3077" stroke-width="2" stroke="rgb(0,0,0)" />
	<line x1="30.7692" y1="84.6154" x2="38.4615" y2="84.6154" stroke-width="2" stroke="rgb(0,0,0)" />
	<line x1="30.7692" y1="84.6154" x2="38.4615" y2="76.9231" stroke-width="2" stroke="rgb(0,0,0)" />
	<line x1="30.7692" y1="76.9231" x2="38.4615" y2="76.9231" stroke-width="2" stroke="rgb(0,0,0)" />
	<line x1="30.7692" y1="69.2308" x2="30.7692" y2="76.9231" stroke-width="2" stroke="rgb(0,0,0)" />
	<line x1="30.7692" y1="69.2308" x2="38.4615" y2="69.2308" stroke-width="2" stroke="rgb(0,0,0)" />
	<line x1="30.7692" y1="61.5385" x2="30.7692" y2="69.2308" stroke-width="2" stroke="rgb(0,0,0)" />
	<line x1="30.7692" y1="61.5385" x2="38.4615" y2="61.5385" stroke-width="2" stroke="rgb(0,0,0)" />
	<line x1="30.7692" y1="53.8462" x2="38.4615" y2="61.5385" stroke-width="2" stroke="rgb(0,0,0)" />
	<line x1="30.7692" y1="53.8462" x2="38.4615" y2="53.8462" stroke-width="2" stroke="rgb(0,0,0)" />
	<line x1="30.7692" y1="46.1538" x2="30.7692" y2="53.8462" stroke-width="2" stroke="rgb(0,0,0)" />
	<line x1="30.7692" y1="46.1538" x2="38.4615" y2="53.8462" stroke-width="2" stroke="rgb(0,0,0)" />
	<line x1="30.7692" y1="38.4615" x2="30.7692" y2="46.1538" stroke-width="2" stroke="rgb(0,0,0)" />
	<line x1="30.7692" y1="38.4615" x2="38.4615" y2="46.1538" stroke-width="2" stroke="rgb(0,0,0)" />
	<line x1="30.7692" y1="38.4615" x2="38.4615" y2="38.4615" stroke-width="2" stroke="rgb(0,0,0)" />
	<line x1="30.7692" y1="30.7692" x2="30.7692" y2="38.4615" stroke-width="2" stroke="rgb(0,0,0)" />
	<line x1="30.7692" y1="30.7692" x2="38.4615" y2="30.7692" stroke-width="2" stroke="rgb(0,0,0)" />
	<line x1="38.4615" y1="100" x2="46.1538" y2="100" stroke-width="2" stroke="rgb(0,0,0)" />
	<line x1="38.4615" y1="92.3077" x2="38.4615" y2="100" stroke-width="2" stroke="rgb(0,0,0)" />
	<line x1="38.4615" y1="92.3077" x2="46.1538" y2="92.3077" stroke-width="2" stroke="rgb(0,0,0)" />
	<line x1="38.4615" y1="84.6154" x2="38.4615" y2="92.3077" stroke-width="2" stroke="rgb(0,0,0)" />
	<line x1="38.4615" y1="84.6154" x2="46.1538" y2="84.6154" stroke-width="2" stroke="rgb(0,0,0)" />
	<line x1="38.4615" y1="84.6154" x2="46.1538" y2="76.9231" stroke-width="2" stroke="rgb(0,0,0)" />
	<line x1="38.4615" y1="76.9231" x2="46.1538" y2="76.9231" stroke-width="2" stroke="rgb(0,0,0)" />
	<line x1="38.4615" y1="69.2308" x2="38.4615" y2="76.9231" stroke-width="2" stroke="rgb(0,0,0)" />
	<line x1="38.4615" y1="69.2308" x2="46.1538" y2="69.2308" stroke-width="2" stroke="rgb(0,0,0)" />
	<line x1="38.4615" y1="61.5385" x2="38.4615" y2="69.2308" stroke-width="2" stroke="rgb(0,0,0)" />
	<line x1="38.4615" y1="61.5385" x2="46.1538" y2="61.5385" stroke-width="2" stroke="rgb(0,0,0)" />
	<line x1="38.4615" y1="53.8462" x2="38.4615" y2="61.5385" stroke-width="2" stroke="rgb(0,0,0)" />
	<line x1="38.4615" y1="53.8462" x2="46.1538" y2="53.8462" stroke-width="2" stroke="rgb(0,0,0)" />
	<line x1="38.4615" y1="46.1538" x2="38.4615" y2="53.8462" stroke-width="2" stroke="rgb(0,0,0)" />
	<line x1="38.4615" y1="46.1538" x2="46.1538" y2="46.1538" stroke-width="2" stroke="rgb(0,0,0)" />
	<line x1="38.4615" y1="38.4615" x2="38.4615" y2="46.1538" stroke-width="2" stroke="rgb(0,0,0)" />
	<line x1="38.4615" y1="38.4615" x2="46.1538" y2="38.4615" stroke-width="2" stroke="rgb(0,0,0)" />
	<line x1="38.4615" y1="30.7692" x2="38.4615" y2="38.4615" stroke-width="2" stroke="rgb(0,0,0)" />
	<line x1="38.4615" y1="30.7692" x2="46.1538" y2="30.7692" stroke-width="2" stroke="rgb(0,0,0)" />
	<line x1="46.1538" y1="100" x2="53.8462" y2="100" stroke-width="2" stroke="rgb(0,0,0)" />
	<line x1="46.1538" y1="92.3077" x2="46.1538" y2="100" stroke-width="2" stroke="rgb(0,0,0)" />
	<line x1="46.1538" y1="92.3077" x2="53.8462" y2="92.3077" stroke-width="2" stroke="rgb(0,0,0)" />
	<line x1="46.1538" y1="84.6154" x2="46.1538" y2="92.3077" stroke-width="2" stroke="rgb(0,0,0)" />
	<line x1="46.1538" y1="84.6154" x2="53.8462" y2="84.6154" stroke-width="2" stroke="rgb(0,0,0)" />
	<line x1="46.1538" y1="84.6154" x2="53.8462" y2="76.9231" stroke-width="2" stroke="rgb(0,0,0)" />
	<line x1="46.1538" y1="76.9231" x2="53.8462" y2="76.9231" stroke-width="2" stroke="rgb(0,0,0)" />
	<line x1="46.1538" y1="69.2308" x2="46.1538" y2="76.9231" stroke-width="2" stroke="rgb(0,0,0)" />
	<line x1="46.1538" y1="69.2308" x2="53.8462" y2="69.2308" stroke-width="2" stroke="rgb(0,0,0)" />
	<line x1="46.1538" y1="61.5385" x2="46.1538" y2="69.2308" stroke-width="2" stroke="rgb(0,0,0)" />
	<line x1="46.1538" y1="61.5385" x2="53.8462" y2="61.5385" stroke-width="2" stroke="rgb(0,0,0)" />
	<line x1="46.1538" y1="53.8462" x2="46.1538" y2="61.5385" stroke-width="2" stroke="rgb(0,0,0)" />
	<line x1="46.1538" y1="53.8462" x2="53.8462" y2="53.8462" stroke-width="2" stroke="rgb(0,0,0)" />
	<line x1="46.1538" y1="46.1538" x2="46.1538" y2="53.8462" stroke-width="2" stroke="rgb(0,0,0)" />
	<line x1="46.1538" y1="46.1538" x2="53.8462" y2="46.1538" stroke-width="2" stroke="rgb(0,0,0)" />
	<line x1="46.1538" y1="38.4615" x2="46.1538" y2="46.1538" stroke-width="2" stroke="rgb(0,0,0)" />
	<line x1="46.1538" y1="38.4615" x2="53.8462" y2="38.4615" stroke-width="2" stroke="rgb(0,0,0)" />
	<line x1="46.1538" y1="30.7692" x2="46.1538" y2="38.4615" stroke-width="2" stroke="rgb(0,0,0)" />
	<line x1="46.1538" y1="30.7692" x2="53.8462" y2="30.7692" stroke-width="2" stroke="rgb(0,0,0)" />
	<line x1="53.8462" y1="100" x2="61.5385" y2="100" stroke-width="2" stroke="rgb(0,0,0)" />
	<line x1="53.8462" y1="92.3077" x2="53.8462" y2="100" stroke-width="2" stroke="rgb(0,0,0)" />
	<line x1="53.8462" y1="92.3077" x2="61.5385" y2="92.3077" stroke-width="2" stroke="rgb(0,0,0)" />
	<line x1="53.8462" y1="84.6154" x2="53.8462" y2="92.3077" stroke-width="2" stroke="rgb(0,0,0)" />
	<line x1="53.8462" y1="84.6154" x2="61.5385" y2="84.6154" stroke-width="2" stroke="rgb(0,0,0)" />
	<line x1="53.8462" y1="84.6154" x2="61.5385" y2="76.9231" stroke-width="2" stroke="rgb(0,0,0)" />
	<line x1="53.8462" y1="76.9231" x2="61.5385" y2="76.9231" stroke-width="2" stroke="rgb(0,0,0)" />
	<line x1="53.8462" y1="69.2308" x2="53.8462" y2="76.9231" stroke-width="2" stroke="rgb(0,0,0)" />
	<line x1="53.8462" y1="69.2308" x2="61.5385" y2="69.2308" stroke-width="2" stroke="rgb(0,0,0)" />
	<line x1="53.8462" y1="61.5385" x2="53.8462" y2="69.2308" stroke-width="2" stroke="rgb(0,0,0)" />
	<line x1="53.8462" y1="61.5385" x2="61.5385" y2="69.2308" stroke-width="2" stroke="rgb(0,0,0)" />
	<line x1="53.8462" y1="61.5385" x2="61.5385" y2="53.8462" stroke-width="2" stroke="rgb(0,0,0)" />
	<line x1="53.8462" y1="53.8462" x2="53.8462" y2="61.5385" stroke-width="2" stroke="rgb(0,0,0)" />
	<line x1="53.8462" y1="53.8462" x2="61.5385" y2="53.8462" stroke-width="2" stroke="rgb(0,0,0)" />
	<line x1="53.8462" y1="46.1538" x2="53.8462" y2="53.8462" stroke-width="2" stroke="rgb(0,0,0)" />
	<line x1="53.8462" y1="46.1538" x2="61.5385" y2="46.1538" stroke-width="2" stroke="rgb(0,0,0)" />
	<line x1="53.8462" y1="38.4615" x2="53.8462" y2="46.1538" stroke-width="2" stroke="rgb(0,0,0)" />
	<line x1="53.8462" y1="38.4615" x2="61.5385" y2="38.4615" stroke-width="2" stroke="rgb(0,0,0)" />
	<line x1="53.8462" y1="30.7692" x2="53.8462" y2="38.4615" stroke-width="2" stroke="rgb(0,0,0)" />
	<line x1="53.8462" y1="30.7692" x2="61.5385" y2="30.7692" stroke-width="2" stroke="rgb(0,0,0)" />
	<line x1="61.5385" y1="100" x2="69.2308" y2="100" stroke-width="2" stroke="rgb(0,0,0)" />
	<line x1="61.5385" y1="92.3077" x2="61.5385" y2="100" stroke-width="2" stroke="rgb(0,0,0)" />
	<line x1="61.5385" y1="92.3077" x2="69.2308" y2="92.3077" stroke-width="2" stroke="rgb(0,0,0)" />
	<line x1="61.5385" y1="84.6154" x2="61.5385" y2="92.3077" stroke-width="2" stroke="rgb(0,0,0)" />
	<line x1="61.5385" y1="84.6154" x2="69.2308" y2="92.3077" stroke-width="2" stroke="rgb(0,0,0)" />
	<line x1="61.5385" y1="84.6154" x2="69.2308" y2="84.6154" stroke-width="2" stroke="rgb(0,0,0)" />
	<line x1="61.5385" y1="76.9231" x2="69.2308" y2="84.6154" stroke-width="2" stroke="rgb(0,0,0)" />
	<line x1="61.5385" y1="76.9231" x2="69.2308" y2="76.9231" stroke-width="2" stroke="rgb(0,0,0)" />
	<line x1="61.5385" y1="69.2308" x2="61.5385" y2="76.9231" stroke-width="2" stroke="rgb(0,0,0)" />
	<line x1="61.5385" y1="69.2308" x2="69.2308" y2="69.2308" stroke-width="2" stroke="rgb(0,0,0)" />
	<line x1="61.5385" y1="61.5385" x2="61.5385" y2="69.2308" stroke-width="2" stroke="rgb(0,0,0)" />
	<line x1="61.5385" y1="61.5385" x2="69.2308" y2="61.5385" stroke-width="2" stroke="rgb(0,0,0)" />
	<line x1="61.5385" y1="61.5385" x2="69.2308" y2="53.8462" stroke-width="2" stroke="rgb(0,0,0)" />
	<line x1="61.5385" y1="53.8462" x2="69.2308" y2="53.8462" stroke-width="2" stroke="rgb(0,0,0)" />
	<line x1="61.5385" y1="46.1538" x2="61.5385" y2="53.8462" stroke-width="2" stroke="rgb(0,0,0)" />
	<line x1="61.5385" y1="46.1538" x2="69.2308" y2="53.8462" stroke-width="2" stroke="rgb(0,0,0)" />
	<line x1="61.5385" y1="38.4615" x2="61.5385" y2="46.1538" stroke-width="2" stroke="rgb(0,0,0)" />
	<line x1="61.5385" y1="38.4615" x2="69.2308" y2="46.1538" stroke-width="2" stroke="rgb(0,0,0)" />
	<line x1="61.5385" y1="38.4615" x2="69.2308" y2="38.4615" stroke-width="2" stroke="rgb(0,0,0)" />
	<line x1="61.5385" y1="30.7692" x2="61.5385" y2="38.4615" stroke-width="2" stroke="rgb(0,0,0)" />
	<line x1="61.5385" y1="30.7692" x2="69.2308" y2="30.7692" stroke-width="2" stroke="rgb(0,0,0)" />
	<line x1="69.2308" y1="100" x2="76.9231" y2="100" stroke-width="2" stroke="rgb(0,0,0)" />
	<line x1="69.2308" y1="92.3077" x2="69.2308" y2="100" stroke-width="2" stroke="rgb(0,0,0)" />
	<line x1="69.2308" y1="92.3077" x2="76.9231" y2="100" stroke-width="2" stroke="rgb(0,0,0)" />
	<line x1="69.2308" y1="92.3077" x2="76.9231" y2="92.3077" stroke-width="2" stroke="rgb(0,0,0)" />
	<line x1="69.2308" y1="84.6154" x2="76.9231" y2="92.3077" stroke-width="2" stroke="rgb(0,0,0)" />
	<line x1="69.2308" y1="84.6154" x2="76.9231" y2="76.9231" stroke-width="2" stroke="rgb(0,0,0)" />
	<line x1="69.2308" y1="76.9231" x2="69.2308" y2="84.6154" stroke-width="2" stroke="rgb(0,0,0)" />
	<line x1="69.2308" y1="76.9231" x2="76.9231" y2="76.9231" stroke-width="2" stroke="rgb(0,0,0)" />
	<line x1="69.2308" y1="69.2308" x2="69.2308" y2="76.9231" stroke-width="2" stroke="rgb(0,0,0)" />
	<line x1="69.2308" y1="69.2308" x2="76.9231" y2="69.2308" stroke-width="2" stroke="rgb(0,0,0)" />
	<line x1="69.2308" y1="61.5385" x2="69.2308" y2="69.2308" stroke-width="2" stroke="rgb(0,0,0)" />
	<line x1="69.2308" y1="61.5385" x2="76.9231" y2="61.5385" stroke-width="2" stroke="rgb(0,0,0)" />
	<line x1="69.2308" y1="53.8462" x2="69.2308" y2="61.5385" stroke-width="2" stroke="rgb(0,0,0)" />
	<line x1="69.2308" y1="53.8462" x2="76.9231" y2="61.5385" stroke-width="2" stroke="rgb(0,0,0)" />
	<line x1="69.2308" y1="46.1538" x2="69.2308" y2="53.8462" stroke-width="2" stroke="rgb(0,0,0)" />
	<line x1="69.2308" y1="46.1538" x2="76.9231" y2="53.8462" stroke-width="2" stroke="rgb(0,0,0)" />
	<line x1="69.2308" y1="46.1538" x2="76.9231" y2="46.1538" stroke-width="2" stroke="rgb(0,0,0)" />
	<line x1="69.2308" y1="46.1538" x2="76.9231" y2="38.4615" stroke-width="2" stroke="rgb(0,0,0)" />
	<line x1="69.2308" y1="30.7692" x2="69.2308" y2="38.4615" stroke-width="2" stroke="rgb(0,0,0)" />
	<line x1="69.2308" y1="30.7692" x2="76.9231" y2="38.4615" stroke-width="2" stroke="rgb(0,0,0)" />
	<line x1="69.2308" y1="30.7692" x2="76.9231" y2="30.7692" stroke-width="2" stroke="rgb(0,0,0)" />
	<line x1="76.9231" y1="100" x2="84.6154" y2="100" stroke-width="2" stroke="rgb(0,0,0)" />
	<line x1="76.9231" y1="100" x2="84.6154" y2="92.3077" stroke-width="2" stroke="rgb(0,0,0)" />
	<line x1="76.9231" y1="84.6154" x2="76.9231" y2="92.3077" stroke-width="2" stroke="rgb(0,0,0)" />
	<line x1="76.9231" y1="84.6154" x2="84.6154" y2="92.3077" stroke-width="2" stroke="rgb(0,0,0)" />
	<line x1="76.9231" y1="84.6154" x2="84.6154" y2="84.6154" stroke-width="2" stroke="rgb(0,0,0)" />
	<line x1="76.9231" y1="84.6154" x2="84.6154" y2="76.9231" stroke-width="2" stroke="rgb(0,0,0)" />
	<line x1="76.9231" y1="76.9231" x2="84.6154" y2="69.2308" stroke-width="2" stroke="rgb(0,0,0)" />
	<line x1="76.9231" y1="69.2308" x2="76.9231" y2="76.9231" stroke-width="2" stroke="rgb(0,0,0)" />
	<line x1="76.9231" y1="69.2308" x2="84.6154" y2="69.2308" stroke-width="2" stroke="rgb(0,0,0)" />
	<line x1="76.9231" y1="61.5385" x2="76.9231" y2="69.2308" stroke-width="2" stroke="rgb(0,0,0)" />
	<line x1="76.9231" y1="61.5385" x2="84.6154" y2="61.5385" stroke-width="2" stroke="rgb(0,0,0)" />
	<line x1="76.9231" y1="53.8462" x2="76.9231" y2="61.5385" stroke-width="2" stroke="rgb(0,0,0)" />
	<line x1="76.9231" y1="53.8462" x2="84.6154" y2="53.8462" stroke-width="2" stroke="rgb(0,0,0)" />
	<line x1="76.9231" y1="46.1538" x2="76.9231" y2="53.8462" stroke-width="2" stroke="rgb(0,0,0)" />
	<line x1="76.9231" y1="46.1538" x2="84.6154" y2="46.1538" stroke-width="2" stroke="rgb(0,0,0)" />
	<line x1="76.9231" y1="38.4615" x2="76.9231" y2="46.1538" stroke-width="2" stroke="rgb(0,0,0)" />
	<line x1="76.9231" y1="38.4615" x2="84.6154" y2="38.4615" stroke-width="2" stroke="rgb(0,0,0)" />
	<line x1="76.9231" y1="30.7692" x2="76.9231" y2="38.4615" stroke-width="2" stroke="rgb(0,0,0)" />
	<line x1="76.9231" y1="30.7692" x2="84.6154" y2="30.7692" stroke-width="2" stroke="rgb(0,0,0)" />
	<line x1="84.6154" y1="100" x2="92.3077" y2="100" stroke-width="2" stroke="rgb(0,0,0)" />
	<line x1="84.6154" y1="92.3077" x2="84.6154" y2="100" stroke-width="2" stroke="rgb(0,0,0)" />
	<line x1="84.6154" y1="92.3077" x2="92.3077" y2="92.3077" stroke-width="2" stroke="rgb(0,0,0)" />
	<line x1="84.6154" y1="84.6154" x2="84.6154" y2="92.3077" stroke-width="2" stroke="rgb(0,0,0)" />
	<line x1="84.6154" y1="84.6154" x2="92.3077" y2="84.6154" stroke-width="2" stroke="rgb(0,0,0)" />
	<line x1="84.6154" y1="76.9231" x2="84.6154" y2="84.6154" stroke-width="2" stroke="rgb(0,0,0)" />
	<line x1="84.6154" y1="76.9231" x2="92.3077" y2="76.9231" stroke-width="2" stroke="rgb(0,0,0)" />
	<line x1="84.6154" y1="76.9231" x2="92.3077" y2="69.2308" stroke-width="2" stroke="rgb(0,0,0)" />
	<line x1="84.6154" y1="61.5385" x2="84.6154" y2="69.2308" stroke-width="2" stroke="rgb(0,0,0)" />
	<line x1="84.6154" y1="53.8462" x2="84.6154" y2="61.5385" stroke-width="2" stroke="rgb(0,0,0)" />
	<line x1="84.6154" y1="46.1538" x2="84.6154" y2="53.8462" stroke-width="2" stroke="rgb(0,0,0)" />
	<line x1="84.6154" y1="38.4615" x2="84.6154" y2="46.1538" stroke-width="2" stroke="rgb(0,0,0)" />
	<line x1="84.6154" y1="38.4615" x2="92.3077" y2="46.1538" stroke-width="2" stroke="rgb(0,0,0)" />
	<line x1="84.6154" y1="38.4615" x2="92.3077" y2="38.4615" stroke-width="2" stroke="rgb(0,0,0)" />
	<line x1="84.6154" y1="30.7692" x2="84.6154" y2="38.4615" stroke-width="2" stroke="rgb(0,0,0)" />
	<line x1="84.6154" y1="30.7692" x2="92.3077" y2="30.7692" stroke-width="2" stroke="rgb(0,0,0)" />
	<line x1="92.3077" y1="92.3077" x2="92.3077" y2="100" stroke-width="2" stroke="rgb(0,0,0)" />
	<line x1="92.3077" y1="84.6154" x2="92.3077" y2="92.3077" stroke-width="2" stroke="rgb(0,0,0)" />
	<line x1="92.3077" y1="76.9231" x2="92.3077" y2="84.6154" stroke-width="2" stroke="rgb(0,0,0)" />
	<line x1="92.3077" y1="69.2308" x2="92.3077" y2="76.9231" stroke-width="2" stroke="rgb(0,0,0)" />
	<line x1="92.3077" y1="61.5385" x2="92.3077" y2="69.2308" stroke-width="2" stroke="rgb(0,0,0)" />
	<line x1="92.3077" y1="53.8462" x2="92.3077" y2="61.5385" stroke-width="2" stroke="rgb(0,0,0)" />
	<line x1="92.3077" y1="46.1538" x2="92.3077" y2="53.8462" stroke-width="2" stroke="rgb(0,0,0)" />
	<line x1="92.3077" y1="38.4615" x2="92.3077" y2="46.1538" stroke-width="2" stroke="rgb(0,0,0)" />
	<line x1="92.3077" y1="30.7692" x2="92.3077" y2="38.4615" stroke-width="2" stroke="rgb(0,0,0)" />
</svg>
