<?xml version="1.0" standalone="no" ?>
<!DOCTYPE svg PUBLIC "-//W3C//DTD SVG 1.1//EN" "http://www.w3.org/Graphics/SVG/1.1/DTD/svg11.dtd">
<svg width="100px" height="100px" xmlns="http://www.w3.org/2000/svg" version="1.1" >
	<path d="M0,100 5,100 10,100 7.5,92.5 0,90 0,95 z " fill-rule="evenodd" fill="rgb(255,255,255)" stroke-width="0.5" stroke="rgb(255,255,255)" />
	<path d="M0,90 7.5,92.5 12.5,87.5 12.5,82.5 7.5,77.5 0,80 0,85 z " fill-rule="evenodd" fill="rgb(255,255,255)" stroke-width="0.5" stroke="rgb(255,255,255)" />
	<path d="M0,80 7.5,77.5 10,70 0,70 0,75 z " fill-rule="evenodd" fill="rgb(255,255,255)" stroke-width="0.5" stroke="rgb(255,255,255)" />
	<path d="M0,70 10,70 7.5,62.5 0,60 0,65 z " fill-rule="evenodd" fill="rgb(255,255,255)" stroke-width="0.5" stroke="rgb(255,255,255)" />
	<path d="M0,60 7.5,62.5 12.5,57.5 10,50 0,50 0,55 z " fill-rule="evenodd" fill="rgb(255,255,255)" stroke-width="0.5" stroke="rgb(255,255,255)" />
	<path d="M0,50 10,50 12.5,42.5 7.5,37.5 0,40 0,45 z " fill-rule="evenodd" fill="rgb(255,255,255)" stroke-width="0.5" stroke="rgb(255,255,255)" />
	<path d="M0,40 7.5,37.5 10,30 0,30 0,35 z " fill-rule="evenodd" fill="rgb(255,255,255)" stroke-width="0.5" stroke="rgb(255,255,255)" />
	<path d="M0,30 10,30 10,20 0,20 0,25 z " fill-rule="evenodd" fill="rgb(255,255,255)" stroke-width="0.5" stroke="rgb(255,255,255)" />
	<path d="M0,20 10,20 10,10 0,10 0,15 z " fill-rule="evenodd" fill="rgb(255,255,255)" stroke-width="0.5" stroke="rgb(255,255,255)" />
	<path d="M0,10 10,10 10,0 5,0 0,0 0,5 z " fill-rule="evenodd" fill="rgb(255,255,255)" stroke-width="0.5" stroke="rgb(255,255,255)" />
	<path d="M10,100 15,100 20,100 22.5,92.5 17.5,87.5 12.5,87.5 7.5,92.5 z " fill-rule="evenodd" fill="rgb(255,255,255)" stroke-width="0.5" stroke="rgb(255,255,255)" />
	<path d="M12.5,87.5 17.5,87.5 22.5,82.5 17.5,77.5 12.5,82.5 z " fill-rule="evenodd" fill="rgb(0,0,0)" stroke-width="0.5" stroke="rgb(0,0,0)" />
	<path d="M7.5,77.5 12.5,82.5 17.5,77.5 22.5,72.5 17.5,67.5 10,70 z " fill-rule="evenodd" fill="rgb(255,255,255)" stroke-width="0.5" stroke="rgb(255,255,255)" />
	<path d="M10,70 17.5,67.5 20,60 12.5,57.5 7.5,62.5 z " fill-rule="evenodd" fill="rgb(255,255,255)" stroke-width="0.5" stroke="rgb(255,255,255)" />
	<path d="M12.5,57.5 20,60 20,50 10,50 z " fill-rule="evenodd" fill="rgb(0,0,0)" stroke-width="0.5" stroke="rgb(0,0,0)" />
	<path d="M10,50 20,50 22.5,42.5 17.5,37.5 12.5,42.5 z " fill-rule="evenodd" fill="rgb(0,0,0)" stroke-width="0.5" stroke="rgb(0,0,0)" />
	<path d="M7.5,37.5 12.5,42.5 17.5,37.5 22.5,32.5 17.5,27.5 10,30 z " fill-rule="evenodd" fill="rgb(255,255,255)" stroke-width="0.5" stroke="rgb(255,255,255)" />
	<path d="M10,30 17.5,27.5 20,20 10,20 z " fill-rule="evenodd" fill="rgb(255,255,255)" stroke-width="0.5" stroke="rgb(255,255,255)" />
	<path d="M10,20 20,20 20,10 10,10 z " fill-rule="evenodd" fill="rgb(255,255,255)" stroke-width="0.5" stroke="rgb(255,255,255)" />
	<path d="M10,10 20,10 20,0 15,0 10,0 z " fill-rule="evenodd" fill="rgb(255,255,255)" stroke-width="0.5" stroke="rgb(255,255,255)" />
	<path d="M20,100 25,100 30,100 27.5,92.5 22.5,92.5 z " fill-rule="evenodd" fill="rgb(255,255,255)" stroke-width="0.5" stroke="rgb(255,255,255)" />
	<path d="M17.5,87.5 22.5,92.5 27.5,92.5 32.5,87.5 27.5,82.5 22.5,82.5 z " fill-rule="evenodd" fill="rgb(255,255,255)" stroke-width="0.5" stroke="rgb(255,255,255)" />
	<path d="M17.5,77.5 22.5,82.5 27.5,82.5 32.5,77.5 27.5,72.5 22.5,72.5 z " fill-rule="evenodd" fill="rgb(0,0,0)" stroke-width="0.5" stroke="rgb(0,0,0)" />
	<path d="M17.5,67.5 22.5,72.5 27.5,72.5 32.5,67.5 27.5,62.5 20,60 z " fill-rule="evenodd" fill="rgb(255,255,255)" stroke-width="0.5" stroke="rgb(255,255,255)" />
	<path d="M20,60 27.5,62.5 32.5,57.5 27.5,52.5 20,50 z " fill-rule="evenodd" fill="rgb(0,0,0)" stroke-width="0.5" stroke="rgb(0,0,0)" />
	<path d="M20,50 27.5,52.5 32.5,47.5 32.5,42.5 27.5,37.5 22.5,42.5 z " fill-rule="evenodd" fill="rgb(0,0,0)" stroke-width="0.5" stroke="rgb(0,0,0)" />
	<path d="M17.5,37.5 22.5,42.5 27.5,37.5 32.5,32.5 27.5,27.5 22.5,32.5 z " fill-rule="evenodd" fill="rgb(0,0,0)" stroke-width="0.5" stroke="rgb(0,0,0)" />
	<path d="M17.5,27.5 22.5,32.5 27.5,27.5 32.5,22.5 27.5,17.5 20,20 z " fill-rule="evenodd" fill="rgb(255,255,255)" stroke-width="0.5" stroke="rgb(255,255,255)" />
	<path d="M20,20 27.5,17.5 30,10 20,10 z " fill-rule="evenodd" fill="rgb(255,255,255)" stroke-width="0.5" stroke="rgb(255,255,255)" />
	<path d="M20,10 30,10 30,0 25,0 20,0 z " fill-rule="evenodd" fill="rgb(255,255,255)" stroke-width="0.5" stroke="rgb(255,255,255)" />
	<path d="M30,100 35,100 40,100 42.5,92.5 37.5,87.5 32.5,87.5 27.5,92.5 z " fill-rule="evenodd" fill="rgb(255,255,255)" stroke-width="0.5" stroke="rgb(255,255,255)" />
	<path d="M32.5,87.5 37.5,87.5 42.5,82.5 37.5,77.5 32.5,77.5 27.5,82.5 z " fill-rule="evenodd" fill="rgb(0,0,0)" stroke-width="0.5" stroke="rgb(0,0,0)" />
	<path d="M32.5,77.5 37.5,77.5 42.5,72.5 37.5,67.5 32.5,67.5 27.5,72.5 z " fill-rule="evenodd" fill="rgb(255,255,255)" stroke-width="0.5" stroke="rgb(255,255,255)" />
	<path d="M32.5,67.5 37.5,67.5 42.5,62.5 37.5,57.5 32.5,57.5 27.5,62.5 z " fill-rule="evenodd" fill="rgb(0,0,0)" stroke-width="0.5" stroke="rgb(0,0,0)" />
	<path d="M32.5,57.5 37.5,57.5 42.5,52.5 37.5,47.5 32.5,47.5 27.5,52.5 z " fill-rule="evenodd" fill="rgb(0,0,0)" stroke-width="0.5" stroke="rgb(0,0,0)" />
	<path d="M32.5,47.5 37.5,47.5 37.5,42.5 32.5,42.5 z " fill-rule="evenodd" fill="rgb(255,255,255)" stroke-width="0.5" stroke="rgb(255,255,255)" />
	<path d="M27.5,37.5 32.5,42.5 37.5,42.5 42.5,37.5 40,30 32.5,32.5 z " fill-rule="evenodd" fill="rgb(0,0,0)" stroke-width="0.5" stroke="rgb(0,0,0)" />
	<path d="M27.5,27.5 32.5,32.5 40,30 42.5,22.5 37.5,17.5 32.5,22.5 z " fill-rule="evenodd" fill="rgb(0,0,0)" stroke-width="0.5" stroke="rgb(0,0,0)" />
	<path d="M27.5,17.5 32.5,22.5 37.5,17.5 42.5,12.5 37.5,7.5 30,10 z " fill-rule="evenodd" fill="rgb(255,255,255)" stroke-width="0.5" stroke="rgb(255,255,255)" />
	<path d="M30,10 37.5,7.5 40,0 35,0 30,0 z " fill-rule="evenodd" fill="rgb(255,255,255)" stroke-width="0.5" stroke="rgb(255,255,255)" />
	<path d="M40,100 45,100 50,100 50,90 42.5,92.5 z " fill-rule="evenodd" fill="rgb(255,255,255)" stroke-width="0.5" stroke="rgb(255,255,255)" />
	<path d="M37.5,87.5 42.5,92.5 50,90 50,80 42.5,82.5 z " fill-rule="evenodd" fill="rgb(255,255,255)" stroke-width="0.5" stroke="rgb(255,255,255)" />
	<path d="M37.5,77.5 42.5,82.5 50,80 50,70 42.5,72.5 z " fill-rule="evenodd" fill="rgb(0,0,0)" stroke-width="0.5" stroke="rgb(0,0,0)" />
	<path d="M37.5,67.5 42.5,72.5 50,70 50,60 42.5,62.5 z " fill-rule="evenodd" fill="rgb(255,255,255)" stroke-width="0.5" stroke="rgb(255,255,255)" />
	<path d="M37.5,57.5 42.5,62.5 50,60 50,50 42.5,52.5 z " fill-rule="evenodd" fill="rgb(0,0,0)" stroke-width="0.5" stroke="rgb(0,0,0)" />
	<path d="M37.5,47.5 42.5,52.5 50,50 50,40 42.5,37.5 37.5,42.5 z " fill-rule="evenodd" fill="rgb(0,0,0)" stroke-width="0.5" stroke="rgb(0,0,0)" />
	<path d="M42.5,37.5 50,40 50,30 40,30 z " fill-rule="evenodd" fill="rgb(0,0,0)" stroke-width="0.5" stroke="rgb(0,0,0)" />
	<path d="M40,30 50,30 50,20 42.5,22.5 z " fill-rule="evenodd" fill="rgb(0,0,0)" stroke-width="0.5" stroke="rgb(0,0,0)" />
	<path d="M37.5,17.5 42.5,22.5 50,20 50,10 42.5,12.5 z " fill-rule="evenodd" fill="rgb(0,0,0)" stroke-width="0.5" stroke="rgb(0,0,0)" />
	<path d="M37.5,7.5 42.5,12.5 50,10 50,0 45,0 40,0 z " fill-rule="evenodd" fill="rgb(255,255,255)" stroke-width="0.5" stroke="rgb(255,255,255)" />
	<path d="M50,100 55,100 60,100 57.5,92.5 50,90 z " fill-rule="evenodd" fill="rgb(255,255,255)" stroke-width="0.5" stroke="rgb(255,255,255)" />
	<path d="M50,90 57.5,92.5 62.5,87.5 57.5,82.5 50,80 z " fill-rule="evenodd" fill="rgb(255,255,255)" stroke-width="0.5" stroke="rgb(255,255,255)" />
	<path d="M50,80 57.5,82.5 62.5,77.5 57.5,72.5 50,70 z " fill-rule="evenodd" fill="rgb(0,0,0)" stroke-width="0.5" stroke="rgb(0,0,0)" />
	<path d="M50,70 57.5,72.5 62.5,67.5 57.5,62.5 50,60 z " fill-rule="evenodd" fill="rgb(255,255,255)" stroke-width="0.5" stroke="rgb(255,255,255)" />
	<path d="M50,60 57.5,62.5 62.5,57.5 57.5,52.5 50,50 z " fill-rule="evenodd" fill="rgb(0,0,0)" stroke-width="0.5" stroke="rgb(0,0,0)" />
	<path d="M50,50 57.5,52.5 62.5,47.5 62.5,42.5 57.5,37.5 50,40 z " fill-rule="evenodd" fill="rgb(0,0,0)" stroke-width="0.5" stroke="rgb(0,0,0)" />
	<path d="M50,40 57.5,37.5 60,30 50,30 z " fill-rule="evenodd" fill="rgb(0,0,0)" stroke-width="0.5" stroke="rgb(0,0,0)" />
	<path d="M50,30 60,30 57.5,22.5 50,20 z " fill-rule="evenodd" fill="rgb(0,0,0)" stroke-width="0.5" stroke="rgb(0,0,0)" />
	<path d="M50,20 57.5,22.5 62.5,17.5 57.5,12.5 50,10 z " fill-rule="evenodd" fill="rgb(0,0,0)" stroke-width="0.5" stroke="rgb(0,0,0)" />
	<path d="M50,10 57.5,12.5 62.5,7.5 60,0 55,0 50,0 z " fill-rule="evenodd" fill="rgb(255,255,255)" stroke-width="0.5" stroke="rgb(255,255,255)" />
	<path d="M60,100 65,100 70,100 72.5,92.5 67.5,87.5 62.5,87.5 57.5,92.5 z " fill-rule="evenodd" fill="rgb(255,255,255)" stroke-width="0.5" stroke="rgb(255,255,255)" />
	<path d="M62.5,87.5 67.5,87.5 72.5,82.5 67.5,77.5 62.5,77.5 57.5,82.5 z " fill-rule="evenodd" fill="rgb(0,0,0)" stroke-width="0.5" stroke="rgb(0,0,0)" />
	<path d="M62.5,77.5 67.5,77.5 67.5,72.5 62.5,67.5 57.5,72.5 z " fill-rule="evenodd" fill="rgb(255,255,255)" stroke-width="0.5" stroke="rgb(255,255,255)" />
	<path d="M62.5,67.5 67.5,72.5 72.5,67.5 72.5,62.5 67.5,57.5 62.5,57.5 57.5,62.5 z " fill-rule="evenodd" fill="rgb(0,0,0)" stroke-width="0.5" stroke="rgb(0,0,0)" />
	<path d="M62.5,57.5 67.5,57.5 72.5,52.5 67.5,47.5 62.5,47.5 57.5,52.5 z " fill-rule="evenodd" fill="rgb(0,0,0)" stroke-width="0.5" stroke="rgb(0,0,0)" />
	<path d="M62.5,47.5 67.5,47.5 67.5,42.5 62.5,42.5 z " fill-rule="evenodd" fill="rgb(255,255,255)" stroke-width="0.5" stroke="rgb(255,255,255)" />
	<path d="M57.5,37.5 62.5,42.5 67.5,42.5 72.5,37.5 67.5,32.5 60,30 z " fill-rule="evenodd" fill="rgb(0,0,0)" stroke-width="0.5" stroke="rgb(0,0,0)" />
	<path d="M60,30 67.5,32.5 72.5,27.5 67.5,22.5 62.5,17.5 57.5,22.5 z " fill-rule="evenodd" fill="rgb(0,0,0)" stroke-width="0.5" stroke="rgb(0,0,0)" />
	<path d="M62.5,17.5 67.5,22.5 72.5,17.5 70,10 62.5,7.5 57.5,12.5 z " fill-rule="evenodd" fill="rgb(255,255,255)" stroke-width="0.5" stroke="rgb(255,255,255)" />
	<path d="M62.5,7.5 70,10 70,0 65,0 60,0 z " fill-rule="evenodd" fill="rgb(255,255,255)" stroke-width="0.5" stroke="rgb(255,255,255)" />
	<path d="M70,100 75,100 80,100 77.5,92.5 72.5,92.5 z " fill-rule="evenodd" fill="rgb(255,255,255)" stroke-width="0.5" stroke="rgb(255,255,255)" />
	<path d="M67.5,87.5 72.5,92.5 77.5,92.5 82.5,87.5 77.5,82.5 72.5,82.5 z " fill-rule="evenodd" fill="rgb(255,255,255)" stroke-width="0.5" stroke="rgb(255,255,255)" />
	<path d="M67.5,77.5 72.5,82.5 77.5,82.5 82.5,77.5 77.5,72.5 72.5,67.5 67.5,72.5 z " fill-rule="evenodd" fill="rgb(0,0,0)" stroke-width="0.5" stroke="rgb(0,0,0)" />
	<path d="M72.5,67.5 77.5,72.5 82.5,67.5 80,60 72.5,62.5 z " fill-rule="evenodd" fill="rgb(255,255,255)" stroke-width="0.5" stroke="rgb(255,255,255)" />
	<path d="M67.5,57.5 72.5,62.5 80,60 80,50 72.5,52.5 z " fill-rule="evenodd" fill="rgb(0,0,0)" stroke-width="0.5" stroke="rgb(0,0,0)" />
	<path d="M67.5,47.5 72.5,52.5 80,50 77.5,42.5 72.5,37.5 67.5,42.5 z " fill-rule="evenodd" fill="rgb(0,0,0)" stroke-width="0.5" stroke="rgb(0,0,0)" />
	<path d="M72.5,37.5 77.5,42.5 82.5,37.5 77.5,32.5 72.5,27.5 67.5,32.5 z " fill-rule="evenodd" fill="rgb(0,0,0)" stroke-width="0.5" stroke="rgb(0,0,0)" />
	<path d="M72.5,27.5 77.5,32.5 82.5,27.5 80,20 72.5,17.5 67.5,22.5 z " fill-rule="evenodd" fill="rgb(255,255,255)" stroke-width="0.5" stroke="rgb(255,255,255)" />
	<path d="M72.5,17.5 80,20 80,10 70,10 z " fill-rule="evenodd" fill="rgb(255,255,255)" stroke-width="0.5" stroke="rgb(255,255,255)" />
	<path d="M70,10 80,10 80,0 75,0 70,0 z " fill-rule="evenodd" fill="rgb(255,255,255)" stroke-width="0.5" stroke="rgb(255,255,255)" />
	<path d="M80,100 85,100 90,100 92.5,92.5 87.5,87.5 82.5,87.5 77.5,92.5 z " fill-rule="evenodd" fill="rgb(255,255,255)" stroke-width="0.5" stroke="rgb(255,255,255)" />
	<path d="M82.5,87.5 87.5,87.5 87.5,82.5 82.5,77.5 77.5,82.5 z " fill-rule="evenodd" fill="rgb(0,0,0)" stroke-width="0.5" stroke="rgb(0,0,0)" />
	<path d="M82.5,77.5 87.5,82.5 92.5,77.5 90,70 82.5,67.5 77.5,72.5 z " fill-rule="evenodd" fill="rgb(255,255,255)" stroke-width="0.5" stroke="rgb(255,255,255)" />
	<path d="M82.5,67.5 90,70 92.5,62.5 87.5,57.5 80,60 z " fill-rule="evenodd" fill="rgb(255,255,255)" stroke-width="0.5" stroke="rgb(255,255,255)" />
	<path d="M80,60 87.5,57.5 90,50 80,50 z " fill-rule="evenodd" fill="rgb(0,0,0)" stroke-width="0.5" stroke="rgb(0,0,0)" />
	<path d="M80,50 90,50 87.5,42.5 82.5,37.5 77.5,42.5 z " fill-rule="evenodd" fill="rgb(0,0,0)" stroke-width="0.5" stroke="rgb(0,0,0)" />
	<path d="M82.5,37.5 87.5,42.5 92.5,37.5 90,30 82.5,27.5 77.5,32.5 z " fill-rule="evenodd" fill="rgb(255,255,255)" stroke-width="0.5" stroke="rgb(255,255,255)" />
	<path d="M82.5,27.5 90,30 90,20 80,20 z " fill-rule="evenodd" fill="rgb(255,255,255)" stroke-width="0.5" stroke="rgb(255,255,255)" />
	<path d="M80,20 90,20 90,10 80,10 z " fill-rule="evenodd" fill="rgb(255,255,255)" stroke-width="0.5" stroke="rgb(255,255,255)" />
	<path d="M80,10 90,10 90,0 85,0 80,0 z " fill-rule="evenodd" fill="rgb(255,255,255)" stroke-width="0.5" stroke="rgb(255,255,255)" />
	<path d="M90,100 95,100 100,100 100,95 100,90 92.5,92.5 z " fill-rule="evenodd" fill="rgb(255,255,255)" stroke-width="0.5" stroke="rgb(255,255,255)" />
	<path d="M87.5,87.5 92.5,92.5 100,90 100,85 100,80 92.5,77.5 87.5,82.5 z " fill-rule="evenodd" fill="rgb(255,255,255)" stroke-width="0.5" stroke="rgb(255,255,255)" />
	<path d="M92.5,77.5 100,80 100,75 100,70 90,70 z " fill-rule="evenodd" fill="rgb(255,255,255)" stroke-width="0.5" stroke="rgb(255,255,255)" />
	<path d="M90,70 100,70 100,65 100,60 92.5,62.5 z " fill-rule="evenodd" fill="rgb(255,255,255)" stroke-width="0.5" stroke="rgb(255,255,255)" />
	<path d="M87.5,57.5 92.5,62.5 100,60 100,55 100,50 90,50 z " fill-rule="evenodd" fill="rgb(255,255,255)" stroke-width="0.5" stroke="rgb(255,255,255)" />
	<path d="M90,50 100,50 100,45 100,40 92.5,37.5 87.5,42.5 z " fill-rule="evenodd" fill="rgb(255,255,255)" stroke-width="0.5" stroke="rgb(255,255,255)" />
	<path d="M92.5,37.5 100,40 100,35 100,30 90,30 z " fill-rule="evenodd" fill="rgb(255,255,255)" stroke-width="0.5" stroke="rgb(255,255,255)" />
	<path d="M90,30 100,30 100,25 100,20 90,20 z " fill-rule="evenodd" fill="rgb(255,255,255)" stroke-width="0.5" stroke="rgb(255,255,255)" />
	<path d="M90,20 100,20 100,15 100,10 90,10 z " fill-rule="evenodd" fill="rgb(255,255,255)" stroke-width="0.5" stroke="rgb(255,255,255)" />
	<path d="M90,10 100,10 100,5 100,0 95,0 90,0 z " fill-rule="evenodd" fill="rgb(255,255,255)" stroke-width="0.5" stroke="rgb(255,255,255)" />
</svg>
