<?xml version="1.0" standalone="no" ?>
<!DOCTYPE svg PUBLIC "-//W3C//DTD SVG 1.1//EN" "http://www.w3.org/Graphics/SVG/1.1/DTD/svg11.dtd">
<svg width="100px" height="100px" xmlns="http://www.w3.org/2000/svg" version="1.1" >
	<path d="M0,100 5,100 10,100 15,100 20,100 25,100 30,100 35,100 40,100 45,100 50,100 55,100 60,100 65,100 70,100 75,100 80,100 85,100 90,100 95,100 100,100 100,95 100,90 92.5,92.5 87.5,87.5 82.5,87.5 77.5,82.5 72.5,82.5 67.5,87.5 62.5,87.5 57.5,82.5 50,80 42.5,82.5 37.5,87.5 32.5,87.5 27.5,82.5 22.5,82.5 17.5,87.5 12.5,87.5 12.5,82.5 17.5,77.5 22.5,72.5 27.5,72.5 32.5,77.5 37.5,77.5 42.5,72.5 50,70 57.5,72.5 62.5,77.5 67.5,77.5 67.5,72.5 62.5,67.5 57.5,62.5 50,60 42.5,62.5 37.5,67.5 32.5,67.5 27.5,62.5 20,60 12.5,57.5 10,50 12.5,42.5 17.5,37.5 22.5,32.5 27.5,27.5 32.5,22.5 37.5,17.5 42.5,12.5 50,10 57.5,12.5 62.5,17.5 67.5,22.5 72.5,27.5 77.5,32.5 82.5,37.5 87.5,42.5 90,50 100,50 100,45 100,40 100,35 100,30 100,25 100,20 100,15 100,10 100,5 100,0 95,0 90,0 85,0 80,0 75,0 70,0 65,0 60,0 55,0 50,0 45,0 40,0 35,0 30,0 25,0 20,0 15,0 10,0 5,0 0,0 0,5 0,10 0,15 0,20 0,25 0,30 0,35 0,40 0,45 0,50 0,55 0,60 0,65 0,70 0,75 0,80 0,85 0,90 0,95 z " fill-rule="evenodd" fill="rgb(255,255,255)" stroke-width="1" stroke="rgb(255,255,255)" />
	<path d="M12.5,87.5 17.5,87.5 22.5,82.5 27.5,82.5 32.5,87.5 37.5,87.5 42.5,82.5 50,80 57.5,82.5 62.5,87.5 67.5,87.5 72.5,82.5 67.5,77.5 62.5,77.5 57.5,72.5 50,70 42.5,72.5 37.5,77.5 32.5,77.5 27.5,72.5 22.5,72.5 17.5,77.5 12.5,82.5 z " fill-rule="evenodd" fill="rgb(0,0,0)" stroke-width="1" stroke="rgb(255,255,255)" />
	<path d="M10,50 12.5,57.5 20,60 27.5,62.5 32.5,67.5 37.5,67.5 42.5,62.5 50,60 57.5,62.5 62.5,67.5 67.5,72.5 67.5,77.5 72.5,82.5 77.5,82.5 82.5,87.5 87.5,87.5 87.5,82.5 82.5,77.5 77.5,72.5 72.5,67.5 72.5,62.5 80,60 87.5,57.5 90,50 87.5,42.5 82.5,37.5 77.5,32.5 67.5,42.5 67.5,47.5 62.5,47.5 62.5,42.5 67.5,42.5 77.5,32.5 72.5,27.5 67.5,22.5 62.5,17.5 57.5,12.5 50,10 42.5,12.5 37.5,17.5 32.5,22.5 27.5,27.5 22.5,32.5 32.5,42.5 37.5,42.5 37.5,47.5 32.5,47.5 32.5,42.5 22.5,32.5 17.5,37.5 12.5,42.5 z " fill-rule="evenodd" fill="rgb(0,0,0)" stroke-width="1" stroke="rgb(255,255,255)" />
	<path d="M32.5,47.5 37.5,47.5 37.5,42.5 32.5,42.5 z " fill-rule="evenodd" fill="rgb(255,255,255)" stroke-width="1" stroke="rgb(255,255,255)" />
	<path d="M62.5,47.5 67.5,47.5 67.5,42.5 62.5,42.5 z " fill-rule="evenodd" fill="rgb(255,255,255)" stroke-width="1" stroke="rgb(255,255,255)" />
	<path d="M72.5,67.5 77.5,72.5 82.5,77.5 87.5,82.5 87.5,87.5 92.5,92.5 100,90 100,85 100,80 100,75 100,70 100,65 100,60 100,55 100,50 90,50 87.5,57.5 80,60 72.5,62.5 z " fill-rule="evenodd" fill="rgb(255,255,255)" stroke-width="1" stroke="rgb(255,255,255)" />
</svg>
