<?xml version="1.0" standalone="no" ?>
<!DOCTYPE svg PUBLIC "-//W3C//DTD SVG 1.1//EN" "http://www.w3.org/Graphics/SVG/1.1/DTD/svg11.dtd">
<svg width="100px" height="100px" xmlns="http://www.w3.org/2000/svg" version="1.1" >
	<line x1="0" y1="100" x2="7.14286" y2="100" stroke-width="1" stroke="rgb(0,0,0)" />
	<line x1="0" y1="92.8571" x2="0" y2="100" stroke-width="1" stroke="rgb(0,0,0)" />
	<line x1="0" y1="92.8571" x2="7.14286" y2="100" stroke-width="1" stroke="rgb(0,0,0)" />
	<line x1="0" y1="92.8571" x2="7.14286" y2="85.7143" stroke-width="1" stroke="rgb(0,0,0)" />
	<line x1="0" y1="85.7143" x2="0" y2="92.8571" stroke-width="1" stroke="rgb(0,0,0)" />
	<line x1="0" y1="85.7143" x2="7.14286" y2="85.7143" stroke-width="1" stroke="rgb(0,0,0)" />
	<line x1="0" y1="78.5714" x2="0" y2="85.7143" stroke-width="1" stroke="rgb(0,0,0)" />
	<line x1="0" y1="78.5714" x2="7.14286" y2="78.5714" stroke-width="1" stroke="rgb(0,0,0)" />
	<line x1="0" y1="71.4286" x2="0" y2="78.5714" stroke-width="1" stroke="rgb(0,0,0)" />
	<line x1="0" y1="71.4286" x2="7.14286" y2="78.5714" stroke-width="1" stroke="rgb(0,0,0)" />
	<line x1="0" y1="64.2857" x2="0" y2="71.4286" stroke-width="1" stroke="rgb(0,0,0)" />
	<line x1="0" y1="57.1429" x2="0" y2="64.2857" stroke-width="1" stroke="rgb(0,0,0)" />
	<line x1="0" y1="57.1429" x2="7.14286" y2="50" stroke-width="1" stroke="rgb(0,0,0)" />
	<line x1="0" y1="50" x2="0" y2="57.1429" stroke-width="1" stroke="rgb(0,0,0)" />
	<line x1="0" y1="50" x2="7.14286" y2="50" stroke-width="1" stroke="rgb(0,0,0)" />
	<line x1="0" y1="42.8571" x2="0" y2="50" stroke-width="1" stroke="rgb(0,0,0)" />
	<line x1="0" y1="42.8571" x2="7.14286" y2="42.8571" stroke-width="1" stroke="rgb(0,0,0)" />
	<line x1="0" y1="35.7143" x2="0" y2="42.8571" stroke-width="1" stroke="rgb(0,0,0)" />
	<line x1="0" y1="35.7143" x2="7.14286" y2="35.7143" stroke-width="1" stroke="rgb(0,0,0)" />
	<line x1="7.14286" y1="100" x2="14.2857" y2="100" stroke-width="1" stroke="rgb(0,0,0)" />
	<line x1="7.14286" y1="92.8571" x2="14.2857" y2="92.8571" stroke-width="1" stroke="rgb(0,0,0)" />
	<line x1="7.14286" y1="85.7143" x2="14.2857" y2="85.7143" stroke-width="1" stroke="rgb(0,0,0)" />
	<line x1="7.14286" y1="78.5714" x2="7.14286" y2="85.7143" stroke-width="1" stroke="rgb(0,0,0)" />
	<line x1="7.14286" y1="78.5714" x2="14.2857" y2="78.5714" stroke-width="1" stroke="rgb(0,0,0)" />
	<line x1="7.14286" y1="71.4286" x2="14.2857" y2="71.4286" stroke-width="1" stroke="rgb(0,0,0)" />
	<line x1="7.14286" y1="64.2857" x2="7.14286" y2="71.4286" stroke-width="1" stroke="rgb(0,0,0)" />
	<line x1="7.14286" y1="64.2857" x2="14.2857" y2="64.2857" stroke-width="1" stroke="rgb(0,0,0)" />
	<line x1="7.14286" y1="57.1429" x2="7.14286" y2="64.2857" stroke-width="1" stroke="rgb(0,0,0)" />
	<line x1="7.14286" y1="57.1429" x2="14.2857" y2="57.1429" stroke-width="1" stroke="rgb(0,0,0)" />
	<line x1="7.14286" y1="57.1429" x2="14.2857" y2="50" stroke-width="1" stroke="rgb(0,0,0)" />
	<line x1="7.14286" y1="50" x2="14.2857" y2="42.8571" stroke-width="1" stroke="rgb(0,0,0)" />
	<line x1="7.14286" y1="42.8571" x2="7.14286" y2="50" stroke-width="1" stroke="rgb(0,0,0)" />
	<line x1="7.14286" y1="42.8571" x2="14.2857" y2="42.8571" stroke-width="1" stroke="rgb(0,0,0)" />
	<line x1="7.14286" y1="35.7143" x2="7.14286" y2="42.8571" stroke-width="1" stroke="rgb(0,0,0)" />
	<line x1="7.14286" y1="35.7143" x2="14.2857" y2="35.7143" stroke-width="1" stroke="rgb(0,0,0)" />
	<line x1="14.2857" y1="100" x2="21.4286" y2="100" stroke-width="1" stroke="rgb(0,0,0)" />
	<line x1="14.2857" y1="100" x2="21.4286" y2="92.8571" stroke-width="1" stroke="rgb(0,0,0)" />
	<line x1="14.2857" y1="92.8571" x2="21.4286" y2="85.7143" stroke-width="1" stroke="rgb(0,0,0)" />
	<line x1="14.2857" y1="85.7143" x2="21.4286" y2="92.8571" stroke-width="1" stroke="rgb(0,0,0)" />
	<line x1="14.2857" y1="85.7143" x2="21.4286" y2="78.5714" stroke-width="1" stroke="rgb(0,0,0)" />
	<line x1="14.2857" y1="78.5714" x2="14.2857" y2="85.7143" stroke-width="1" stroke="rgb(0,0,0)" />
	<line x1="14.2857" y1="78.5714" x2="21.4286" y2="78.5714" stroke-width="1" stroke="rgb(0,0,0)" />
	<line x1="14.2857" y1="71.4286" x2="21.4286" y2="71.4286" stroke-width="1" stroke="rgb(0,0,0)" />
	<line x1="14.2857" y1="64.2857" x2="14.2857" y2="71.4286" stroke-width="1" stroke="rgb(0,0,0)" />
	<line x1="14.2857" y1="64.2857" x2="21.4286" y2="64.2857" stroke-width="1" stroke="rgb(0,0,0)" />
	<line x1="14.2857" y1="57.1429" x2="14.2857" y2="64.2857" stroke-width="1" stroke="rgb(0,0,0)" />
	<line x1="14.2857" y1="57.1429" x2="21.4286" y2="57.1429" stroke-width="1" stroke="rgb(0,0,0)" />
	<line x1="14.2857" y1="50" x2="14.2857" y2="57.1429" stroke-width="1" stroke="rgb(0,0,0)" />
	<line x1="14.2857" y1="50" x2="21.4286" y2="50" stroke-width="1" stroke="rgb(0,0,0)" />
	<line x1="14.2857" y1="42.8571" x2="21.4286" y2="42.8571" stroke-width="1" stroke="rgb(0,0,0)" />
	<line x1="14.2857" y1="35.7143" x2="14.2857" y2="42.8571" stroke-width="1" stroke="rgb(0,0,0)" />
	<line x1="14.2857" y1="35.7143" x2="21.4286" y2="35.7143" stroke-width="1" stroke="rgb(0,0,0)" />
	<line x1="21.4286" y1="100" x2="28.5714" y2="100" stroke-width="1" stroke="rgb(0,0,0)" />
	<line x1="21.4286" y1="92.8571" x2="21.4286" y2="100" stroke-width="1" stroke="rgb(0,0,0)" />
	<line x1="21.4286" y1="92.8571" x2="28.5714" y2="92.8571" stroke-width="1" stroke="rgb(0,0,0)" />
	<line x1="21.4286" y1="85.7143" x2="28.5714" y2="85.7143" stroke-width="1" stroke="rgb(0,0,0)" />
	<line x1="21.4286" y1="85.7143" x2="28.5714" y2="78.5714" stroke-width="1" stroke="rgb(0,0,0)" />
	<line x1="21.4286" y1="71.4286" x2="28.5714" y2="78.5714" stroke-width="1" stroke="rgb(0,0,0)" />
	<line x1="21.4286" y1="71.4286" x2="28.5714" y2="71.4286" stroke-width="1" stroke="rgb(0,0,0)" />
	<line x1="21.4286" y1="64.2857" x2="21.4286" y2="71.4286" stroke-width="1" stroke="rgb(0,0,0)" />
	<line x1="21.4286" y1="64.2857" x2="28.5714" y2="71.4286" stroke-width="1" stroke="rgb(0,0,0)" />
	<line x1="21.4286" y1="64.2857" x2="28.5714" y2="57.1429" stroke-width="1" stroke="rgb(0,0,0)" />
	<line x1="21.4286" y1="57.1429" x2="21.4286" y2="64.2857" stroke-width="1" stroke="rgb(0,0,0)" />
	<line x1="21.4286" y1="57.1429" x2="28.5714" y2="57.1429" stroke-width="1" stroke="rgb(0,0,0)" />
	<line x1="21.4286" y1="50" x2="21.4286" y2="57.1429" stroke-width="1" stroke="rgb(0,0,0)" />
	<line x1="21.4286" y1="50" x2="28.5714" y2="50" stroke-width="1" stroke="rgb(0,0,0)" />
	<line x1="21.4286" y1="42.8571" x2="28.5714" y2="42.8571" stroke-width="1" stroke="rgb(0,0,0)" />
	<line x1="21.4286" y1="35.7143" x2="21.4286" y2="42.8571" stroke-width="1" stroke="rgb(0,0,0)" />
	<line x1="21.4286" y1="35.7143" x2="28.5714" y2="35.7143" stroke-width="1" stroke="rgb(0,0,0)" />
	<line x1="28.5714" y1="100" x2="35.7143" y2="100" stroke-width="1" stroke="rgb(0,0,0)" />
	<line x1="28.5714" y1="92.8571" x2="28.5714" y2="100" stroke-width="1" stroke="rgb(0,0,0)" />
	<line x1="28.5714" y1="92.8571" x2="35.7143" y2="92.8571" stroke-width="1" stroke="rgb(0,0,0)" />
	<line x1="28.5714" y1="92.8571" x2="35.7143" y2="85.7143" stroke-width="1" stroke="rgb(0,0,0)" />
	<line x1="28.5714" y1="85.7143" x2="35.7143" y2="78.5714" stroke-width="1" stroke="rgb(0,0,0)" />
	<line x1="28.5714" y1="78.5714" x2="28.5714" y2="85.7143" stroke-width="1" stroke="rgb(0,0,0)" />
	<line x1="28.5714" y1="78.5714" x2="35.7143" y2="78.5714" stroke-width="1" stroke="rgb(0,0,0)" />
	<line x1="28.5714" y1="71.4286" x2="28.5714" y2="78.5714" stroke-width="1" stroke="rgb(0,0,0)" />
	<line x1="28.5714" y1="71.4286" x2="35.7143" y2="71.4286" stroke-width="1" stroke="rgb(0,0,0)" />
	<line x1="28.5714" y1="64.2857" x2="35.7143" y2="64.2857" stroke-width="1" stroke="rgb(0,0,0)" />
	<line x1="28.5714" y1="57.1429" x2="35.7143" y2="57.1429" stroke-width="1" stroke="rgb(0,0,0)" />
	<line x1="28.5714" y1="50" x2="28.5714" y2="57.1429" stroke-width="1" stroke="rgb(0,0,0)" />
	<line x1="28.5714" y1="50" x2="35.7143" y2="50" stroke-width="1" stroke="rgb(0,0,0)" />
	<line x1="28.5714" y1="50" x2="35.7143" y2="42.8571" stroke-width="1" stroke="rgb(0,0,0)" />
	<line x1="28.5714" y1="42.8571" x2="35.7143" y2="35.7143" stroke-width="1" stroke="rgb(0,0,0)" />
	<line x1="28.5714" y1="35.7143" x2="28.5714" y2="42.8571" stroke-width="1" stroke="rgb(0,0,0)" />
	<line x1="28.5714" y1="35.7143" x2="35.7143" y2="35.7143" stroke-width="1" stroke="rgb(0,0,0)" />
	<line x1="35.7143" y1="100" x2="42.8571" y2="100" stroke-width="1" stroke="rgb(0,0,0)" />
	<line x1="35.7143" y1="92.8571" x2="35.7143" y2="100" stroke-width="1" stroke="rgb(0,0,0)" />
	<line x1="35.7143" y1="92.8571" x2="42.8571" y2="92.8571" stroke-width="1" stroke="rgb(0,0,0)" />
	<line x1="35.7143" y1="85.7143" x2="35.7143" y2="92.8571" stroke-width="1" stroke="rgb(0,0,0)" />
	<line x1="35.7143" y1="85.7143" x2="42.8571" y2="92.8571" stroke-width="1" stroke="rgb(0,0,0)" />
	<line x1="35.7143" y1="85.7143" x2="42.8571" y2="78.5714" stroke-width="1" stroke="rgb(0,0,0)" />
	<line x1="35.7143" y1="78.5714" x2="42.8571" y2="85.7143" stroke-width="1" stroke="rgb(0,0,0)" />
	<line x1="35.7143" y1="78.5714" x2="42.8571" y2="71.4286" stroke-width="1" stroke="rgb(0,0,0)" />
	<line x1="35.7143" y1="71.4286" x2="35.7143" y2="78.5714" stroke-width="1" stroke="rgb(0,0,0)" />
	<line x1="35.7143" y1="71.4286" x2="42.8571" y2="71.4286" stroke-width="1" stroke="rgb(0,0,0)" />
	<line x1="35.7143" y1="71.4286" x2="42.8571" y2="64.2857" stroke-width="1" stroke="rgb(0,0,0)" />
	<line x1="35.7143" y1="57.1429" x2="42.8571" y2="64.2857" stroke-width="1" stroke="rgb(0,0,0)" />
	<line x1="35.7143" y1="57.1429" x2="42.8571" y2="57.1429" stroke-width="1" stroke="rgb(0,0,0)" />
	<line x1="35.7143" y1="50" x2="35.7143" y2="57.1429" stroke-width="1" stroke="rgb(0,0,0)" />
	<line x1="35.7143" y1="50" x2="42.8571" y2="50" stroke-width="1" stroke="rgb(0,0,0)" />
	<line x1="35.7143" y1="42.8571" x2="35.7143" y2="50" stroke-width="1" stroke="rgb(0,0,0)" />
	<line x1="35.7143" y1="42.8571" x2="42.8571" y2="42.8571" stroke-width="1" stroke="rgb(0,0,0)" />
	<line x1="35.7143" y1="35.7143" x2="42.8571" y2="35.7143" stroke-width="1" stroke="rgb(0,0,0)" />
	<line x1="42.8571" y1="100" x2="50" y2="100" stroke-width="1" stroke="rgb(0,0,0)" />
	<line x1="42.8571" y1="92.8571" x2="42.8571" y2="100" stroke-width="1" stroke="rgb(0,0,0)" />
	<line x1="42.8571" y1="92.8571" x2="50" y2="92.8571" stroke-width="1" stroke="rgb(0,0,0)" />
	<line x1="42.8571" y1="85.7143" x2="50" y2="85.7143" stroke-width="1" stroke="rgb(0,0,0)" />
	<line x1="42.8571" y1="78.5714" x2="50" y2="78.5714" stroke-width="1" stroke="rgb(0,0,0)" />
	<line x1="42.8571" y1="71.4286" x2="50" y2="71.4286" stroke-width="1" stroke="rgb(0,0,0)" />
	<line x1="42.8571" y1="64.2857" x2="42.8571" y2="71.4286" stroke-width="1" stroke="rgb(0,0,0)" />
	<line x1="42.8571" y1="64.2857" x2="50" y2="64.2857" stroke-width="1" stroke="rgb(0,0,0)" />
	<line x1="42.8571" y1="57.1429" x2="42.8571" y2="64.2857" stroke-width="1" stroke="rgb(0,0,0)" />
	<line x1="42.8571" y1="57.1429" x2="50" y2="57.1429" stroke-width="1" stroke="rgb(0,0,0)" />
	<line x1="42.8571" y1="50" x2="42.8571" y2="57.1429" stroke-width="1" stroke="rgb(0,0,0)" />
	<line x1="42.8571" y1="50" x2="50" y2="50" stroke-width="1" stroke="rgb(0,0,0)" />
	<line x1="42.8571" y1="42.8571" x2="42.8571" y2="50" stroke-width="1" stroke="rgb(0,0,0)" />
	<line x1="42.8571" y1="42.8571" x2="50" y2="42.8571" stroke-width="1" stroke="rgb(0,0,0)" />
	<line x1="42.8571" y1="35.7143" x2="50" y2="35.7143" stroke-width="1" stroke="rgb(0,0,0)" />
	<line x1="50" y1="100" x2="57.1429" y2="100" stroke-width="1" stroke="rgb(0,0,0)" />
	<line x1="50" y1="92.8571" x2="50" y2="100" stroke-width="1" stroke="rgb(0,0,0)" />
	<line x1="50" y1="92.8571" x2="57.1429" y2="92.8571" stroke-width="1" stroke="rgb(0,0,0)" />
	<line x1="50" y1="92.8571" x2="57.1429" y2="85.7143" stroke-width="1" stroke="rgb(0,0,0)" />
	<line x1="50" y1="85.7143" x2="57.1429" y2="78.5714" stroke-width="1" stroke="rgb(0,0,0)" />
	<line x1="50" y1="78.5714" x2="57.1429" y2="85.7143" stroke-width="1" stroke="rgb(0,0,0)" />
	<line x1="50" y1="71.4286" x2="57.1429" y2="78.5714" stroke-width="1" stroke="rgb(0,0,0)" />
	<line x1="50" y1="71.4286" x2="57.1429" y2="71.4286" stroke-width="1" stroke="rgb(0,0,0)" />
	<line x1="50" y1="64.2857" x2="50" y2="71.4286" stroke-width="1" stroke="rgb(0,0,0)" />
	<line x1="50" y1="64.2857" x2="57.1429" y2="71.4286" stroke-width="1" stroke="rgb(0,0,0)" />
	<line x1="50" y1="64.2857" x2="57.1429" y2="57.1429" stroke-width="1" stroke="rgb(0,0,0)" />
	<line x1="50" y1="57.1429" x2="50" y2="64.2857" stroke-width="1" stroke="rgb(0,0,0)" />
	<line x1="50" y1="57.1429" x2="57.1429" y2="57.1429" stroke-width="1" stroke="rgb(0,0,0)" />
	<line x1="50" y1="50" x2="50" y2="57.1429" stroke-width="1" stroke="rgb(0,0,0)" />
	<line x1="50" y1="50" x2="57.1429" y2="50" stroke-width="1" stroke="rgb(0,0,0)" />
	<line x1="50" y1="42.8571" x2="50" y2="50" stroke-width="1" stroke="rgb(0,0,0)" />
	<line x1="50" y1="42.8571" x2="57.1429" y2="42.8571" stroke-width="1" stroke="rgb(0,0,0)" />
	<line x1="50" y1="35.7143" x2="57.1429" y2="35.7143" stroke-width="1" stroke="rgb(0,0,0)" />
	<line x1="57.1429" y1="100" x2="64.2857" y2="100" stroke-width="1" stroke="rgb(0,0,0)" />
	<line x1="57.1429" y1="92.8571" x2="57.1429" y2="100" stroke-width="1" stroke="rgb(0,0,0)" />
	<line x1="57.1429" y1="92.8571" x2="64.2857" y2="92.8571" stroke-width="1" stroke="rgb(0,0,0)" />
	<line x1="57.1429" y1="85.7143" x2="57.1429" y2="92.8571" stroke-width="1" stroke="rgb(0,0,0)" />
	<line x1="57.1429" y1="85.7143" x2="64.2857" y2="92.8571" stroke-width="1" stroke="rgb(0,0,0)" />
	<line x1="57.1429" y1="78.5714" x2="64.2857" y2="85.7143" stroke-width="1" stroke="rgb(0,0,0)" />
	<line x1="57.1429" y1="78.5714" x2="64.2857" y2="78.5714" stroke-width="1" stroke="rgb(0,0,0)" />
	<line x1="57.1429" y1="71.4286" x2="57.1429" y2="78.5714" stroke-width="1" stroke="rgb(0,0,0)" />
	<line x1="57.1429" y1="71.4286" x2="64.2857" y2="71.4286" stroke-width="1" stroke="rgb(0,0,0)" />
	<line x1="57.1429" y1="64.2857" x2="64.2857" y2="64.2857" stroke-width="1" stroke="rgb(0,0,0)" />
	<line x1="57.1429" y1="57.1429" x2="64.2857" y2="57.1429" stroke-width="1" stroke="rgb(0,0,0)" />
	<line x1="57.1429" y1="50" x2="57.1429" y2="57.1429" stroke-width="1" stroke="rgb(0,0,0)" />
	<line x1="57.1429" y1="50" x2="64.2857" y2="50" stroke-width="1" stroke="rgb(0,0,0)" />
	<line x1="57.1429" y1="42.8571" x2="57.1429" y2="50" stroke-width="1" stroke="rgb(0,0,0)" />
	<line x1="57.1429" y1="42.8571" x2="64.2857" y2="50" stroke-width="1" stroke="rgb(0,0,0)" />
	<line x1="57.1429" y1="35.7143" x2="64.2857" y2="42.8571" stroke-width="1" stroke="rgb(0,0,0)" />
	<line x1="57.1429" y1="35.7143" x2="64.2857" y2="35.7143" stroke-width="1" stroke="rgb(0,0,0)" />
	<line x1="64.2857" y1="100" x2="71.4286" y2="100" stroke-width="1" stroke="rgb(0,0,0)" />
	<line x1="64.2857" y1="92.8571" x2="64.2857" y2="100" stroke-width="1" stroke="rgb(0,0,0)" />
	<line x1="64.2857" y1="92.8571" x2="71.4286" y2="92.8571" stroke-width="1" stroke="rgb(0,0,0)" />
	<line x1="64.2857" y1="85.7143" x2="71.4286" y2="85.7143" stroke-width="1" stroke="rgb(0,0,0)" />
	<line x1="64.2857" y1="78.5714" x2="64.2857" y2="85.7143" stroke-width="1" stroke="rgb(0,0,0)" />
	<line x1="64.2857" y1="78.5714" x2="71.4286" y2="85.7143" stroke-width="1" stroke="rgb(0,0,0)" />
	<line x1="64.2857" y1="78.5714" x2="71.4286" y2="71.4286" stroke-width="1" stroke="rgb(0,0,0)" />
	<line x1="64.2857" y1="71.4286" x2="64.2857" y2="78.5714" stroke-width="1" stroke="rgb(0,0,0)" />
	<line x1="64.2857" y1="71.4286" x2="71.4286" y2="71.4286" stroke-width="1" stroke="rgb(0,0,0)" />
	<line x1="64.2857" y1="71.4286" x2="71.4286" y2="64.2857" stroke-width="1" stroke="rgb(0,0,0)" />
	<line x1="64.2857" y1="57.1429" x2="71.4286" y2="64.2857" stroke-width="1" stroke="rgb(0,0,0)" />
	<line x1="64.2857" y1="57.1429" x2="71.4286" y2="57.1429" stroke-width="1" stroke="rgb(0,0,0)" />
	<line x1="64.2857" y1="50" x2="64.2857" y2="57.1429" stroke-width="1" stroke="rgb(0,0,0)" />
	<line x1="64.2857" y1="50" x2="71.4286" y2="50" stroke-width="1" stroke="rgb(0,0,0)" />
	<line x1="64.2857" y1="42.8571" x2="71.4286" y2="42.8571" stroke-width="1" stroke="rgb(0,0,0)" />
	<line x1="64.2857" y1="35.7143" x2="64.2857" y2="42.8571" stroke-width="1" stroke="rgb(0,0,0)" />
	<line x1="64.2857" y1="35.7143" x2="71.4286" y2="35.7143" stroke-width="1" stroke="rgb(0,0,0)" />
	<line x1="71.4286" y1="100" x2="78.5714" y2="100" stroke-width="1" stroke="rgb(0,0,0)" />
	<line x1="71.4286" y1="92.8571" x2="71.4286" y2="100" stroke-width="1" stroke="rgb(0,0,0)" />
	<line x1="71.4286" y1="92.8571" x2="78.5714" y2="100" stroke-width="1" stroke="rgb(0,0,0)" />
	<line x1="71.4286" y1="92.8571" x2="78.5714" y2="85.7143" stroke-width="1" stroke="rgb(0,0,0)" />
	<line x1="71.4286" y1="85.7143" x2="78.5714" y2="92.8571" stroke-width="1" stroke="rgb(0,0,0)" />
	<line x1="71.4286" y1="78.5714" x2="78.5714" y2="85.7143" stroke-width="1" stroke="rgb(0,0,0)" />
	<line x1="71.4286" y1="78.5714" x2="78.5714" y2="78.5714" stroke-width="1" stroke="rgb(0,0,0)" />
	<line x1="71.4286" y1="71.4286" x2="78.5714" y2="71.4286" stroke-width="1" stroke="rgb(0,0,0)" />
	<line x1="71.4286" y1="64.2857" x2="71.4286" y2="71.4286" stroke-width="1" stroke="rgb(0,0,0)" />
	<line x1="71.4286" y1="64.2857" x2="78.5714" y2="64.2857" stroke-width="1" stroke="rgb(0,0,0)" />
	<line x1="71.4286" y1="57.1429" x2="71.4286" y2="64.2857" stroke-width="1" stroke="rgb(0,0,0)" />
	<line x1="71.4286" y1="57.1429" x2="78.5714" y2="57.1429" stroke-width="1" stroke="rgb(0,0,0)" />
	<line x1="71.4286" y1="50" x2="71.4286" y2="57.1429" stroke-width="1" stroke="rgb(0,0,0)" />
	<line x1="71.4286" y1="50" x2="78.5714" y2="50" stroke-width="1" stroke="rgb(0,0,0)" />
	<line x1="71.4286" y1="42.8571" x2="78.5714" y2="42.8571" stroke-width="1" stroke="rgb(0,0,0)" />
	<line x1="71.4286" y1="35.7143" x2="71.4286" y2="42.8571" stroke-width="1" stroke="rgb(0,0,0)" />
	<line x1="71.4286" y1="35.7143" x2="78.5714" y2="35.7143" stroke-width="1" stroke="rgb(0,0,0)" />
	<line x1="78.5714" y1="100" x2="85.7143" y2="100" stroke-width="1" stroke="rgb(0,0,0)" />
	<line x1="78.5714" y1="92.8571" x2="85.7143" y2="92.8571" stroke-width="1" stroke="rgb(0,0,0)" />
	<line x1="78.5714" y1="85.7143" x2="85.7143" y2="85.7143" stroke-width="1" stroke="rgb(0,0,0)" />
	<line x1="78.5714" y1="78.5714" x2="78.5714" y2="85.7143" stroke-width="1" stroke="rgb(0,0,0)" />
	<line x1="78.5714" y1="78.5714" x2="85.7143" y2="78.5714" stroke-width="1" stroke="rgb(0,0,0)" />
	<line x1="78.5714" y1="71.4286" x2="85.7143" y2="71.4286" stroke-width="1" stroke="rgb(0,0,0)" />
	<line x1="78.5714" y1="64.2857" x2="78.5714" y2="71.4286" stroke-width="1" stroke="rgb(0,0,0)" />
	<line x1="78.5714" y1="64.2857" x2="85.7143" y2="64.2857" stroke-width="1" stroke="rgb(0,0,0)" />
	<line x1="78.5714" y1="57.1429" x2="78.5714" y2="64.2857" stroke-width="1" stroke="rgb(0,0,0)" />
	<line x1="78.5714" y1="57.1429" x2="85.7143" y2="57.1429" stroke-width="1" stroke="rgb(0,0,0)" />
	<line x1="78.5714" y1="50" x2="78.5714" y2="57.1429" stroke-width="1" stroke="rgb(0,0,0)" />
	<line x1="78.5714" y1="50" x2="85.7143" y2="57.1429" stroke-width="1" stroke="rgb(0,0,0)" />
	<line x1="78.5714" y1="42.8571" x2="85.7143" y2="50" stroke-width="1" stroke="rgb(0,0,0)" />
	<line x1="78.5714" y1="42.8571" x2="85.7143" y2="42.8571" stroke-width="1" stroke="rgb(0,0,0)" />
	<line x1="78.5714" y1="35.7143" x2="78.5714" y2="42.8571" stroke-width="1" stroke="rgb(0,0,0)" />
	<line x1="78.5714" y1="35.7143" x2="85.7143" y2="35.7143" stroke-width="1" stroke="rgb(0,0,0)" />
	<line x1="85.7143" y1="100" x2="92.8571" y2="100" stroke-width="1" stroke="rgb(0,0,0)" />
	<line x1="85.7143" y1="100" x2="92.8571" y2="92.8571" stroke-width="1" stroke="rgb(0,0,0)" />
	<line x1="85.7143" y1="85.7143" x2="92.8571" y2="92.8571" stroke-width="1" stroke="rgb(0,0,0)" />
	<line x1="85.7143" y1="85.7143" x2="92.8571" y2="85.7143" stroke-width="1" stroke="rgb(0,0,0)" />
	<line x1="85.7143" y1="78.5714" x2="85.7143" y2="85.7143" stroke-width="1" stroke="rgb(0,0,0)" />
	<line x1="85.7143" y1="78.5714" x2="92.8571" y2="78.5714" stroke-width="1" stroke="rgb(0,0,0)" />
	<line x1="85.7143" y1="78.5714" x2="92.8571" y2="71.4286" stroke-width="1" stroke="rgb(0,0,0)" />
	<line x1="85.7143" y1="64.2857" x2="85.7143" y2="71.4286" stroke-width="1" stroke="rgb(0,0,0)" />
	<line x1="85.7143" y1="57.1429" x2="85.7143" y2="64.2857" stroke-width="1" stroke="rgb(0,0,0)" />
	<line x1="85.7143" y1="50" x2="92.8571" y2="57.1429" stroke-width="1" stroke="rgb(0,0,0)" />
	<line x1="85.7143" y1="50" x2="92.8571" y2="50" stroke-width="1" stroke="rgb(0,0,0)" />
	<line x1="85.7143" y1="42.8571" x2="85.7143" y2="50" stroke-width="1" stroke="rgb(0,0,0)" />
	<line x1="85.7143" y1="42.8571" x2="92.8571" y2="42.8571" stroke-width="1" stroke="rgb(0,0,0)" />
	<line x1="85.7143" y1="35.7143" x2="85.7143" y2="42.8571" stroke-width="1" stroke="rgb(0,0,0)" />
	<line x1="85.7143" y1="35.7143" x2="92.8571" y2="35.7143" stroke-width="1" stroke="rgb(0,0,0)" />
	<line x1="92.8571" y1="92.8571" x2="92.8571" y2="100" stroke-width="1" stroke="rgb(0,0,0)" />
	<line x1="92.8571" y1="85.7143" x2="92.8571" y2="92.8571" stroke-width="1" stroke="rgb(0,0,0)" />
	<line x1="92.8571" y1="78.5714" x2="92.8571" y2="85.7143" stroke-width="1" stroke="rgb(0,0,0)" />
	<line x1="92.8571" y1="71.4286" x2="92.8571" y2="78.5714" stroke-width="1" stroke="rgb(0,0,0)" />
	<line x1="92.8571" y1="64.2857" x2="92.8571" y2="71.4286" stroke-width="1" stroke="rgb(0,0,0)" />
	<line x1="92.8571" y1="57.1429" x2="92.8571" y2="64.2857" stroke-width="1" stroke="rgb(0,0,0)" />
	<line x1="92.8571" y1="50" x2="92.8571" y2="57.1429" stroke-width="1" stroke="rgb(0,0,0)" />
	<line x1="92.8571" y1="42.8571" x2="92.8571" y2="50" stroke-width="1" stroke="rgb(0,0,0)" />
	<line x1="92.8571" y1="35.7143" x2="92.8571" y2="42.8571" stroke-width="1" stroke="rgb(0,0,0)" />
</svg>
