<?xml version="1.0" standalone="no" ?>
<!DOCTYPE svg PUBLIC "-//W3C//DTD SVG 1.1//EN" "http://www.w3.org/Graphics/SVG/1.1/DTD/svg11.dtd">
<svg width="100px" height="100px" xmlns="http://www.w3.org/2000/svg" version="1.1" >
	<line x1="0" y1="100" x2="10" y2="100" stroke-width="1" stroke="rgb(0,0,0)" />
	<line x1="0" y1="90" x2="0" y2="100" stroke-width="1" stroke="rgb(0,0,0)" />
	<line x1="0" y1="90" x2="10" y2="100" stroke-width="1" stroke="rgb(0,0,0)" />
	<line x1="0" y1="90" x2="10" y2="80" stroke-width="1" stroke="rgb(0,0,0)" />
	<line x1="0" y1="80" x2="0" y2="90" stroke-width="1" stroke="rgb(0,0,0)" />
	<line x1="0" y1="80" x2="10" y2="80" stroke-width="1" stroke="rgb(0,0,0)" />
	<line x1="0" y1="70" x2="0" y2="80" stroke-width="1" stroke="rgb(0,0,0)" />
	<line x1="0" y1="70" x2="10" y2="70" stroke-width="1" stroke="rgb(0,0,0)" />
	<line x1="0" y1="60" x2="0" y2="70" stroke-width="1" stroke="rgb(0,0,0)" />
	<line x1="0" y1="60" x2="10" y2="70" stroke-width="1" stroke="rgb(0,0,0)" />
	<line x1="0" y1="50" x2="0" y2="60" stroke-width="1" stroke="rgb(0,0,0)" />
	<line x1="0" y1="50" x2="10" y2="40" stroke-width="1" stroke="rgb(0,0,0)" />
	<line x1="0" y1="40" x2="0" y2="50" stroke-width="1" stroke="rgb(0,0,0)" />
	<line x1="0" y1="40" x2="10" y2="40" stroke-width="1" stroke="rgb(0,0,0)" />
	<line x1="0" y1="30" x2="0" y2="40" stroke-width="1" stroke="rgb(0,0,0)" />
	<line x1="0" y1="30" x2="10" y2="30" stroke-width="1" stroke="rgb(0,0,0)" />
	<line x1="0" y1="20" x2="0" y2="30" stroke-width="1" stroke="rgb(0,0,0)" />
	<line x1="0" y1="20" x2="10" y2="20" stroke-width="1" stroke="rgb(0,0,0)" />
	<line x1="0" y1="10" x2="0" y2="20" stroke-width="1" stroke="rgb(0,0,0)" />
	<line x1="0" y1="10" x2="10" y2="10" stroke-width="1" stroke="rgb(0,0,0)" />
	<line x1="10" y1="100" x2="20" y2="100" stroke-width="1" stroke="rgb(0,0,0)" />
	<line x1="10" y1="100" x2="20" y2="90" stroke-width="1" stroke="rgb(0,0,0)" />
	<line x1="10" y1="90" x2="20" y2="80" stroke-width="1" stroke="rgb(0,0,0)" />
	<line x1="10" y1="80" x2="20" y2="90" stroke-width="1" stroke="rgb(0,0,0)" />
	<line x1="10" y1="80" x2="20" y2="70" stroke-width="1" stroke="rgb(0,0,0)" />
	<line x1="10" y1="70" x2="10" y2="80" stroke-width="1" stroke="rgb(0,0,0)" />
	<line x1="10" y1="70" x2="20" y2="70" stroke-width="1" stroke="rgb(0,0,0)" />
	<line x1="10" y1="60" x2="20" y2="60" stroke-width="1" stroke="rgb(0,0,0)" />
	<line x1="10" y1="50" x2="10" y2="60" stroke-width="1" stroke="rgb(0,0,0)" />
	<line x1="10" y1="50" x2="20" y2="50" stroke-width="1" stroke="rgb(0,0,0)" />
	<line x1="10" y1="50" x2="20" y2="40" stroke-width="1" stroke="rgb(0,0,0)" />
	<line x1="10" y1="40" x2="20" y2="30" stroke-width="1" stroke="rgb(0,0,0)" />
	<line x1="10" y1="30" x2="10" y2="40" stroke-width="1" stroke="rgb(0,0,0)" />
	<line x1="10" y1="30" x2="20" y2="30" stroke-width="1" stroke="rgb(0,0,0)" />
	<line x1="10" y1="20" x2="10" y2="30" stroke-width="1" stroke="rgb(0,0,0)" />
	<line x1="10" y1="20" x2="20" y2="20" stroke-width="1" stroke="rgb(0,0,0)" />
	<line x1="10" y1="10" x2="10" y2="20" stroke-width="1" stroke="rgb(0,0,0)" />
	<line x1="10" y1="10" x2="20" y2="10" stroke-width="1" stroke="rgb(0,0,0)" />
	<line x1="20" y1="100" x2="30" y2="100" stroke-width="1" stroke="rgb(0,0,0)" />
	<line x1="20" y1="90" x2="20" y2="100" stroke-width="1" stroke="rgb(0,0,0)" />
	<line x1="20" y1="90" x2="30" y2="100" stroke-width="1" stroke="rgb(0,0,0)" />
	<line x1="20" y1="90" x2="30" y2="80" stroke-width="1" stroke="rgb(0,0,0)" />
	<line x1="20" y1="80" x2="30" y2="90" stroke-width="1" stroke="rgb(0,0,0)" />
	<line x1="20" y1="80" x2="30" y2="70" stroke-width="1" stroke="rgb(0,0,0)" />
	<line x1="20" y1="70" x2="30" y2="80" stroke-width="1" stroke="rgb(0,0,0)" />
	<line x1="20" y1="60" x2="30" y2="70" stroke-width="1" stroke="rgb(0,0,0)" />
	<line x1="20" y1="60" x2="30" y2="60" stroke-width="1" stroke="rgb(0,0,0)" />
	<line x1="20" y1="50" x2="20" y2="60" stroke-width="1" stroke="rgb(0,0,0)" />
	<line x1="20" y1="50" x2="30" y2="60" stroke-width="1" stroke="rgb(0,0,0)" />
	<line x1="20" y1="50" x2="30" y2="40" stroke-width="1" stroke="rgb(0,0,0)" />
	<line x1="20" y1="40" x2="20" y2="50" stroke-width="1" stroke="rgb(0,0,0)" />
	<line x1="20" y1="40" x2="30" y2="40" stroke-width="1" stroke="rgb(0,0,0)" />
	<line x1="20" y1="40" x2="30" y2="30" stroke-width="1" stroke="rgb(0,0,0)" />
	<line x1="20" y1="30" x2="30" y2="20" stroke-width="1" stroke="rgb(0,0,0)" />
	<line x1="20" y1="20" x2="20" y2="30" stroke-width="1" stroke="rgb(0,0,0)" />
	<line x1="20" y1="20" x2="30" y2="20" stroke-width="1" stroke="rgb(0,0,0)" />
	<line x1="20" y1="10" x2="20" y2="20" stroke-width="1" stroke="rgb(0,0,0)" />
	<line x1="20" y1="10" x2="30" y2="10" stroke-width="1" stroke="rgb(0,0,0)" />
	<line x1="30" y1="100" x2="40" y2="100" stroke-width="1" stroke="rgb(0,0,0)" />
	<line x1="30" y1="100" x2="40" y2="90" stroke-width="1" stroke="rgb(0,0,0)" />
	<line x1="30" y1="90" x2="40" y2="80" stroke-width="1" stroke="rgb(0,0,0)" />
	<line x1="30" y1="80" x2="40" y2="90" stroke-width="1" stroke="rgb(0,0,0)" />
	<line x1="30" y1="80" x2="40" y2="70" stroke-width="1" stroke="rgb(0,0,0)" />
	<line x1="30" y1="70" x2="40" y2="80" stroke-width="1" stroke="rgb(0,0,0)" />
	<line x1="30" y1="70" x2="40" y2="60" stroke-width="1" stroke="rgb(0,0,0)" />
	<line x1="30" y1="60" x2="30" y2="70" stroke-width="1" stroke="rgb(0,0,0)" />
	<line x1="30" y1="60" x2="40" y2="60" stroke-width="1" stroke="rgb(0,0,0)" />
	<line x1="30" y1="60" x2="40" y2="50" stroke-width="1" stroke="rgb(0,0,0)" />
	<line x1="30" y1="40" x2="40" y2="50" stroke-width="1" stroke="rgb(0,0,0)" />
	<line x1="30" y1="40" x2="40" y2="40" stroke-width="1" stroke="rgb(0,0,0)" />
	<line x1="30" y1="30" x2="30" y2="40" stroke-width="1" stroke="rgb(0,0,0)" />
	<line x1="30" y1="30" x2="40" y2="30" stroke-width="1" stroke="rgb(0,0,0)" />
	<line x1="30" y1="30" x2="40" y2="20" stroke-width="1" stroke="rgb(0,0,0)" />
	<line x1="30" y1="20" x2="40" y2="10" stroke-width="1" stroke="rgb(0,0,0)" />
	<line x1="30" y1="10" x2="30" y2="20" stroke-width="1" stroke="rgb(0,0,0)" />
	<line x1="30" y1="10" x2="40" y2="10" stroke-width="1" stroke="rgb(0,0,0)" />
	<line x1="40" y1="100" x2="50" y2="100" stroke-width="1" stroke="rgb(0,0,0)" />
	<line x1="40" y1="90" x2="40" y2="100" stroke-width="1" stroke="rgb(0,0,0)" />
	<line x1="40" y1="90" x2="50" y2="90" stroke-width="1" stroke="rgb(0,0,0)" />
	<line x1="40" y1="80" x2="50" y2="80" stroke-width="1" stroke="rgb(0,0,0)" />
	<line x1="40" y1="70" x2="50" y2="70" stroke-width="1" stroke="rgb(0,0,0)" />
	<line x1="40" y1="60" x2="50" y2="60" stroke-width="1" stroke="rgb(0,0,0)" />
	<line x1="40" y1="50" x2="40" y2="60" stroke-width="1" stroke="rgb(0,0,0)" />
	<line x1="40" y1="50" x2="50" y2="50" stroke-width="1" stroke="rgb(0,0,0)" />
	<line x1="40" y1="40" x2="40" y2="50" stroke-width="1" stroke="rgb(0,0,0)" />
	<line x1="40" y1="40" x2="50" y2="40" stroke-width="1" stroke="rgb(0,0,0)" />
	<line x1="40" y1="30" x2="40" y2="40" stroke-width="1" stroke="rgb(0,0,0)" />
	<line x1="40" y1="30" x2="50" y2="30" stroke-width="1" stroke="rgb(0,0,0)" />
	<line x1="40" y1="20" x2="40" y2="30" stroke-width="1" stroke="rgb(0,0,0)" />
	<line x1="40" y1="20" x2="50" y2="20" stroke-width="1" stroke="rgb(0,0,0)" />
	<line x1="40" y1="10" x2="50" y2="10" stroke-width="1" stroke="rgb(0,0,0)" />
	<line x1="50" y1="100" x2="60" y2="100" stroke-width="1" stroke="rgb(0,0,0)" />
	<line x1="50" y1="90" x2="50" y2="100" stroke-width="1" stroke="rgb(0,0,0)" />
	<line x1="50" y1="90" x2="60" y2="100" stroke-width="1" stroke="rgb(0,0,0)" />
	<line x1="50" y1="90" x2="60" y2="80" stroke-width="1" stroke="rgb(0,0,0)" />
	<line x1="50" y1="80" x2="60" y2="90" stroke-width="1" stroke="rgb(0,0,0)" />
	<line x1="50" y1="80" x2="60" y2="70" stroke-width="1" stroke="rgb(0,0,0)" />
	<line x1="50" y1="70" x2="60" y2="80" stroke-width="1" stroke="rgb(0,0,0)" />
	<line x1="50" y1="60" x2="60" y2="70" stroke-width="1" stroke="rgb(0,0,0)" />
	<line x1="50" y1="60" x2="60" y2="60" stroke-width="1" stroke="rgb(0,0,0)" />
	<line x1="50" y1="50" x2="50" y2="60" stroke-width="1" stroke="rgb(0,0,0)" />
	<line x1="50" y1="50" x2="60" y2="60" stroke-width="1" stroke="rgb(0,0,0)" />
	<line x1="50" y1="50" x2="60" y2="40" stroke-width="1" stroke="rgb(0,0,0)" />
	<line x1="50" y1="40" x2="50" y2="50" stroke-width="1" stroke="rgb(0,0,0)" />
	<line x1="50" y1="40" x2="60" y2="40" stroke-width="1" stroke="rgb(0,0,0)" />
	<line x1="50" y1="30" x2="50" y2="40" stroke-width="1" stroke="rgb(0,0,0)" />
	<line x1="50" y1="30" x2="60" y2="30" stroke-width="1" stroke="rgb(0,0,0)" />
	<line x1="50" y1="20" x2="50" y2="30" stroke-width="1" stroke="rgb(0,0,0)" />
	<line x1="50" y1="20" x2="60" y2="30" stroke-width="1" stroke="rgb(0,0,0)" />
	<line x1="50" y1="10" x2="60" y2="20" stroke-width="1" stroke="rgb(0,0,0)" />
	<line x1="50" y1="10" x2="60" y2="10" stroke-width="1" stroke="rgb(0,0,0)" />
	<line x1="60" y1="100" x2="70" y2="100" stroke-width="1" stroke="rgb(0,0,0)" />
	<line x1="60" y1="100" x2="70" y2="90" stroke-width="1" stroke="rgb(0,0,0)" />
	<line x1="60" y1="90" x2="70" y2="80" stroke-width="1" stroke="rgb(0,0,0)" />
	<line x1="60" y1="80" x2="70" y2="90" stroke-width="1" stroke="rgb(0,0,0)" />
	<line x1="60" y1="80" x2="70" y2="70" stroke-width="1" stroke="rgb(0,0,0)" />
	<line x1="60" y1="70" x2="70" y2="80" stroke-width="1" stroke="rgb(0,0,0)" />
	<line x1="60" y1="70" x2="70" y2="60" stroke-width="1" stroke="rgb(0,0,0)" />
	<line x1="60" y1="60" x2="60" y2="70" stroke-width="1" stroke="rgb(0,0,0)" />
	<line x1="60" y1="60" x2="70" y2="60" stroke-width="1" stroke="rgb(0,0,0)" />
	<line x1="60" y1="60" x2="70" y2="50" stroke-width="1" stroke="rgb(0,0,0)" />
	<line x1="60" y1="40" x2="70" y2="50" stroke-width="1" stroke="rgb(0,0,0)" />
	<line x1="60" y1="40" x2="70" y2="40" stroke-width="1" stroke="rgb(0,0,0)" />
	<line x1="60" y1="30" x2="60" y2="40" stroke-width="1" stroke="rgb(0,0,0)" />
	<line x1="60" y1="30" x2="70" y2="40" stroke-width="1" stroke="rgb(0,0,0)" />
	<line x1="60" y1="20" x2="70" y2="30" stroke-width="1" stroke="rgb(0,0,0)" />
	<line x1="60" y1="20" x2="70" y2="20" stroke-width="1" stroke="rgb(0,0,0)" />
	<line x1="60" y1="10" x2="60" y2="20" stroke-width="1" stroke="rgb(0,0,0)" />
	<line x1="60" y1="10" x2="70" y2="10" stroke-width="1" stroke="rgb(0,0,0)" />
	<line x1="70" y1="100" x2="80" y2="100" stroke-width="1" stroke="rgb(0,0,0)" />
	<line x1="70" y1="90" x2="70" y2="100" stroke-width="1" stroke="rgb(0,0,0)" />
	<line x1="70" y1="90" x2="80" y2="100" stroke-width="1" stroke="rgb(0,0,0)" />
	<line x1="70" y1="90" x2="80" y2="80" stroke-width="1" stroke="rgb(0,0,0)" />
	<line x1="70" y1="80" x2="80" y2="90" stroke-width="1" stroke="rgb(0,0,0)" />
	<line x1="70" y1="70" x2="80" y2="80" stroke-width="1" stroke="rgb(0,0,0)" />
	<line x1="70" y1="70" x2="80" y2="70" stroke-width="1" stroke="rgb(0,0,0)" />
	<line x1="70" y1="60" x2="80" y2="60" stroke-width="1" stroke="rgb(0,0,0)" />
	<line x1="70" y1="50" x2="70" y2="60" stroke-width="1" stroke="rgb(0,0,0)" />
	<line x1="70" y1="50" x2="80" y2="50" stroke-width="1" stroke="rgb(0,0,0)" />
	<line x1="70" y1="40" x2="70" y2="50" stroke-width="1" stroke="rgb(0,0,0)" />
	<line x1="70" y1="40" x2="80" y2="50" stroke-width="1" stroke="rgb(0,0,0)" />
	<line x1="70" y1="30" x2="80" y2="40" stroke-width="1" stroke="rgb(0,0,0)" />
	<line x1="70" y1="30" x2="80" y2="30" stroke-width="1" stroke="rgb(0,0,0)" />
	<line x1="70" y1="20" x2="70" y2="30" stroke-width="1" stroke="rgb(0,0,0)" />
	<line x1="70" y1="20" x2="80" y2="20" stroke-width="1" stroke="rgb(0,0,0)" />
	<line x1="70" y1="10" x2="70" y2="20" stroke-width="1" stroke="rgb(0,0,0)" />
	<line x1="70" y1="10" x2="80" y2="10" stroke-width="1" stroke="rgb(0,0,0)" />
	<line x1="80" y1="100" x2="90" y2="100" stroke-width="1" stroke="rgb(0,0,0)" />
	<line x1="80" y1="100" x2="90" y2="90" stroke-width="1" stroke="rgb(0,0,0)" />
	<line x1="80" y1="80" x2="90" y2="90" stroke-width="1" stroke="rgb(0,0,0)" />
	<line x1="80" y1="80" x2="90" y2="80" stroke-width="1" stroke="rgb(0,0,0)" />
	<line x1="80" y1="70" x2="80" y2="80" stroke-width="1" stroke="rgb(0,0,0)" />
	<line x1="80" y1="70" x2="90" y2="70" stroke-width="1" stroke="rgb(0,0,0)" />
	<line x1="80" y1="70" x2="90" y2="60" stroke-width="1" stroke="rgb(0,0,0)" />
	<line x1="80" y1="50" x2="80" y2="60" stroke-width="1" stroke="rgb(0,0,0)" />
	<line x1="80" y1="40" x2="90" y2="50" stroke-width="1" stroke="rgb(0,0,0)" />
	<line x1="80" y1="40" x2="90" y2="40" stroke-width="1" stroke="rgb(0,0,0)" />
	<line x1="80" y1="30" x2="80" y2="40" stroke-width="1" stroke="rgb(0,0,0)" />
	<line x1="80" y1="30" x2="90" y2="30" stroke-width="1" stroke="rgb(0,0,0)" />
	<line x1="80" y1="20" x2="80" y2="30" stroke-width="1" stroke="rgb(0,0,0)" />
	<line x1="80" y1="20" x2="90" y2="20" stroke-width="1" stroke="rgb(0,0,0)" />
	<line x1="80" y1="10" x2="80" y2="20" stroke-width="1" stroke="rgb(0,0,0)" />
	<line x1="80" y1="10" x2="90" y2="10" stroke-width="1" stroke="rgb(0,0,0)" />
	<line x1="90" y1="90" x2="90" y2="100" stroke-width="1" stroke="rgb(0,0,0)" />
	<line x1="90" y1="80" x2="90" y2="90" stroke-width="1" stroke="rgb(0,0,0)" />
	<line x1="90" y1="70" x2="90" y2="80" stroke-width="1" stroke="rgb(0,0,0)" />
	<line x1="90" y1="60" x2="90" y2="70" stroke-width="1" stroke="rgb(0,0,0)" />
	<line x1="90" y1="50" x2="90" y2="60" stroke-width="1" stroke="rgb(0,0,0)" />
	<line x1="90" y1="40" x2="90" y2="50" stroke-width="1" stroke="rgb(0,0,0)" />
	<line x1="90" y1="30" x2="90" y2="40" stroke-width="1" stroke="rgb(0,0,0)" />
	<line x1="90" y1="20" x2="90" y2="30" stroke-width="1" stroke="rgb(0,0,0)" />
	<line x1="90" y1="10" x2="90" y2="20" stroke-width="1" stroke="rgb(0,0,0)" />
</svg>
