<?xml version="1.0" standalone="no" ?>
<!DOCTYPE svg PUBLIC "-//W3C//DTD SVG 1.1//EN" "http://www.w3.org/Graphics/SVG/1.1/DTD/svg11.dtd">
<svg width="100px" height="100px" xmlns="http://www.w3.org/2000/svg" version="1.1" >
	<path d="M0,100 3.57143,100 7.14286,100 5.35714,94.6429 0,92.8571 0,96.4286 z " fill-rule="evenodd" fill="rgb(255,255,255)" stroke-width="0.5" stroke="rgb(255,255,255)" />
	<path d="M0,92.8571 5.35714,94.6429 8.92857,91.0714 8.92857,87.5 5.35714,83.9286 0,85.7143 0,89.2857 z " fill-rule="evenodd" fill="rgb(255,255,255)" stroke-width="0.5" stroke="rgb(255,255,255)" />
	<path d="M0,85.7143 5.35714,83.9286 7.14286,78.5714 0,78.5714 0,82.1429 z " fill-rule="evenodd" fill="rgb(255,255,255)" stroke-width="0.5" stroke="rgb(255,255,255)" />
	<path d="M0,78.5714 7.14286,78.5714 5.35714,73.2143 0,71.4286 0,75 z " fill-rule="evenodd" fill="rgb(255,255,255)" stroke-width="0.5" stroke="rgb(255,255,255)" />
	<path d="M0,71.4286 5.35714,73.2143 8.92857,69.6429 7.14286,64.2857 0,64.2857 0,67.8571 z " fill-rule="evenodd" fill="rgb(255,255,255)" stroke-width="0.5" stroke="rgb(255,255,255)" />
	<path d="M0,64.2857 7.14286,64.2857 7.14286,57.1429 0,57.1429 0,60.7143 z " fill-rule="evenodd" fill="rgb(255,255,255)" stroke-width="0.5" stroke="rgb(255,255,255)" />
	<path d="M0,57.1429 7.14286,57.1429 8.92857,51.7857 5.35714,48.2143 0,50 0,53.5714 z " fill-rule="evenodd" fill="rgb(255,255,255)" stroke-width="0.5" stroke="rgb(255,255,255)" />
	<path d="M0,50 5.35714,48.2143 7.14286,42.8571 0,42.8571 0,46.4286 z " fill-rule="evenodd" fill="rgb(255,255,255)" stroke-width="0.5" stroke="rgb(255,255,255)" />
	<path d="M0,42.8571 7.14286,42.8571 7.14286,35.7143 0,35.7143 0,39.2857 z " fill-rule="evenodd" fill="rgb(255,255,255)" stroke-width="0.5" stroke="rgb(255,255,255)" />
	<path d="M0,35.7143 7.14286,35.7143 7.14286,28.5714 3.57143,28.5714 0,28.5714 0,32.1429 z " fill-rule="evenodd" fill="rgb(255,255,255)" stroke-width="0.5" stroke="rgb(255,255,255)" />
	<path d="M7.14286,100 10.7143,100 14.2857,100 14.2857,92.8571 8.92857,91.0714 5.35714,94.6429 z " fill-rule="evenodd" fill="rgb(255,255,255)" stroke-width="0.5" stroke="rgb(255,255,255)" />
	<path d="M8.92857,91.0714 14.2857,92.8571 14.2857,85.7143 8.92857,87.5 z " fill-rule="evenodd" fill="rgb(0,0,0)" stroke-width="0.5" stroke="rgb(0,0,0)" />
	<path d="M5.35714,83.9286 8.92857,87.5 14.2857,85.7143 14.2857,78.5714 7.14286,78.5714 z " fill-rule="evenodd" fill="rgb(255,255,255)" stroke-width="0.5" stroke="rgb(255,255,255)" />
	<path d="M7.14286,78.5714 14.2857,78.5714 14.2857,71.4286 8.92857,69.6429 5.35714,73.2143 z " fill-rule="evenodd" fill="rgb(255,255,255)" stroke-width="0.5" stroke="rgb(255,255,255)" />
	<path d="M8.92857,69.6429 14.2857,71.4286 14.2857,64.2857 7.14286,64.2857 z " fill-rule="evenodd" fill="rgb(0,0,0)" stroke-width="0.5" stroke="rgb(0,0,0)" />
	<path d="M7.14286,64.2857 14.2857,64.2857 14.2857,57.1429 7.14286,57.1429 z " fill-rule="evenodd" fill="rgb(0,0,0)" stroke-width="0.5" stroke="rgb(0,0,0)" />
	<path d="M7.14286,57.1429 14.2857,57.1429 16.0714,51.7857 12.5,48.2143 8.92857,51.7857 z " fill-rule="evenodd" fill="rgb(0,0,0)" stroke-width="0.5" stroke="rgb(0,0,0)" />
	<path d="M5.35714,48.2143 8.92857,51.7857 12.5,48.2143 16.0714,44.6429 12.5,41.0714 7.14286,42.8571 z " fill-rule="evenodd" fill="rgb(255,255,255)" stroke-width="0.5" stroke="rgb(255,255,255)" />
	<path d="M7.14286,42.8571 12.5,41.0714 14.2857,35.7143 7.14286,35.7143 z " fill-rule="evenodd" fill="rgb(255,255,255)" stroke-width="0.5" stroke="rgb(255,255,255)" />
	<path d="M7.14286,35.7143 14.2857,35.7143 14.2857,28.5714 10.7143,28.5714 7.14286,28.5714 z " fill-rule="evenodd" fill="rgb(255,255,255)" stroke-width="0.5" stroke="rgb(255,255,255)" />
	<path d="M14.2857,100 17.8571,100 21.4286,100 23.2143,94.6429 19.6429,91.0714 14.2857,92.8571 z " fill-rule="evenodd" fill="rgb(255,255,255)" stroke-width="0.5" stroke="rgb(255,255,255)" />
	<path d="M14.2857,92.8571 19.6429,91.0714 23.2143,87.5 19.6429,83.9286 14.2857,85.7143 z " fill-rule="evenodd" fill="rgb(0,0,0)" stroke-width="0.5" stroke="rgb(0,0,0)" />
	<path d="M14.2857,85.7143 19.6429,83.9286 23.2143,80.3571 19.6429,76.7857 14.2857,78.5714 z " fill-rule="evenodd" fill="rgb(255,255,255)" stroke-width="0.5" stroke="rgb(255,255,255)" />
	<path d="M14.2857,78.5714 19.6429,76.7857 21.4286,71.4286 14.2857,71.4286 z " fill-rule="evenodd" fill="rgb(255,255,255)" stroke-width="0.5" stroke="rgb(255,255,255)" />
	<path d="M14.2857,71.4286 21.4286,71.4286 21.4286,64.2857 14.2857,64.2857 z " fill-rule="evenodd" fill="rgb(0,0,0)" stroke-width="0.5" stroke="rgb(0,0,0)" />
	<path d="M14.2857,64.2857 21.4286,64.2857 21.4286,57.1429 14.2857,57.1429 z " fill-rule="evenodd" fill="rgb(0,0,0)" stroke-width="0.5" stroke="rgb(0,0,0)" />
	<path d="M14.2857,57.1429 21.4286,57.1429 21.4286,50 16.0714,51.7857 z " fill-rule="evenodd" fill="rgb(0,0,0)" stroke-width="0.5" stroke="rgb(0,0,0)" />
	<path d="M12.5,48.2143 16.0714,51.7857 21.4286,50 21.4286,42.8571 16.0714,44.6429 z " fill-rule="evenodd" fill="rgb(0,0,0)" stroke-width="0.5" stroke="rgb(0,0,0)" />
	<path d="M12.5,41.0714 16.0714,44.6429 21.4286,42.8571 21.4286,35.7143 14.2857,35.7143 z " fill-rule="evenodd" fill="rgb(255,255,255)" stroke-width="0.5" stroke="rgb(255,255,255)" />
	<path d="M14.2857,35.7143 21.4286,35.7143 21.4286,28.5714 17.8571,28.5714 14.2857,28.5714 z " fill-rule="evenodd" fill="rgb(255,255,255)" stroke-width="0.5" stroke="rgb(255,255,255)" />
	<path d="M21.4286,100 25,100 28.5714,100 28.5714,92.8571 23.2143,94.6429 z " fill-rule="evenodd" fill="rgb(255,255,255)" stroke-width="0.5" stroke="rgb(255,255,255)" />
	<path d="M19.6429,91.0714 23.2143,94.6429 28.5714,92.8571 28.5714,85.7143 23.2143,87.5 z " fill-rule="evenodd" fill="rgb(255,255,255)" stroke-width="0.5" stroke="rgb(255,255,255)" />
	<path d="M19.6429,83.9286 23.2143,87.5 28.5714,85.7143 30.3571,80.3571 26.7857,76.7857 23.2143,80.3571 z " fill-rule="evenodd" fill="rgb(0,0,0)" stroke-width="0.5" stroke="rgb(0,0,0)" />
	<path d="M19.6429,76.7857 23.2143,80.3571 26.7857,76.7857 26.7857,73.2143 21.4286,71.4286 z " fill-rule="evenodd" fill="rgb(255,255,255)" stroke-width="0.5" stroke="rgb(255,255,255)" />
	<path d="M21.4286,71.4286 26.7857,73.2143 30.3571,69.6429 26.7857,66.0714 21.4286,64.2857 z " fill-rule="evenodd" fill="rgb(0,0,0)" stroke-width="0.5" stroke="rgb(0,0,0)" />
	<path d="M21.4286,64.2857 26.7857,66.0714 30.3571,62.5 30.3571,58.9286 26.7857,55.3571 21.4286,57.1429 z " fill-rule="evenodd" fill="rgb(0,0,0)" stroke-width="0.5" stroke="rgb(0,0,0)" />
	<path d="M21.4286,57.1429 26.7857,55.3571 28.5714,50 21.4286,50 z " fill-rule="evenodd" fill="rgb(0,0,0)" stroke-width="0.5" stroke="rgb(0,0,0)" />
	<path d="M21.4286,50 28.5714,50 28.5714,42.8571 21.4286,42.8571 z " fill-rule="evenodd" fill="rgb(0,0,0)" stroke-width="0.5" stroke="rgb(0,0,0)" />
	<path d="M21.4286,42.8571 28.5714,42.8571 28.5714,35.7143 21.4286,35.7143 z " fill-rule="evenodd" fill="rgb(255,255,255)" stroke-width="0.5" stroke="rgb(255,255,255)" />
	<path d="M21.4286,35.7143 28.5714,35.7143 28.5714,28.5714 25,28.5714 21.4286,28.5714 z " fill-rule="evenodd" fill="rgb(255,255,255)" stroke-width="0.5" stroke="rgb(255,255,255)" />
	<path d="M28.5714,100 32.1429,100 35.7143,100 35.7143,92.8571 28.5714,92.8571 z " fill-rule="evenodd" fill="rgb(255,255,255)" stroke-width="0.5" stroke="rgb(255,255,255)" />
	<path d="M28.5714,92.8571 35.7143,92.8571 37.5,87.5 33.9286,83.9286 28.5714,85.7143 z " fill-rule="evenodd" fill="rgb(255,255,255)" stroke-width="0.5" stroke="rgb(255,255,255)" />
	<path d="M28.5714,85.7143 33.9286,83.9286 37.5,80.3571 33.9286,76.7857 30.3571,80.3571 z " fill-rule="evenodd" fill="rgb(0,0,0)" stroke-width="0.5" stroke="rgb(0,0,0)" />
	<path d="M26.7857,76.7857 30.3571,80.3571 33.9286,76.7857 35.7143,71.4286 30.3571,69.6429 26.7857,73.2143 z " fill-rule="evenodd" fill="rgb(0,0,0)" stroke-width="0.5" stroke="rgb(0,0,0)" />
	<path d="M30.3571,69.6429 35.7143,71.4286 35.7143,64.2857 30.3571,62.5 26.7857,66.0714 z " fill-rule="evenodd" fill="rgb(0,0,0)" stroke-width="0.5" stroke="rgb(0,0,0)" />
	<path d="M30.3571,62.5 35.7143,64.2857 35.7143,57.1429 30.3571,58.9286 z " fill-rule="evenodd" fill="rgb(255,255,255)" stroke-width="0.5" stroke="rgb(255,255,255)" />
	<path d="M26.7857,55.3571 30.3571,58.9286 35.7143,57.1429 35.7143,50 28.5714,50 z " fill-rule="evenodd" fill="rgb(0,0,0)" stroke-width="0.5" stroke="rgb(0,0,0)" />
	<path d="M28.5714,50 35.7143,50 37.5,44.6429 33.9286,41.0714 28.5714,42.8571 z " fill-rule="evenodd" fill="rgb(0,0,0)" stroke-width="0.5" stroke="rgb(0,0,0)" />
	<path d="M28.5714,42.8571 33.9286,41.0714 37.5,37.5 33.9286,33.9286 28.5714,35.7143 z " fill-rule="evenodd" fill="rgb(255,255,255)" stroke-width="0.5" stroke="rgb(255,255,255)" />
	<path d="M28.5714,35.7143 33.9286,33.9286 35.7143,28.5714 32.1429,28.5714 28.5714,28.5714 z " fill-rule="evenodd" fill="rgb(255,255,255)" stroke-width="0.5" stroke="rgb(255,255,255)" />
	<path d="M35.7143,100 39.2857,100 42.8571,100 42.8571,92.8571 35.7143,92.8571 z " fill-rule="evenodd" fill="rgb(255,255,255)" stroke-width="0.5" stroke="rgb(255,255,255)" />
	<path d="M35.7143,92.8571 42.8571,92.8571 41.0714,87.5 37.5,87.5 z " fill-rule="evenodd" fill="rgb(255,255,255)" stroke-width="0.5" stroke="rgb(255,255,255)" />
	<path d="M33.9286,83.9286 37.5,87.5 41.0714,87.5 44.6429,83.9286 44.6429,80.3571 41.0714,76.7857 37.5,80.3571 z " fill-rule="evenodd" fill="rgb(255,255,255)" stroke-width="0.5" stroke="rgb(255,255,255)" />
	<path d="M33.9286,76.7857 37.5,80.3571 41.0714,76.7857 44.6429,73.2143 41.0714,69.6429 35.7143,71.4286 z " fill-rule="evenodd" fill="rgb(0,0,0)" stroke-width="0.5" stroke="rgb(0,0,0)" />
	<path d="M35.7143,71.4286 41.0714,69.6429 44.6429,66.0714 41.0714,62.5 35.7143,64.2857 z " fill-rule="evenodd" fill="rgb(0,0,0)" stroke-width="0.5" stroke="rgb(0,0,0)" />
	<path d="M35.7143,64.2857 41.0714,62.5 41.0714,58.9286 35.7143,57.1429 z " fill-rule="evenodd" fill="rgb(255,255,255)" stroke-width="0.5" stroke="rgb(255,255,255)" />
	<path d="M35.7143,57.1429 41.0714,58.9286 44.6429,55.3571 42.8571,50 35.7143,50 z " fill-rule="evenodd" fill="rgb(0,0,0)" stroke-width="0.5" stroke="rgb(0,0,0)" />
	<path d="M35.7143,50 42.8571,50 42.8571,42.8571 37.5,44.6429 z " fill-rule="evenodd" fill="rgb(0,0,0)" stroke-width="0.5" stroke="rgb(0,0,0)" />
	<path d="M33.9286,41.0714 37.5,44.6429 42.8571,42.8571 42.8571,35.7143 37.5,37.5 z " fill-rule="evenodd" fill="rgb(0,0,0)" stroke-width="0.5" stroke="rgb(0,0,0)" />
	<path d="M33.9286,33.9286 37.5,37.5 42.8571,35.7143 42.8571,28.5714 39.2857,28.5714 35.7143,28.5714 z " fill-rule="evenodd" fill="rgb(255,255,255)" stroke-width="0.5" stroke="rgb(255,255,255)" />
	<path d="M42.8571,100 46.4286,100 50,100 50,92.8571 42.8571,92.8571 z " fill-rule="evenodd" fill="rgb(255,255,255)" stroke-width="0.5" stroke="rgb(255,255,255)" />
	<path d="M42.8571,92.8571 50,92.8571 50,85.7143 44.6429,83.9286 41.0714,87.5 z " fill-rule="evenodd" fill="rgb(255,255,255)" stroke-width="0.5" stroke="rgb(255,255,255)" />
	<path d="M44.6429,83.9286 50,85.7143 50,78.5714 44.6429,80.3571 z " fill-rule="evenodd" fill="rgb(0,0,0)" stroke-width="0.5" stroke="rgb(0,0,0)" />
	<path d="M41.0714,76.7857 44.6429,80.3571 50,78.5714 50,71.4286 44.6429,73.2143 z " fill-rule="evenodd" fill="rgb(255,255,255)" stroke-width="0.5" stroke="rgb(255,255,255)" />
	<path d="M41.0714,69.6429 44.6429,73.2143 50,71.4286 50,64.2857 44.6429,66.0714 z " fill-rule="evenodd" fill="rgb(0,0,0)" stroke-width="0.5" stroke="rgb(0,0,0)" />
	<path d="M41.0714,62.5 44.6429,66.0714 50,64.2857 50,57.1429 44.6429,55.3571 41.0714,58.9286 z " fill-rule="evenodd" fill="rgb(0,0,0)" stroke-width="0.5" stroke="rgb(0,0,0)" />
	<path d="M44.6429,55.3571 50,57.1429 50,50 42.8571,50 z " fill-rule="evenodd" fill="rgb(0,0,0)" stroke-width="0.5" stroke="rgb(0,0,0)" />
	<path d="M42.8571,50 50,50 50,42.8571 42.8571,42.8571 z " fill-rule="evenodd" fill="rgb(0,0,0)" stroke-width="0.5" stroke="rgb(0,0,0)" />
	<path d="M42.8571,42.8571 50,42.8571 50,35.7143 42.8571,35.7143 z " fill-rule="evenodd" fill="rgb(0,0,0)" stroke-width="0.5" stroke="rgb(0,0,0)" />
	<path d="M42.8571,35.7143 50,35.7143 50,28.5714 46.4286,28.5714 42.8571,28.5714 z " fill-rule="evenodd" fill="rgb(255,255,255)" stroke-width="0.5" stroke="rgb(255,255,255)" />
	<path d="M50,100 53.5714,100 57.1429,100 57.1429,92.8571 50,92.8571 z " fill-rule="evenodd" fill="rgb(255,255,255)" stroke-width="0.5" stroke="rgb(255,255,255)" />
	<path d="M50,92.8571 57.1429,92.8571 58.9286,87.5 55.3571,83.9286 50,85.7143 z " fill-rule="evenodd" fill="rgb(255,255,255)" stroke-width="0.5" stroke="rgb(255,255,255)" />
	<path d="M50,85.7143 55.3571,83.9286 58.9286,80.3571 55.3571,76.7857 50,78.5714 z " fill-rule="evenodd" fill="rgb(0,0,0)" stroke-width="0.5" stroke="rgb(0,0,0)" />
	<path d="M50,78.5714 55.3571,76.7857 55.3571,73.2143 50,71.4286 z " fill-rule="evenodd" fill="rgb(255,255,255)" stroke-width="0.5" stroke="rgb(255,255,255)" />
	<path d="M50,71.4286 55.3571,73.2143 58.9286,69.6429 55.3571,66.0714 50,64.2857 z " fill-rule="evenodd" fill="rgb(0,0,0)" stroke-width="0.5" stroke="rgb(0,0,0)" />
	<path d="M50,64.2857 55.3571,66.0714 58.9286,62.5 58.9286,58.9286 55.3571,55.3571 50,57.1429 z " fill-rule="evenodd" fill="rgb(0,0,0)" stroke-width="0.5" stroke="rgb(0,0,0)" />
	<path d="M50,57.1429 55.3571,55.3571 57.1429,50 50,50 z " fill-rule="evenodd" fill="rgb(0,0,0)" stroke-width="0.5" stroke="rgb(0,0,0)" />
	<path d="M50,50 57.1429,50 57.1429,42.8571 50,42.8571 z " fill-rule="evenodd" fill="rgb(0,0,0)" stroke-width="0.5" stroke="rgb(0,0,0)" />
	<path d="M50,42.8571 57.1429,42.8571 57.1429,35.7143 50,35.7143 z " fill-rule="evenodd" fill="rgb(0,0,0)" stroke-width="0.5" stroke="rgb(0,0,0)" />
	<path d="M50,35.7143 57.1429,35.7143 57.1429,28.5714 53.5714,28.5714 50,28.5714 z " fill-rule="evenodd" fill="rgb(255,255,255)" stroke-width="0.5" stroke="rgb(255,255,255)" />
	<path d="M57.1429,100 60.7143,100 64.2857,100 64.2857,92.8571 57.1429,92.8571 z " fill-rule="evenodd" fill="rgb(255,255,255)" stroke-width="0.5" stroke="rgb(255,255,255)" />
	<path d="M57.1429,92.8571 64.2857,92.8571 62.5,87.5 58.9286,87.5 z " fill-rule="evenodd" fill="rgb(255,255,255)" stroke-width="0.5" stroke="rgb(255,255,255)" />
	<path d="M55.3571,83.9286 58.9286,87.5 62.5,87.5 66.0714,83.9286 62.5,80.3571 58.9286,80.3571 z " fill-rule="evenodd" fill="rgb(255,255,255)" stroke-width="0.5" stroke="rgb(255,255,255)" />
	<path d="M55.3571,76.7857 58.9286,80.3571 62.5,80.3571 66.0714,76.7857 64.2857,71.4286 58.9286,69.6429 55.3571,73.2143 z " fill-rule="evenodd" fill="rgb(0,0,0)" stroke-width="0.5" stroke="rgb(0,0,0)" />
	<path d="M58.9286,69.6429 64.2857,71.4286 64.2857,64.2857 58.9286,62.5 55.3571,66.0714 z " fill-rule="evenodd" fill="rgb(0,0,0)" stroke-width="0.5" stroke="rgb(0,0,0)" />
	<path d="M58.9286,62.5 64.2857,64.2857 64.2857,57.1429 58.9286,58.9286 z " fill-rule="evenodd" fill="rgb(255,255,255)" stroke-width="0.5" stroke="rgb(255,255,255)" />
	<path d="M55.3571,55.3571 58.9286,58.9286 64.2857,57.1429 64.2857,50 57.1429,50 z " fill-rule="evenodd" fill="rgb(0,0,0)" stroke-width="0.5" stroke="rgb(0,0,0)" />
	<path d="M57.1429,50 64.2857,50 62.5,44.6429 57.1429,42.8571 z " fill-rule="evenodd" fill="rgb(0,0,0)" stroke-width="0.5" stroke="rgb(0,0,0)" />
	<path d="M57.1429,42.8571 62.5,44.6429 66.0714,41.0714 62.5,37.5 57.1429,35.7143 z " fill-rule="evenodd" fill="rgb(0,0,0)" stroke-width="0.5" stroke="rgb(0,0,0)" />
	<path d="M57.1429,35.7143 62.5,37.5 66.0714,33.9286 64.2857,28.5714 60.7143,28.5714 57.1429,28.5714 z " fill-rule="evenodd" fill="rgb(255,255,255)" stroke-width="0.5" stroke="rgb(255,255,255)" />
	<path d="M64.2857,100 67.8571,100 71.4286,100 71.4286,92.8571 64.2857,92.8571 z " fill-rule="evenodd" fill="rgb(255,255,255)" stroke-width="0.5" stroke="rgb(255,255,255)" />
	<path d="M64.2857,92.8571 71.4286,92.8571 71.4286,85.7143 66.0714,83.9286 62.5,87.5 z " fill-rule="evenodd" fill="rgb(255,255,255)" stroke-width="0.5" stroke="rgb(255,255,255)" />
	<path d="M66.0714,83.9286 71.4286,85.7143 69.6429,80.3571 66.0714,76.7857 62.5,80.3571 z " fill-rule="evenodd" fill="rgb(0,0,0)" stroke-width="0.5" stroke="rgb(0,0,0)" />
	<path d="M66.0714,76.7857 69.6429,80.3571 73.2143,76.7857 73.2143,73.2143 69.6429,69.6429 64.2857,71.4286 z " fill-rule="evenodd" fill="rgb(0,0,0)" stroke-width="0.5" stroke="rgb(0,0,0)" />
	<path d="M64.2857,71.4286 69.6429,69.6429 73.2143,66.0714 69.6429,62.5 64.2857,64.2857 z " fill-rule="evenodd" fill="rgb(0,0,0)" stroke-width="0.5" stroke="rgb(0,0,0)" />
	<path d="M64.2857,64.2857 69.6429,62.5 69.6429,58.9286 64.2857,57.1429 z " fill-rule="evenodd" fill="rgb(255,255,255)" stroke-width="0.5" stroke="rgb(255,255,255)" />
	<path d="M64.2857,57.1429 69.6429,58.9286 73.2143,55.3571 71.4286,50 64.2857,50 z " fill-rule="evenodd" fill="rgb(0,0,0)" stroke-width="0.5" stroke="rgb(0,0,0)" />
	<path d="M64.2857,50 71.4286,50 71.4286,42.8571 66.0714,41.0714 62.5,44.6429 z " fill-rule="evenodd" fill="rgb(0,0,0)" stroke-width="0.5" stroke="rgb(0,0,0)" />
	<path d="M66.0714,41.0714 71.4286,42.8571 71.4286,35.7143 66.0714,33.9286 62.5,37.5 z " fill-rule="evenodd" fill="rgb(255,255,255)" stroke-width="0.5" stroke="rgb(255,255,255)" />
	<path d="M66.0714,33.9286 71.4286,35.7143 71.4286,28.5714 67.8571,28.5714 64.2857,28.5714 z " fill-rule="evenodd" fill="rgb(255,255,255)" stroke-width="0.5" stroke="rgb(255,255,255)" />
	<path d="M71.4286,100 75,100 78.5714,100 76.7857,94.6429 71.4286,92.8571 z " fill-rule="evenodd" fill="rgb(255,255,255)" stroke-width="0.5" stroke="rgb(255,255,255)" />
	<path d="M71.4286,92.8571 76.7857,94.6429 80.3571,91.0714 76.7857,87.5 71.4286,85.7143 z " fill-rule="evenodd" fill="rgb(255,255,255)" stroke-width="0.5" stroke="rgb(255,255,255)" />
	<path d="M71.4286,85.7143 76.7857,87.5 80.3571,83.9286 76.7857,80.3571 73.2143,76.7857 69.6429,80.3571 z " fill-rule="evenodd" fill="rgb(0,0,0)" stroke-width="0.5" stroke="rgb(0,0,0)" />
	<path d="M73.2143,76.7857 76.7857,80.3571 80.3571,76.7857 78.5714,71.4286 73.2143,73.2143 z " fill-rule="evenodd" fill="rgb(255,255,255)" stroke-width="0.5" stroke="rgb(255,255,255)" />
	<path d="M69.6429,69.6429 73.2143,73.2143 78.5714,71.4286 78.5714,64.2857 73.2143,66.0714 z " fill-rule="evenodd" fill="rgb(0,0,0)" stroke-width="0.5" stroke="rgb(0,0,0)" />
	<path d="M69.6429,62.5 73.2143,66.0714 78.5714,64.2857 78.5714,57.1429 73.2143,55.3571 69.6429,58.9286 z " fill-rule="evenodd" fill="rgb(0,0,0)" stroke-width="0.5" stroke="rgb(0,0,0)" />
	<path d="M73.2143,55.3571 78.5714,57.1429 78.5714,50 71.4286,50 z " fill-rule="evenodd" fill="rgb(0,0,0)" stroke-width="0.5" stroke="rgb(0,0,0)" />
	<path d="M71.4286,50 78.5714,50 78.5714,42.8571 71.4286,42.8571 z " fill-rule="evenodd" fill="rgb(0,0,0)" stroke-width="0.5" stroke="rgb(0,0,0)" />
	<path d="M71.4286,42.8571 78.5714,42.8571 78.5714,35.7143 71.4286,35.7143 z " fill-rule="evenodd" fill="rgb(255,255,255)" stroke-width="0.5" stroke="rgb(255,255,255)" />
	<path d="M71.4286,35.7143 78.5714,35.7143 78.5714,28.5714 75,28.5714 71.4286,28.5714 z " fill-rule="evenodd" fill="rgb(255,255,255)" stroke-width="0.5" stroke="rgb(255,255,255)" />
	<path d="M78.5714,100 82.1429,100 85.7143,100 85.7143,92.8571 80.3571,91.0714 76.7857,94.6429 z " fill-rule="evenodd" fill="rgb(255,255,255)" stroke-width="0.5" stroke="rgb(255,255,255)" />
	<path d="M80.3571,91.0714 85.7143,92.8571 85.7143,85.7143 80.3571,83.9286 76.7857,87.5 z " fill-rule="evenodd" fill="rgb(0,0,0)" stroke-width="0.5" stroke="rgb(0,0,0)" />
	<path d="M80.3571,83.9286 85.7143,85.7143 85.7143,78.5714 80.3571,76.7857 76.7857,80.3571 z " fill-rule="evenodd" fill="rgb(255,255,255)" stroke-width="0.5" stroke="rgb(255,255,255)" />
	<path d="M80.3571,76.7857 85.7143,78.5714 85.7143,71.4286 78.5714,71.4286 z " fill-rule="evenodd" fill="rgb(255,255,255)" stroke-width="0.5" stroke="rgb(255,255,255)" />
	<path d="M78.5714,71.4286 85.7143,71.4286 85.7143,64.2857 78.5714,64.2857 z " fill-rule="evenodd" fill="rgb(0,0,0)" stroke-width="0.5" stroke="rgb(0,0,0)" />
	<path d="M78.5714,64.2857 85.7143,64.2857 85.7143,57.1429 78.5714,57.1429 z " fill-rule="evenodd" fill="rgb(0,0,0)" stroke-width="0.5" stroke="rgb(0,0,0)" />
	<path d="M78.5714,57.1429 85.7143,57.1429 83.9286,51.7857 78.5714,50 z " fill-rule="evenodd" fill="rgb(0,0,0)" stroke-width="0.5" stroke="rgb(0,0,0)" />
	<path d="M78.5714,50 83.9286,51.7857 87.5,48.2143 83.9286,44.6429 78.5714,42.8571 z " fill-rule="evenodd" fill="rgb(0,0,0)" stroke-width="0.5" stroke="rgb(0,0,0)" />
	<path d="M78.5714,42.8571 83.9286,44.6429 87.5,41.0714 85.7143,35.7143 78.5714,35.7143 z " fill-rule="evenodd" fill="rgb(255,255,255)" stroke-width="0.5" stroke="rgb(255,255,255)" />
	<path d="M78.5714,35.7143 85.7143,35.7143 85.7143,28.5714 82.1429,28.5714 78.5714,28.5714 z " fill-rule="evenodd" fill="rgb(255,255,255)" stroke-width="0.5" stroke="rgb(255,255,255)" />
	<path d="M85.7143,100 89.2857,100 92.8571,100 94.6429,94.6429 91.0714,91.0714 85.7143,92.8571 z " fill-rule="evenodd" fill="rgb(255,255,255)" stroke-width="0.5" stroke="rgb(255,255,255)" />
	<path d="M85.7143,92.8571 91.0714,91.0714 91.0714,87.5 85.7143,85.7143 z " fill-rule="evenodd" fill="rgb(0,0,0)" stroke-width="0.5" stroke="rgb(0,0,0)" />
	<path d="M85.7143,85.7143 91.0714,87.5 94.6429,83.9286 92.8571,78.5714 85.7143,78.5714 z " fill-rule="evenodd" fill="rgb(255,255,255)" stroke-width="0.5" stroke="rgb(255,255,255)" />
	<path d="M85.7143,78.5714 92.8571,78.5714 94.6429,73.2143 91.0714,69.6429 85.7143,71.4286 z " fill-rule="evenodd" fill="rgb(255,255,255)" stroke-width="0.5" stroke="rgb(255,255,255)" />
	<path d="M85.7143,71.4286 91.0714,69.6429 92.8571,64.2857 85.7143,64.2857 z " fill-rule="evenodd" fill="rgb(0,0,0)" stroke-width="0.5" stroke="rgb(0,0,0)" />
	<path d="M85.7143,64.2857 92.8571,64.2857 92.8571,57.1429 85.7143,57.1429 z " fill-rule="evenodd" fill="rgb(0,0,0)" stroke-width="0.5" stroke="rgb(0,0,0)" />
	<path d="M85.7143,57.1429 92.8571,57.1429 91.0714,51.7857 87.5,48.2143 83.9286,51.7857 z " fill-rule="evenodd" fill="rgb(0,0,0)" stroke-width="0.5" stroke="rgb(0,0,0)" />
	<path d="M87.5,48.2143 91.0714,51.7857 94.6429,48.2143 92.8571,42.8571 87.5,41.0714 83.9286,44.6429 z " fill-rule="evenodd" fill="rgb(255,255,255)" stroke-width="0.5" stroke="rgb(255,255,255)" />
	<path d="M87.5,41.0714 92.8571,42.8571 92.8571,35.7143 85.7143,35.7143 z " fill-rule="evenodd" fill="rgb(255,255,255)" stroke-width="0.5" stroke="rgb(255,255,255)" />
	<path d="M85.7143,35.7143 92.8571,35.7143 92.8571,28.5714 89.2857,28.5714 85.7143,28.5714 z " fill-rule="evenodd" fill="rgb(255,255,255)" stroke-width="0.5" stroke="rgb(255,255,255)" />
	<path d="M92.8571,100 96.4286,100 100,100 100,96.4286 100,92.8571 94.6429,94.6429 z " fill-rule="evenodd" fill="rgb(255,255,255)" stroke-width="0.5" stroke="rgb(255,255,255)" />
	<path d="M91.0714,91.0714 94.6429,94.6429 100,92.8571 100,89.2857 100,85.7143 94.6429,83.9286 91.0714,87.5 z " fill-rule="evenodd" fill="rgb(255,255,255)" stroke-width="0.5" stroke="rgb(255,255,255)" />
	<path d="M94.6429,83.9286 100,85.7143 100,82.1429 100,78.5714 92.8571,78.5714 z " fill-rule="evenodd" fill="rgb(255,255,255)" stroke-width="0.5" stroke="rgb(255,255,255)" />
	<path d="M92.8571,78.5714 100,78.5714 100,75 100,71.4286 94.6429,73.2143 z " fill-rule="evenodd" fill="rgb(255,255,255)" stroke-width="0.5" stroke="rgb(255,255,255)" />
	<path d="M91.0714,69.6429 94.6429,73.2143 100,71.4286 100,67.8571 100,64.2857 92.8571,64.2857 z " fill-rule="evenodd" fill="rgb(255,255,255)" stroke-width="0.5" stroke="rgb(255,255,255)" />
	<path d="M92.8571,64.2857 100,64.2857 100,60.7143 100,57.1429 92.8571,57.1429 z " fill-rule="evenodd" fill="rgb(255,255,255)" stroke-width="0.5" stroke="rgb(255,255,255)" />
	<path d="M92.8571,57.1429 100,57.1429 100,53.5714 100,50 94.6429,48.2143 91.0714,51.7857 z " fill-rule="evenodd" fill="rgb(255,255,255)" stroke-width="0.5" stroke="rgb(255,255,255)" />
	<path d="M94.6429,48.2143 100,50 100,46.4286 100,42.8571 92.8571,42.8571 z " fill-rule="evenodd" fill="rgb(255,255,255)" stroke-width="0.5" stroke="rgb(255,255,255)" />
	<path d="M92.8571,42.8571 100,42.8571 100,39.2857 100,35.7143 92.8571,35.7143 z " fill-rule="evenodd" fill="rgb(255,255,255)" stroke-width="0.5" stroke="rgb(255,255,255)" />
	<path d="M92.8571,35.7143 100,35.7143 100,32.1429 100,28.5714 96.4286,28.5714 92.8571,28.5714 z " fill-rule="evenodd" fill="rgb(255,255,255)" stroke-width="0.5" stroke="rgb(255,255,255)" />
</svg>
